  0
SECTION
  2
BLOCKS
  0
ENDSEC
  0
SECTION
  2
ENTITIES
  0
LINE
  8
0
 10
60
 20
20
 11
-60
 21
20
  0
LINE
  8
0
 10
-60
 20
20
 11
-60
 21
-20
  0
LINE
  8
0
 10
-60
 20
-20
 11
60
 21
-20
  0
LINE
  8
0
 10
60
 20
-20
 11
60
 21
20
  0
LINE
  8
0
 10
-0.0523529
 20
8.75044
 11
-0.104691
 21
8.75182
  0
LINE
  8
0
 10
-0.104691
 20
8.75182
 11
-0.156998
 21
8.7541
  0
LINE
  8
0
 10
-0.156998
 20
8.7541
 11
-0.209259
 21
8.75729
  0
LINE
  8
0
 10
-0.209259
 20
8.75729
 11
-0.261459
 21
8.76141
  0
LINE
  8
0
 10
-0.261459
 20
8.76141
 11
-0.313583
 21
8.76643
  0
LINE
  8
0
 10
-0.313583
 20
8.76643
 11
-0.365601
 21
8.77235
  0
LINE
  8
0
 10
-0.365601
 20
8.77235
 11
-0.417511
 21
8.77919
  0
LINE
  8
0
 10
-0.417511
 20
8.77919
 11
-0.469299
 21
8.78693
  0
LINE
  8
0
 10
-0.469299
 20
8.78693
 11
-0.520935
 21
8.79556
  0
LINE
  8
0
 10
-0.520935
 20
8.79556
 11
-0.572418
 21
8.80511
  0
LINE
  8
0
 10
-0.572418
 20
8.80511
 11
-0.623734
 21
8.81555
  0
LINE
  8
0
 10
-0.623734
 20
8.81555
 11
-0.67485
 21
8.82689
  0
LINE
  8
0
 10
-0.67485
 20
8.82689
 11
-0.725754
 21
8.83911
  0
LINE
  8
0
 10
-0.725754
 20
8.83911
 11
-0.776443
 21
8.85222
  0
LINE
  8
0
 10
-0.776443
 20
8.85222
 11
-0.826904
 21
8.86621
  0
LINE
  8
0
 10
-0.826904
 20
8.86621
 11
-0.877106
 21
8.88107
  0
LINE
  8
0
 10
-0.877106
 20
8.88107
 11
-0.927048
 21
8.89682
  0
LINE
  8
0
 10
-0.927048
 20
8.89682
 11
-0.9767
 21
8.91344
  0
LINE
  8
0
 10
-0.9767
 20
8.91344
 11
-1.02605
 21
8.93091
  0
LINE
  8
0
 10
-1.02605
 20
8.93091
 11
-1.0751
 21
8.94925
  0
LINE
  8
0
 10
-1.0751
 20
8.94925
 11
-1.12381
 21
8.96844
  0
LINE
  8
0
 10
-1.12381
 20
8.96844
 11
-1.17218
 21
8.98848
  0
LINE
  8
0
 10
-1.17218
 20
8.98848
 11
-1.2202
 21
9.00935
  0
LINE
  8
0
 10
-1.2202
 20
9.00935
 11
-1.26785
 21
9.03107
  0
LINE
  8
0
 10
-1.26785
 20
9.03107
 11
-1.31511
 21
9.0536
  0
LINE
  8
0
 10
-1.31511
 20
9.0536
 11
-1.36197
 21
9.07697
  0
LINE
  8
0
 10
-1.36197
 20
9.07697
 11
-1.4084
 21
9.10115
  0
LINE
  8
0
 10
-1.4084
 20
9.10115
 11
-1.45442
 21
9.12613
  0
LINE
  8
0
 10
-1.45442
 20
9.12613
 11
-1.5
 21
9.15192
  0
LINE
  8
0
 10
-1.5
 20
9.15192
 11
-1.5451
 21
9.1785
  0
LINE
  8
0
 10
-1.5451
 20
9.1785
 11
-1.58975
 21
9.20584
  0
LINE
  8
0
 10
-1.58975
 20
9.20584
 11
-1.63391
 21
9.23398
  0
LINE
  8
0
 10
-1.63391
 20
9.23398
 11
-1.67757
 21
9.26288
  0
LINE
  8
0
 10
-1.67757
 20
9.26288
 11
-1.72072
 21
9.29254
  0
LINE
  8
0
 10
-1.72072
 20
9.29254
 11
-1.76335
 21
9.32294
  0
LINE
  8
0
 10
-1.76335
 20
9.32294
 11
-1.80544
 21
9.35408
  0
LINE
  8
0
 10
-1.80544
 20
9.35408
 11
-1.84697
 21
9.38596
  0
LINE
  8
0
 10
-1.84697
 20
9.38596
 11
-1.88795
 21
9.41855
  0
LINE
  8
0
 10
-1.88795
 20
9.41855
 11
-1.92836
 21
9.45186
  0
LINE
  8
0
 10
-1.92836
 20
9.45186
 11
-1.96817
 21
9.48587
  0
LINE
  8
0
 10
-1.96817
 20
9.48587
 11
-2.00739
 21
9.52055
  0
LINE
  8
0
 10
-2.00739
 20
9.52055
 11
-2.04599
 21
9.55594
  0
LINE
  8
0
 10
-2.04599
 20
9.55594
 11
-2.08397
 21
9.59198
  0
LINE
  8
0
 10
-2.08397
 20
9.59198
 11
-2.12131
 21
9.62868
  0
LINE
  8
0
 10
-2.12131
 20
9.62868
 11
-2.158
 21
9.66602
  0
LINE
  8
0
 10
-2.158
 20
9.66602
 11
-2.19405
 21
9.70399
  0
LINE
  8
0
 10
-2.19405
 20
9.70399
 11
-2.22943
 21
9.7426
  0
LINE
  8
0
 10
-2.22943
 20
9.7426
 11
-2.26411
 21
9.78181
  0
LINE
  8
0
 10
-2.26411
 20
9.78181
 11
-2.29813
 21
9.82162
  0
LINE
  8
0
 10
-2.29813
 20
9.82162
 11
-2.33144
 21
9.86203
  0
LINE
  8
0
 10
-2.33144
 20
9.86203
 11
-2.36403
 21
9.90302
  0
LINE
  8
0
 10
-2.36403
 20
9.90302
 11
-2.3959
 21
9.94455
  0
LINE
  8
0
 10
-2.3959
 20
9.94455
 11
-2.42705
 21
9.98663
  0
LINE
  8
0
 10
-2.42705
 20
9.98663
 11
-2.45744
 21
10.0293
  0
LINE
  8
0
 10
-2.45744
 20
10.0293
 11
-2.48711
 21
10.0724
  0
LINE
  8
0
 10
-2.48711
 20
10.0724
 11
-2.51601
 21
10.1161
  0
LINE
  8
0
 10
-2.51601
 20
10.1161
 11
-2.54414
 21
10.1602
  0
LINE
  8
0
 10
-2.54414
 20
10.1602
 11
-2.57149
 21
10.2049
  0
LINE
  8
0
 10
-2.57149
 20
10.2049
 11
-2.59807
 21
10.25
  0
LINE
  8
0
 10
-2.59807
 20
10.25
 11
-2.62386
 21
10.2956
  0
LINE
  8
0
 10
-2.62386
 20
10.2956
 11
-2.64883
 21
10.3416
  0
LINE
  8
0
 10
-2.64883
 20
10.3416
 11
-2.67302
 21
10.388
  0
LINE
  8
0
 10
-2.67302
 20
10.388
 11
-2.69638
 21
10.4349
  0
LINE
  8
0
 10
-2.69638
 20
10.4349
 11
-2.71892
 21
10.4821
  0
LINE
  8
0
 10
-2.71892
 20
10.4821
 11
-2.74063
 21
10.5298
  0
LINE
  8
0
 10
-2.74063
 20
10.5298
 11
-2.76151
 21
10.5778
  0
LINE
  8
0
 10
-2.76151
 20
10.5778
 11
-2.78154
 21
10.6262
  0
LINE
  8
0
 10
-2.78154
 20
10.6262
 11
-2.80074
 21
10.6749
  0
LINE
  8
0
 10
-2.80074
 20
10.6749
 11
-2.81908
 21
10.7239
  0
LINE
  8
0
 10
-2.81908
 20
10.7239
 11
-2.83655
 21
10.7733
  0
LINE
  8
0
 10
-2.83655
 20
10.7733
 11
-2.85316
 21
10.8229
  0
LINE
  8
0
 10
-2.85316
 20
10.8229
 11
-2.86891
 21
10.8729
  0
LINE
  8
0
 10
-2.86891
 20
10.8729
 11
-2.88377
 21
10.9231
  0
LINE
  8
0
 10
-2.88377
 20
10.9231
 11
-2.89777
 21
10.9735
  0
LINE
  8
0
 10
-2.89777
 20
10.9735
 11
-2.91087
 21
11.0242
  0
LINE
  8
0
 10
-2.91087
 20
11.0242
 11
-2.9231
 21
11.0751
  0
LINE
  8
0
 10
-2.9231
 20
11.0751
 11
-2.93443
 21
11.1263
  0
LINE
  8
0
 10
-2.93443
 20
11.1263
 11
-2.94487
 21
11.1776
  0
LINE
  8
0
 10
-2.94487
 20
11.1776
 11
-2.95442
 21
11.229
  0
LINE
  8
0
 10
-2.95442
 20
11.229
 11
-2.96306
 21
11.2807
  0
LINE
  8
0
 10
-2.96306
 20
11.2807
 11
-2.97079
 21
11.3325
  0
LINE
  8
0
 10
-2.97079
 20
11.3325
 11
-2.97763
 21
11.3844
  0
LINE
  8
0
 10
-2.97763
 20
11.3844
 11
-2.98355
 21
11.4364
  0
LINE
  8
0
 10
-2.98355
 20
11.4364
 11
-2.98857
 21
11.4885
  0
LINE
  8
0
 10
-2.98857
 20
11.4885
 11
-2.99269
 21
11.5407
  0
LINE
  8
0
 10
-2.99269
 20
11.5407
 11
-2.99588
 21
11.593
  0
LINE
  8
0
 10
-2.99588
 20
11.593
 11
-2.99817
 21
11.6453
  0
LINE
  8
0
 10
-2.99817
 20
11.6453
 11
-2.99954
 21
11.6976
  0
LINE
  8
0
 10
-2.99954
 20
11.6976
 11
-3
 21
11.75
  0
LINE
  8
0
 10
-3
 20
11.75
 11
-2.99954
 21
11.8024
  0
LINE
  8
0
 10
-2.99954
 20
11.8024
 11
-2.99817
 21
11.8547
  0
LINE
  8
0
 10
-2.99817
 20
11.8547
 11
-2.99588
 21
11.907
  0
LINE
  8
0
 10
-2.99588
 20
11.907
 11
-2.99269
 21
11.9593
  0
LINE
  8
0
 10
-2.99269
 20
11.9593
 11
-2.98857
 21
12.0115
  0
LINE
  8
0
 10
-2.98857
 20
12.0115
 11
-2.98355
 21
12.0636
  0
LINE
  8
0
 10
-2.98355
 20
12.0636
 11
-2.97763
 21
12.1156
  0
LINE
  8
0
 10
-2.97763
 20
12.1156
 11
-2.97079
 21
12.1675
  0
LINE
  8
0
 10
-2.97079
 20
12.1675
 11
-2.96306
 21
12.2193
  0
LINE
  8
0
 10
-2.96306
 20
12.2193
 11
-2.95442
 21
12.2709
  0
LINE
  8
0
 10
-2.95442
 20
12.2709
 11
-2.94487
 21
12.3224
  0
LINE
  8
0
 10
-2.94487
 20
12.3224
 11
-2.93443
 21
12.3737
  0
LINE
  8
0
 10
-2.93443
 20
12.3737
 11
-2.9231
 21
12.4249
  0
LINE
  8
0
 10
-2.9231
 20
12.4249
 11
-2.91087
 21
12.4758
  0
LINE
  8
0
 10
-2.91087
 20
12.4758
 11
-2.89777
 21
12.5264
  0
LINE
  8
0
 10
-2.89777
 20
12.5264
 11
-2.88377
 21
12.5769
  0
LINE
  8
0
 10
-2.88377
 20
12.5769
 11
-2.86891
 21
12.6271
  0
LINE
  8
0
 10
-2.86891
 20
12.6271
 11
-2.85316
 21
12.677
  0
LINE
  8
0
 10
-2.85316
 20
12.677
 11
-2.83655
 21
12.7267
  0
LINE
  8
0
 10
-2.83655
 20
12.7267
 11
-2.81908
 21
12.776
  0
LINE
  8
0
 10
-2.81908
 20
12.776
 11
-2.80074
 21
12.8251
  0
LINE
  8
0
 10
-2.80074
 20
12.8251
 11
-2.78154
 21
12.8738
  0
LINE
  8
0
 10
-2.78154
 20
12.8738
 11
-2.76151
 21
12.9222
  0
LINE
  8
0
 10
-2.76151
 20
12.9222
 11
-2.74063
 21
12.9702
  0
LINE
  8
0
 10
-2.74063
 20
12.9702
 11
-2.71892
 21
13.0179
  0
LINE
  8
0
 10
-2.71892
 20
13.0179
 11
-2.69638
 21
13.0651
  0
LINE
  8
0
 10
-2.69638
 20
13.0651
 11
-2.67302
 21
13.112
  0
LINE
  8
0
 10
-2.67302
 20
13.112
 11
-2.64883
 21
13.1584
  0
LINE
  8
0
 10
-2.64883
 20
13.1584
 11
-2.62386
 21
13.2044
  0
LINE
  8
0
 10
-2.62386
 20
13.2044
 11
-2.59807
 21
13.25
  0
LINE
  8
0
 10
-2.59807
 20
13.25
 11
-2.57149
 21
13.2951
  0
LINE
  8
0
 10
-2.57149
 20
13.2951
 11
-2.54414
 21
13.3398
  0
LINE
  8
0
 10
-2.54414
 20
13.3398
 11
-2.51601
 21
13.3839
  0
LINE
  8
0
 10
-2.51601
 20
13.3839
 11
-2.48711
 21
13.4276
  0
LINE
  8
0
 10
-2.48711
 20
13.4276
 11
-2.45744
 21
13.4707
  0
LINE
  8
0
 10
-2.45744
 20
13.4707
 11
-2.42705
 21
13.5134
  0
LINE
  8
0
 10
-2.42705
 20
13.5134
 11
-2.3959
 21
13.5554
  0
LINE
  8
0
 10
-2.3959
 20
13.5554
 11
-2.36403
 21
13.597
  0
LINE
  8
0
 10
-2.36403
 20
13.597
 11
-2.33144
 21
13.638
  0
LINE
  8
0
 10
-2.33144
 20
13.638
 11
-2.29813
 21
13.6784
  0
LINE
  8
0
 10
-2.29813
 20
13.6784
 11
-2.26411
 21
13.7182
  0
LINE
  8
0
 10
-2.26411
 20
13.7182
 11
-2.22943
 21
13.7574
  0
LINE
  8
0
 10
-2.22943
 20
13.7574
 11
-2.19405
 21
13.796
  0
LINE
  8
0
 10
-2.19405
 20
13.796
 11
-2.158
 21
13.834
  0
LINE
  8
0
 10
-2.158
 20
13.834
 11
-2.12131
 21
13.8713
  0
LINE
  8
0
 10
-2.12131
 20
13.8713
 11
-2.08397
 21
13.908
  0
LINE
  8
0
 10
-2.08397
 20
13.908
 11
-2.04599
 21
13.944
  0
LINE
  8
0
 10
-2.04599
 20
13.944
 11
-2.00739
 21
13.9794
  0
LINE
  8
0
 10
-2.00739
 20
13.9794
 11
-1.96817
 21
14.0141
  0
LINE
  8
0
 10
-1.96817
 20
14.0141
 11
-1.92836
 21
14.0481
  0
LINE
  8
0
 10
-1.92836
 20
14.0481
 11
-1.88795
 21
14.0814
  0
LINE
  8
0
 10
-1.88795
 20
14.0814
 11
-1.84697
 21
14.114
  0
LINE
  8
0
 10
-1.84697
 20
14.114
 11
-1.80544
 21
14.1459
  0
LINE
  8
0
 10
-1.80544
 20
14.1459
 11
-1.76335
 21
14.177
  0
LINE
  8
0
 10
-1.76335
 20
14.177
 11
-1.72072
 21
14.2074
  0
LINE
  8
0
 10
-1.72072
 20
14.2074
 11
-1.67757
 21
14.2371
  0
LINE
  8
0
 10
-1.67757
 20
14.2371
 11
-1.63391
 21
14.266
  0
LINE
  8
0
 10
-1.63391
 20
14.266
 11
-1.58975
 21
14.2941
  0
LINE
  8
0
 10
-1.58975
 20
14.2941
 11
-1.5451
 21
14.3215
  0
LINE
  8
0
 10
-1.5451
 20
14.3215
 11
-1.5
 21
14.3481
  0
LINE
  8
0
 10
-1.5
 20
14.3481
 11
-1.45442
 21
14.3739
  0
LINE
  8
0
 10
-1.45442
 20
14.3739
 11
-1.4084
 21
14.3988
  0
LINE
  8
0
 10
-1.4084
 20
14.3988
 11
-1.36197
 21
14.423
  0
LINE
  8
0
 10
-1.36197
 20
14.423
 11
-1.31511
 21
14.4464
  0
LINE
  8
0
 10
-1.31511
 20
14.4464
 11
-1.26785
 21
14.4689
  0
LINE
  8
0
 10
-1.26785
 20
14.4689
 11
-1.2202
 21
14.4906
  0
LINE
  8
0
 10
-1.2202
 20
14.4906
 11
-1.17218
 21
14.5115
  0
LINE
  8
0
 10
-1.17218
 20
14.5115
 11
-1.12381
 21
14.5315
  0
LINE
  8
0
 10
-1.12381
 20
14.5315
 11
-1.0751
 21
14.5507
  0
LINE
  8
0
 10
-1.0751
 20
14.5507
 11
-1.02605
 21
14.5691
  0
LINE
  8
0
 10
-1.02605
 20
14.5691
 11
-0.9767
 21
14.5865
  0
LINE
  8
0
 10
-0.9767
 20
14.5865
 11
-0.927048
 21
14.6032
  0
LINE
  8
0
 10
-0.927048
 20
14.6032
 11
-0.877106
 21
14.6189
  0
LINE
  8
0
 10
-0.877106
 20
14.6189
 11
-0.826904
 21
14.6338
  0
LINE
  8
0
 10
-0.826904
 20
14.6338
 11
-0.776443
 21
14.6478
  0
LINE
  8
0
 10
-0.776443
 20
14.6478
 11
-0.725754
 21
14.6609
  0
LINE
  8
0
 10
-0.725754
 20
14.6609
 11
-0.67485
 21
14.6731
  0
LINE
  8
0
 10
-0.67485
 20
14.6731
 11
-0.623734
 21
14.6844
  0
LINE
  8
0
 10
-0.623734
 20
14.6844
 11
-0.572418
 21
14.6949
  0
LINE
  8
0
 10
-0.572418
 20
14.6949
 11
-0.520935
 21
14.7044
  0
LINE
  8
0
 10
-0.520935
 20
14.7044
 11
-0.469299
 21
14.7131
  0
LINE
  8
0
 10
-0.469299
 20
14.7131
 11
-0.417511
 21
14.7208
  0
LINE
  8
0
 10
-0.417511
 20
14.7208
 11
-0.365601
 21
14.7276
  0
LINE
  8
0
 10
-0.365601
 20
14.7276
 11
-0.313583
 21
14.7336
  0
LINE
  8
0
 10
-0.313583
 20
14.7336
 11
-0.261459
 21
14.7386
  0
LINE
  8
0
 10
-0.261459
 20
14.7386
 11
-0.209259
 21
14.7427
  0
LINE
  8
0
 10
-0.209259
 20
14.7427
 11
-0.156998
 21
14.7459
  0
LINE
  8
0
 10
-0.156998
 20
14.7459
 11
-0.104691
 21
14.7482
  0
LINE
  8
0
 10
-0.104691
 20
14.7482
 11
-0.0523529
 21
14.7495
  0
LINE
  8
0
 10
-0.0523529
 20
14.7495
 11
0
 21
14.75
  0
LINE
  8
0
 10
0
 20
14.75
 11
0.0523529
 21
14.7495
  0
LINE
  8
0
 10
0.0523529
 20
14.7495
 11
0.104691
 21
14.7482
  0
LINE
  8
0
 10
0.104691
 20
14.7482
 11
0.156998
 21
14.7459
  0
LINE
  8
0
 10
0.156998
 20
14.7459
 11
0.209259
 21
14.7427
  0
LINE
  8
0
 10
0.209259
 20
14.7427
 11
0.261459
 21
14.7386
  0
LINE
  8
0
 10
0.261459
 20
14.7386
 11
0.313583
 21
14.7336
  0
LINE
  8
0
 10
0.313583
 20
14.7336
 11
0.365601
 21
14.7276
  0
LINE
  8
0
 10
0.365601
 20
14.7276
 11
0.417511
 21
14.7208
  0
LINE
  8
0
 10
0.417511
 20
14.7208
 11
0.469299
 21
14.7131
  0
LINE
  8
0
 10
0.469299
 20
14.7131
 11
0.520935
 21
14.7044
  0
LINE
  8
0
 10
0.520935
 20
14.7044
 11
0.572418
 21
14.6949
  0
LINE
  8
0
 10
0.572418
 20
14.6949
 11
0.623734
 21
14.6844
  0
LINE
  8
0
 10
0.623734
 20
14.6844
 11
0.67485
 21
14.6731
  0
LINE
  8
0
 10
0.67485
 20
14.6731
 11
0.725754
 21
14.6609
  0
LINE
  8
0
 10
0.725754
 20
14.6609
 11
0.776443
 21
14.6478
  0
LINE
  8
0
 10
0.776443
 20
14.6478
 11
0.826904
 21
14.6338
  0
LINE
  8
0
 10
0.826904
 20
14.6338
 11
0.877106
 21
14.6189
  0
LINE
  8
0
 10
0.877106
 20
14.6189
 11
0.927048
 21
14.6032
  0
LINE
  8
0
 10
0.927048
 20
14.6032
 11
0.9767
 21
14.5865
  0
LINE
  8
0
 10
0.9767
 20
14.5865
 11
1.02605
 21
14.5691
  0
LINE
  8
0
 10
1.02605
 20
14.5691
 11
1.0751
 21
14.5507
  0
LINE
  8
0
 10
1.0751
 20
14.5507
 11
1.12381
 21
14.5315
  0
LINE
  8
0
 10
1.12381
 20
14.5315
 11
1.17218
 21
14.5115
  0
LINE
  8
0
 10
1.17218
 20
14.5115
 11
1.2202
 21
14.4906
  0
LINE
  8
0
 10
1.2202
 20
14.4906
 11
1.26785
 21
14.4689
  0
LINE
  8
0
 10
1.26785
 20
14.4689
 11
1.31511
 21
14.4464
  0
LINE
  8
0
 10
1.31511
 20
14.4464
 11
1.36197
 21
14.423
  0
LINE
  8
0
 10
1.36197
 20
14.423
 11
1.4084
 21
14.3988
  0
LINE
  8
0
 10
1.4084
 20
14.3988
 11
1.45442
 21
14.3739
  0
LINE
  8
0
 10
1.45442
 20
14.3739
 11
1.5
 21
14.3481
  0
LINE
  8
0
 10
1.5
 20
14.3481
 11
1.5451
 21
14.3215
  0
LINE
  8
0
 10
1.5451
 20
14.3215
 11
1.58975
 21
14.2941
  0
LINE
  8
0
 10
1.58975
 20
14.2941
 11
1.63391
 21
14.266
  0
LINE
  8
0
 10
1.63391
 20
14.266
 11
1.67757
 21
14.2371
  0
LINE
  8
0
 10
1.67757
 20
14.2371
 11
1.72072
 21
14.2074
  0
LINE
  8
0
 10
1.72072
 20
14.2074
 11
1.76335
 21
14.177
  0
LINE
  8
0
 10
1.76335
 20
14.177
 11
1.80544
 21
14.1459
  0
LINE
  8
0
 10
1.80544
 20
14.1459
 11
1.84697
 21
14.114
  0
LINE
  8
0
 10
1.84697
 20
14.114
 11
1.88795
 21
14.0814
  0
LINE
  8
0
 10
1.88795
 20
14.0814
 11
1.92836
 21
14.0481
  0
LINE
  8
0
 10
1.92836
 20
14.0481
 11
1.96817
 21
14.0141
  0
LINE
  8
0
 10
1.96817
 20
14.0141
 11
2.00739
 21
13.9794
  0
LINE
  8
0
 10
2.00739
 20
13.9794
 11
2.04599
 21
13.944
  0
LINE
  8
0
 10
2.04599
 20
13.944
 11
2.08397
 21
13.908
  0
LINE
  8
0
 10
2.08397
 20
13.908
 11
2.12131
 21
13.8713
  0
LINE
  8
0
 10
2.12131
 20
13.8713
 11
2.158
 21
13.834
  0
LINE
  8
0
 10
2.158
 20
13.834
 11
2.19405
 21
13.796
  0
LINE
  8
0
 10
2.19405
 20
13.796
 11
2.22943
 21
13.7574
  0
LINE
  8
0
 10
2.22943
 20
13.7574
 11
2.26411
 21
13.7182
  0
LINE
  8
0
 10
2.26411
 20
13.7182
 11
2.29813
 21
13.6784
  0
LINE
  8
0
 10
2.29813
 20
13.6784
 11
2.33144
 21
13.638
  0
LINE
  8
0
 10
2.33144
 20
13.638
 11
2.36403
 21
13.597
  0
LINE
  8
0
 10
2.36403
 20
13.597
 11
2.3959
 21
13.5554
  0
LINE
  8
0
 10
2.3959
 20
13.5554
 11
2.42705
 21
13.5134
  0
LINE
  8
0
 10
2.42705
 20
13.5134
 11
2.45744
 21
13.4707
  0
LINE
  8
0
 10
2.45744
 20
13.4707
 11
2.48711
 21
13.4276
  0
LINE
  8
0
 10
2.48711
 20
13.4276
 11
2.51601
 21
13.3839
  0
LINE
  8
0
 10
2.51601
 20
13.3839
 11
2.54414
 21
13.3398
  0
LINE
  8
0
 10
2.54414
 20
13.3398
 11
2.57149
 21
13.2951
  0
LINE
  8
0
 10
2.57149
 20
13.2951
 11
2.59807
 21
13.25
  0
LINE
  8
0
 10
2.59807
 20
13.25
 11
2.62386
 21
13.2044
  0
LINE
  8
0
 10
2.62386
 20
13.2044
 11
2.64883
 21
13.1584
  0
LINE
  8
0
 10
2.64883
 20
13.1584
 11
2.67302
 21
13.112
  0
LINE
  8
0
 10
2.67302
 20
13.112
 11
2.69638
 21
13.0651
  0
LINE
  8
0
 10
2.69638
 20
13.0651
 11
2.71892
 21
13.0179
  0
LINE
  8
0
 10
2.71892
 20
13.0179
 11
2.74063
 21
12.9702
  0
LINE
  8
0
 10
2.74063
 20
12.9702
 11
2.76151
 21
12.9222
  0
LINE
  8
0
 10
2.76151
 20
12.9222
 11
2.78154
 21
12.8738
  0
LINE
  8
0
 10
2.78154
 20
12.8738
 11
2.80074
 21
12.8251
  0
LINE
  8
0
 10
2.80074
 20
12.8251
 11
2.81908
 21
12.776
  0
LINE
  8
0
 10
2.81908
 20
12.776
 11
2.83655
 21
12.7267
  0
LINE
  8
0
 10
2.83655
 20
12.7267
 11
2.85316
 21
12.677
  0
LINE
  8
0
 10
2.85316
 20
12.677
 11
2.86891
 21
12.6271
  0
LINE
  8
0
 10
2.86891
 20
12.6271
 11
2.88377
 21
12.5769
  0
LINE
  8
0
 10
2.88377
 20
12.5769
 11
2.89777
 21
12.5264
  0
LINE
  8
0
 10
2.89777
 20
12.5264
 11
2.91087
 21
12.4758
  0
LINE
  8
0
 10
2.91087
 20
12.4758
 11
2.9231
 21
12.4249
  0
LINE
  8
0
 10
2.9231
 20
12.4249
 11
2.93443
 21
12.3737
  0
LINE
  8
0
 10
2.93443
 20
12.3737
 11
2.94487
 21
12.3224
  0
LINE
  8
0
 10
2.94487
 20
12.3224
 11
2.95442
 21
12.2709
  0
LINE
  8
0
 10
2.95442
 20
12.2709
 11
2.96306
 21
12.2193
  0
LINE
  8
0
 10
2.96306
 20
12.2193
 11
2.97079
 21
12.1675
  0
LINE
  8
0
 10
2.97079
 20
12.1675
 11
2.97763
 21
12.1156
  0
LINE
  8
0
 10
2.97763
 20
12.1156
 11
2.98355
 21
12.0636
  0
LINE
  8
0
 10
2.98355
 20
12.0636
 11
2.98857
 21
12.0115
  0
LINE
  8
0
 10
2.98857
 20
12.0115
 11
2.99269
 21
11.9593
  0
LINE
  8
0
 10
2.99269
 20
11.9593
 11
2.99588
 21
11.907
  0
LINE
  8
0
 10
2.99588
 20
11.907
 11
2.99817
 21
11.8547
  0
LINE
  8
0
 10
2.99817
 20
11.8547
 11
2.99954
 21
11.8024
  0
LINE
  8
0
 10
2.99954
 20
11.8024
 11
3
 21
11.75
  0
LINE
  8
0
 10
3
 20
11.75
 11
2.99954
 21
11.6976
  0
LINE
  8
0
 10
2.99954
 20
11.6976
 11
2.99817
 21
11.6453
  0
LINE
  8
0
 10
2.99817
 20
11.6453
 11
2.99588
 21
11.593
  0
LINE
  8
0
 10
2.99588
 20
11.593
 11
2.99269
 21
11.5407
  0
LINE
  8
0
 10
2.99269
 20
11.5407
 11
2.98857
 21
11.4885
  0
LINE
  8
0
 10
2.98857
 20
11.4885
 11
2.98355
 21
11.4364
  0
LINE
  8
0
 10
2.98355
 20
11.4364
 11
2.97763
 21
11.3844
  0
LINE
  8
0
 10
2.97763
 20
11.3844
 11
2.97079
 21
11.3325
  0
LINE
  8
0
 10
2.97079
 20
11.3325
 11
2.96306
 21
11.2807
  0
LINE
  8
0
 10
2.96306
 20
11.2807
 11
2.95442
 21
11.229
  0
LINE
  8
0
 10
2.95442
 20
11.229
 11
2.94487
 21
11.1776
  0
LINE
  8
0
 10
2.94487
 20
11.1776
 11
2.93443
 21
11.1263
  0
LINE
  8
0
 10
2.93443
 20
11.1263
 11
2.9231
 21
11.0751
  0
LINE
  8
0
 10
2.9231
 20
11.0751
 11
2.91087
 21
11.0242
  0
LINE
  8
0
 10
2.91087
 20
11.0242
 11
2.89777
 21
10.9735
  0
LINE
  8
0
 10
2.89777
 20
10.9735
 11
2.88377
 21
10.9231
  0
LINE
  8
0
 10
2.88377
 20
10.9231
 11
2.86891
 21
10.8729
  0
LINE
  8
0
 10
2.86891
 20
10.8729
 11
2.85316
 21
10.8229
  0
LINE
  8
0
 10
2.85316
 20
10.8229
 11
2.83655
 21
10.7733
  0
LINE
  8
0
 10
2.83655
 20
10.7733
 11
2.81908
 21
10.7239
  0
LINE
  8
0
 10
2.81908
 20
10.7239
 11
2.80074
 21
10.6749
  0
LINE
  8
0
 10
2.80074
 20
10.6749
 11
2.78154
 21
10.6262
  0
LINE
  8
0
 10
2.78154
 20
10.6262
 11
2.76151
 21
10.5778
  0
LINE
  8
0
 10
2.76151
 20
10.5778
 11
2.74063
 21
10.5298
  0
LINE
  8
0
 10
2.74063
 20
10.5298
 11
2.71892
 21
10.4821
  0
LINE
  8
0
 10
2.71892
 20
10.4821
 11
2.69638
 21
10.4349
  0
LINE
  8
0
 10
2.69638
 20
10.4349
 11
2.67302
 21
10.388
  0
LINE
  8
0
 10
2.67302
 20
10.388
 11
2.64883
 21
10.3416
  0
LINE
  8
0
 10
2.64883
 20
10.3416
 11
2.62386
 21
10.2956
  0
LINE
  8
0
 10
2.62386
 20
10.2956
 11
2.59807
 21
10.25
  0
LINE
  8
0
 10
2.59807
 20
10.25
 11
2.57149
 21
10.2049
  0
LINE
  8
0
 10
2.57149
 20
10.2049
 11
2.54414
 21
10.1602
  0
LINE
  8
0
 10
2.54414
 20
10.1602
 11
2.51601
 21
10.1161
  0
LINE
  8
0
 10
2.51601
 20
10.1161
 11
2.48711
 21
10.0724
  0
LINE
  8
0
 10
2.48711
 20
10.0724
 11
2.45744
 21
10.0293
  0
LINE
  8
0
 10
2.45744
 20
10.0293
 11
2.42705
 21
9.98663
  0
LINE
  8
0
 10
2.42705
 20
9.98663
 11
2.3959
 21
9.94455
  0
LINE
  8
0
 10
2.3959
 20
9.94455
 11
2.36403
 21
9.90302
  0
LINE
  8
0
 10
2.36403
 20
9.90302
 11
2.33144
 21
9.86203
  0
LINE
  8
0
 10
2.33144
 20
9.86203
 11
2.29813
 21
9.82162
  0
LINE
  8
0
 10
2.29813
 20
9.82162
 11
2.26411
 21
9.78181
  0
LINE
  8
0
 10
2.26411
 20
9.78181
 11
2.22943
 21
9.7426
  0
LINE
  8
0
 10
2.22943
 20
9.7426
 11
2.19405
 21
9.70399
  0
LINE
  8
0
 10
2.19405
 20
9.70399
 11
2.158
 21
9.66602
  0
LINE
  8
0
 10
2.158
 20
9.66602
 11
2.12131
 21
9.62868
  0
LINE
  8
0
 10
2.12131
 20
9.62868
 11
2.08397
 21
9.59198
  0
LINE
  8
0
 10
2.08397
 20
9.59198
 11
2.04599
 21
9.55594
  0
LINE
  8
0
 10
2.04599
 20
9.55594
 11
2.00739
 21
9.52055
  0
LINE
  8
0
 10
2.00739
 20
9.52055
 11
1.96817
 21
9.48587
  0
LINE
  8
0
 10
1.96817
 20
9.48587
 11
1.92836
 21
9.45186
  0
LINE
  8
0
 10
1.92836
 20
9.45186
 11
1.88795
 21
9.41855
  0
LINE
  8
0
 10
1.88795
 20
9.41855
 11
1.84697
 21
9.38596
  0
LINE
  8
0
 10
1.84697
 20
9.38596
 11
1.80544
 21
9.35408
  0
LINE
  8
0
 10
1.80544
 20
9.35408
 11
1.76335
 21
9.32294
  0
LINE
  8
0
 10
1.76335
 20
9.32294
 11
1.72072
 21
9.29254
  0
LINE
  8
0
 10
1.72072
 20
9.29254
 11
1.67757
 21
9.26288
  0
LINE
  8
0
 10
1.67757
 20
9.26288
 11
1.63391
 21
9.23398
  0
LINE
  8
0
 10
1.63391
 20
9.23398
 11
1.58975
 21
9.20584
  0
LINE
  8
0
 10
1.58975
 20
9.20584
 11
1.5451
 21
9.1785
  0
LINE
  8
0
 10
1.5451
 20
9.1785
 11
1.5
 21
9.15192
  0
LINE
  8
0
 10
1.5
 20
9.15192
 11
1.45442
 21
9.12613
  0
LINE
  8
0
 10
1.45442
 20
9.12613
 11
1.4084
 21
9.10115
  0
LINE
  8
0
 10
1.4084
 20
9.10115
 11
1.36197
 21
9.07697
  0
LINE
  8
0
 10
1.36197
 20
9.07697
 11
1.31511
 21
9.0536
  0
LINE
  8
0
 10
1.31511
 20
9.0536
 11
1.26785
 21
9.03107
  0
LINE
  8
0
 10
1.26785
 20
9.03107
 11
1.2202
 21
9.00935
  0
LINE
  8
0
 10
1.2202
 20
9.00935
 11
1.17218
 21
8.98848
  0
LINE
  8
0
 10
1.17218
 20
8.98848
 11
1.12381
 21
8.96844
  0
LINE
  8
0
 10
1.12381
 20
8.96844
 11
1.0751
 21
8.94925
  0
LINE
  8
0
 10
1.0751
 20
8.94925
 11
1.02605
 21
8.93091
  0
LINE
  8
0
 10
1.02605
 20
8.93091
 11
0.9767
 21
8.91344
  0
LINE
  8
0
 10
0.9767
 20
8.91344
 11
0.927048
 21
8.89682
  0
LINE
  8
0
 10
0.927048
 20
8.89682
 11
0.877106
 21
8.88107
  0
LINE
  8
0
 10
0.877106
 20
8.88107
 11
0.826904
 21
8.86621
  0
LINE
  8
0
 10
0.826904
 20
8.86621
 11
0.776443
 21
8.85222
  0
LINE
  8
0
 10
0.776443
 20
8.85222
 11
0.725754
 21
8.83911
  0
LINE
  8
0
 10
0.725754
 20
8.83911
 11
0.67485
 21
8.82689
  0
LINE
  8
0
 10
0.67485
 20
8.82689
 11
0.623734
 21
8.81555
  0
LINE
  8
0
 10
0.623734
 20
8.81555
 11
0.572418
 21
8.80511
  0
LINE
  8
0
 10
0.572418
 20
8.80511
 11
0.520935
 21
8.79556
  0
LINE
  8
0
 10
0.520935
 20
8.79556
 11
0.469299
 21
8.78693
  0
LINE
  8
0
 10
0.469299
 20
8.78693
 11
0.417511
 21
8.77919
  0
LINE
  8
0
 10
0.417511
 20
8.77919
 11
0.365601
 21
8.77235
  0
LINE
  8
0
 10
0.365601
 20
8.77235
 11
0.313583
 21
8.76643
  0
LINE
  8
0
 10
0.313583
 20
8.76643
 11
0.261459
 21
8.76141
  0
LINE
  8
0
 10
0.261459
 20
8.76141
 11
0.209259
 21
8.75729
  0
LINE
  8
0
 10
0.209259
 20
8.75729
 11
0.156998
 21
8.7541
  0
LINE
  8
0
 10
0.156998
 20
8.7541
 11
0.104691
 21
8.75182
  0
LINE
  8
0
 10
0.104691
 20
8.75182
 11
0.0523529
 21
8.75044
  0
LINE
  8
0
 10
0.0523529
 20
8.75044
 11
0
 21
8.75
  0
LINE
  8
0
 10
0
 20
8.75
 11
-0.0523529
 21
8.75044
  0
LINE
  8
0
 10
8.22382
 20
6.75021
 11
8.19765
 21
6.7509
  0
LINE
  8
0
 10
8.19765
 20
6.7509
 11
8.17149
 21
6.75204
  0
LINE
  8
0
 10
8.17149
 20
6.75204
 11
8.14536
 21
6.75365
  0
LINE
  8
0
 10
8.14536
 20
6.75365
 11
8.11926
 21
6.75571
  0
LINE
  8
0
 10
8.11926
 20
6.75571
 11
8.0932
 21
6.75821
  0
LINE
  8
0
 10
8.0932
 20
6.75821
 11
8.06718
 21
6.76117
  0
LINE
  8
0
 10
8.06718
 20
6.76117
 11
8.04123
 21
6.76459
  0
LINE
  8
0
 10
8.04123
 20
6.76459
 11
8.01534
 21
6.76846
  0
LINE
  8
0
 10
8.01534
 20
6.76846
 11
7.98952
 21
6.77278
  0
LINE
  8
0
 10
7.98952
 20
6.77278
 11
7.96378
 21
6.77756
  0
LINE
  8
0
 10
7.96378
 20
6.77756
 11
7.93813
 21
6.78278
  0
LINE
  8
0
 10
7.93813
 20
6.78278
 11
7.91257
 21
6.78844
  0
LINE
  8
0
 10
7.91257
 20
6.78844
 11
7.88712
 21
6.79456
  0
LINE
  8
0
 10
7.88712
 20
6.79456
 11
7.86177
 21
6.8011
  0
LINE
  8
0
 10
7.86177
 20
6.8011
 11
7.83653
 21
6.80811
  0
LINE
  8
0
 10
7.83653
 20
6.80811
 11
7.81143
 21
6.81554
  0
LINE
  8
0
 10
7.81143
 20
6.81554
 11
7.78647
 21
6.82341
  0
LINE
  8
0
 10
7.78647
 20
6.82341
 11
7.76164
 21
6.83171
  0
LINE
  8
0
 10
7.76164
 20
6.83171
 11
7.73697
 21
6.84045
  0
LINE
  8
0
 10
7.73697
 20
6.84045
 11
7.71243
 21
6.84962
  0
LINE
  8
0
 10
7.71243
 20
6.84962
 11
7.68808
 21
6.85922
  0
LINE
  8
0
 10
7.68808
 20
6.85922
 11
7.66389
 21
6.86923
  0
LINE
  8
0
 10
7.66389
 20
6.86923
 11
7.63989
 21
6.87967
  0
LINE
  8
0
 10
7.63989
 20
6.87967
 11
7.61606
 21
6.89053
  0
LINE
  8
0
 10
7.61606
 20
6.89053
 11
7.59244
 21
6.90179
  0
LINE
  8
0
 10
7.59244
 20
6.90179
 11
7.569
 21
6.91348
  0
LINE
  8
0
 10
7.569
 20
6.91348
 11
7.54579
 21
6.92557
  0
LINE
  8
0
 10
7.54579
 20
6.92557
 11
7.52278
 21
6.93806
  0
LINE
  8
0
 10
7.52278
 20
6.93806
 11
7.5
 21
6.95096
  0
LINE
  8
0
 10
7.5
 20
6.95096
 11
7.47743
 21
6.96425
  0
LINE
  8
0
 10
7.47743
 20
6.96425
 11
7.45511
 21
6.97792
  0
LINE
  8
0
 10
7.45511
 20
6.97792
 11
7.43303
 21
6.99199
  0
LINE
  8
0
 10
7.43303
 20
6.99199
 11
7.41121
 21
7.00644
  0
LINE
  8
0
 10
7.41121
 20
7.00644
 11
7.38963
 21
7.02127
  0
LINE
  8
0
 10
7.38963
 20
7.02127
 11
7.36832
 21
7.03647
  0
LINE
  8
0
 10
7.36832
 20
7.03647
 11
7.34727
 21
7.05203
  0
LINE
  8
0
 10
7.34727
 20
7.05203
 11
7.32651
 21
7.06798
  0
LINE
  8
0
 10
7.32651
 20
7.06798
 11
7.30602
 21
7.08427
  0
LINE
  8
0
 10
7.30602
 20
7.08427
 11
7.28581
 21
7.10092
  0
LINE
  8
0
 10
7.28581
 20
7.10092
 11
7.2659
 21
7.11794
  0
LINE
  8
0
 10
7.2659
 20
7.11794
 11
7.24629
 21
7.13527
  0
LINE
  8
0
 10
7.24629
 20
7.13527
 11
7.22699
 21
7.15297
  0
LINE
  8
0
 10
7.22699
 20
7.15297
 11
7.20801
 21
7.17099
  0
LINE
  8
0
 10
7.20801
 20
7.17099
 11
7.18933
 21
7.18933
  0
LINE
  8
0
 10
7.18933
 20
7.18933
 11
7.17099
 21
7.20801
  0
LINE
  8
0
 10
7.17099
 20
7.20801
 11
7.15297
 21
7.22699
  0
LINE
  8
0
 10
7.15297
 20
7.22699
 11
7.13527
 21
7.24629
  0
LINE
  8
0
 10
7.13527
 20
7.24629
 11
7.11794
 21
7.2659
  0
LINE
  8
0
 10
7.11794
 20
7.2659
 11
7.10092
 21
7.28581
  0
LINE
  8
0
 10
7.10092
 20
7.28581
 11
7.08427
 21
7.30602
  0
LINE
  8
0
 10
7.08427
 20
7.30602
 11
7.06798
 21
7.32651
  0
LINE
  8
0
 10
7.06798
 20
7.32651
 11
7.05203
 21
7.34727
  0
LINE
  8
0
 10
7.05203
 20
7.34727
 11
7.03647
 21
7.36832
  0
LINE
  8
0
 10
7.03647
 20
7.36832
 11
7.02127
 21
7.38963
  0
LINE
  8
0
 10
7.02127
 20
7.38963
 11
7.00644
 21
7.41121
  0
LINE
  8
0
 10
7.00644
 20
7.41121
 11
6.99199
 21
7.43303
  0
LINE
  8
0
 10
6.99199
 20
7.43303
 11
6.97792
 21
7.45511
  0
LINE
  8
0
 10
6.97792
 20
7.45511
 11
6.96425
 21
7.47743
  0
LINE
  8
0
 10
6.96425
 20
7.47743
 11
6.95096
 21
7.5
  0
LINE
  8
0
 10
6.95096
 20
7.5
 11
6.93806
 21
7.52278
  0
LINE
  8
0
 10
6.93806
 20
7.52278
 11
6.92557
 21
7.54579
  0
LINE
  8
0
 10
6.92557
 20
7.54579
 11
6.91348
 21
7.569
  0
LINE
  8
0
 10
6.91348
 20
7.569
 11
6.90179
 21
7.59244
  0
LINE
  8
0
 10
6.90179
 20
7.59244
 11
6.89053
 21
7.61606
  0
LINE
  8
0
 10
6.89053
 20
7.61606
 11
6.87967
 21
7.63989
  0
LINE
  8
0
 10
6.87967
 20
7.63989
 11
6.86923
 21
7.66389
  0
LINE
  8
0
 10
6.86923
 20
7.66389
 11
6.85922
 21
7.68808
  0
LINE
  8
0
 10
6.85922
 20
7.68808
 11
6.84962
 21
7.71243
  0
LINE
  8
0
 10
6.84962
 20
7.71243
 11
6.84045
 21
7.73697
  0
LINE
  8
0
 10
6.84045
 20
7.73697
 11
6.83171
 21
7.76164
  0
LINE
  8
0
 10
6.83171
 20
7.76164
 11
6.82341
 21
7.78647
  0
LINE
  8
0
 10
6.82341
 20
7.78647
 11
6.81554
 21
7.81143
  0
LINE
  8
0
 10
6.81554
 20
7.81143
 11
6.80811
 21
7.83653
  0
LINE
  8
0
 10
6.80811
 20
7.83653
 11
6.8011
 21
7.86177
  0
LINE
  8
0
 10
6.8011
 20
7.86177
 11
6.79456
 21
7.88712
  0
LINE
  8
0
 10
6.79456
 20
7.88712
 11
6.78844
 21
7.91257
  0
LINE
  8
0
 10
6.78844
 20
7.91257
 11
6.78278
 21
7.93813
  0
LINE
  8
0
 10
6.78278
 20
7.93813
 11
6.77756
 21
7.96378
  0
LINE
  8
0
 10
6.77756
 20
7.96378
 11
6.77278
 21
7.98952
  0
LINE
  8
0
 10
6.77278
 20
7.98952
 11
6.76846
 21
8.01534
  0
LINE
  8
0
 10
6.76846
 20
8.01534
 11
6.76459
 21
8.04123
  0
LINE
  8
0
 10
6.76459
 20
8.04123
 11
6.76117
 21
8.06718
  0
LINE
  8
0
 10
6.76117
 20
8.06718
 11
6.75821
 21
8.0932
  0
LINE
  8
0
 10
6.75821
 20
8.0932
 11
6.75571
 21
8.11926
  0
LINE
  8
0
 10
6.75571
 20
8.11926
 11
6.75365
 21
8.14536
  0
LINE
  8
0
 10
6.75365
 20
8.14536
 11
6.75204
 21
8.17149
  0
LINE
  8
0
 10
6.75204
 20
8.17149
 11
6.7509
 21
8.19765
  0
LINE
  8
0
 10
6.7509
 20
8.19765
 11
6.75021
 21
8.22382
  0
LINE
  8
0
 10
6.75021
 20
8.22382
 11
6.75
 21
8.25
  0
LINE
  8
0
 10
6.75
 20
8.25
 11
6.75021
 21
8.27617
  0
LINE
  8
0
 10
6.75021
 20
8.27617
 11
6.7509
 21
8.30234
  0
LINE
  8
0
 10
6.7509
 20
8.30234
 11
6.75204
 21
8.32849
  0
LINE
  8
0
 10
6.75204
 20
8.32849
 11
6.75365
 21
8.35463
  0
LINE
  8
0
 10
6.75365
 20
8.35463
 11
6.75571
 21
8.38072
  0
LINE
  8
0
 10
6.75571
 20
8.38072
 11
6.75821
 21
8.40678
  0
LINE
  8
0
 10
6.75821
 20
8.40678
 11
6.76117
 21
8.4328
  0
LINE
  8
0
 10
6.76117
 20
8.4328
 11
6.76459
 21
8.45876
  0
LINE
  8
0
 10
6.76459
 20
8.45876
 11
6.76846
 21
8.48465
  0
LINE
  8
0
 10
6.76846
 20
8.48465
 11
6.77278
 21
8.51047
  0
LINE
  8
0
 10
6.77278
 20
8.51047
 11
6.77756
 21
8.53621
  0
LINE
  8
0
 10
6.77756
 20
8.53621
 11
6.78278
 21
8.56186
  0
LINE
  8
0
 10
6.78278
 20
8.56186
 11
6.78844
 21
8.58742
  0
LINE
  8
0
 10
6.78844
 20
8.58742
 11
6.79456
 21
8.61287
  0
LINE
  8
0
 10
6.79456
 20
8.61287
 11
6.8011
 21
8.63821
  0
LINE
  8
0
 10
6.8011
 20
8.63821
 11
6.80811
 21
8.66345
  0
LINE
  8
0
 10
6.80811
 20
8.66345
 11
6.81554
 21
8.68855
  0
LINE
  8
0
 10
6.81554
 20
8.68855
 11
6.82341
 21
8.71352
  0
LINE
  8
0
 10
6.82341
 20
8.71352
 11
6.83171
 21
8.73834
  0
LINE
  8
0
 10
6.83171
 20
8.73834
 11
6.84045
 21
8.76302
  0
LINE
  8
0
 10
6.84045
 20
8.76302
 11
6.84962
 21
8.78755
  0
LINE
  8
0
 10
6.84962
 20
8.78755
 11
6.85922
 21
8.8119
  0
LINE
  8
0
 10
6.85922
 20
8.8119
 11
6.86923
 21
8.83609
  0
LINE
  8
0
 10
6.86923
 20
8.83609
 11
6.87967
 21
8.86009
  0
LINE
  8
0
 10
6.87967
 20
8.86009
 11
6.89053
 21
8.88393
  0
LINE
  8
0
 10
6.89053
 20
8.88393
 11
6.90179
 21
8.90755
  0
LINE
  8
0
 10
6.90179
 20
8.90755
 11
6.91348
 21
8.93098
  0
LINE
  8
0
 10
6.91348
 20
8.93098
 11
6.92557
 21
8.95419
  0
LINE
  8
0
 10
6.92557
 20
8.95419
 11
6.93806
 21
8.9772
  0
LINE
  8
0
 10
6.93806
 20
8.9772
 11
6.95096
 21
9
  0
LINE
  8
0
 10
6.95096
 20
9
 11
6.96425
 21
9.02255
  0
LINE
  8
0
 10
6.96425
 20
9.02255
 11
6.97792
 21
9.04488
  0
LINE
  8
0
 10
6.97792
 20
9.04488
 11
6.99199
 21
9.06696
  0
LINE
  8
0
 10
6.99199
 20
9.06696
 11
7.00644
 21
9.08878
  0
LINE
  8
0
 10
7.00644
 20
9.08878
 11
7.02127
 21
9.11035
  0
LINE
  8
0
 10
7.02127
 20
9.11035
 11
7.03647
 21
9.13167
  0
LINE
  8
0
 10
7.03647
 20
9.13167
 11
7.05203
 21
9.15271
  0
LINE
  8
0
 10
7.05203
 20
9.15271
 11
7.06798
 21
9.17348
  0
LINE
  8
0
 10
7.06798
 20
9.17348
 11
7.08427
 21
9.19397
  0
LINE
  8
0
 10
7.08427
 20
9.19397
 11
7.10092
 21
9.21417
  0
LINE
  8
0
 10
7.10092
 20
9.21417
 11
7.11794
 21
9.23409
  0
LINE
  8
0
 10
7.11794
 20
9.23409
 11
7.13527
 21
9.25369
  0
LINE
  8
0
 10
7.13527
 20
9.25369
 11
7.15297
 21
9.27299
  0
LINE
  8
0
 10
7.15297
 20
9.27299
 11
7.17099
 21
9.29198
  0
LINE
  8
0
 10
7.17099
 20
9.29198
 11
7.18933
 21
9.31065
  0
LINE
  8
0
 10
7.18933
 20
9.31065
 11
7.20801
 21
9.32899
  0
LINE
  8
0
 10
7.20801
 20
9.32899
 11
7.22699
 21
9.34702
  0
LINE
  8
0
 10
7.22699
 20
9.34702
 11
7.24629
 21
9.36472
  0
LINE
  8
0
 10
7.24629
 20
9.36472
 11
7.2659
 21
9.38205
  0
LINE
  8
0
 10
7.2659
 20
9.38205
 11
7.28581
 21
9.39906
  0
LINE
  8
0
 10
7.28581
 20
9.39906
 11
7.30602
 21
9.41571
  0
LINE
  8
0
 10
7.30602
 20
9.41571
 11
7.32651
 21
9.43201
  0
LINE
  8
0
 10
7.32651
 20
9.43201
 11
7.34727
 21
9.44795
  0
LINE
  8
0
 10
7.34727
 20
9.44795
 11
7.36832
 21
9.46352
  0
LINE
  8
0
 10
7.36832
 20
9.46352
 11
7.38963
 21
9.47871
  0
LINE
  8
0
 10
7.38963
 20
9.47871
 11
7.41121
 21
9.49355
  0
LINE
  8
0
 10
7.41121
 20
9.49355
 11
7.43303
 21
9.508
  0
LINE
  8
0
 10
7.43303
 20
9.508
 11
7.45511
 21
9.52206
  0
LINE
  8
0
 10
7.45511
 20
9.52206
 11
7.47743
 21
9.53574
  0
LINE
  8
0
 10
7.47743
 20
9.53574
 11
7.5
 21
9.54903
  0
LINE
  8
0
 10
7.5
 20
9.54903
 11
7.52278
 21
9.56192
  0
LINE
  8
0
 10
7.52278
 20
9.56192
 11
7.54579
 21
9.57442
  0
LINE
  8
0
 10
7.54579
 20
9.57442
 11
7.569
 21
9.5865
  0
LINE
  8
0
 10
7.569
 20
9.5865
 11
7.59244
 21
9.59819
  0
LINE
  8
0
 10
7.59244
 20
9.59819
 11
7.61606
 21
9.60945
  0
LINE
  8
0
 10
7.61606
 20
9.60945
 11
7.63989
 21
9.62032
  0
LINE
  8
0
 10
7.63989
 20
9.62032
 11
7.66389
 21
9.63075
  0
LINE
  8
0
 10
7.66389
 20
9.63075
 11
7.68808
 21
9.64076
  0
LINE
  8
0
 10
7.68808
 20
9.64076
 11
7.71243
 21
9.65036
  0
LINE
  8
0
 10
7.71243
 20
9.65036
 11
7.73697
 21
9.65953
  0
LINE
  8
0
 10
7.73697
 20
9.65953
 11
7.76164
 21
9.66827
  0
LINE
  8
0
 10
7.76164
 20
9.66827
 11
7.78647
 21
9.67657
  0
LINE
  8
0
 10
7.78647
 20
9.67657
 11
7.81143
 21
9.68445
  0
LINE
  8
0
 10
7.81143
 20
9.68445
 11
7.83653
 21
9.69188
  0
LINE
  8
0
 10
7.83653
 20
9.69188
 11
7.86177
 21
9.69888
  0
LINE
  8
0
 10
7.86177
 20
9.69888
 11
7.88712
 21
9.70543
  0
LINE
  8
0
 10
7.88712
 20
9.70543
 11
7.91257
 21
9.71155
  0
LINE
  8
0
 10
7.91257
 20
9.71155
 11
7.93813
 21
9.71721
  0
LINE
  8
0
 10
7.93813
 20
9.71721
 11
7.96378
 21
9.72243
  0
LINE
  8
0
 10
7.96378
 20
9.72243
 11
7.98952
 21
9.7272
  0
LINE
  8
0
 10
7.98952
 20
9.7272
 11
8.01534
 21
9.73152
  0
LINE
  8
0
 10
8.01534
 20
9.73152
 11
8.04123
 21
9.7354
  0
LINE
  8
0
 10
8.04123
 20
9.7354
 11
8.06718
 21
9.73882
  0
LINE
  8
0
 10
8.06718
 20
9.73882
 11
8.0932
 21
9.74178
  0
LINE
  8
0
 10
8.0932
 20
9.74178
 11
8.11926
 21
9.74428
  0
LINE
  8
0
 10
8.11926
 20
9.74428
 11
8.14536
 21
9.74634
  0
LINE
  8
0
 10
8.14536
 20
9.74634
 11
8.17149
 21
9.74794
  0
LINE
  8
0
 10
8.17149
 20
9.74794
 11
8.19765
 21
9.74908
  0
LINE
  8
0
 10
8.19765
 20
9.74908
 11
8.22382
 21
9.74977
  0
LINE
  8
0
 10
8.22382
 20
9.74977
 11
8.25
 21
9.75
  0
LINE
  8
0
 10
8.25
 20
9.75
 11
8.27617
 21
9.74977
  0
LINE
  8
0
 10
8.27617
 20
9.74977
 11
8.30234
 21
9.74908
  0
LINE
  8
0
 10
8.30234
 20
9.74908
 11
8.32849
 21
9.74794
  0
LINE
  8
0
 10
8.32849
 20
9.74794
 11
8.35463
 21
9.74634
  0
LINE
  8
0
 10
8.35463
 20
9.74634
 11
8.38072
 21
9.74428
  0
LINE
  8
0
 10
8.38072
 20
9.74428
 11
8.40678
 21
9.74178
  0
LINE
  8
0
 10
8.40678
 20
9.74178
 11
8.4328
 21
9.73882
  0
LINE
  8
0
 10
8.4328
 20
9.73882
 11
8.45876
 21
9.7354
  0
LINE
  8
0
 10
8.45876
 20
9.7354
 11
8.48465
 21
9.73152
  0
LINE
  8
0
 10
8.48465
 20
9.73152
 11
8.51047
 21
9.7272
  0
LINE
  8
0
 10
8.51047
 20
9.7272
 11
8.53621
 21
9.72243
  0
LINE
  8
0
 10
8.53621
 20
9.72243
 11
8.56186
 21
9.71721
  0
LINE
  8
0
 10
8.56186
 20
9.71721
 11
8.58742
 21
9.71155
  0
LINE
  8
0
 10
8.58742
 20
9.71155
 11
8.61287
 21
9.70543
  0
LINE
  8
0
 10
8.61287
 20
9.70543
 11
8.63821
 21
9.69888
  0
LINE
  8
0
 10
8.63821
 20
9.69888
 11
8.66345
 21
9.69188
  0
LINE
  8
0
 10
8.66345
 20
9.69188
 11
8.68855
 21
9.68445
  0
LINE
  8
0
 10
8.68855
 20
9.68445
 11
8.71352
 21
9.67657
  0
LINE
  8
0
 10
8.71352
 20
9.67657
 11
8.73834
 21
9.66827
  0
LINE
  8
0
 10
8.73834
 20
9.66827
 11
8.76302
 21
9.65953
  0
LINE
  8
0
 10
8.76302
 20
9.65953
 11
8.78755
 21
9.65036
  0
LINE
  8
0
 10
8.78755
 20
9.65036
 11
8.8119
 21
9.64076
  0
LINE
  8
0
 10
8.8119
 20
9.64076
 11
8.83609
 21
9.63075
  0
LINE
  8
0
 10
8.83609
 20
9.63075
 11
8.86009
 21
9.62032
  0
LINE
  8
0
 10
8.86009
 20
9.62032
 11
8.88393
 21
9.60945
  0
LINE
  8
0
 10
8.88393
 20
9.60945
 11
8.90755
 21
9.59819
  0
LINE
  8
0
 10
8.90755
 20
9.59819
 11
8.93098
 21
9.5865
  0
LINE
  8
0
 10
8.93098
 20
9.5865
 11
8.95419
 21
9.57442
  0
LINE
  8
0
 10
8.95419
 20
9.57442
 11
8.9772
 21
9.56192
  0
LINE
  8
0
 10
8.9772
 20
9.56192
 11
9
 21
9.54903
  0
LINE
  8
0
 10
9
 20
9.54903
 11
9.02255
 21
9.53574
  0
LINE
  8
0
 10
9.02255
 20
9.53574
 11
9.04488
 21
9.52206
  0
LINE
  8
0
 10
9.04488
 20
9.52206
 11
9.06696
 21
9.508
  0
LINE
  8
0
 10
9.06696
 20
9.508
 11
9.08878
 21
9.49355
  0
LINE
  8
0
 10
9.08878
 20
9.49355
 11
9.11035
 21
9.47871
  0
LINE
  8
0
 10
9.11035
 20
9.47871
 11
9.13167
 21
9.46352
  0
LINE
  8
0
 10
9.13167
 20
9.46352
 11
9.15271
 21
9.44795
  0
LINE
  8
0
 10
9.15271
 20
9.44795
 11
9.17348
 21
9.43201
  0
LINE
  8
0
 10
9.17348
 20
9.43201
 11
9.19397
 21
9.41571
  0
LINE
  8
0
 10
9.19397
 20
9.41571
 11
9.21417
 21
9.39906
  0
LINE
  8
0
 10
9.21417
 20
9.39906
 11
9.23409
 21
9.38205
  0
LINE
  8
0
 10
9.23409
 20
9.38205
 11
9.25369
 21
9.36472
  0
LINE
  8
0
 10
9.25369
 20
9.36472
 11
9.27299
 21
9.34702
  0
LINE
  8
0
 10
9.27299
 20
9.34702
 11
9.29198
 21
9.32899
  0
LINE
  8
0
 10
9.29198
 20
9.32899
 11
9.31065
 21
9.31065
  0
LINE
  8
0
 10
9.31065
 20
9.31065
 11
9.32899
 21
9.29198
  0
LINE
  8
0
 10
9.32899
 20
9.29198
 11
9.34702
 21
9.27299
  0
LINE
  8
0
 10
9.34702
 20
9.27299
 11
9.36472
 21
9.25369
  0
LINE
  8
0
 10
9.36472
 20
9.25369
 11
9.38205
 21
9.23409
  0
LINE
  8
0
 10
9.38205
 20
9.23409
 11
9.39906
 21
9.21417
  0
LINE
  8
0
 10
9.39906
 20
9.21417
 11
9.41571
 21
9.19397
  0
LINE
  8
0
 10
9.41571
 20
9.19397
 11
9.43201
 21
9.17348
  0
LINE
  8
0
 10
9.43201
 20
9.17348
 11
9.44795
 21
9.15271
  0
LINE
  8
0
 10
9.44795
 20
9.15271
 11
9.46352
 21
9.13167
  0
LINE
  8
0
 10
9.46352
 20
9.13167
 11
9.47871
 21
9.11035
  0
LINE
  8
0
 10
9.47871
 20
9.11035
 11
9.49355
 21
9.08878
  0
LINE
  8
0
 10
9.49355
 20
9.08878
 11
9.508
 21
9.06696
  0
LINE
  8
0
 10
9.508
 20
9.06696
 11
9.52206
 21
9.04488
  0
LINE
  8
0
 10
9.52206
 20
9.04488
 11
9.53574
 21
9.02255
  0
LINE
  8
0
 10
9.53574
 20
9.02255
 11
9.54903
 21
9
  0
LINE
  8
0
 10
9.54903
 20
9
 11
9.56192
 21
8.9772
  0
LINE
  8
0
 10
9.56192
 20
8.9772
 11
9.57442
 21
8.95419
  0
LINE
  8
0
 10
9.57442
 20
8.95419
 11
9.5865
 21
8.93098
  0
LINE
  8
0
 10
9.5865
 20
8.93098
 11
9.59819
 21
8.90755
  0
LINE
  8
0
 10
9.59819
 20
8.90755
 11
9.60945
 21
8.88393
  0
LINE
  8
0
 10
9.60945
 20
8.88393
 11
9.62032
 21
8.86009
  0
LINE
  8
0
 10
9.62032
 20
8.86009
 11
9.63075
 21
8.83609
  0
LINE
  8
0
 10
9.63075
 20
8.83609
 11
9.64076
 21
8.8119
  0
LINE
  8
0
 10
9.64076
 20
8.8119
 11
9.65036
 21
8.78755
  0
LINE
  8
0
 10
9.65036
 20
8.78755
 11
9.65953
 21
8.76302
  0
LINE
  8
0
 10
9.65953
 20
8.76302
 11
9.66827
 21
8.73834
  0
LINE
  8
0
 10
9.66827
 20
8.73834
 11
9.67657
 21
8.71352
  0
LINE
  8
0
 10
9.67657
 20
8.71352
 11
9.68445
 21
8.68855
  0
LINE
  8
0
 10
9.68445
 20
8.68855
 11
9.69188
 21
8.66345
  0
LINE
  8
0
 10
9.69188
 20
8.66345
 11
9.69888
 21
8.63821
  0
LINE
  8
0
 10
9.69888
 20
8.63821
 11
9.70543
 21
8.61287
  0
LINE
  8
0
 10
9.70543
 20
8.61287
 11
9.71155
 21
8.58742
  0
LINE
  8
0
 10
9.71155
 20
8.58742
 11
9.71721
 21
8.56186
  0
LINE
  8
0
 10
9.71721
 20
8.56186
 11
9.72243
 21
8.53621
  0
LINE
  8
0
 10
9.72243
 20
8.53621
 11
9.7272
 21
8.51047
  0
LINE
  8
0
 10
9.7272
 20
8.51047
 11
9.73152
 21
8.48465
  0
LINE
  8
0
 10
9.73152
 20
8.48465
 11
9.7354
 21
8.45876
  0
LINE
  8
0
 10
9.7354
 20
8.45876
 11
9.73882
 21
8.4328
  0
LINE
  8
0
 10
9.73882
 20
8.4328
 11
9.74178
 21
8.40678
  0
LINE
  8
0
 10
9.74178
 20
8.40678
 11
9.74428
 21
8.38072
  0
LINE
  8
0
 10
9.74428
 20
8.38072
 11
9.74634
 21
8.35463
  0
LINE
  8
0
 10
9.74634
 20
8.35463
 11
9.74794
 21
8.32849
  0
LINE
  8
0
 10
9.74794
 20
8.32849
 11
9.74908
 21
8.30234
  0
LINE
  8
0
 10
9.74908
 20
8.30234
 11
9.74977
 21
8.27617
  0
LINE
  8
0
 10
9.74977
 20
8.27617
 11
9.75
 21
8.25
  0
LINE
  8
0
 10
9.75
 20
8.25
 11
9.74977
 21
8.22382
  0
LINE
  8
0
 10
9.74977
 20
8.22382
 11
9.74908
 21
8.19765
  0
LINE
  8
0
 10
9.74908
 20
8.19765
 11
9.74794
 21
8.17149
  0
LINE
  8
0
 10
9.74794
 20
8.17149
 11
9.74634
 21
8.14536
  0
LINE
  8
0
 10
9.74634
 20
8.14536
 11
9.74428
 21
8.11926
  0
LINE
  8
0
 10
9.74428
 20
8.11926
 11
9.74178
 21
8.0932
  0
LINE
  8
0
 10
9.74178
 20
8.0932
 11
9.73882
 21
8.06718
  0
LINE
  8
0
 10
9.73882
 20
8.06718
 11
9.7354
 21
8.04123
  0
LINE
  8
0
 10
9.7354
 20
8.04123
 11
9.73152
 21
8.01534
  0
LINE
  8
0
 10
9.73152
 20
8.01534
 11
9.7272
 21
7.98952
  0
LINE
  8
0
 10
9.7272
 20
7.98952
 11
9.72243
 21
7.96378
  0
LINE
  8
0
 10
9.72243
 20
7.96378
 11
9.71721
 21
7.93813
  0
LINE
  8
0
 10
9.71721
 20
7.93813
 11
9.71155
 21
7.91257
  0
LINE
  8
0
 10
9.71155
 20
7.91257
 11
9.70543
 21
7.88712
  0
LINE
  8
0
 10
9.70543
 20
7.88712
 11
9.69888
 21
7.86177
  0
LINE
  8
0
 10
9.69888
 20
7.86177
 11
9.69188
 21
7.83653
  0
LINE
  8
0
 10
9.69188
 20
7.83653
 11
9.68445
 21
7.81143
  0
LINE
  8
0
 10
9.68445
 20
7.81143
 11
9.67657
 21
7.78647
  0
LINE
  8
0
 10
9.67657
 20
7.78647
 11
9.66827
 21
7.76164
  0
LINE
  8
0
 10
9.66827
 20
7.76164
 11
9.65953
 21
7.73697
  0
LINE
  8
0
 10
9.65953
 20
7.73697
 11
9.65036
 21
7.71243
  0
LINE
  8
0
 10
9.65036
 20
7.71243
 11
9.64076
 21
7.68808
  0
LINE
  8
0
 10
9.64076
 20
7.68808
 11
9.63075
 21
7.66389
  0
LINE
  8
0
 10
9.63075
 20
7.66389
 11
9.62032
 21
7.63989
  0
LINE
  8
0
 10
9.62032
 20
7.63989
 11
9.60945
 21
7.61606
  0
LINE
  8
0
 10
9.60945
 20
7.61606
 11
9.59819
 21
7.59244
  0
LINE
  8
0
 10
9.59819
 20
7.59244
 11
9.5865
 21
7.569
  0
LINE
  8
0
 10
9.5865
 20
7.569
 11
9.57442
 21
7.54579
  0
LINE
  8
0
 10
9.57442
 20
7.54579
 11
9.56192
 21
7.52278
  0
LINE
  8
0
 10
9.56192
 20
7.52278
 11
9.54903
 21
7.5
  0
LINE
  8
0
 10
9.54903
 20
7.5
 11
9.53574
 21
7.47743
  0
LINE
  8
0
 10
9.53574
 20
7.47743
 11
9.52206
 21
7.45511
  0
LINE
  8
0
 10
9.52206
 20
7.45511
 11
9.508
 21
7.43303
  0
LINE
  8
0
 10
9.508
 20
7.43303
 11
9.49355
 21
7.41121
  0
LINE
  8
0
 10
9.49355
 20
7.41121
 11
9.47871
 21
7.38963
  0
LINE
  8
0
 10
9.47871
 20
7.38963
 11
9.46352
 21
7.36832
  0
LINE
  8
0
 10
9.46352
 20
7.36832
 11
9.44795
 21
7.34727
  0
LINE
  8
0
 10
9.44795
 20
7.34727
 11
9.43201
 21
7.32651
  0
LINE
  8
0
 10
9.43201
 20
7.32651
 11
9.41571
 21
7.30602
  0
LINE
  8
0
 10
9.41571
 20
7.30602
 11
9.39906
 21
7.28581
  0
LINE
  8
0
 10
9.39906
 20
7.28581
 11
9.38205
 21
7.2659
  0
LINE
  8
0
 10
9.38205
 20
7.2659
 11
9.36472
 21
7.24629
  0
LINE
  8
0
 10
9.36472
 20
7.24629
 11
9.34702
 21
7.22699
  0
LINE
  8
0
 10
9.34702
 20
7.22699
 11
9.32899
 21
7.20801
  0
LINE
  8
0
 10
9.32899
 20
7.20801
 11
9.31065
 21
7.18933
  0
LINE
  8
0
 10
9.31065
 20
7.18933
 11
9.29198
 21
7.17099
  0
LINE
  8
0
 10
9.29198
 20
7.17099
 11
9.27299
 21
7.15297
  0
LINE
  8
0
 10
9.27299
 20
7.15297
 11
9.25369
 21
7.13527
  0
LINE
  8
0
 10
9.25369
 20
7.13527
 11
9.23409
 21
7.11794
  0
LINE
  8
0
 10
9.23409
 20
7.11794
 11
9.21417
 21
7.10092
  0
LINE
  8
0
 10
9.21417
 20
7.10092
 11
9.19397
 21
7.08427
  0
LINE
  8
0
 10
9.19397
 20
7.08427
 11
9.17348
 21
7.06798
  0
LINE
  8
0
 10
9.17348
 20
7.06798
 11
9.15271
 21
7.05203
  0
LINE
  8
0
 10
9.15271
 20
7.05203
 11
9.13167
 21
7.03647
  0
LINE
  8
0
 10
9.13167
 20
7.03647
 11
9.11035
 21
7.02127
  0
LINE
  8
0
 10
9.11035
 20
7.02127
 11
9.08878
 21
7.00644
  0
LINE
  8
0
 10
9.08878
 20
7.00644
 11
9.06696
 21
6.99199
  0
LINE
  8
0
 10
9.06696
 20
6.99199
 11
9.04488
 21
6.97792
  0
LINE
  8
0
 10
9.04488
 20
6.97792
 11
9.02255
 21
6.96425
  0
LINE
  8
0
 10
9.02255
 20
6.96425
 11
9
 21
6.95096
  0
LINE
  8
0
 10
9
 20
6.95096
 11
8.9772
 21
6.93806
  0
LINE
  8
0
 10
8.9772
 20
6.93806
 11
8.95419
 21
6.92557
  0
LINE
  8
0
 10
8.95419
 20
6.92557
 11
8.93098
 21
6.91348
  0
LINE
  8
0
 10
8.93098
 20
6.91348
 11
8.90755
 21
6.90179
  0
LINE
  8
0
 10
8.90755
 20
6.90179
 11
8.88393
 21
6.89053
  0
LINE
  8
0
 10
8.88393
 20
6.89053
 11
8.86009
 21
6.87967
  0
LINE
  8
0
 10
8.86009
 20
6.87967
 11
8.83609
 21
6.86923
  0
LINE
  8
0
 10
8.83609
 20
6.86923
 11
8.8119
 21
6.85922
  0
LINE
  8
0
 10
8.8119
 20
6.85922
 11
8.78755
 21
6.84962
  0
LINE
  8
0
 10
8.78755
 20
6.84962
 11
8.76302
 21
6.84045
  0
LINE
  8
0
 10
8.76302
 20
6.84045
 11
8.73834
 21
6.83171
  0
LINE
  8
0
 10
8.73834
 20
6.83171
 11
8.71352
 21
6.82341
  0
LINE
  8
0
 10
8.71352
 20
6.82341
 11
8.68855
 21
6.81554
  0
LINE
  8
0
 10
8.68855
 20
6.81554
 11
8.66345
 21
6.80811
  0
LINE
  8
0
 10
8.66345
 20
6.80811
 11
8.63821
 21
6.8011
  0
LINE
  8
0
 10
8.63821
 20
6.8011
 11
8.61287
 21
6.79456
  0
LINE
  8
0
 10
8.61287
 20
6.79456
 11
8.58742
 21
6.78844
  0
LINE
  8
0
 10
8.58742
 20
6.78844
 11
8.56186
 21
6.78278
  0
LINE
  8
0
 10
8.56186
 20
6.78278
 11
8.53621
 21
6.77756
  0
LINE
  8
0
 10
8.53621
 20
6.77756
 11
8.51047
 21
6.77278
  0
LINE
  8
0
 10
8.51047
 20
6.77278
 11
8.48465
 21
6.76846
  0
LINE
  8
0
 10
8.48465
 20
6.76846
 11
8.45876
 21
6.76459
  0
LINE
  8
0
 10
8.45876
 20
6.76459
 11
8.4328
 21
6.76117
  0
LINE
  8
0
 10
8.4328
 20
6.76117
 11
8.40678
 21
6.75821
  0
LINE
  8
0
 10
8.40678
 20
6.75821
 11
8.38072
 21
6.75571
  0
LINE
  8
0
 10
8.38072
 20
6.75571
 11
8.35463
 21
6.75365
  0
LINE
  8
0
 10
8.35463
 20
6.75365
 11
8.32849
 21
6.75204
  0
LINE
  8
0
 10
8.32849
 20
6.75204
 11
8.30234
 21
6.7509
  0
LINE
  8
0
 10
8.30234
 20
6.7509
 11
8.27617
 21
6.75021
  0
LINE
  8
0
 10
8.27617
 20
6.75021
 11
8.25
 21
6.75
  0
LINE
  8
0
 10
8.25
 20
6.75
 11
8.22382
 21
6.75021
  0
LINE
  8
0
 10
-8.27617
 20
6.75021
 11
-8.30234
 21
6.7509
  0
LINE
  8
0
 10
-8.30234
 20
6.7509
 11
-8.32849
 21
6.75204
  0
LINE
  8
0
 10
-8.32849
 20
6.75204
 11
-8.35463
 21
6.75365
  0
LINE
  8
0
 10
-8.35463
 20
6.75365
 11
-8.38072
 21
6.75571
  0
LINE
  8
0
 10
-8.38072
 20
6.75571
 11
-8.40678
 21
6.75821
  0
LINE
  8
0
 10
-8.40678
 20
6.75821
 11
-8.4328
 21
6.76117
  0
LINE
  8
0
 10
-8.4328
 20
6.76117
 11
-8.45876
 21
6.76459
  0
LINE
  8
0
 10
-8.45876
 20
6.76459
 11
-8.48465
 21
6.76846
  0
LINE
  8
0
 10
-8.48465
 20
6.76846
 11
-8.51047
 21
6.77278
  0
LINE
  8
0
 10
-8.51047
 20
6.77278
 11
-8.53621
 21
6.77756
  0
LINE
  8
0
 10
-8.53621
 20
6.77756
 11
-8.56186
 21
6.78278
  0
LINE
  8
0
 10
-8.56186
 20
6.78278
 11
-8.58742
 21
6.78844
  0
LINE
  8
0
 10
-8.58742
 20
6.78844
 11
-8.61287
 21
6.79456
  0
LINE
  8
0
 10
-8.61287
 20
6.79456
 11
-8.63821
 21
6.8011
  0
LINE
  8
0
 10
-8.63821
 20
6.8011
 11
-8.66345
 21
6.80811
  0
LINE
  8
0
 10
-8.66345
 20
6.80811
 11
-8.68855
 21
6.81554
  0
LINE
  8
0
 10
-8.68855
 20
6.81554
 11
-8.71352
 21
6.82341
  0
LINE
  8
0
 10
-8.71352
 20
6.82341
 11
-8.73834
 21
6.83171
  0
LINE
  8
0
 10
-8.73834
 20
6.83171
 11
-8.76302
 21
6.84045
  0
LINE
  8
0
 10
-8.76302
 20
6.84045
 11
-8.78755
 21
6.84962
  0
LINE
  8
0
 10
-8.78755
 20
6.84962
 11
-8.8119
 21
6.85922
  0
LINE
  8
0
 10
-8.8119
 20
6.85922
 11
-8.83609
 21
6.86923
  0
LINE
  8
0
 10
-8.83609
 20
6.86923
 11
-8.86009
 21
6.87967
  0
LINE
  8
0
 10
-8.86009
 20
6.87967
 11
-8.88393
 21
6.89053
  0
LINE
  8
0
 10
-8.88393
 20
6.89053
 11
-8.90755
 21
6.90179
  0
LINE
  8
0
 10
-8.90755
 20
6.90179
 11
-8.93098
 21
6.91348
  0
LINE
  8
0
 10
-8.93098
 20
6.91348
 11
-8.95419
 21
6.92557
  0
LINE
  8
0
 10
-8.95419
 20
6.92557
 11
-8.9772
 21
6.93806
  0
LINE
  8
0
 10
-8.9772
 20
6.93806
 11
-9
 21
6.95096
  0
LINE
  8
0
 10
-9
 20
6.95096
 11
-9.02255
 21
6.96425
  0
LINE
  8
0
 10
-9.02255
 20
6.96425
 11
-9.04488
 21
6.97792
  0
LINE
  8
0
 10
-9.04488
 20
6.97792
 11
-9.06696
 21
6.99199
  0
LINE
  8
0
 10
-9.06696
 20
6.99199
 11
-9.08878
 21
7.00644
  0
LINE
  8
0
 10
-9.08878
 20
7.00644
 11
-9.11035
 21
7.02127
  0
LINE
  8
0
 10
-9.11035
 20
7.02127
 11
-9.13167
 21
7.03647
  0
LINE
  8
0
 10
-9.13167
 20
7.03647
 11
-9.15271
 21
7.05203
  0
LINE
  8
0
 10
-9.15271
 20
7.05203
 11
-9.17348
 21
7.06798
  0
LINE
  8
0
 10
-9.17348
 20
7.06798
 11
-9.19397
 21
7.08427
  0
LINE
  8
0
 10
-9.19397
 20
7.08427
 11
-9.21417
 21
7.10092
  0
LINE
  8
0
 10
-9.21417
 20
7.10092
 11
-9.23409
 21
7.11794
  0
LINE
  8
0
 10
-9.23409
 20
7.11794
 11
-9.25369
 21
7.13527
  0
LINE
  8
0
 10
-9.25369
 20
7.13527
 11
-9.27299
 21
7.15297
  0
LINE
  8
0
 10
-9.27299
 20
7.15297
 11
-9.29198
 21
7.17099
  0
LINE
  8
0
 10
-9.29198
 20
7.17099
 11
-9.31065
 21
7.18933
  0
LINE
  8
0
 10
-9.31065
 20
7.18933
 11
-9.32899
 21
7.20801
  0
LINE
  8
0
 10
-9.32899
 20
7.20801
 11
-9.34702
 21
7.22699
  0
LINE
  8
0
 10
-9.34702
 20
7.22699
 11
-9.36472
 21
7.24629
  0
LINE
  8
0
 10
-9.36472
 20
7.24629
 11
-9.38205
 21
7.2659
  0
LINE
  8
0
 10
-9.38205
 20
7.2659
 11
-9.39906
 21
7.28581
  0
LINE
  8
0
 10
-9.39906
 20
7.28581
 11
-9.41571
 21
7.30602
  0
LINE
  8
0
 10
-9.41571
 20
7.30602
 11
-9.43201
 21
7.32651
  0
LINE
  8
0
 10
-9.43201
 20
7.32651
 11
-9.44795
 21
7.34727
  0
LINE
  8
0
 10
-9.44795
 20
7.34727
 11
-9.46352
 21
7.36832
  0
LINE
  8
0
 10
-9.46352
 20
7.36832
 11
-9.47871
 21
7.38963
  0
LINE
  8
0
 10
-9.47871
 20
7.38963
 11
-9.49355
 21
7.41121
  0
LINE
  8
0
 10
-9.49355
 20
7.41121
 11
-9.508
 21
7.43303
  0
LINE
  8
0
 10
-9.508
 20
7.43303
 11
-9.52206
 21
7.45511
  0
LINE
  8
0
 10
-9.52206
 20
7.45511
 11
-9.53574
 21
7.47743
  0
LINE
  8
0
 10
-9.53574
 20
7.47743
 11
-9.54903
 21
7.5
  0
LINE
  8
0
 10
-9.54903
 20
7.5
 11
-9.56192
 21
7.52278
  0
LINE
  8
0
 10
-9.56192
 20
7.52278
 11
-9.57442
 21
7.54579
  0
LINE
  8
0
 10
-9.57442
 20
7.54579
 11
-9.5865
 21
7.569
  0
LINE
  8
0
 10
-9.5865
 20
7.569
 11
-9.59819
 21
7.59244
  0
LINE
  8
0
 10
-9.59819
 20
7.59244
 11
-9.60945
 21
7.61606
  0
LINE
  8
0
 10
-9.60945
 20
7.61606
 11
-9.62032
 21
7.63989
  0
LINE
  8
0
 10
-9.62032
 20
7.63989
 11
-9.63075
 21
7.66389
  0
LINE
  8
0
 10
-9.63075
 20
7.66389
 11
-9.64076
 21
7.68808
  0
LINE
  8
0
 10
-9.64076
 20
7.68808
 11
-9.65036
 21
7.71243
  0
LINE
  8
0
 10
-9.65036
 20
7.71243
 11
-9.65953
 21
7.73697
  0
LINE
  8
0
 10
-9.65953
 20
7.73697
 11
-9.66827
 21
7.76164
  0
LINE
  8
0
 10
-9.66827
 20
7.76164
 11
-9.67657
 21
7.78647
  0
LINE
  8
0
 10
-9.67657
 20
7.78647
 11
-9.68445
 21
7.81143
  0
LINE
  8
0
 10
-9.68445
 20
7.81143
 11
-9.69188
 21
7.83653
  0
LINE
  8
0
 10
-9.69188
 20
7.83653
 11
-9.69888
 21
7.86177
  0
LINE
  8
0
 10
-9.69888
 20
7.86177
 11
-9.70543
 21
7.88712
  0
LINE
  8
0
 10
-9.70543
 20
7.88712
 11
-9.71155
 21
7.91257
  0
LINE
  8
0
 10
-9.71155
 20
7.91257
 11
-9.71721
 21
7.93813
  0
LINE
  8
0
 10
-9.71721
 20
7.93813
 11
-9.72243
 21
7.96378
  0
LINE
  8
0
 10
-9.72243
 20
7.96378
 11
-9.7272
 21
7.98952
  0
LINE
  8
0
 10
-9.7272
 20
7.98952
 11
-9.73152
 21
8.01534
  0
LINE
  8
0
 10
-9.73152
 20
8.01534
 11
-9.7354
 21
8.04123
  0
LINE
  8
0
 10
-9.7354
 20
8.04123
 11
-9.73882
 21
8.06718
  0
LINE
  8
0
 10
-9.73882
 20
8.06718
 11
-9.74178
 21
8.0932
  0
LINE
  8
0
 10
-9.74178
 20
8.0932
 11
-9.74428
 21
8.11926
  0
LINE
  8
0
 10
-9.74428
 20
8.11926
 11
-9.74634
 21
8.14536
  0
LINE
  8
0
 10
-9.74634
 20
8.14536
 11
-9.74794
 21
8.17149
  0
LINE
  8
0
 10
-9.74794
 20
8.17149
 11
-9.74908
 21
8.19765
  0
LINE
  8
0
 10
-9.74908
 20
8.19765
 11
-9.74977
 21
8.22382
  0
LINE
  8
0
 10
-9.74977
 20
8.22382
 11
-9.75
 21
8.25
  0
LINE
  8
0
 10
-9.75
 20
8.25
 11
-9.74977
 21
8.27617
  0
LINE
  8
0
 10
-9.74977
 20
8.27617
 11
-9.74908
 21
8.30234
  0
LINE
  8
0
 10
-9.74908
 20
8.30234
 11
-9.74794
 21
8.32849
  0
LINE
  8
0
 10
-9.74794
 20
8.32849
 11
-9.74634
 21
8.35463
  0
LINE
  8
0
 10
-9.74634
 20
8.35463
 11
-9.74428
 21
8.38072
  0
LINE
  8
0
 10
-9.74428
 20
8.38072
 11
-9.74178
 21
8.40678
  0
LINE
  8
0
 10
-9.74178
 20
8.40678
 11
-9.73882
 21
8.4328
  0
LINE
  8
0
 10
-9.73882
 20
8.4328
 11
-9.7354
 21
8.45876
  0
LINE
  8
0
 10
-9.7354
 20
8.45876
 11
-9.73152
 21
8.48465
  0
LINE
  8
0
 10
-9.73152
 20
8.48465
 11
-9.7272
 21
8.51047
  0
LINE
  8
0
 10
-9.7272
 20
8.51047
 11
-9.72243
 21
8.53621
  0
LINE
  8
0
 10
-9.72243
 20
8.53621
 11
-9.71721
 21
8.56186
  0
LINE
  8
0
 10
-9.71721
 20
8.56186
 11
-9.71155
 21
8.58742
  0
LINE
  8
0
 10
-9.71155
 20
8.58742
 11
-9.70543
 21
8.61287
  0
LINE
  8
0
 10
-9.70543
 20
8.61287
 11
-9.69888
 21
8.63821
  0
LINE
  8
0
 10
-9.69888
 20
8.63821
 11
-9.69188
 21
8.66345
  0
LINE
  8
0
 10
-9.69188
 20
8.66345
 11
-9.68445
 21
8.68855
  0
LINE
  8
0
 10
-9.68445
 20
8.68855
 11
-9.67657
 21
8.71352
  0
LINE
  8
0
 10
-9.67657
 20
8.71352
 11
-9.66827
 21
8.73834
  0
LINE
  8
0
 10
-9.66827
 20
8.73834
 11
-9.65953
 21
8.76302
  0
LINE
  8
0
 10
-9.65953
 20
8.76302
 11
-9.65036
 21
8.78755
  0
LINE
  8
0
 10
-9.65036
 20
8.78755
 11
-9.64076
 21
8.8119
  0
LINE
  8
0
 10
-9.64076
 20
8.8119
 11
-9.63075
 21
8.83609
  0
LINE
  8
0
 10
-9.63075
 20
8.83609
 11
-9.62032
 21
8.86009
  0
LINE
  8
0
 10
-9.62032
 20
8.86009
 11
-9.60945
 21
8.88393
  0
LINE
  8
0
 10
-9.60945
 20
8.88393
 11
-9.59819
 21
8.90755
  0
LINE
  8
0
 10
-9.59819
 20
8.90755
 11
-9.5865
 21
8.93098
  0
LINE
  8
0
 10
-9.5865
 20
8.93098
 11
-9.57442
 21
8.95419
  0
LINE
  8
0
 10
-9.57442
 20
8.95419
 11
-9.56192
 21
8.9772
  0
LINE
  8
0
 10
-9.56192
 20
8.9772
 11
-9.54903
 21
9
  0
LINE
  8
0
 10
-9.54903
 20
9
 11
-9.53574
 21
9.02255
  0
LINE
  8
0
 10
-9.53574
 20
9.02255
 11
-9.52206
 21
9.04488
  0
LINE
  8
0
 10
-9.52206
 20
9.04488
 11
-9.508
 21
9.06696
  0
LINE
  8
0
 10
-9.508
 20
9.06696
 11
-9.49355
 21
9.08878
  0
LINE
  8
0
 10
-9.49355
 20
9.08878
 11
-9.47871
 21
9.11035
  0
LINE
  8
0
 10
-9.47871
 20
9.11035
 11
-9.46352
 21
9.13167
  0
LINE
  8
0
 10
-9.46352
 20
9.13167
 11
-9.44795
 21
9.15271
  0
LINE
  8
0
 10
-9.44795
 20
9.15271
 11
-9.43201
 21
9.17348
  0
LINE
  8
0
 10
-9.43201
 20
9.17348
 11
-9.41571
 21
9.19397
  0
LINE
  8
0
 10
-9.41571
 20
9.19397
 11
-9.39906
 21
9.21417
  0
LINE
  8
0
 10
-9.39906
 20
9.21417
 11
-9.38205
 21
9.23409
  0
LINE
  8
0
 10
-9.38205
 20
9.23409
 11
-9.36472
 21
9.25369
  0
LINE
  8
0
 10
-9.36472
 20
9.25369
 11
-9.34702
 21
9.27299
  0
LINE
  8
0
 10
-9.34702
 20
9.27299
 11
-9.32899
 21
9.29198
  0
LINE
  8
0
 10
-9.32899
 20
9.29198
 11
-9.31065
 21
9.31065
  0
LINE
  8
0
 10
-9.31065
 20
9.31065
 11
-9.29198
 21
9.32899
  0
LINE
  8
0
 10
-9.29198
 20
9.32899
 11
-9.27299
 21
9.34702
  0
LINE
  8
0
 10
-9.27299
 20
9.34702
 11
-9.25369
 21
9.36472
  0
LINE
  8
0
 10
-9.25369
 20
9.36472
 11
-9.23409
 21
9.38205
  0
LINE
  8
0
 10
-9.23409
 20
9.38205
 11
-9.21417
 21
9.39906
  0
LINE
  8
0
 10
-9.21417
 20
9.39906
 11
-9.19397
 21
9.41571
  0
LINE
  8
0
 10
-9.19397
 20
9.41571
 11
-9.17348
 21
9.43201
  0
LINE
  8
0
 10
-9.17348
 20
9.43201
 11
-9.15271
 21
9.44795
  0
LINE
  8
0
 10
-9.15271
 20
9.44795
 11
-9.13167
 21
9.46352
  0
LINE
  8
0
 10
-9.13167
 20
9.46352
 11
-9.11035
 21
9.47871
  0
LINE
  8
0
 10
-9.11035
 20
9.47871
 11
-9.08878
 21
9.49355
  0
LINE
  8
0
 10
-9.08878
 20
9.49355
 11
-9.06696
 21
9.508
  0
LINE
  8
0
 10
-9.06696
 20
9.508
 11
-9.04488
 21
9.52206
  0
LINE
  8
0
 10
-9.04488
 20
9.52206
 11
-9.02255
 21
9.53574
  0
LINE
  8
0
 10
-9.02255
 20
9.53574
 11
-9
 21
9.54903
  0
LINE
  8
0
 10
-9
 20
9.54903
 11
-8.9772
 21
9.56192
  0
LINE
  8
0
 10
-8.9772
 20
9.56192
 11
-8.95419
 21
9.57442
  0
LINE
  8
0
 10
-8.95419
 20
9.57442
 11
-8.93098
 21
9.5865
  0
LINE
  8
0
 10
-8.93098
 20
9.5865
 11
-8.90755
 21
9.59819
  0
LINE
  8
0
 10
-8.90755
 20
9.59819
 11
-8.88393
 21
9.60945
  0
LINE
  8
0
 10
-8.88393
 20
9.60945
 11
-8.86009
 21
9.62032
  0
LINE
  8
0
 10
-8.86009
 20
9.62032
 11
-8.83609
 21
9.63075
  0
LINE
  8
0
 10
-8.83609
 20
9.63075
 11
-8.8119
 21
9.64076
  0
LINE
  8
0
 10
-8.8119
 20
9.64076
 11
-8.78755
 21
9.65036
  0
LINE
  8
0
 10
-8.78755
 20
9.65036
 11
-8.76302
 21
9.65953
  0
LINE
  8
0
 10
-8.76302
 20
9.65953
 11
-8.73834
 21
9.66827
  0
LINE
  8
0
 10
-8.73834
 20
9.66827
 11
-8.71352
 21
9.67657
  0
LINE
  8
0
 10
-8.71352
 20
9.67657
 11
-8.68855
 21
9.68445
  0
LINE
  8
0
 10
-8.68855
 20
9.68445
 11
-8.66345
 21
9.69188
  0
LINE
  8
0
 10
-8.66345
 20
9.69188
 11
-8.63821
 21
9.69888
  0
LINE
  8
0
 10
-8.63821
 20
9.69888
 11
-8.61287
 21
9.70543
  0
LINE
  8
0
 10
-8.61287
 20
9.70543
 11
-8.58742
 21
9.71155
  0
LINE
  8
0
 10
-8.58742
 20
9.71155
 11
-8.56186
 21
9.71721
  0
LINE
  8
0
 10
-8.56186
 20
9.71721
 11
-8.53621
 21
9.72243
  0
LINE
  8
0
 10
-8.53621
 20
9.72243
 11
-8.51047
 21
9.7272
  0
LINE
  8
0
 10
-8.51047
 20
9.7272
 11
-8.48465
 21
9.73152
  0
LINE
  8
0
 10
-8.48465
 20
9.73152
 11
-8.45876
 21
9.7354
  0
LINE
  8
0
 10
-8.45876
 20
9.7354
 11
-8.4328
 21
9.73882
  0
LINE
  8
0
 10
-8.4328
 20
9.73882
 11
-8.40678
 21
9.74178
  0
LINE
  8
0
 10
-8.40678
 20
9.74178
 11
-8.38072
 21
9.74428
  0
LINE
  8
0
 10
-8.38072
 20
9.74428
 11
-8.35463
 21
9.74634
  0
LINE
  8
0
 10
-8.35463
 20
9.74634
 11
-8.32849
 21
9.74794
  0
LINE
  8
0
 10
-8.32849
 20
9.74794
 11
-8.30234
 21
9.74908
  0
LINE
  8
0
 10
-8.30234
 20
9.74908
 11
-8.27617
 21
9.74977
  0
LINE
  8
0
 10
-8.27617
 20
9.74977
 11
-8.25
 21
9.75
  0
LINE
  8
0
 10
-8.25
 20
9.75
 11
-8.22382
 21
9.74977
  0
LINE
  8
0
 10
-8.22382
 20
9.74977
 11
-8.19765
 21
9.74908
  0
LINE
  8
0
 10
-8.19765
 20
9.74908
 11
-8.17149
 21
9.74794
  0
LINE
  8
0
 10
-8.17149
 20
9.74794
 11
-8.14536
 21
9.74634
  0
LINE
  8
0
 10
-8.14536
 20
9.74634
 11
-8.11926
 21
9.74428
  0
LINE
  8
0
 10
-8.11926
 20
9.74428
 11
-8.0932
 21
9.74178
  0
LINE
  8
0
 10
-8.0932
 20
9.74178
 11
-8.06718
 21
9.73882
  0
LINE
  8
0
 10
-8.06718
 20
9.73882
 11
-8.04123
 21
9.7354
  0
LINE
  8
0
 10
-8.04123
 20
9.7354
 11
-8.01534
 21
9.73152
  0
LINE
  8
0
 10
-8.01534
 20
9.73152
 11
-7.98952
 21
9.7272
  0
LINE
  8
0
 10
-7.98952
 20
9.7272
 11
-7.96378
 21
9.72243
  0
LINE
  8
0
 10
-7.96378
 20
9.72243
 11
-7.93813
 21
9.71721
  0
LINE
  8
0
 10
-7.93813
 20
9.71721
 11
-7.91257
 21
9.71155
  0
LINE
  8
0
 10
-7.91257
 20
9.71155
 11
-7.88712
 21
9.70543
  0
LINE
  8
0
 10
-7.88712
 20
9.70543
 11
-7.86177
 21
9.69888
  0
LINE
  8
0
 10
-7.86177
 20
9.69888
 11
-7.83653
 21
9.69188
  0
LINE
  8
0
 10
-7.83653
 20
9.69188
 11
-7.81143
 21
9.68445
  0
LINE
  8
0
 10
-7.81143
 20
9.68445
 11
-7.78647
 21
9.67657
  0
LINE
  8
0
 10
-7.78647
 20
9.67657
 11
-7.76164
 21
9.66827
  0
LINE
  8
0
 10
-7.76164
 20
9.66827
 11
-7.73697
 21
9.65953
  0
LINE
  8
0
 10
-7.73697
 20
9.65953
 11
-7.71243
 21
9.65036
  0
LINE
  8
0
 10
-7.71243
 20
9.65036
 11
-7.68808
 21
9.64076
  0
LINE
  8
0
 10
-7.68808
 20
9.64076
 11
-7.66389
 21
9.63075
  0
LINE
  8
0
 10
-7.66389
 20
9.63075
 11
-7.63989
 21
9.62032
  0
LINE
  8
0
 10
-7.63989
 20
9.62032
 11
-7.61606
 21
9.60945
  0
LINE
  8
0
 10
-7.61606
 20
9.60945
 11
-7.59244
 21
9.59819
  0
LINE
  8
0
 10
-7.59244
 20
9.59819
 11
-7.569
 21
9.5865
  0
LINE
  8
0
 10
-7.569
 20
9.5865
 11
-7.54579
 21
9.57442
  0
LINE
  8
0
 10
-7.54579
 20
9.57442
 11
-7.52278
 21
9.56192
  0
LINE
  8
0
 10
-7.52278
 20
9.56192
 11
-7.5
 21
9.54903
  0
LINE
  8
0
 10
-7.5
 20
9.54903
 11
-7.47743
 21
9.53574
  0
LINE
  8
0
 10
-7.47743
 20
9.53574
 11
-7.45511
 21
9.52206
  0
LINE
  8
0
 10
-7.45511
 20
9.52206
 11
-7.43303
 21
9.508
  0
LINE
  8
0
 10
-7.43303
 20
9.508
 11
-7.41121
 21
9.49355
  0
LINE
  8
0
 10
-7.41121
 20
9.49355
 11
-7.38963
 21
9.47871
  0
LINE
  8
0
 10
-7.38963
 20
9.47871
 11
-7.36832
 21
9.46352
  0
LINE
  8
0
 10
-7.36832
 20
9.46352
 11
-7.34727
 21
9.44795
  0
LINE
  8
0
 10
-7.34727
 20
9.44795
 11
-7.32651
 21
9.43201
  0
LINE
  8
0
 10
-7.32651
 20
9.43201
 11
-7.30602
 21
9.41571
  0
LINE
  8
0
 10
-7.30602
 20
9.41571
 11
-7.28581
 21
9.39906
  0
LINE
  8
0
 10
-7.28581
 20
9.39906
 11
-7.2659
 21
9.38205
  0
LINE
  8
0
 10
-7.2659
 20
9.38205
 11
-7.24629
 21
9.36472
  0
LINE
  8
0
 10
-7.24629
 20
9.36472
 11
-7.22699
 21
9.34702
  0
LINE
  8
0
 10
-7.22699
 20
9.34702
 11
-7.20801
 21
9.32899
  0
LINE
  8
0
 10
-7.20801
 20
9.32899
 11
-7.18933
 21
9.31065
  0
LINE
  8
0
 10
-7.18933
 20
9.31065
 11
-7.17099
 21
9.29198
  0
LINE
  8
0
 10
-7.17099
 20
9.29198
 11
-7.15297
 21
9.27299
  0
LINE
  8
0
 10
-7.15297
 20
9.27299
 11
-7.13527
 21
9.25369
  0
LINE
  8
0
 10
-7.13527
 20
9.25369
 11
-7.11794
 21
9.23409
  0
LINE
  8
0
 10
-7.11794
 20
9.23409
 11
-7.10092
 21
9.21417
  0
LINE
  8
0
 10
-7.10092
 20
9.21417
 11
-7.08427
 21
9.19397
  0
LINE
  8
0
 10
-7.08427
 20
9.19397
 11
-7.06798
 21
9.17348
  0
LINE
  8
0
 10
-7.06798
 20
9.17348
 11
-7.05203
 21
9.15271
  0
LINE
  8
0
 10
-7.05203
 20
9.15271
 11
-7.03647
 21
9.13167
  0
LINE
  8
0
 10
-7.03647
 20
9.13167
 11
-7.02127
 21
9.11035
  0
LINE
  8
0
 10
-7.02127
 20
9.11035
 11
-7.00644
 21
9.08878
  0
LINE
  8
0
 10
-7.00644
 20
9.08878
 11
-6.99199
 21
9.06696
  0
LINE
  8
0
 10
-6.99199
 20
9.06696
 11
-6.97792
 21
9.04488
  0
LINE
  8
0
 10
-6.97792
 20
9.04488
 11
-6.96425
 21
9.02255
  0
LINE
  8
0
 10
-6.96425
 20
9.02255
 11
-6.95096
 21
9
  0
LINE
  8
0
 10
-6.95096
 20
9
 11
-6.93806
 21
8.9772
  0
LINE
  8
0
 10
-6.93806
 20
8.9772
 11
-6.92557
 21
8.95419
  0
LINE
  8
0
 10
-6.92557
 20
8.95419
 11
-6.91348
 21
8.93098
  0
LINE
  8
0
 10
-6.91348
 20
8.93098
 11
-6.90179
 21
8.90755
  0
LINE
  8
0
 10
-6.90179
 20
8.90755
 11
-6.89053
 21
8.88393
  0
LINE
  8
0
 10
-6.89053
 20
8.88393
 11
-6.87967
 21
8.86009
  0
LINE
  8
0
 10
-6.87967
 20
8.86009
 11
-6.86923
 21
8.83609
  0
LINE
  8
0
 10
-6.86923
 20
8.83609
 11
-6.85922
 21
8.8119
  0
LINE
  8
0
 10
-6.85922
 20
8.8119
 11
-6.84962
 21
8.78755
  0
LINE
  8
0
 10
-6.84962
 20
8.78755
 11
-6.84045
 21
8.76302
  0
LINE
  8
0
 10
-6.84045
 20
8.76302
 11
-6.83171
 21
8.73834
  0
LINE
  8
0
 10
-6.83171
 20
8.73834
 11
-6.82341
 21
8.71352
  0
LINE
  8
0
 10
-6.82341
 20
8.71352
 11
-6.81554
 21
8.68855
  0
LINE
  8
0
 10
-6.81554
 20
8.68855
 11
-6.80811
 21
8.66345
  0
LINE
  8
0
 10
-6.80811
 20
8.66345
 11
-6.8011
 21
8.63821
  0
LINE
  8
0
 10
-6.8011
 20
8.63821
 11
-6.79456
 21
8.61287
  0
LINE
  8
0
 10
-6.79456
 20
8.61287
 11
-6.78844
 21
8.58742
  0
LINE
  8
0
 10
-6.78844
 20
8.58742
 11
-6.78278
 21
8.56186
  0
LINE
  8
0
 10
-6.78278
 20
8.56186
 11
-6.77756
 21
8.53621
  0
LINE
  8
0
 10
-6.77756
 20
8.53621
 11
-6.77278
 21
8.51047
  0
LINE
  8
0
 10
-6.77278
 20
8.51047
 11
-6.76846
 21
8.48465
  0
LINE
  8
0
 10
-6.76846
 20
8.48465
 11
-6.76459
 21
8.45876
  0
LINE
  8
0
 10
-6.76459
 20
8.45876
 11
-6.76117
 21
8.4328
  0
LINE
  8
0
 10
-6.76117
 20
8.4328
 11
-6.75821
 21
8.40678
  0
LINE
  8
0
 10
-6.75821
 20
8.40678
 11
-6.75571
 21
8.38072
  0
LINE
  8
0
 10
-6.75571
 20
8.38072
 11
-6.75365
 21
8.35463
  0
LINE
  8
0
 10
-6.75365
 20
8.35463
 11
-6.75204
 21
8.32849
  0
LINE
  8
0
 10
-6.75204
 20
8.32849
 11
-6.7509
 21
8.30234
  0
LINE
  8
0
 10
-6.7509
 20
8.30234
 11
-6.75021
 21
8.27617
  0
LINE
  8
0
 10
-6.75021
 20
8.27617
 11
-6.75
 21
8.25
  0
LINE
  8
0
 10
-6.75
 20
8.25
 11
-6.75021
 21
8.22382
  0
LINE
  8
0
 10
-6.75021
 20
8.22382
 11
-6.7509
 21
8.19765
  0
LINE
  8
0
 10
-6.7509
 20
8.19765
 11
-6.75204
 21
8.17149
  0
LINE
  8
0
 10
-6.75204
 20
8.17149
 11
-6.75365
 21
8.14536
  0
LINE
  8
0
 10
-6.75365
 20
8.14536
 11
-6.75571
 21
8.11926
  0
LINE
  8
0
 10
-6.75571
 20
8.11926
 11
-6.75821
 21
8.0932
  0
LINE
  8
0
 10
-6.75821
 20
8.0932
 11
-6.76117
 21
8.06718
  0
LINE
  8
0
 10
-6.76117
 20
8.06718
 11
-6.76459
 21
8.04123
  0
LINE
  8
0
 10
-6.76459
 20
8.04123
 11
-6.76846
 21
8.01534
  0
LINE
  8
0
 10
-6.76846
 20
8.01534
 11
-6.77278
 21
7.98952
  0
LINE
  8
0
 10
-6.77278
 20
7.98952
 11
-6.77756
 21
7.96378
  0
LINE
  8
0
 10
-6.77756
 20
7.96378
 11
-6.78278
 21
7.93813
  0
LINE
  8
0
 10
-6.78278
 20
7.93813
 11
-6.78844
 21
7.91257
  0
LINE
  8
0
 10
-6.78844
 20
7.91257
 11
-6.79456
 21
7.88712
  0
LINE
  8
0
 10
-6.79456
 20
7.88712
 11
-6.8011
 21
7.86177
  0
LINE
  8
0
 10
-6.8011
 20
7.86177
 11
-6.80811
 21
7.83653
  0
LINE
  8
0
 10
-6.80811
 20
7.83653
 11
-6.81554
 21
7.81143
  0
LINE
  8
0
 10
-6.81554
 20
7.81143
 11
-6.82341
 21
7.78647
  0
LINE
  8
0
 10
-6.82341
 20
7.78647
 11
-6.83171
 21
7.76164
  0
LINE
  8
0
 10
-6.83171
 20
7.76164
 11
-6.84045
 21
7.73697
  0
LINE
  8
0
 10
-6.84045
 20
7.73697
 11
-6.84962
 21
7.71243
  0
LINE
  8
0
 10
-6.84962
 20
7.71243
 11
-6.85922
 21
7.68808
  0
LINE
  8
0
 10
-6.85922
 20
7.68808
 11
-6.86923
 21
7.66389
  0
LINE
  8
0
 10
-6.86923
 20
7.66389
 11
-6.87967
 21
7.63989
  0
LINE
  8
0
 10
-6.87967
 20
7.63989
 11
-6.89053
 21
7.61606
  0
LINE
  8
0
 10
-6.89053
 20
7.61606
 11
-6.90179
 21
7.59244
  0
LINE
  8
0
 10
-6.90179
 20
7.59244
 11
-6.91348
 21
7.569
  0
LINE
  8
0
 10
-6.91348
 20
7.569
 11
-6.92557
 21
7.54579
  0
LINE
  8
0
 10
-6.92557
 20
7.54579
 11
-6.93806
 21
7.52278
  0
LINE
  8
0
 10
-6.93806
 20
7.52278
 11
-6.95096
 21
7.5
  0
LINE
  8
0
 10
-6.95096
 20
7.5
 11
-6.96425
 21
7.47743
  0
LINE
  8
0
 10
-6.96425
 20
7.47743
 11
-6.97792
 21
7.45511
  0
LINE
  8
0
 10
-6.97792
 20
7.45511
 11
-6.99199
 21
7.43303
  0
LINE
  8
0
 10
-6.99199
 20
7.43303
 11
-7.00644
 21
7.41121
  0
LINE
  8
0
 10
-7.00644
 20
7.41121
 11
-7.02127
 21
7.38963
  0
LINE
  8
0
 10
-7.02127
 20
7.38963
 11
-7.03647
 21
7.36832
  0
LINE
  8
0
 10
-7.03647
 20
7.36832
 11
-7.05203
 21
7.34727
  0
LINE
  8
0
 10
-7.05203
 20
7.34727
 11
-7.06798
 21
7.32651
  0
LINE
  8
0
 10
-7.06798
 20
7.32651
 11
-7.08427
 21
7.30602
  0
LINE
  8
0
 10
-7.08427
 20
7.30602
 11
-7.10092
 21
7.28581
  0
LINE
  8
0
 10
-7.10092
 20
7.28581
 11
-7.11794
 21
7.2659
  0
LINE
  8
0
 10
-7.11794
 20
7.2659
 11
-7.13527
 21
7.24629
  0
LINE
  8
0
 10
-7.13527
 20
7.24629
 11
-7.15297
 21
7.22699
  0
LINE
  8
0
 10
-7.15297
 20
7.22699
 11
-7.17099
 21
7.20801
  0
LINE
  8
0
 10
-7.17099
 20
7.20801
 11
-7.18933
 21
7.18933
  0
LINE
  8
0
 10
-7.18933
 20
7.18933
 11
-7.20801
 21
7.17099
  0
LINE
  8
0
 10
-7.20801
 20
7.17099
 11
-7.22699
 21
7.15297
  0
LINE
  8
0
 10
-7.22699
 20
7.15297
 11
-7.24629
 21
7.13527
  0
LINE
  8
0
 10
-7.24629
 20
7.13527
 11
-7.2659
 21
7.11794
  0
LINE
  8
0
 10
-7.2659
 20
7.11794
 11
-7.28581
 21
7.10092
  0
LINE
  8
0
 10
-7.28581
 20
7.10092
 11
-7.30602
 21
7.08427
  0
LINE
  8
0
 10
-7.30602
 20
7.08427
 11
-7.32651
 21
7.06798
  0
LINE
  8
0
 10
-7.32651
 20
7.06798
 11
-7.34727
 21
7.05203
  0
LINE
  8
0
 10
-7.34727
 20
7.05203
 11
-7.36832
 21
7.03647
  0
LINE
  8
0
 10
-7.36832
 20
7.03647
 11
-7.38963
 21
7.02127
  0
LINE
  8
0
 10
-7.38963
 20
7.02127
 11
-7.41121
 21
7.00644
  0
LINE
  8
0
 10
-7.41121
 20
7.00644
 11
-7.43303
 21
6.99199
  0
LINE
  8
0
 10
-7.43303
 20
6.99199
 11
-7.45511
 21
6.97792
  0
LINE
  8
0
 10
-7.45511
 20
6.97792
 11
-7.47743
 21
6.96425
  0
LINE
  8
0
 10
-7.47743
 20
6.96425
 11
-7.5
 21
6.95096
  0
LINE
  8
0
 10
-7.5
 20
6.95096
 11
-7.52278
 21
6.93806
  0
LINE
  8
0
 10
-7.52278
 20
6.93806
 11
-7.54579
 21
6.92557
  0
LINE
  8
0
 10
-7.54579
 20
6.92557
 11
-7.569
 21
6.91348
  0
LINE
  8
0
 10
-7.569
 20
6.91348
 11
-7.59244
 21
6.90179
  0
LINE
  8
0
 10
-7.59244
 20
6.90179
 11
-7.61606
 21
6.89053
  0
LINE
  8
0
 10
-7.61606
 20
6.89053
 11
-7.63989
 21
6.87967
  0
LINE
  8
0
 10
-7.63989
 20
6.87967
 11
-7.66389
 21
6.86923
  0
LINE
  8
0
 10
-7.66389
 20
6.86923
 11
-7.68808
 21
6.85922
  0
LINE
  8
0
 10
-7.68808
 20
6.85922
 11
-7.71243
 21
6.84962
  0
LINE
  8
0
 10
-7.71243
 20
6.84962
 11
-7.73697
 21
6.84045
  0
LINE
  8
0
 10
-7.73697
 20
6.84045
 11
-7.76164
 21
6.83171
  0
LINE
  8
0
 10
-7.76164
 20
6.83171
 11
-7.78647
 21
6.82341
  0
LINE
  8
0
 10
-7.78647
 20
6.82341
 11
-7.81143
 21
6.81554
  0
LINE
  8
0
 10
-7.81143
 20
6.81554
 11
-7.83653
 21
6.80811
  0
LINE
  8
0
 10
-7.83653
 20
6.80811
 11
-7.86177
 21
6.8011
  0
LINE
  8
0
 10
-7.86177
 20
6.8011
 11
-7.88712
 21
6.79456
  0
LINE
  8
0
 10
-7.88712
 20
6.79456
 11
-7.91257
 21
6.78844
  0
LINE
  8
0
 10
-7.91257
 20
6.78844
 11
-7.93813
 21
6.78278
  0
LINE
  8
0
 10
-7.93813
 20
6.78278
 11
-7.96378
 21
6.77756
  0
LINE
  8
0
 10
-7.96378
 20
6.77756
 11
-7.98952
 21
6.77278
  0
LINE
  8
0
 10
-7.98952
 20
6.77278
 11
-8.01534
 21
6.76846
  0
LINE
  8
0
 10
-8.01534
 20
6.76846
 11
-8.04123
 21
6.76459
  0
LINE
  8
0
 10
-8.04123
 20
6.76459
 11
-8.06718
 21
6.76117
  0
LINE
  8
0
 10
-8.06718
 20
6.76117
 11
-8.0932
 21
6.75821
  0
LINE
  8
0
 10
-8.0932
 20
6.75821
 11
-8.11926
 21
6.75571
  0
LINE
  8
0
 10
-8.11926
 20
6.75571
 11
-8.14536
 21
6.75365
  0
LINE
  8
0
 10
-8.14536
 20
6.75365
 11
-8.17149
 21
6.75204
  0
LINE
  8
0
 10
-8.17149
 20
6.75204
 11
-8.19765
 21
6.7509
  0
LINE
  8
0
 10
-8.19765
 20
6.7509
 11
-8.22382
 21
6.75021
  0
LINE
  8
0
 10
-8.22382
 20
6.75021
 11
-8.25
 21
6.75
  0
LINE
  8
0
 10
-8.25
 20
6.75
 11
-8.27617
 21
6.75021
  0
LINE
  8
0
 10
-11.8024
 20
-2.99954
 11
-11.8547
 21
-2.99817
  0
LINE
  8
0
 10
-11.8547
 20
-2.99817
 11
-11.907
 21
-2.99588
  0
LINE
  8
0
 10
-11.907
 20
-2.99588
 11
-11.9593
 21
-2.99269
  0
LINE
  8
0
 10
-11.9593
 20
-2.99269
 11
-12.0115
 21
-2.98857
  0
LINE
  8
0
 10
-12.0115
 20
-2.98857
 11
-12.0636
 21
-2.98355
  0
LINE
  8
0
 10
-12.0636
 20
-2.98355
 11
-12.1156
 21
-2.97763
  0
LINE
  8
0
 10
-12.1156
 20
-2.97763
 11
-12.1675
 21
-2.97079
  0
LINE
  8
0
 10
-12.1675
 20
-2.97079
 11
-12.2193
 21
-2.96306
  0
LINE
  8
0
 10
-12.2193
 20
-2.96306
 11
-12.2709
 21
-2.95442
  0
LINE
  8
0
 10
-12.2709
 20
-2.95442
 11
-12.3224
 21
-2.94487
  0
LINE
  8
0
 10
-12.3224
 20
-2.94487
 11
-12.3737
 21
-2.93443
  0
LINE
  8
0
 10
-12.3737
 20
-2.93443
 11
-12.4249
 21
-2.9231
  0
LINE
  8
0
 10
-12.4249
 20
-2.9231
 11
-12.4758
 21
-2.91087
  0
LINE
  8
0
 10
-12.4758
 20
-2.91087
 11
-12.5264
 21
-2.89777
  0
LINE
  8
0
 10
-12.5264
 20
-2.89777
 11
-12.5769
 21
-2.88377
  0
LINE
  8
0
 10
-12.5769
 20
-2.88377
 11
-12.6271
 21
-2.86891
  0
LINE
  8
0
 10
-12.6271
 20
-2.86891
 11
-12.677
 21
-2.85316
  0
LINE
  8
0
 10
-12.677
 20
-2.85316
 11
-12.7267
 21
-2.83655
  0
LINE
  8
0
 10
-12.7267
 20
-2.83655
 11
-12.776
 21
-2.81908
  0
LINE
  8
0
 10
-12.776
 20
-2.81908
 11
-12.8251
 21
-2.80074
  0
LINE
  8
0
 10
-12.8251
 20
-2.80074
 11
-12.8738
 21
-2.78154
  0
LINE
  8
0
 10
-12.8738
 20
-2.78154
 11
-12.9222
 21
-2.76151
  0
LINE
  8
0
 10
-12.9222
 20
-2.76151
 11
-12.9702
 21
-2.74063
  0
LINE
  8
0
 10
-12.9702
 20
-2.74063
 11
-13.0179
 21
-2.71892
  0
LINE
  8
0
 10
-13.0179
 20
-2.71892
 11
-13.0651
 21
-2.69638
  0
LINE
  8
0
 10
-13.0651
 20
-2.69638
 11
-13.112
 21
-2.67302
  0
LINE
  8
0
 10
-13.112
 20
-2.67302
 11
-13.1584
 21
-2.64883
  0
LINE
  8
0
 10
-13.1584
 20
-2.64883
 11
-13.2044
 21
-2.62386
  0
LINE
  8
0
 10
-13.2044
 20
-2.62386
 11
-13.25
 21
-2.59807
  0
LINE
  8
0
 10
-13.25
 20
-2.59807
 11
-13.2951
 21
-2.57149
  0
LINE
  8
0
 10
-13.2951
 20
-2.57149
 11
-13.3398
 21
-2.54414
  0
LINE
  8
0
 10
-13.3398
 20
-2.54414
 11
-13.3839
 21
-2.51601
  0
LINE
  8
0
 10
-13.3839
 20
-2.51601
 11
-13.4276
 21
-2.48711
  0
LINE
  8
0
 10
-13.4276
 20
-2.48711
 11
-13.4707
 21
-2.45744
  0
LINE
  8
0
 10
-13.4707
 20
-2.45744
 11
-13.5134
 21
-2.42705
  0
LINE
  8
0
 10
-13.5134
 20
-2.42705
 11
-13.5554
 21
-2.3959
  0
LINE
  8
0
 10
-13.5554
 20
-2.3959
 11
-13.597
 21
-2.36403
  0
LINE
  8
0
 10
-13.597
 20
-2.36403
 11
-13.638
 21
-2.33144
  0
LINE
  8
0
 10
-13.638
 20
-2.33144
 11
-13.6784
 21
-2.29813
  0
LINE
  8
0
 10
-13.6784
 20
-2.29813
 11
-13.7182
 21
-2.26411
  0
LINE
  8
0
 10
-13.7182
 20
-2.26411
 11
-13.7574
 21
-2.22943
  0
LINE
  8
0
 10
-13.7574
 20
-2.22943
 11
-13.796
 21
-2.19405
  0
LINE
  8
0
 10
-13.796
 20
-2.19405
 11
-13.834
 21
-2.158
  0
LINE
  8
0
 10
-13.834
 20
-2.158
 11
-13.8713
 21
-2.12131
  0
LINE
  8
0
 10
-13.8713
 20
-2.12131
 11
-13.908
 21
-2.08397
  0
LINE
  8
0
 10
-13.908
 20
-2.08397
 11
-13.944
 21
-2.04599
  0
LINE
  8
0
 10
-13.944
 20
-2.04599
 11
-13.9794
 21
-2.00739
  0
LINE
  8
0
 10
-13.9794
 20
-2.00739
 11
-14.0141
 21
-1.96817
  0
LINE
  8
0
 10
-14.0141
 20
-1.96817
 11
-14.0481
 21
-1.92836
  0
LINE
  8
0
 10
-14.0481
 20
-1.92836
 11
-14.0814
 21
-1.88795
  0
LINE
  8
0
 10
-14.0814
 20
-1.88795
 11
-14.114
 21
-1.84697
  0
LINE
  8
0
 10
-14.114
 20
-1.84697
 11
-14.1459
 21
-1.80544
  0
LINE
  8
0
 10
-14.1459
 20
-1.80544
 11
-14.177
 21
-1.76335
  0
LINE
  8
0
 10
-14.177
 20
-1.76335
 11
-14.2074
 21
-1.72072
  0
LINE
  8
0
 10
-14.2074
 20
-1.72072
 11
-14.2371
 21
-1.67757
  0
LINE
  8
0
 10
-14.2371
 20
-1.67757
 11
-14.266
 21
-1.63391
  0
LINE
  8
0
 10
-14.266
 20
-1.63391
 11
-14.2941
 21
-1.58975
  0
LINE
  8
0
 10
-14.2941
 20
-1.58975
 11
-14.3215
 21
-1.5451
  0
LINE
  8
0
 10
-14.3215
 20
-1.5451
 11
-14.3481
 21
-1.5
  0
LINE
  8
0
 10
-14.3481
 20
-1.5
 11
-14.3739
 21
-1.45442
  0
LINE
  8
0
 10
-14.3739
 20
-1.45442
 11
-14.3988
 21
-1.4084
  0
LINE
  8
0
 10
-14.3988
 20
-1.4084
 11
-14.423
 21
-1.36197
  0
LINE
  8
0
 10
-14.423
 20
-1.36197
 11
-14.4464
 21
-1.31511
  0
LINE
  8
0
 10
-14.4464
 20
-1.31511
 11
-14.4689
 21
-1.26785
  0
LINE
  8
0
 10
-14.4689
 20
-1.26785
 11
-14.4906
 21
-1.2202
  0
LINE
  8
0
 10
-14.4906
 20
-1.2202
 11
-14.5115
 21
-1.17218
  0
LINE
  8
0
 10
-14.5115
 20
-1.17218
 11
-14.5315
 21
-1.12381
  0
LINE
  8
0
 10
-14.5315
 20
-1.12381
 11
-14.5507
 21
-1.0751
  0
LINE
  8
0
 10
-14.5507
 20
-1.0751
 11
-14.5691
 21
-1.02605
  0
LINE
  8
0
 10
-14.5691
 20
-1.02605
 11
-14.5865
 21
-0.9767
  0
LINE
  8
0
 10
-14.5865
 20
-0.9767
 11
-14.6032
 21
-0.927048
  0
LINE
  8
0
 10
-14.6032
 20
-0.927048
 11
-14.6189
 21
-0.877106
  0
LINE
  8
0
 10
-14.6189
 20
-0.877106
 11
-14.6338
 21
-0.826904
  0
LINE
  8
0
 10
-14.6338
 20
-0.826904
 11
-14.6478
 21
-0.776443
  0
LINE
  8
0
 10
-14.6478
 20
-0.776443
 11
-14.6609
 21
-0.725754
  0
LINE
  8
0
 10
-14.6609
 20
-0.725754
 11
-14.6731
 21
-0.67485
  0
LINE
  8
0
 10
-14.6731
 20
-0.67485
 11
-14.6844
 21
-0.623734
  0
LINE
  8
0
 10
-14.6844
 20
-0.623734
 11
-14.6949
 21
-0.572418
  0
LINE
  8
0
 10
-14.6949
 20
-0.572418
 11
-14.7044
 21
-0.520935
  0
LINE
  8
0
 10
-14.7044
 20
-0.520935
 11
-14.7131
 21
-0.469299
  0
LINE
  8
0
 10
-14.7131
 20
-0.469299
 11
-14.7208
 21
-0.417511
  0
LINE
  8
0
 10
-14.7208
 20
-0.417511
 11
-14.7276
 21
-0.365601
  0
LINE
  8
0
 10
-14.7276
 20
-0.365601
 11
-14.7336
 21
-0.313583
  0
LINE
  8
0
 10
-14.7336
 20
-0.313583
 11
-14.7386
 21
-0.261459
  0
LINE
  8
0
 10
-14.7386
 20
-0.261459
 11
-14.7427
 21
-0.209259
  0
LINE
  8
0
 10
-14.7427
 20
-0.209259
 11
-14.7459
 21
-0.156998
  0
LINE
  8
0
 10
-14.7459
 20
-0.156998
 11
-14.7482
 21
-0.104691
  0
LINE
  8
0
 10
-14.7482
 20
-0.104691
 11
-14.7495
 21
-0.0523529
  0
LINE
  8
0
 10
-14.7495
 20
-0.0523529
 11
-14.75
 21
0
  0
LINE
  8
0
 10
-14.75
 20
0
 11
-14.7495
 21
0.0523529
  0
LINE
  8
0
 10
-14.7495
 20
0.0523529
 11
-14.7482
 21
0.104691
  0
LINE
  8
0
 10
-14.7482
 20
0.104691
 11
-14.7459
 21
0.156998
  0
LINE
  8
0
 10
-14.7459
 20
0.156998
 11
-14.7427
 21
0.209259
  0
LINE
  8
0
 10
-14.7427
 20
0.209259
 11
-14.7386
 21
0.261459
  0
LINE
  8
0
 10
-14.7386
 20
0.261459
 11
-14.7336
 21
0.313583
  0
LINE
  8
0
 10
-14.7336
 20
0.313583
 11
-14.7276
 21
0.365601
  0
LINE
  8
0
 10
-14.7276
 20
0.365601
 11
-14.7208
 21
0.417511
  0
LINE
  8
0
 10
-14.7208
 20
0.417511
 11
-14.7131
 21
0.469299
  0
LINE
  8
0
 10
-14.7131
 20
0.469299
 11
-14.7044
 21
0.520935
  0
LINE
  8
0
 10
-14.7044
 20
0.520935
 11
-14.6949
 21
0.572418
  0
LINE
  8
0
 10
-14.6949
 20
0.572418
 11
-14.6844
 21
0.623734
  0
LINE
  8
0
 10
-14.6844
 20
0.623734
 11
-14.6731
 21
0.67485
  0
LINE
  8
0
 10
-14.6731
 20
0.67485
 11
-14.6609
 21
0.725754
  0
LINE
  8
0
 10
-14.6609
 20
0.725754
 11
-14.6478
 21
0.776443
  0
LINE
  8
0
 10
-14.6478
 20
0.776443
 11
-14.6338
 21
0.826904
  0
LINE
  8
0
 10
-14.6338
 20
0.826904
 11
-14.6189
 21
0.877106
  0
LINE
  8
0
 10
-14.6189
 20
0.877106
 11
-14.6032
 21
0.927048
  0
LINE
  8
0
 10
-14.6032
 20
0.927048
 11
-14.5865
 21
0.9767
  0
LINE
  8
0
 10
-14.5865
 20
0.9767
 11
-14.5691
 21
1.02605
  0
LINE
  8
0
 10
-14.5691
 20
1.02605
 11
-14.5507
 21
1.0751
  0
LINE
  8
0
 10
-14.5507
 20
1.0751
 11
-14.5315
 21
1.12381
  0
LINE
  8
0
 10
-14.5315
 20
1.12381
 11
-14.5115
 21
1.17218
  0
LINE
  8
0
 10
-14.5115
 20
1.17218
 11
-14.4906
 21
1.2202
  0
LINE
  8
0
 10
-14.4906
 20
1.2202
 11
-14.4689
 21
1.26785
  0
LINE
  8
0
 10
-14.4689
 20
1.26785
 11
-14.4464
 21
1.31511
  0
LINE
  8
0
 10
-14.4464
 20
1.31511
 11
-14.423
 21
1.36197
  0
LINE
  8
0
 10
-14.423
 20
1.36197
 11
-14.3988
 21
1.4084
  0
LINE
  8
0
 10
-14.3988
 20
1.4084
 11
-14.3739
 21
1.45442
  0
LINE
  8
0
 10
-14.3739
 20
1.45442
 11
-14.3481
 21
1.5
  0
LINE
  8
0
 10
-14.3481
 20
1.5
 11
-14.3215
 21
1.5451
  0
LINE
  8
0
 10
-14.3215
 20
1.5451
 11
-14.2941
 21
1.58975
  0
LINE
  8
0
 10
-14.2941
 20
1.58975
 11
-14.266
 21
1.63391
  0
LINE
  8
0
 10
-14.266
 20
1.63391
 11
-14.2371
 21
1.67757
  0
LINE
  8
0
 10
-14.2371
 20
1.67757
 11
-14.2074
 21
1.72072
  0
LINE
  8
0
 10
-14.2074
 20
1.72072
 11
-14.177
 21
1.76335
  0
LINE
  8
0
 10
-14.177
 20
1.76335
 11
-14.1459
 21
1.80544
  0
LINE
  8
0
 10
-14.1459
 20
1.80544
 11
-14.114
 21
1.84697
  0
LINE
  8
0
 10
-14.114
 20
1.84697
 11
-14.0814
 21
1.88795
  0
LINE
  8
0
 10
-14.0814
 20
1.88795
 11
-14.0481
 21
1.92836
  0
LINE
  8
0
 10
-14.0481
 20
1.92836
 11
-14.0141
 21
1.96817
  0
LINE
  8
0
 10
-14.0141
 20
1.96817
 11
-13.9794
 21
2.00739
  0
LINE
  8
0
 10
-13.9794
 20
2.00739
 11
-13.944
 21
2.04599
  0
LINE
  8
0
 10
-13.944
 20
2.04599
 11
-13.908
 21
2.08397
  0
LINE
  8
0
 10
-13.908
 20
2.08397
 11
-13.8713
 21
2.12131
  0
LINE
  8
0
 10
-13.8713
 20
2.12131
 11
-13.834
 21
2.158
  0
LINE
  8
0
 10
-13.834
 20
2.158
 11
-13.796
 21
2.19405
  0
LINE
  8
0
 10
-13.796
 20
2.19405
 11
-13.7574
 21
2.22943
  0
LINE
  8
0
 10
-13.7574
 20
2.22943
 11
-13.7182
 21
2.26411
  0
LINE
  8
0
 10
-13.7182
 20
2.26411
 11
-13.6784
 21
2.29813
  0
LINE
  8
0
 10
-13.6784
 20
2.29813
 11
-13.638
 21
2.33144
  0
LINE
  8
0
 10
-13.638
 20
2.33144
 11
-13.597
 21
2.36403
  0
LINE
  8
0
 10
-13.597
 20
2.36403
 11
-13.5554
 21
2.3959
  0
LINE
  8
0
 10
-13.5554
 20
2.3959
 11
-13.5134
 21
2.42705
  0
LINE
  8
0
 10
-13.5134
 20
2.42705
 11
-13.4707
 21
2.45744
  0
LINE
  8
0
 10
-13.4707
 20
2.45744
 11
-13.4276
 21
2.48711
  0
LINE
  8
0
 10
-13.4276
 20
2.48711
 11
-13.3839
 21
2.51601
  0
LINE
  8
0
 10
-13.3839
 20
2.51601
 11
-13.3398
 21
2.54414
  0
LINE
  8
0
 10
-13.3398
 20
2.54414
 11
-13.2951
 21
2.57149
  0
LINE
  8
0
 10
-13.2951
 20
2.57149
 11
-13.25
 21
2.59807
  0
LINE
  8
0
 10
-13.25
 20
2.59807
 11
-13.2044
 21
2.62386
  0
LINE
  8
0
 10
-13.2044
 20
2.62386
 11
-13.1584
 21
2.64883
  0
LINE
  8
0
 10
-13.1584
 20
2.64883
 11
-13.112
 21
2.67302
  0
LINE
  8
0
 10
-13.112
 20
2.67302
 11
-13.0651
 21
2.69638
  0
LINE
  8
0
 10
-13.0651
 20
2.69638
 11
-13.0179
 21
2.71892
  0
LINE
  8
0
 10
-13.0179
 20
2.71892
 11
-12.9702
 21
2.74063
  0
LINE
  8
0
 10
-12.9702
 20
2.74063
 11
-12.9222
 21
2.76151
  0
LINE
  8
0
 10
-12.9222
 20
2.76151
 11
-12.8738
 21
2.78154
  0
LINE
  8
0
 10
-12.8738
 20
2.78154
 11
-12.8251
 21
2.80074
  0
LINE
  8
0
 10
-12.8251
 20
2.80074
 11
-12.776
 21
2.81908
  0
LINE
  8
0
 10
-12.776
 20
2.81908
 11
-12.7267
 21
2.83655
  0
LINE
  8
0
 10
-12.7267
 20
2.83655
 11
-12.677
 21
2.85316
  0
LINE
  8
0
 10
-12.677
 20
2.85316
 11
-12.6271
 21
2.86891
  0
LINE
  8
0
 10
-12.6271
 20
2.86891
 11
-12.5769
 21
2.88377
  0
LINE
  8
0
 10
-12.5769
 20
2.88377
 11
-12.5264
 21
2.89777
  0
LINE
  8
0
 10
-12.5264
 20
2.89777
 11
-12.4758
 21
2.91087
  0
LINE
  8
0
 10
-12.4758
 20
2.91087
 11
-12.4249
 21
2.9231
  0
LINE
  8
0
 10
-12.4249
 20
2.9231
 11
-12.3737
 21
2.93443
  0
LINE
  8
0
 10
-12.3737
 20
2.93443
 11
-12.3224
 21
2.94487
  0
LINE
  8
0
 10
-12.3224
 20
2.94487
 11
-12.2709
 21
2.95442
  0
LINE
  8
0
 10
-12.2709
 20
2.95442
 11
-12.2193
 21
2.96306
  0
LINE
  8
0
 10
-12.2193
 20
2.96306
 11
-12.1675
 21
2.97079
  0
LINE
  8
0
 10
-12.1675
 20
2.97079
 11
-12.1156
 21
2.97763
  0
LINE
  8
0
 10
-12.1156
 20
2.97763
 11
-12.0636
 21
2.98355
  0
LINE
  8
0
 10
-12.0636
 20
2.98355
 11
-12.0115
 21
2.98857
  0
LINE
  8
0
 10
-12.0115
 20
2.98857
 11
-11.9593
 21
2.99269
  0
LINE
  8
0
 10
-11.9593
 20
2.99269
 11
-11.907
 21
2.99588
  0
LINE
  8
0
 10
-11.907
 20
2.99588
 11
-11.8547
 21
2.99817
  0
LINE
  8
0
 10
-11.8547
 20
2.99817
 11
-11.8024
 21
2.99954
  0
LINE
  8
0
 10
-11.8024
 20
2.99954
 11
-11.75
 21
3
  0
LINE
  8
0
 10
-11.75
 20
3
 11
-11.6976
 21
2.99954
  0
LINE
  8
0
 10
-11.6976
 20
2.99954
 11
-11.6453
 21
2.99817
  0
LINE
  8
0
 10
-11.6453
 20
2.99817
 11
-11.593
 21
2.99588
  0
LINE
  8
0
 10
-11.593
 20
2.99588
 11
-11.5407
 21
2.99269
  0
LINE
  8
0
 10
-11.5407
 20
2.99269
 11
-11.4885
 21
2.98857
  0
LINE
  8
0
 10
-11.4885
 20
2.98857
 11
-11.4364
 21
2.98355
  0
LINE
  8
0
 10
-11.4364
 20
2.98355
 11
-11.3844
 21
2.97763
  0
LINE
  8
0
 10
-11.3844
 20
2.97763
 11
-11.3325
 21
2.97079
  0
LINE
  8
0
 10
-11.3325
 20
2.97079
 11
-11.2807
 21
2.96306
  0
LINE
  8
0
 10
-11.2807
 20
2.96306
 11
-11.229
 21
2.95442
  0
LINE
  8
0
 10
-11.229
 20
2.95442
 11
-11.1776
 21
2.94487
  0
LINE
  8
0
 10
-11.1776
 20
2.94487
 11
-11.1263
 21
2.93443
  0
LINE
  8
0
 10
-11.1263
 20
2.93443
 11
-11.0751
 21
2.9231
  0
LINE
  8
0
 10
-11.0751
 20
2.9231
 11
-11.0242
 21
2.91087
  0
LINE
  8
0
 10
-11.0242
 20
2.91087
 11
-10.9735
 21
2.89777
  0
LINE
  8
0
 10
-10.9735
 20
2.89777
 11
-10.9231
 21
2.88377
  0
LINE
  8
0
 10
-10.9231
 20
2.88377
 11
-10.8729
 21
2.86891
  0
LINE
  8
0
 10
-10.8729
 20
2.86891
 11
-10.8229
 21
2.85316
  0
LINE
  8
0
 10
-10.8229
 20
2.85316
 11
-10.7733
 21
2.83655
  0
LINE
  8
0
 10
-10.7733
 20
2.83655
 11
-10.7239
 21
2.81908
  0
LINE
  8
0
 10
-10.7239
 20
2.81908
 11
-10.6749
 21
2.80074
  0
LINE
  8
0
 10
-10.6749
 20
2.80074
 11
-10.6262
 21
2.78154
  0
LINE
  8
0
 10
-10.6262
 20
2.78154
 11
-10.5778
 21
2.76151
  0
LINE
  8
0
 10
-10.5778
 20
2.76151
 11
-10.5298
 21
2.74063
  0
LINE
  8
0
 10
-10.5298
 20
2.74063
 11
-10.4821
 21
2.71892
  0
LINE
  8
0
 10
-10.4821
 20
2.71892
 11
-10.4349
 21
2.69638
  0
LINE
  8
0
 10
-10.4349
 20
2.69638
 11
-10.388
 21
2.67302
  0
LINE
  8
0
 10
-10.388
 20
2.67302
 11
-10.3416
 21
2.64883
  0
LINE
  8
0
 10
-10.3416
 20
2.64883
 11
-10.2956
 21
2.62386
  0
LINE
  8
0
 10
-10.2956
 20
2.62386
 11
-10.25
 21
2.59807
  0
LINE
  8
0
 10
-10.25
 20
2.59807
 11
-10.2049
 21
2.57149
  0
LINE
  8
0
 10
-10.2049
 20
2.57149
 11
-10.1602
 21
2.54414
  0
LINE
  8
0
 10
-10.1602
 20
2.54414
 11
-10.1161
 21
2.51601
  0
LINE
  8
0
 10
-10.1161
 20
2.51601
 11
-10.0724
 21
2.48711
  0
LINE
  8
0
 10
-10.0724
 20
2.48711
 11
-10.0293
 21
2.45744
  0
LINE
  8
0
 10
-10.0293
 20
2.45744
 11
-9.98663
 21
2.42705
  0
LINE
  8
0
 10
-9.98663
 20
2.42705
 11
-9.94455
 21
2.3959
  0
LINE
  8
0
 10
-9.94455
 20
2.3959
 11
-9.90302
 21
2.36403
  0
LINE
  8
0
 10
-9.90302
 20
2.36403
 11
-9.86203
 21
2.33144
  0
LINE
  8
0
 10
-9.86203
 20
2.33144
 11
-9.82162
 21
2.29813
  0
LINE
  8
0
 10
-9.82162
 20
2.29813
 11
-9.78181
 21
2.26411
  0
LINE
  8
0
 10
-9.78181
 20
2.26411
 11
-9.7426
 21
2.22943
  0
LINE
  8
0
 10
-9.7426
 20
2.22943
 11
-9.70399
 21
2.19405
  0
LINE
  8
0
 10
-9.70399
 20
2.19405
 11
-9.66602
 21
2.158
  0
LINE
  8
0
 10
-9.66602
 20
2.158
 11
-9.62868
 21
2.12131
  0
LINE
  8
0
 10
-9.62868
 20
2.12131
 11
-9.59198
 21
2.08397
  0
LINE
  8
0
 10
-9.59198
 20
2.08397
 11
-9.55594
 21
2.04599
  0
LINE
  8
0
 10
-9.55594
 20
2.04599
 11
-9.52055
 21
2.00739
  0
LINE
  8
0
 10
-9.52055
 20
2.00739
 11
-9.48587
 21
1.96817
  0
LINE
  8
0
 10
-9.48587
 20
1.96817
 11
-9.45186
 21
1.92836
  0
LINE
  8
0
 10
-9.45186
 20
1.92836
 11
-9.41855
 21
1.88795
  0
LINE
  8
0
 10
-9.41855
 20
1.88795
 11
-9.38596
 21
1.84697
  0
LINE
  8
0
 10
-9.38596
 20
1.84697
 11
-9.35408
 21
1.80544
  0
LINE
  8
0
 10
-9.35408
 20
1.80544
 11
-9.32294
 21
1.76335
  0
LINE
  8
0
 10
-9.32294
 20
1.76335
 11
-9.29254
 21
1.72072
  0
LINE
  8
0
 10
-9.29254
 20
1.72072
 11
-9.26288
 21
1.67757
  0
LINE
  8
0
 10
-9.26288
 20
1.67757
 11
-9.23398
 21
1.63391
  0
LINE
  8
0
 10
-9.23398
 20
1.63391
 11
-9.20584
 21
1.58975
  0
LINE
  8
0
 10
-9.20584
 20
1.58975
 11
-9.1785
 21
1.5451
  0
LINE
  8
0
 10
-9.1785
 20
1.5451
 11
-9.15192
 21
1.5
  0
LINE
  8
0
 10
-9.15192
 20
1.5
 11
-9.12613
 21
1.45442
  0
LINE
  8
0
 10
-9.12613
 20
1.45442
 11
-9.10115
 21
1.4084
  0
LINE
  8
0
 10
-9.10115
 20
1.4084
 11
-9.07697
 21
1.36197
  0
LINE
  8
0
 10
-9.07697
 20
1.36197
 11
-9.0536
 21
1.31511
  0
LINE
  8
0
 10
-9.0536
 20
1.31511
 11
-9.03107
 21
1.26785
  0
LINE
  8
0
 10
-9.03107
 20
1.26785
 11
-9.00935
 21
1.2202
  0
LINE
  8
0
 10
-9.00935
 20
1.2202
 11
-8.98848
 21
1.17218
  0
LINE
  8
0
 10
-8.98848
 20
1.17218
 11
-8.96844
 21
1.12381
  0
LINE
  8
0
 10
-8.96844
 20
1.12381
 11
-8.94925
 21
1.0751
  0
LINE
  8
0
 10
-8.94925
 20
1.0751
 11
-8.93091
 21
1.02605
  0
LINE
  8
0
 10
-8.93091
 20
1.02605
 11
-8.91344
 21
0.9767
  0
LINE
  8
0
 10
-8.91344
 20
0.9767
 11
-8.89682
 21
0.927048
  0
LINE
  8
0
 10
-8.89682
 20
0.927048
 11
-8.88107
 21
0.877106
  0
LINE
  8
0
 10
-8.88107
 20
0.877106
 11
-8.86621
 21
0.826904
  0
LINE
  8
0
 10
-8.86621
 20
0.826904
 11
-8.85222
 21
0.776443
  0
LINE
  8
0
 10
-8.85222
 20
0.776443
 11
-8.83911
 21
0.725754
  0
LINE
  8
0
 10
-8.83911
 20
0.725754
 11
-8.82689
 21
0.67485
  0
LINE
  8
0
 10
-8.82689
 20
0.67485
 11
-8.81555
 21
0.623734
  0
LINE
  8
0
 10
-8.81555
 20
0.623734
 11
-8.80511
 21
0.572418
  0
LINE
  8
0
 10
-8.80511
 20
0.572418
 11
-8.79556
 21
0.520935
  0
LINE
  8
0
 10
-8.79556
 20
0.520935
 11
-8.78693
 21
0.469299
  0
LINE
  8
0
 10
-8.78693
 20
0.469299
 11
-8.77919
 21
0.417511
  0
LINE
  8
0
 10
-8.77919
 20
0.417511
 11
-8.77235
 21
0.365601
  0
LINE
  8
0
 10
-8.77235
 20
0.365601
 11
-8.76643
 21
0.313583
  0
LINE
  8
0
 10
-8.76643
 20
0.313583
 11
-8.76141
 21
0.261459
  0
LINE
  8
0
 10
-8.76141
 20
0.261459
 11
-8.75729
 21
0.209259
  0
LINE
  8
0
 10
-8.75729
 20
0.209259
 11
-8.7541
 21
0.156998
  0
LINE
  8
0
 10
-8.7541
 20
0.156998
 11
-8.75182
 21
0.104691
  0
LINE
  8
0
 10
-8.75182
 20
0.104691
 11
-8.75044
 21
0.0523529
  0
LINE
  8
0
 10
-8.75044
 20
0.0523529
 11
-8.75
 21
0
  0
LINE
  8
0
 10
-8.75
 20
0
 11
-8.75044
 21
-0.0523529
  0
LINE
  8
0
 10
-8.75044
 20
-0.0523529
 11
-8.75182
 21
-0.104691
  0
LINE
  8
0
 10
-8.75182
 20
-0.104691
 11
-8.7541
 21
-0.156998
  0
LINE
  8
0
 10
-8.7541
 20
-0.156998
 11
-8.75729
 21
-0.209259
  0
LINE
  8
0
 10
-8.75729
 20
-0.209259
 11
-8.76141
 21
-0.261459
  0
LINE
  8
0
 10
-8.76141
 20
-0.261459
 11
-8.76643
 21
-0.313583
  0
LINE
  8
0
 10
-8.76643
 20
-0.313583
 11
-8.77235
 21
-0.365601
  0
LINE
  8
0
 10
-8.77235
 20
-0.365601
 11
-8.77919
 21
-0.417511
  0
LINE
  8
0
 10
-8.77919
 20
-0.417511
 11
-8.78693
 21
-0.469299
  0
LINE
  8
0
 10
-8.78693
 20
-0.469299
 11
-8.79556
 21
-0.520935
  0
LINE
  8
0
 10
-8.79556
 20
-0.520935
 11
-8.80511
 21
-0.572418
  0
LINE
  8
0
 10
-8.80511
 20
-0.572418
 11
-8.81555
 21
-0.623734
  0
LINE
  8
0
 10
-8.81555
 20
-0.623734
 11
-8.82689
 21
-0.67485
  0
LINE
  8
0
 10
-8.82689
 20
-0.67485
 11
-8.83911
 21
-0.725754
  0
LINE
  8
0
 10
-8.83911
 20
-0.725754
 11
-8.85222
 21
-0.776443
  0
LINE
  8
0
 10
-8.85222
 20
-0.776443
 11
-8.86621
 21
-0.826904
  0
LINE
  8
0
 10
-8.86621
 20
-0.826904
 11
-8.88107
 21
-0.877106
  0
LINE
  8
0
 10
-8.88107
 20
-0.877106
 11
-8.89682
 21
-0.927048
  0
LINE
  8
0
 10
-8.89682
 20
-0.927048
 11
-8.91344
 21
-0.9767
  0
LINE
  8
0
 10
-8.91344
 20
-0.9767
 11
-8.93091
 21
-1.02605
  0
LINE
  8
0
 10
-8.93091
 20
-1.02605
 11
-8.94925
 21
-1.0751
  0
LINE
  8
0
 10
-8.94925
 20
-1.0751
 11
-8.96844
 21
-1.12381
  0
LINE
  8
0
 10
-8.96844
 20
-1.12381
 11
-8.98848
 21
-1.17218
  0
LINE
  8
0
 10
-8.98848
 20
-1.17218
 11
-9.00935
 21
-1.2202
  0
LINE
  8
0
 10
-9.00935
 20
-1.2202
 11
-9.03107
 21
-1.26785
  0
LINE
  8
0
 10
-9.03107
 20
-1.26785
 11
-9.0536
 21
-1.31511
  0
LINE
  8
0
 10
-9.0536
 20
-1.31511
 11
-9.07697
 21
-1.36197
  0
LINE
  8
0
 10
-9.07697
 20
-1.36197
 11
-9.10115
 21
-1.4084
  0
LINE
  8
0
 10
-9.10115
 20
-1.4084
 11
-9.12613
 21
-1.45442
  0
LINE
  8
0
 10
-9.12613
 20
-1.45442
 11
-9.15192
 21
-1.5
  0
LINE
  8
0
 10
-9.15192
 20
-1.5
 11
-9.1785
 21
-1.5451
  0
LINE
  8
0
 10
-9.1785
 20
-1.5451
 11
-9.20584
 21
-1.58975
  0
LINE
  8
0
 10
-9.20584
 20
-1.58975
 11
-9.23398
 21
-1.63391
  0
LINE
  8
0
 10
-9.23398
 20
-1.63391
 11
-9.26288
 21
-1.67757
  0
LINE
  8
0
 10
-9.26288
 20
-1.67757
 11
-9.29254
 21
-1.72072
  0
LINE
  8
0
 10
-9.29254
 20
-1.72072
 11
-9.32294
 21
-1.76335
  0
LINE
  8
0
 10
-9.32294
 20
-1.76335
 11
-9.35408
 21
-1.80544
  0
LINE
  8
0
 10
-9.35408
 20
-1.80544
 11
-9.38596
 21
-1.84697
  0
LINE
  8
0
 10
-9.38596
 20
-1.84697
 11
-9.41855
 21
-1.88795
  0
LINE
  8
0
 10
-9.41855
 20
-1.88795
 11
-9.45186
 21
-1.92836
  0
LINE
  8
0
 10
-9.45186
 20
-1.92836
 11
-9.48587
 21
-1.96817
  0
LINE
  8
0
 10
-9.48587
 20
-1.96817
 11
-9.52055
 21
-2.00739
  0
LINE
  8
0
 10
-9.52055
 20
-2.00739
 11
-9.55594
 21
-2.04599
  0
LINE
  8
0
 10
-9.55594
 20
-2.04599
 11
-9.59198
 21
-2.08397
  0
LINE
  8
0
 10
-9.59198
 20
-2.08397
 11
-9.62868
 21
-2.12131
  0
LINE
  8
0
 10
-9.62868
 20
-2.12131
 11
-9.66602
 21
-2.158
  0
LINE
  8
0
 10
-9.66602
 20
-2.158
 11
-9.70399
 21
-2.19405
  0
LINE
  8
0
 10
-9.70399
 20
-2.19405
 11
-9.7426
 21
-2.22943
  0
LINE
  8
0
 10
-9.7426
 20
-2.22943
 11
-9.78181
 21
-2.26411
  0
LINE
  8
0
 10
-9.78181
 20
-2.26411
 11
-9.82162
 21
-2.29813
  0
LINE
  8
0
 10
-9.82162
 20
-2.29813
 11
-9.86203
 21
-2.33144
  0
LINE
  8
0
 10
-9.86203
 20
-2.33144
 11
-9.90302
 21
-2.36403
  0
LINE
  8
0
 10
-9.90302
 20
-2.36403
 11
-9.94455
 21
-2.3959
  0
LINE
  8
0
 10
-9.94455
 20
-2.3959
 11
-9.98663
 21
-2.42705
  0
LINE
  8
0
 10
-9.98663
 20
-2.42705
 11
-10.0293
 21
-2.45744
  0
LINE
  8
0
 10
-10.0293
 20
-2.45744
 11
-10.0724
 21
-2.48711
  0
LINE
  8
0
 10
-10.0724
 20
-2.48711
 11
-10.1161
 21
-2.51601
  0
LINE
  8
0
 10
-10.1161
 20
-2.51601
 11
-10.1602
 21
-2.54414
  0
LINE
  8
0
 10
-10.1602
 20
-2.54414
 11
-10.2049
 21
-2.57149
  0
LINE
  8
0
 10
-10.2049
 20
-2.57149
 11
-10.25
 21
-2.59807
  0
LINE
  8
0
 10
-10.25
 20
-2.59807
 11
-10.2956
 21
-2.62386
  0
LINE
  8
0
 10
-10.2956
 20
-2.62386
 11
-10.3416
 21
-2.64883
  0
LINE
  8
0
 10
-10.3416
 20
-2.64883
 11
-10.388
 21
-2.67302
  0
LINE
  8
0
 10
-10.388
 20
-2.67302
 11
-10.4349
 21
-2.69638
  0
LINE
  8
0
 10
-10.4349
 20
-2.69638
 11
-10.4821
 21
-2.71892
  0
LINE
  8
0
 10
-10.4821
 20
-2.71892
 11
-10.5298
 21
-2.74063
  0
LINE
  8
0
 10
-10.5298
 20
-2.74063
 11
-10.5778
 21
-2.76151
  0
LINE
  8
0
 10
-10.5778
 20
-2.76151
 11
-10.6262
 21
-2.78154
  0
LINE
  8
0
 10
-10.6262
 20
-2.78154
 11
-10.6749
 21
-2.80074
  0
LINE
  8
0
 10
-10.6749
 20
-2.80074
 11
-10.7239
 21
-2.81908
  0
LINE
  8
0
 10
-10.7239
 20
-2.81908
 11
-10.7733
 21
-2.83655
  0
LINE
  8
0
 10
-10.7733
 20
-2.83655
 11
-10.8229
 21
-2.85316
  0
LINE
  8
0
 10
-10.8229
 20
-2.85316
 11
-10.8729
 21
-2.86891
  0
LINE
  8
0
 10
-10.8729
 20
-2.86891
 11
-10.9231
 21
-2.88377
  0
LINE
  8
0
 10
-10.9231
 20
-2.88377
 11
-10.9735
 21
-2.89777
  0
LINE
  8
0
 10
-10.9735
 20
-2.89777
 11
-11.0242
 21
-2.91087
  0
LINE
  8
0
 10
-11.0242
 20
-2.91087
 11
-11.0751
 21
-2.9231
  0
LINE
  8
0
 10
-11.0751
 20
-2.9231
 11
-11.1263
 21
-2.93443
  0
LINE
  8
0
 10
-11.1263
 20
-2.93443
 11
-11.1776
 21
-2.94487
  0
LINE
  8
0
 10
-11.1776
 20
-2.94487
 11
-11.229
 21
-2.95442
  0
LINE
  8
0
 10
-11.229
 20
-2.95442
 11
-11.2807
 21
-2.96306
  0
LINE
  8
0
 10
-11.2807
 20
-2.96306
 11
-11.3325
 21
-2.97079
  0
LINE
  8
0
 10
-11.3325
 20
-2.97079
 11
-11.3844
 21
-2.97763
  0
LINE
  8
0
 10
-11.3844
 20
-2.97763
 11
-11.4364
 21
-2.98355
  0
LINE
  8
0
 10
-11.4364
 20
-2.98355
 11
-11.4885
 21
-2.98857
  0
LINE
  8
0
 10
-11.4885
 20
-2.98857
 11
-11.5407
 21
-2.99269
  0
LINE
  8
0
 10
-11.5407
 20
-2.99269
 11
-11.593
 21
-2.99588
  0
LINE
  8
0
 10
-11.593
 20
-2.99588
 11
-11.6453
 21
-2.99817
  0
LINE
  8
0
 10
-11.6453
 20
-2.99817
 11
-11.6976
 21
-2.99954
  0
LINE
  8
0
 10
-11.6976
 20
-2.99954
 11
-11.75
 21
-3
  0
LINE
  8
0
 10
-11.75
 20
-3
 11
-11.8024
 21
-2.99954
  0
LINE
  8
0
 10
11.6976
 20
-2.99954
 11
11.6453
 21
-2.99817
  0
LINE
  8
0
 10
11.6453
 20
-2.99817
 11
11.593
 21
-2.99588
  0
LINE
  8
0
 10
11.593
 20
-2.99588
 11
11.5407
 21
-2.99269
  0
LINE
  8
0
 10
11.5407
 20
-2.99269
 11
11.4885
 21
-2.98857
  0
LINE
  8
0
 10
11.4885
 20
-2.98857
 11
11.4364
 21
-2.98355
  0
LINE
  8
0
 10
11.4364
 20
-2.98355
 11
11.3844
 21
-2.97763
  0
LINE
  8
0
 10
11.3844
 20
-2.97763
 11
11.3325
 21
-2.97079
  0
LINE
  8
0
 10
11.3325
 20
-2.97079
 11
11.2807
 21
-2.96306
  0
LINE
  8
0
 10
11.2807
 20
-2.96306
 11
11.229
 21
-2.95442
  0
LINE
  8
0
 10
11.229
 20
-2.95442
 11
11.1776
 21
-2.94487
  0
LINE
  8
0
 10
11.1776
 20
-2.94487
 11
11.1263
 21
-2.93443
  0
LINE
  8
0
 10
11.1263
 20
-2.93443
 11
11.0751
 21
-2.9231
  0
LINE
  8
0
 10
11.0751
 20
-2.9231
 11
11.0242
 21
-2.91087
  0
LINE
  8
0
 10
11.0242
 20
-2.91087
 11
10.9735
 21
-2.89777
  0
LINE
  8
0
 10
10.9735
 20
-2.89777
 11
10.9231
 21
-2.88377
  0
LINE
  8
0
 10
10.9231
 20
-2.88377
 11
10.8729
 21
-2.86891
  0
LINE
  8
0
 10
10.8729
 20
-2.86891
 11
10.8229
 21
-2.85316
  0
LINE
  8
0
 10
10.8229
 20
-2.85316
 11
10.7733
 21
-2.83655
  0
LINE
  8
0
 10
10.7733
 20
-2.83655
 11
10.7239
 21
-2.81908
  0
LINE
  8
0
 10
10.7239
 20
-2.81908
 11
10.6749
 21
-2.80074
  0
LINE
  8
0
 10
10.6749
 20
-2.80074
 11
10.6262
 21
-2.78154
  0
LINE
  8
0
 10
10.6262
 20
-2.78154
 11
10.5778
 21
-2.76151
  0
LINE
  8
0
 10
10.5778
 20
-2.76151
 11
10.5298
 21
-2.74063
  0
LINE
  8
0
 10
10.5298
 20
-2.74063
 11
10.4821
 21
-2.71892
  0
LINE
  8
0
 10
10.4821
 20
-2.71892
 11
10.4349
 21
-2.69638
  0
LINE
  8
0
 10
10.4349
 20
-2.69638
 11
10.388
 21
-2.67302
  0
LINE
  8
0
 10
10.388
 20
-2.67302
 11
10.3416
 21
-2.64883
  0
LINE
  8
0
 10
10.3416
 20
-2.64883
 11
10.2956
 21
-2.62386
  0
LINE
  8
0
 10
10.2956
 20
-2.62386
 11
10.25
 21
-2.59807
  0
LINE
  8
0
 10
10.25
 20
-2.59807
 11
10.2049
 21
-2.57149
  0
LINE
  8
0
 10
10.2049
 20
-2.57149
 11
10.1602
 21
-2.54414
  0
LINE
  8
0
 10
10.1602
 20
-2.54414
 11
10.1161
 21
-2.51601
  0
LINE
  8
0
 10
10.1161
 20
-2.51601
 11
10.0724
 21
-2.48711
  0
LINE
  8
0
 10
10.0724
 20
-2.48711
 11
10.0293
 21
-2.45744
  0
LINE
  8
0
 10
10.0293
 20
-2.45744
 11
9.98663
 21
-2.42705
  0
LINE
  8
0
 10
9.98663
 20
-2.42705
 11
9.94455
 21
-2.3959
  0
LINE
  8
0
 10
9.94455
 20
-2.3959
 11
9.90302
 21
-2.36403
  0
LINE
  8
0
 10
9.90302
 20
-2.36403
 11
9.86203
 21
-2.33144
  0
LINE
  8
0
 10
9.86203
 20
-2.33144
 11
9.82162
 21
-2.29813
  0
LINE
  8
0
 10
9.82162
 20
-2.29813
 11
9.78181
 21
-2.26411
  0
LINE
  8
0
 10
9.78181
 20
-2.26411
 11
9.7426
 21
-2.22943
  0
LINE
  8
0
 10
9.7426
 20
-2.22943
 11
9.70399
 21
-2.19405
  0
LINE
  8
0
 10
9.70399
 20
-2.19405
 11
9.66602
 21
-2.158
  0
LINE
  8
0
 10
9.66602
 20
-2.158
 11
9.62868
 21
-2.12131
  0
LINE
  8
0
 10
9.62868
 20
-2.12131
 11
9.59198
 21
-2.08397
  0
LINE
  8
0
 10
9.59198
 20
-2.08397
 11
9.55594
 21
-2.04599
  0
LINE
  8
0
 10
9.55594
 20
-2.04599
 11
9.52055
 21
-2.00739
  0
LINE
  8
0
 10
9.52055
 20
-2.00739
 11
9.48587
 21
-1.96817
  0
LINE
  8
0
 10
9.48587
 20
-1.96817
 11
9.45186
 21
-1.92836
  0
LINE
  8
0
 10
9.45186
 20
-1.92836
 11
9.41855
 21
-1.88795
  0
LINE
  8
0
 10
9.41855
 20
-1.88795
 11
9.38596
 21
-1.84697
  0
LINE
  8
0
 10
9.38596
 20
-1.84697
 11
9.35408
 21
-1.80544
  0
LINE
  8
0
 10
9.35408
 20
-1.80544
 11
9.32294
 21
-1.76335
  0
LINE
  8
0
 10
9.32294
 20
-1.76335
 11
9.29254
 21
-1.72072
  0
LINE
  8
0
 10
9.29254
 20
-1.72072
 11
9.26288
 21
-1.67757
  0
LINE
  8
0
 10
9.26288
 20
-1.67757
 11
9.23398
 21
-1.63391
  0
LINE
  8
0
 10
9.23398
 20
-1.63391
 11
9.20584
 21
-1.58975
  0
LINE
  8
0
 10
9.20584
 20
-1.58975
 11
9.1785
 21
-1.5451
  0
LINE
  8
0
 10
9.1785
 20
-1.5451
 11
9.15192
 21
-1.5
  0
LINE
  8
0
 10
9.15192
 20
-1.5
 11
9.12613
 21
-1.45442
  0
LINE
  8
0
 10
9.12613
 20
-1.45442
 11
9.10115
 21
-1.4084
  0
LINE
  8
0
 10
9.10115
 20
-1.4084
 11
9.07697
 21
-1.36197
  0
LINE
  8
0
 10
9.07697
 20
-1.36197
 11
9.0536
 21
-1.31511
  0
LINE
  8
0
 10
9.0536
 20
-1.31511
 11
9.03107
 21
-1.26785
  0
LINE
  8
0
 10
9.03107
 20
-1.26785
 11
9.00935
 21
-1.2202
  0
LINE
  8
0
 10
9.00935
 20
-1.2202
 11
8.98848
 21
-1.17218
  0
LINE
  8
0
 10
8.98848
 20
-1.17218
 11
8.96844
 21
-1.12381
  0
LINE
  8
0
 10
8.96844
 20
-1.12381
 11
8.94925
 21
-1.0751
  0
LINE
  8
0
 10
8.94925
 20
-1.0751
 11
8.93091
 21
-1.02605
  0
LINE
  8
0
 10
8.93091
 20
-1.02605
 11
8.91344
 21
-0.9767
  0
LINE
  8
0
 10
8.91344
 20
-0.9767
 11
8.89682
 21
-0.927048
  0
LINE
  8
0
 10
8.89682
 20
-0.927048
 11
8.88107
 21
-0.877106
  0
LINE
  8
0
 10
8.88107
 20
-0.877106
 11
8.86621
 21
-0.826904
  0
LINE
  8
0
 10
8.86621
 20
-0.826904
 11
8.85222
 21
-0.776443
  0
LINE
  8
0
 10
8.85222
 20
-0.776443
 11
8.83911
 21
-0.725754
  0
LINE
  8
0
 10
8.83911
 20
-0.725754
 11
8.82689
 21
-0.67485
  0
LINE
  8
0
 10
8.82689
 20
-0.67485
 11
8.81555
 21
-0.623734
  0
LINE
  8
0
 10
8.81555
 20
-0.623734
 11
8.80511
 21
-0.572418
  0
LINE
  8
0
 10
8.80511
 20
-0.572418
 11
8.79556
 21
-0.520935
  0
LINE
  8
0
 10
8.79556
 20
-0.520935
 11
8.78693
 21
-0.469299
  0
LINE
  8
0
 10
8.78693
 20
-0.469299
 11
8.77919
 21
-0.417511
  0
LINE
  8
0
 10
8.77919
 20
-0.417511
 11
8.77235
 21
-0.365601
  0
LINE
  8
0
 10
8.77235
 20
-0.365601
 11
8.76643
 21
-0.313583
  0
LINE
  8
0
 10
8.76643
 20
-0.313583
 11
8.76141
 21
-0.261459
  0
LINE
  8
0
 10
8.76141
 20
-0.261459
 11
8.75729
 21
-0.209259
  0
LINE
  8
0
 10
8.75729
 20
-0.209259
 11
8.7541
 21
-0.156998
  0
LINE
  8
0
 10
8.7541
 20
-0.156998
 11
8.75182
 21
-0.104691
  0
LINE
  8
0
 10
8.75182
 20
-0.104691
 11
8.75044
 21
-0.0523529
  0
LINE
  8
0
 10
8.75044
 20
-0.0523529
 11
8.75
 21
0
  0
LINE
  8
0
 10
8.75
 20
0
 11
8.75044
 21
0.0523529
  0
LINE
  8
0
 10
8.75044
 20
0.0523529
 11
8.75182
 21
0.104691
  0
LINE
  8
0
 10
8.75182
 20
0.104691
 11
8.7541
 21
0.156998
  0
LINE
  8
0
 10
8.7541
 20
0.156998
 11
8.75729
 21
0.209259
  0
LINE
  8
0
 10
8.75729
 20
0.209259
 11
8.76141
 21
0.261459
  0
LINE
  8
0
 10
8.76141
 20
0.261459
 11
8.76643
 21
0.313583
  0
LINE
  8
0
 10
8.76643
 20
0.313583
 11
8.77235
 21
0.365601
  0
LINE
  8
0
 10
8.77235
 20
0.365601
 11
8.77919
 21
0.417511
  0
LINE
  8
0
 10
8.77919
 20
0.417511
 11
8.78693
 21
0.469299
  0
LINE
  8
0
 10
8.78693
 20
0.469299
 11
8.79556
 21
0.520935
  0
LINE
  8
0
 10
8.79556
 20
0.520935
 11
8.80511
 21
0.572418
  0
LINE
  8
0
 10
8.80511
 20
0.572418
 11
8.81555
 21
0.623734
  0
LINE
  8
0
 10
8.81555
 20
0.623734
 11
8.82689
 21
0.67485
  0
LINE
  8
0
 10
8.82689
 20
0.67485
 11
8.83911
 21
0.725754
  0
LINE
  8
0
 10
8.83911
 20
0.725754
 11
8.85222
 21
0.776443
  0
LINE
  8
0
 10
8.85222
 20
0.776443
 11
8.86621
 21
0.826904
  0
LINE
  8
0
 10
8.86621
 20
0.826904
 11
8.88107
 21
0.877106
  0
LINE
  8
0
 10
8.88107
 20
0.877106
 11
8.89682
 21
0.927048
  0
LINE
  8
0
 10
8.89682
 20
0.927048
 11
8.91344
 21
0.9767
  0
LINE
  8
0
 10
8.91344
 20
0.9767
 11
8.93091
 21
1.02605
  0
LINE
  8
0
 10
8.93091
 20
1.02605
 11
8.94925
 21
1.0751
  0
LINE
  8
0
 10
8.94925
 20
1.0751
 11
8.96844
 21
1.12381
  0
LINE
  8
0
 10
8.96844
 20
1.12381
 11
8.98848
 21
1.17218
  0
LINE
  8
0
 10
8.98848
 20
1.17218
 11
9.00935
 21
1.2202
  0
LINE
  8
0
 10
9.00935
 20
1.2202
 11
9.03107
 21
1.26785
  0
LINE
  8
0
 10
9.03107
 20
1.26785
 11
9.0536
 21
1.31511
  0
LINE
  8
0
 10
9.0536
 20
1.31511
 11
9.07697
 21
1.36197
  0
LINE
  8
0
 10
9.07697
 20
1.36197
 11
9.10115
 21
1.4084
  0
LINE
  8
0
 10
9.10115
 20
1.4084
 11
9.12613
 21
1.45442
  0
LINE
  8
0
 10
9.12613
 20
1.45442
 11
9.15192
 21
1.5
  0
LINE
  8
0
 10
9.15192
 20
1.5
 11
9.1785
 21
1.5451
  0
LINE
  8
0
 10
9.1785
 20
1.5451
 11
9.20584
 21
1.58975
  0
LINE
  8
0
 10
9.20584
 20
1.58975
 11
9.23398
 21
1.63391
  0
LINE
  8
0
 10
9.23398
 20
1.63391
 11
9.26288
 21
1.67757
  0
LINE
  8
0
 10
9.26288
 20
1.67757
 11
9.29254
 21
1.72072
  0
LINE
  8
0
 10
9.29254
 20
1.72072
 11
9.32294
 21
1.76335
  0
LINE
  8
0
 10
9.32294
 20
1.76335
 11
9.35408
 21
1.80544
  0
LINE
  8
0
 10
9.35408
 20
1.80544
 11
9.38596
 21
1.84697
  0
LINE
  8
0
 10
9.38596
 20
1.84697
 11
9.41855
 21
1.88795
  0
LINE
  8
0
 10
9.41855
 20
1.88795
 11
9.45186
 21
1.92836
  0
LINE
  8
0
 10
9.45186
 20
1.92836
 11
9.48587
 21
1.96817
  0
LINE
  8
0
 10
9.48587
 20
1.96817
 11
9.52055
 21
2.00739
  0
LINE
  8
0
 10
9.52055
 20
2.00739
 11
9.55594
 21
2.04599
  0
LINE
  8
0
 10
9.55594
 20
2.04599
 11
9.59198
 21
2.08397
  0
LINE
  8
0
 10
9.59198
 20
2.08397
 11
9.62868
 21
2.12131
  0
LINE
  8
0
 10
9.62868
 20
2.12131
 11
9.66602
 21
2.158
  0
LINE
  8
0
 10
9.66602
 20
2.158
 11
9.70399
 21
2.19405
  0
LINE
  8
0
 10
9.70399
 20
2.19405
 11
9.7426
 21
2.22943
  0
LINE
  8
0
 10
9.7426
 20
2.22943
 11
9.78181
 21
2.26411
  0
LINE
  8
0
 10
9.78181
 20
2.26411
 11
9.82162
 21
2.29813
  0
LINE
  8
0
 10
9.82162
 20
2.29813
 11
9.86203
 21
2.33144
  0
LINE
  8
0
 10
9.86203
 20
2.33144
 11
9.90302
 21
2.36403
  0
LINE
  8
0
 10
9.90302
 20
2.36403
 11
9.94455
 21
2.3959
  0
LINE
  8
0
 10
9.94455
 20
2.3959
 11
9.98663
 21
2.42705
  0
LINE
  8
0
 10
9.98663
 20
2.42705
 11
10.0293
 21
2.45744
  0
LINE
  8
0
 10
10.0293
 20
2.45744
 11
10.0724
 21
2.48711
  0
LINE
  8
0
 10
10.0724
 20
2.48711
 11
10.1161
 21
2.51601
  0
LINE
  8
0
 10
10.1161
 20
2.51601
 11
10.1602
 21
2.54414
  0
LINE
  8
0
 10
10.1602
 20
2.54414
 11
10.2049
 21
2.57149
  0
LINE
  8
0
 10
10.2049
 20
2.57149
 11
10.25
 21
2.59807
  0
LINE
  8
0
 10
10.25
 20
2.59807
 11
10.2956
 21
2.62386
  0
LINE
  8
0
 10
10.2956
 20
2.62386
 11
10.3416
 21
2.64883
  0
LINE
  8
0
 10
10.3416
 20
2.64883
 11
10.388
 21
2.67302
  0
LINE
  8
0
 10
10.388
 20
2.67302
 11
10.4349
 21
2.69638
  0
LINE
  8
0
 10
10.4349
 20
2.69638
 11
10.4821
 21
2.71892
  0
LINE
  8
0
 10
10.4821
 20
2.71892
 11
10.5298
 21
2.74063
  0
LINE
  8
0
 10
10.5298
 20
2.74063
 11
10.5778
 21
2.76151
  0
LINE
  8
0
 10
10.5778
 20
2.76151
 11
10.6262
 21
2.78154
  0
LINE
  8
0
 10
10.6262
 20
2.78154
 11
10.6749
 21
2.80074
  0
LINE
  8
0
 10
10.6749
 20
2.80074
 11
10.7239
 21
2.81908
  0
LINE
  8
0
 10
10.7239
 20
2.81908
 11
10.7733
 21
2.83655
  0
LINE
  8
0
 10
10.7733
 20
2.83655
 11
10.8229
 21
2.85316
  0
LINE
  8
0
 10
10.8229
 20
2.85316
 11
10.8729
 21
2.86891
  0
LINE
  8
0
 10
10.8729
 20
2.86891
 11
10.9231
 21
2.88377
  0
LINE
  8
0
 10
10.9231
 20
2.88377
 11
10.9735
 21
2.89777
  0
LINE
  8
0
 10
10.9735
 20
2.89777
 11
11.0242
 21
2.91087
  0
LINE
  8
0
 10
11.0242
 20
2.91087
 11
11.0751
 21
2.9231
  0
LINE
  8
0
 10
11.0751
 20
2.9231
 11
11.1263
 21
2.93443
  0
LINE
  8
0
 10
11.1263
 20
2.93443
 11
11.1776
 21
2.94487
  0
LINE
  8
0
 10
11.1776
 20
2.94487
 11
11.229
 21
2.95442
  0
LINE
  8
0
 10
11.229
 20
2.95442
 11
11.2807
 21
2.96306
  0
LINE
  8
0
 10
11.2807
 20
2.96306
 11
11.3325
 21
2.97079
  0
LINE
  8
0
 10
11.3325
 20
2.97079
 11
11.3844
 21
2.97763
  0
LINE
  8
0
 10
11.3844
 20
2.97763
 11
11.4364
 21
2.98355
  0
LINE
  8
0
 10
11.4364
 20
2.98355
 11
11.4885
 21
2.98857
  0
LINE
  8
0
 10
11.4885
 20
2.98857
 11
11.5407
 21
2.99269
  0
LINE
  8
0
 10
11.5407
 20
2.99269
 11
11.593
 21
2.99588
  0
LINE
  8
0
 10
11.593
 20
2.99588
 11
11.6453
 21
2.99817
  0
LINE
  8
0
 10
11.6453
 20
2.99817
 11
11.6976
 21
2.99954
  0
LINE
  8
0
 10
11.6976
 20
2.99954
 11
11.75
 21
3
  0
LINE
  8
0
 10
11.75
 20
3
 11
11.8024
 21
2.99954
  0
LINE
  8
0
 10
11.8024
 20
2.99954
 11
11.8547
 21
2.99817
  0
LINE
  8
0
 10
11.8547
 20
2.99817
 11
11.907
 21
2.99588
  0
LINE
  8
0
 10
11.907
 20
2.99588
 11
11.9593
 21
2.99269
  0
LINE
  8
0
 10
11.9593
 20
2.99269
 11
12.0115
 21
2.98857
  0
LINE
  8
0
 10
12.0115
 20
2.98857
 11
12.0636
 21
2.98355
  0
LINE
  8
0
 10
12.0636
 20
2.98355
 11
12.1156
 21
2.97763
  0
LINE
  8
0
 10
12.1156
 20
2.97763
 11
12.1675
 21
2.97079
  0
LINE
  8
0
 10
12.1675
 20
2.97079
 11
12.2193
 21
2.96306
  0
LINE
  8
0
 10
12.2193
 20
2.96306
 11
12.2709
 21
2.95442
  0
LINE
  8
0
 10
12.2709
 20
2.95442
 11
12.3224
 21
2.94487
  0
LINE
  8
0
 10
12.3224
 20
2.94487
 11
12.3737
 21
2.93443
  0
LINE
  8
0
 10
12.3737
 20
2.93443
 11
12.4249
 21
2.9231
  0
LINE
  8
0
 10
12.4249
 20
2.9231
 11
12.4758
 21
2.91087
  0
LINE
  8
0
 10
12.4758
 20
2.91087
 11
12.5264
 21
2.89777
  0
LINE
  8
0
 10
12.5264
 20
2.89777
 11
12.5769
 21
2.88377
  0
LINE
  8
0
 10
12.5769
 20
2.88377
 11
12.6271
 21
2.86891
  0
LINE
  8
0
 10
12.6271
 20
2.86891
 11
12.677
 21
2.85316
  0
LINE
  8
0
 10
12.677
 20
2.85316
 11
12.7267
 21
2.83655
  0
LINE
  8
0
 10
12.7267
 20
2.83655
 11
12.776
 21
2.81908
  0
LINE
  8
0
 10
12.776
 20
2.81908
 11
12.8251
 21
2.80074
  0
LINE
  8
0
 10
12.8251
 20
2.80074
 11
12.8738
 21
2.78154
  0
LINE
  8
0
 10
12.8738
 20
2.78154
 11
12.9222
 21
2.76151
  0
LINE
  8
0
 10
12.9222
 20
2.76151
 11
12.9702
 21
2.74063
  0
LINE
  8
0
 10
12.9702
 20
2.74063
 11
13.0179
 21
2.71892
  0
LINE
  8
0
 10
13.0179
 20
2.71892
 11
13.0651
 21
2.69638
  0
LINE
  8
0
 10
13.0651
 20
2.69638
 11
13.112
 21
2.67302
  0
LINE
  8
0
 10
13.112
 20
2.67302
 11
13.1584
 21
2.64883
  0
LINE
  8
0
 10
13.1584
 20
2.64883
 11
13.2044
 21
2.62386
  0
LINE
  8
0
 10
13.2044
 20
2.62386
 11
13.25
 21
2.59807
  0
LINE
  8
0
 10
13.25
 20
2.59807
 11
13.2951
 21
2.57149
  0
LINE
  8
0
 10
13.2951
 20
2.57149
 11
13.3398
 21
2.54414
  0
LINE
  8
0
 10
13.3398
 20
2.54414
 11
13.3839
 21
2.51601
  0
LINE
  8
0
 10
13.3839
 20
2.51601
 11
13.4276
 21
2.48711
  0
LINE
  8
0
 10
13.4276
 20
2.48711
 11
13.4707
 21
2.45744
  0
LINE
  8
0
 10
13.4707
 20
2.45744
 11
13.5134
 21
2.42705
  0
LINE
  8
0
 10
13.5134
 20
2.42705
 11
13.5554
 21
2.3959
  0
LINE
  8
0
 10
13.5554
 20
2.3959
 11
13.597
 21
2.36403
  0
LINE
  8
0
 10
13.597
 20
2.36403
 11
13.638
 21
2.33144
  0
LINE
  8
0
 10
13.638
 20
2.33144
 11
13.6784
 21
2.29813
  0
LINE
  8
0
 10
13.6784
 20
2.29813
 11
13.7182
 21
2.26411
  0
LINE
  8
0
 10
13.7182
 20
2.26411
 11
13.7574
 21
2.22943
  0
LINE
  8
0
 10
13.7574
 20
2.22943
 11
13.796
 21
2.19405
  0
LINE
  8
0
 10
13.796
 20
2.19405
 11
13.834
 21
2.158
  0
LINE
  8
0
 10
13.834
 20
2.158
 11
13.8713
 21
2.12131
  0
LINE
  8
0
 10
13.8713
 20
2.12131
 11
13.908
 21
2.08397
  0
LINE
  8
0
 10
13.908
 20
2.08397
 11
13.944
 21
2.04599
  0
LINE
  8
0
 10
13.944
 20
2.04599
 11
13.9794
 21
2.00739
  0
LINE
  8
0
 10
13.9794
 20
2.00739
 11
14.0141
 21
1.96817
  0
LINE
  8
0
 10
14.0141
 20
1.96817
 11
14.0481
 21
1.92836
  0
LINE
  8
0
 10
14.0481
 20
1.92836
 11
14.0814
 21
1.88795
  0
LINE
  8
0
 10
14.0814
 20
1.88795
 11
14.114
 21
1.84697
  0
LINE
  8
0
 10
14.114
 20
1.84697
 11
14.1459
 21
1.80544
  0
LINE
  8
0
 10
14.1459
 20
1.80544
 11
14.177
 21
1.76335
  0
LINE
  8
0
 10
14.177
 20
1.76335
 11
14.2074
 21
1.72072
  0
LINE
  8
0
 10
14.2074
 20
1.72072
 11
14.2371
 21
1.67757
  0
LINE
  8
0
 10
14.2371
 20
1.67757
 11
14.266
 21
1.63391
  0
LINE
  8
0
 10
14.266
 20
1.63391
 11
14.2941
 21
1.58975
  0
LINE
  8
0
 10
14.2941
 20
1.58975
 11
14.3215
 21
1.5451
  0
LINE
  8
0
 10
14.3215
 20
1.5451
 11
14.3481
 21
1.5
  0
LINE
  8
0
 10
14.3481
 20
1.5
 11
14.3739
 21
1.45442
  0
LINE
  8
0
 10
14.3739
 20
1.45442
 11
14.3988
 21
1.4084
  0
LINE
  8
0
 10
14.3988
 20
1.4084
 11
14.423
 21
1.36197
  0
LINE
  8
0
 10
14.423
 20
1.36197
 11
14.4464
 21
1.31511
  0
LINE
  8
0
 10
14.4464
 20
1.31511
 11
14.4689
 21
1.26785
  0
LINE
  8
0
 10
14.4689
 20
1.26785
 11
14.4906
 21
1.2202
  0
LINE
  8
0
 10
14.4906
 20
1.2202
 11
14.5115
 21
1.17218
  0
LINE
  8
0
 10
14.5115
 20
1.17218
 11
14.5315
 21
1.12381
  0
LINE
  8
0
 10
14.5315
 20
1.12381
 11
14.5507
 21
1.0751
  0
LINE
  8
0
 10
14.5507
 20
1.0751
 11
14.5691
 21
1.02605
  0
LINE
  8
0
 10
14.5691
 20
1.02605
 11
14.5865
 21
0.9767
  0
LINE
  8
0
 10
14.5865
 20
0.9767
 11
14.6032
 21
0.927048
  0
LINE
  8
0
 10
14.6032
 20
0.927048
 11
14.6189
 21
0.877106
  0
LINE
  8
0
 10
14.6189
 20
0.877106
 11
14.6338
 21
0.826904
  0
LINE
  8
0
 10
14.6338
 20
0.826904
 11
14.6478
 21
0.776443
  0
LINE
  8
0
 10
14.6478
 20
0.776443
 11
14.6609
 21
0.725754
  0
LINE
  8
0
 10
14.6609
 20
0.725754
 11
14.6731
 21
0.67485
  0
LINE
  8
0
 10
14.6731
 20
0.67485
 11
14.6844
 21
0.623734
  0
LINE
  8
0
 10
14.6844
 20
0.623734
 11
14.6949
 21
0.572418
  0
LINE
  8
0
 10
14.6949
 20
0.572418
 11
14.7044
 21
0.520935
  0
LINE
  8
0
 10
14.7044
 20
0.520935
 11
14.7131
 21
0.469299
  0
LINE
  8
0
 10
14.7131
 20
0.469299
 11
14.7208
 21
0.417511
  0
LINE
  8
0
 10
14.7208
 20
0.417511
 11
14.7276
 21
0.365601
  0
LINE
  8
0
 10
14.7276
 20
0.365601
 11
14.7336
 21
0.313583
  0
LINE
  8
0
 10
14.7336
 20
0.313583
 11
14.7386
 21
0.261459
  0
LINE
  8
0
 10
14.7386
 20
0.261459
 11
14.7427
 21
0.209259
  0
LINE
  8
0
 10
14.7427
 20
0.209259
 11
14.7459
 21
0.156998
  0
LINE
  8
0
 10
14.7459
 20
0.156998
 11
14.7482
 21
0.104691
  0
LINE
  8
0
 10
14.7482
 20
0.104691
 11
14.7495
 21
0.0523529
  0
LINE
  8
0
 10
14.7495
 20
0.0523529
 11
14.75
 21
0
  0
LINE
  8
0
 10
14.75
 20
0
 11
14.7495
 21
-0.0523529
  0
LINE
  8
0
 10
14.7495
 20
-0.0523529
 11
14.7482
 21
-0.104691
  0
LINE
  8
0
 10
14.7482
 20
-0.104691
 11
14.7459
 21
-0.156998
  0
LINE
  8
0
 10
14.7459
 20
-0.156998
 11
14.7427
 21
-0.209259
  0
LINE
  8
0
 10
14.7427
 20
-0.209259
 11
14.7386
 21
-0.261459
  0
LINE
  8
0
 10
14.7386
 20
-0.261459
 11
14.7336
 21
-0.313583
  0
LINE
  8
0
 10
14.7336
 20
-0.313583
 11
14.7276
 21
-0.365601
  0
LINE
  8
0
 10
14.7276
 20
-0.365601
 11
14.7208
 21
-0.417511
  0
LINE
  8
0
 10
14.7208
 20
-0.417511
 11
14.7131
 21
-0.469299
  0
LINE
  8
0
 10
14.7131
 20
-0.469299
 11
14.7044
 21
-0.520935
  0
LINE
  8
0
 10
14.7044
 20
-0.520935
 11
14.6949
 21
-0.572418
  0
LINE
  8
0
 10
14.6949
 20
-0.572418
 11
14.6844
 21
-0.623734
  0
LINE
  8
0
 10
14.6844
 20
-0.623734
 11
14.6731
 21
-0.67485
  0
LINE
  8
0
 10
14.6731
 20
-0.67485
 11
14.6609
 21
-0.725754
  0
LINE
  8
0
 10
14.6609
 20
-0.725754
 11
14.6478
 21
-0.776443
  0
LINE
  8
0
 10
14.6478
 20
-0.776443
 11
14.6338
 21
-0.826904
  0
LINE
  8
0
 10
14.6338
 20
-0.826904
 11
14.6189
 21
-0.877106
  0
LINE
  8
0
 10
14.6189
 20
-0.877106
 11
14.6032
 21
-0.927048
  0
LINE
  8
0
 10
14.6032
 20
-0.927048
 11
14.5865
 21
-0.9767
  0
LINE
  8
0
 10
14.5865
 20
-0.9767
 11
14.5691
 21
-1.02605
  0
LINE
  8
0
 10
14.5691
 20
-1.02605
 11
14.5507
 21
-1.0751
  0
LINE
  8
0
 10
14.5507
 20
-1.0751
 11
14.5315
 21
-1.12381
  0
LINE
  8
0
 10
14.5315
 20
-1.12381
 11
14.5115
 21
-1.17218
  0
LINE
  8
0
 10
14.5115
 20
-1.17218
 11
14.4906
 21
-1.2202
  0
LINE
  8
0
 10
14.4906
 20
-1.2202
 11
14.4689
 21
-1.26785
  0
LINE
  8
0
 10
14.4689
 20
-1.26785
 11
14.4464
 21
-1.31511
  0
LINE
  8
0
 10
14.4464
 20
-1.31511
 11
14.423
 21
-1.36197
  0
LINE
  8
0
 10
14.423
 20
-1.36197
 11
14.3988
 21
-1.4084
  0
LINE
  8
0
 10
14.3988
 20
-1.4084
 11
14.3739
 21
-1.45442
  0
LINE
  8
0
 10
14.3739
 20
-1.45442
 11
14.3481
 21
-1.5
  0
LINE
  8
0
 10
14.3481
 20
-1.5
 11
14.3215
 21
-1.5451
  0
LINE
  8
0
 10
14.3215
 20
-1.5451
 11
14.2941
 21
-1.58975
  0
LINE
  8
0
 10
14.2941
 20
-1.58975
 11
14.266
 21
-1.63391
  0
LINE
  8
0
 10
14.266
 20
-1.63391
 11
14.2371
 21
-1.67757
  0
LINE
  8
0
 10
14.2371
 20
-1.67757
 11
14.2074
 21
-1.72072
  0
LINE
  8
0
 10
14.2074
 20
-1.72072
 11
14.177
 21
-1.76335
  0
LINE
  8
0
 10
14.177
 20
-1.76335
 11
14.1459
 21
-1.80544
  0
LINE
  8
0
 10
14.1459
 20
-1.80544
 11
14.114
 21
-1.84697
  0
LINE
  8
0
 10
14.114
 20
-1.84697
 11
14.0814
 21
-1.88795
  0
LINE
  8
0
 10
14.0814
 20
-1.88795
 11
14.0481
 21
-1.92836
  0
LINE
  8
0
 10
14.0481
 20
-1.92836
 11
14.0141
 21
-1.96817
  0
LINE
  8
0
 10
14.0141
 20
-1.96817
 11
13.9794
 21
-2.00739
  0
LINE
  8
0
 10
13.9794
 20
-2.00739
 11
13.944
 21
-2.04599
  0
LINE
  8
0
 10
13.944
 20
-2.04599
 11
13.908
 21
-2.08397
  0
LINE
  8
0
 10
13.908
 20
-2.08397
 11
13.8713
 21
-2.12131
  0
LINE
  8
0
 10
13.8713
 20
-2.12131
 11
13.834
 21
-2.158
  0
LINE
  8
0
 10
13.834
 20
-2.158
 11
13.796
 21
-2.19405
  0
LINE
  8
0
 10
13.796
 20
-2.19405
 11
13.7574
 21
-2.22943
  0
LINE
  8
0
 10
13.7574
 20
-2.22943
 11
13.7182
 21
-2.26411
  0
LINE
  8
0
 10
13.7182
 20
-2.26411
 11
13.6784
 21
-2.29813
  0
LINE
  8
0
 10
13.6784
 20
-2.29813
 11
13.638
 21
-2.33144
  0
LINE
  8
0
 10
13.638
 20
-2.33144
 11
13.597
 21
-2.36403
  0
LINE
  8
0
 10
13.597
 20
-2.36403
 11
13.5554
 21
-2.3959
  0
LINE
  8
0
 10
13.5554
 20
-2.3959
 11
13.5134
 21
-2.42705
  0
LINE
  8
0
 10
13.5134
 20
-2.42705
 11
13.4707
 21
-2.45744
  0
LINE
  8
0
 10
13.4707
 20
-2.45744
 11
13.4276
 21
-2.48711
  0
LINE
  8
0
 10
13.4276
 20
-2.48711
 11
13.3839
 21
-2.51601
  0
LINE
  8
0
 10
13.3839
 20
-2.51601
 11
13.3398
 21
-2.54414
  0
LINE
  8
0
 10
13.3398
 20
-2.54414
 11
13.2951
 21
-2.57149
  0
LINE
  8
0
 10
13.2951
 20
-2.57149
 11
13.25
 21
-2.59807
  0
LINE
  8
0
 10
13.25
 20
-2.59807
 11
13.2044
 21
-2.62386
  0
LINE
  8
0
 10
13.2044
 20
-2.62386
 11
13.1584
 21
-2.64883
  0
LINE
  8
0
 10
13.1584
 20
-2.64883
 11
13.112
 21
-2.67302
  0
LINE
  8
0
 10
13.112
 20
-2.67302
 11
13.0651
 21
-2.69638
  0
LINE
  8
0
 10
13.0651
 20
-2.69638
 11
13.0179
 21
-2.71892
  0
LINE
  8
0
 10
13.0179
 20
-2.71892
 11
12.9702
 21
-2.74063
  0
LINE
  8
0
 10
12.9702
 20
-2.74063
 11
12.9222
 21
-2.76151
  0
LINE
  8
0
 10
12.9222
 20
-2.76151
 11
12.8738
 21
-2.78154
  0
LINE
  8
0
 10
12.8738
 20
-2.78154
 11
12.8251
 21
-2.80074
  0
LINE
  8
0
 10
12.8251
 20
-2.80074
 11
12.776
 21
-2.81908
  0
LINE
  8
0
 10
12.776
 20
-2.81908
 11
12.7267
 21
-2.83655
  0
LINE
  8
0
 10
12.7267
 20
-2.83655
 11
12.677
 21
-2.85316
  0
LINE
  8
0
 10
12.677
 20
-2.85316
 11
12.6271
 21
-2.86891
  0
LINE
  8
0
 10
12.6271
 20
-2.86891
 11
12.5769
 21
-2.88377
  0
LINE
  8
0
 10
12.5769
 20
-2.88377
 11
12.5264
 21
-2.89777
  0
LINE
  8
0
 10
12.5264
 20
-2.89777
 11
12.4758
 21
-2.91087
  0
LINE
  8
0
 10
12.4758
 20
-2.91087
 11
12.4249
 21
-2.9231
  0
LINE
  8
0
 10
12.4249
 20
-2.9231
 11
12.3737
 21
-2.93443
  0
LINE
  8
0
 10
12.3737
 20
-2.93443
 11
12.3224
 21
-2.94487
  0
LINE
  8
0
 10
12.3224
 20
-2.94487
 11
12.2709
 21
-2.95442
  0
LINE
  8
0
 10
12.2709
 20
-2.95442
 11
12.2193
 21
-2.96306
  0
LINE
  8
0
 10
12.2193
 20
-2.96306
 11
12.1675
 21
-2.97079
  0
LINE
  8
0
 10
12.1675
 20
-2.97079
 11
12.1156
 21
-2.97763
  0
LINE
  8
0
 10
12.1156
 20
-2.97763
 11
12.0636
 21
-2.98355
  0
LINE
  8
0
 10
12.0636
 20
-2.98355
 11
12.0115
 21
-2.98857
  0
LINE
  8
0
 10
12.0115
 20
-2.98857
 11
11.9593
 21
-2.99269
  0
LINE
  8
0
 10
11.9593
 20
-2.99269
 11
11.907
 21
-2.99588
  0
LINE
  8
0
 10
11.907
 20
-2.99588
 11
11.8547
 21
-2.99817
  0
LINE
  8
0
 10
11.8547
 20
-2.99817
 11
11.8024
 21
-2.99954
  0
LINE
  8
0
 10
11.8024
 20
-2.99954
 11
11.75
 21
-3
  0
LINE
  8
0
 10
11.75
 20
-3
 11
11.6976
 21
-2.99954
  0
LINE
  8
0
 10
8.22382
 20
-9.74977
 11
8.19765
 21
-9.74908
  0
LINE
  8
0
 10
8.19765
 20
-9.74908
 11
8.17149
 21
-9.74794
  0
LINE
  8
0
 10
8.17149
 20
-9.74794
 11
8.14536
 21
-9.74634
  0
LINE
  8
0
 10
8.14536
 20
-9.74634
 11
8.11926
 21
-9.74428
  0
LINE
  8
0
 10
8.11926
 20
-9.74428
 11
8.0932
 21
-9.74178
  0
LINE
  8
0
 10
8.0932
 20
-9.74178
 11
8.06718
 21
-9.73882
  0
LINE
  8
0
 10
8.06718
 20
-9.73882
 11
8.04123
 21
-9.7354
  0
LINE
  8
0
 10
8.04123
 20
-9.7354
 11
8.01534
 21
-9.73152
  0
LINE
  8
0
 10
8.01534
 20
-9.73152
 11
7.98952
 21
-9.7272
  0
LINE
  8
0
 10
7.98952
 20
-9.7272
 11
7.96378
 21
-9.72243
  0
LINE
  8
0
 10
7.96378
 20
-9.72243
 11
7.93813
 21
-9.71721
  0
LINE
  8
0
 10
7.93813
 20
-9.71721
 11
7.91257
 21
-9.71155
  0
LINE
  8
0
 10
7.91257
 20
-9.71155
 11
7.88712
 21
-9.70543
  0
LINE
  8
0
 10
7.88712
 20
-9.70543
 11
7.86177
 21
-9.69888
  0
LINE
  8
0
 10
7.86177
 20
-9.69888
 11
7.83653
 21
-9.69188
  0
LINE
  8
0
 10
7.83653
 20
-9.69188
 11
7.81143
 21
-9.68445
  0
LINE
  8
0
 10
7.81143
 20
-9.68445
 11
7.78647
 21
-9.67657
  0
LINE
  8
0
 10
7.78647
 20
-9.67657
 11
7.76164
 21
-9.66827
  0
LINE
  8
0
 10
7.76164
 20
-9.66827
 11
7.73697
 21
-9.65953
  0
LINE
  8
0
 10
7.73697
 20
-9.65953
 11
7.71243
 21
-9.65036
  0
LINE
  8
0
 10
7.71243
 20
-9.65036
 11
7.68808
 21
-9.64076
  0
LINE
  8
0
 10
7.68808
 20
-9.64076
 11
7.66389
 21
-9.63075
  0
LINE
  8
0
 10
7.66389
 20
-9.63075
 11
7.63989
 21
-9.62032
  0
LINE
  8
0
 10
7.63989
 20
-9.62032
 11
7.61606
 21
-9.60945
  0
LINE
  8
0
 10
7.61606
 20
-9.60945
 11
7.59244
 21
-9.59819
  0
LINE
  8
0
 10
7.59244
 20
-9.59819
 11
7.569
 21
-9.5865
  0
LINE
  8
0
 10
7.569
 20
-9.5865
 11
7.54579
 21
-9.57442
  0
LINE
  8
0
 10
7.54579
 20
-9.57442
 11
7.52278
 21
-9.56192
  0
LINE
  8
0
 10
7.52278
 20
-9.56192
 11
7.5
 21
-9.54903
  0
LINE
  8
0
 10
7.5
 20
-9.54903
 11
7.47743
 21
-9.53574
  0
LINE
  8
0
 10
7.47743
 20
-9.53574
 11
7.45511
 21
-9.52206
  0
LINE
  8
0
 10
7.45511
 20
-9.52206
 11
7.43303
 21
-9.508
  0
LINE
  8
0
 10
7.43303
 20
-9.508
 11
7.41121
 21
-9.49355
  0
LINE
  8
0
 10
7.41121
 20
-9.49355
 11
7.38963
 21
-9.47871
  0
LINE
  8
0
 10
7.38963
 20
-9.47871
 11
7.36832
 21
-9.46352
  0
LINE
  8
0
 10
7.36832
 20
-9.46352
 11
7.34727
 21
-9.44795
  0
LINE
  8
0
 10
7.34727
 20
-9.44795
 11
7.32651
 21
-9.43201
  0
LINE
  8
0
 10
7.32651
 20
-9.43201
 11
7.30602
 21
-9.41571
  0
LINE
  8
0
 10
7.30602
 20
-9.41571
 11
7.28581
 21
-9.39906
  0
LINE
  8
0
 10
7.28581
 20
-9.39906
 11
7.2659
 21
-9.38205
  0
LINE
  8
0
 10
7.2659
 20
-9.38205
 11
7.24629
 21
-9.36472
  0
LINE
  8
0
 10
7.24629
 20
-9.36472
 11
7.22699
 21
-9.34702
  0
LINE
  8
0
 10
7.22699
 20
-9.34702
 11
7.20801
 21
-9.32899
  0
LINE
  8
0
 10
7.20801
 20
-9.32899
 11
7.18933
 21
-9.31065
  0
LINE
  8
0
 10
7.18933
 20
-9.31065
 11
7.17099
 21
-9.29198
  0
LINE
  8
0
 10
7.17099
 20
-9.29198
 11
7.15297
 21
-9.27299
  0
LINE
  8
0
 10
7.15297
 20
-9.27299
 11
7.13527
 21
-9.25369
  0
LINE
  8
0
 10
7.13527
 20
-9.25369
 11
7.11794
 21
-9.23409
  0
LINE
  8
0
 10
7.11794
 20
-9.23409
 11
7.10092
 21
-9.21417
  0
LINE
  8
0
 10
7.10092
 20
-9.21417
 11
7.08427
 21
-9.19397
  0
LINE
  8
0
 10
7.08427
 20
-9.19397
 11
7.06798
 21
-9.17348
  0
LINE
  8
0
 10
7.06798
 20
-9.17348
 11
7.05203
 21
-9.15271
  0
LINE
  8
0
 10
7.05203
 20
-9.15271
 11
7.03647
 21
-9.13167
  0
LINE
  8
0
 10
7.03647
 20
-9.13167
 11
7.02127
 21
-9.11035
  0
LINE
  8
0
 10
7.02127
 20
-9.11035
 11
7.00644
 21
-9.08878
  0
LINE
  8
0
 10
7.00644
 20
-9.08878
 11
6.99199
 21
-9.06696
  0
LINE
  8
0
 10
6.99199
 20
-9.06696
 11
6.97792
 21
-9.04488
  0
LINE
  8
0
 10
6.97792
 20
-9.04488
 11
6.96425
 21
-9.02255
  0
LINE
  8
0
 10
6.96425
 20
-9.02255
 11
6.95096
 21
-9
  0
LINE
  8
0
 10
6.95096
 20
-9
 11
6.93806
 21
-8.9772
  0
LINE
  8
0
 10
6.93806
 20
-8.9772
 11
6.92557
 21
-8.95419
  0
LINE
  8
0
 10
6.92557
 20
-8.95419
 11
6.91348
 21
-8.93098
  0
LINE
  8
0
 10
6.91348
 20
-8.93098
 11
6.90179
 21
-8.90755
  0
LINE
  8
0
 10
6.90179
 20
-8.90755
 11
6.89053
 21
-8.88393
  0
LINE
  8
0
 10
6.89053
 20
-8.88393
 11
6.87967
 21
-8.86009
  0
LINE
  8
0
 10
6.87967
 20
-8.86009
 11
6.86923
 21
-8.83609
  0
LINE
  8
0
 10
6.86923
 20
-8.83609
 11
6.85922
 21
-8.8119
  0
LINE
  8
0
 10
6.85922
 20
-8.8119
 11
6.84962
 21
-8.78755
  0
LINE
  8
0
 10
6.84962
 20
-8.78755
 11
6.84045
 21
-8.76302
  0
LINE
  8
0
 10
6.84045
 20
-8.76302
 11
6.83171
 21
-8.73834
  0
LINE
  8
0
 10
6.83171
 20
-8.73834
 11
6.82341
 21
-8.71352
  0
LINE
  8
0
 10
6.82341
 20
-8.71352
 11
6.81554
 21
-8.68855
  0
LINE
  8
0
 10
6.81554
 20
-8.68855
 11
6.80811
 21
-8.66345
  0
LINE
  8
0
 10
6.80811
 20
-8.66345
 11
6.8011
 21
-8.63821
  0
LINE
  8
0
 10
6.8011
 20
-8.63821
 11
6.79456
 21
-8.61287
  0
LINE
  8
0
 10
6.79456
 20
-8.61287
 11
6.78844
 21
-8.58742
  0
LINE
  8
0
 10
6.78844
 20
-8.58742
 11
6.78278
 21
-8.56186
  0
LINE
  8
0
 10
6.78278
 20
-8.56186
 11
6.77756
 21
-8.53621
  0
LINE
  8
0
 10
6.77756
 20
-8.53621
 11
6.77278
 21
-8.51047
  0
LINE
  8
0
 10
6.77278
 20
-8.51047
 11
6.76846
 21
-8.48465
  0
LINE
  8
0
 10
6.76846
 20
-8.48465
 11
6.76459
 21
-8.45876
  0
LINE
  8
0
 10
6.76459
 20
-8.45876
 11
6.76117
 21
-8.4328
  0
LINE
  8
0
 10
6.76117
 20
-8.4328
 11
6.75821
 21
-8.40678
  0
LINE
  8
0
 10
6.75821
 20
-8.40678
 11
6.75571
 21
-8.38072
  0
LINE
  8
0
 10
6.75571
 20
-8.38072
 11
6.75365
 21
-8.35463
  0
LINE
  8
0
 10
6.75365
 20
-8.35463
 11
6.75204
 21
-8.32849
  0
LINE
  8
0
 10
6.75204
 20
-8.32849
 11
6.7509
 21
-8.30234
  0
LINE
  8
0
 10
6.7509
 20
-8.30234
 11
6.75021
 21
-8.27617
  0
LINE
  8
0
 10
6.75021
 20
-8.27617
 11
6.75
 21
-8.25
  0
LINE
  8
0
 10
6.75
 20
-8.25
 11
6.75021
 21
-8.22382
  0
LINE
  8
0
 10
6.75021
 20
-8.22382
 11
6.7509
 21
-8.19765
  0
LINE
  8
0
 10
6.7509
 20
-8.19765
 11
6.75204
 21
-8.17149
  0
LINE
  8
0
 10
6.75204
 20
-8.17149
 11
6.75365
 21
-8.14536
  0
LINE
  8
0
 10
6.75365
 20
-8.14536
 11
6.75571
 21
-8.11926
  0
LINE
  8
0
 10
6.75571
 20
-8.11926
 11
6.75821
 21
-8.0932
  0
LINE
  8
0
 10
6.75821
 20
-8.0932
 11
6.76117
 21
-8.06718
  0
LINE
  8
0
 10
6.76117
 20
-8.06718
 11
6.76459
 21
-8.04123
  0
LINE
  8
0
 10
6.76459
 20
-8.04123
 11
6.76846
 21
-8.01534
  0
LINE
  8
0
 10
6.76846
 20
-8.01534
 11
6.77278
 21
-7.98952
  0
LINE
  8
0
 10
6.77278
 20
-7.98952
 11
6.77756
 21
-7.96378
  0
LINE
  8
0
 10
6.77756
 20
-7.96378
 11
6.78278
 21
-7.93813
  0
LINE
  8
0
 10
6.78278
 20
-7.93813
 11
6.78844
 21
-7.91257
  0
LINE
  8
0
 10
6.78844
 20
-7.91257
 11
6.79456
 21
-7.88712
  0
LINE
  8
0
 10
6.79456
 20
-7.88712
 11
6.8011
 21
-7.86177
  0
LINE
  8
0
 10
6.8011
 20
-7.86177
 11
6.80811
 21
-7.83653
  0
LINE
  8
0
 10
6.80811
 20
-7.83653
 11
6.81554
 21
-7.81143
  0
LINE
  8
0
 10
6.81554
 20
-7.81143
 11
6.82341
 21
-7.78647
  0
LINE
  8
0
 10
6.82341
 20
-7.78647
 11
6.83171
 21
-7.76164
  0
LINE
  8
0
 10
6.83171
 20
-7.76164
 11
6.84045
 21
-7.73697
  0
LINE
  8
0
 10
6.84045
 20
-7.73697
 11
6.84962
 21
-7.71243
  0
LINE
  8
0
 10
6.84962
 20
-7.71243
 11
6.85922
 21
-7.68808
  0
LINE
  8
0
 10
6.85922
 20
-7.68808
 11
6.86923
 21
-7.66389
  0
LINE
  8
0
 10
6.86923
 20
-7.66389
 11
6.87967
 21
-7.63989
  0
LINE
  8
0
 10
6.87967
 20
-7.63989
 11
6.89053
 21
-7.61606
  0
LINE
  8
0
 10
6.89053
 20
-7.61606
 11
6.90179
 21
-7.59244
  0
LINE
  8
0
 10
6.90179
 20
-7.59244
 11
6.91348
 21
-7.569
  0
LINE
  8
0
 10
6.91348
 20
-7.569
 11
6.92557
 21
-7.54579
  0
LINE
  8
0
 10
6.92557
 20
-7.54579
 11
6.93806
 21
-7.52278
  0
LINE
  8
0
 10
6.93806
 20
-7.52278
 11
6.95096
 21
-7.5
  0
LINE
  8
0
 10
6.95096
 20
-7.5
 11
6.96425
 21
-7.47743
  0
LINE
  8
0
 10
6.96425
 20
-7.47743
 11
6.97792
 21
-7.45511
  0
LINE
  8
0
 10
6.97792
 20
-7.45511
 11
6.99199
 21
-7.43303
  0
LINE
  8
0
 10
6.99199
 20
-7.43303
 11
7.00644
 21
-7.41121
  0
LINE
  8
0
 10
7.00644
 20
-7.41121
 11
7.02127
 21
-7.38963
  0
LINE
  8
0
 10
7.02127
 20
-7.38963
 11
7.03647
 21
-7.36832
  0
LINE
  8
0
 10
7.03647
 20
-7.36832
 11
7.05203
 21
-7.34727
  0
LINE
  8
0
 10
7.05203
 20
-7.34727
 11
7.06798
 21
-7.32651
  0
LINE
  8
0
 10
7.06798
 20
-7.32651
 11
7.08427
 21
-7.30602
  0
LINE
  8
0
 10
7.08427
 20
-7.30602
 11
7.10092
 21
-7.28581
  0
LINE
  8
0
 10
7.10092
 20
-7.28581
 11
7.11794
 21
-7.2659
  0
LINE
  8
0
 10
7.11794
 20
-7.2659
 11
7.13527
 21
-7.24629
  0
LINE
  8
0
 10
7.13527
 20
-7.24629
 11
7.15297
 21
-7.22699
  0
LINE
  8
0
 10
7.15297
 20
-7.22699
 11
7.17099
 21
-7.20801
  0
LINE
  8
0
 10
7.17099
 20
-7.20801
 11
7.18933
 21
-7.18933
  0
LINE
  8
0
 10
7.18933
 20
-7.18933
 11
7.20801
 21
-7.17099
  0
LINE
  8
0
 10
7.20801
 20
-7.17099
 11
7.22699
 21
-7.15297
  0
LINE
  8
0
 10
7.22699
 20
-7.15297
 11
7.24629
 21
-7.13527
  0
LINE
  8
0
 10
7.24629
 20
-7.13527
 11
7.2659
 21
-7.11794
  0
LINE
  8
0
 10
7.2659
 20
-7.11794
 11
7.28581
 21
-7.10092
  0
LINE
  8
0
 10
7.28581
 20
-7.10092
 11
7.30602
 21
-7.08427
  0
LINE
  8
0
 10
7.30602
 20
-7.08427
 11
7.32651
 21
-7.06798
  0
LINE
  8
0
 10
7.32651
 20
-7.06798
 11
7.34727
 21
-7.05203
  0
LINE
  8
0
 10
7.34727
 20
-7.05203
 11
7.36832
 21
-7.03647
  0
LINE
  8
0
 10
7.36832
 20
-7.03647
 11
7.38963
 21
-7.02127
  0
LINE
  8
0
 10
7.38963
 20
-7.02127
 11
7.41121
 21
-7.00644
  0
LINE
  8
0
 10
7.41121
 20
-7.00644
 11
7.43303
 21
-6.99199
  0
LINE
  8
0
 10
7.43303
 20
-6.99199
 11
7.45511
 21
-6.97792
  0
LINE
  8
0
 10
7.45511
 20
-6.97792
 11
7.47743
 21
-6.96425
  0
LINE
  8
0
 10
7.47743
 20
-6.96425
 11
7.5
 21
-6.95096
  0
LINE
  8
0
 10
7.5
 20
-6.95096
 11
7.52278
 21
-6.93806
  0
LINE
  8
0
 10
7.52278
 20
-6.93806
 11
7.54579
 21
-6.92557
  0
LINE
  8
0
 10
7.54579
 20
-6.92557
 11
7.569
 21
-6.91348
  0
LINE
  8
0
 10
7.569
 20
-6.91348
 11
7.59244
 21
-6.90179
  0
LINE
  8
0
 10
7.59244
 20
-6.90179
 11
7.61606
 21
-6.89053
  0
LINE
  8
0
 10
7.61606
 20
-6.89053
 11
7.63989
 21
-6.87967
  0
LINE
  8
0
 10
7.63989
 20
-6.87967
 11
7.66389
 21
-6.86923
  0
LINE
  8
0
 10
7.66389
 20
-6.86923
 11
7.68808
 21
-6.85922
  0
LINE
  8
0
 10
7.68808
 20
-6.85922
 11
7.71243
 21
-6.84962
  0
LINE
  8
0
 10
7.71243
 20
-6.84962
 11
7.73697
 21
-6.84045
  0
LINE
  8
0
 10
7.73697
 20
-6.84045
 11
7.76164
 21
-6.83171
  0
LINE
  8
0
 10
7.76164
 20
-6.83171
 11
7.78647
 21
-6.82341
  0
LINE
  8
0
 10
7.78647
 20
-6.82341
 11
7.81143
 21
-6.81554
  0
LINE
  8
0
 10
7.81143
 20
-6.81554
 11
7.83653
 21
-6.80811
  0
LINE
  8
0
 10
7.83653
 20
-6.80811
 11
7.86177
 21
-6.8011
  0
LINE
  8
0
 10
7.86177
 20
-6.8011
 11
7.88712
 21
-6.79456
  0
LINE
  8
0
 10
7.88712
 20
-6.79456
 11
7.91257
 21
-6.78844
  0
LINE
  8
0
 10
7.91257
 20
-6.78844
 11
7.93813
 21
-6.78278
  0
LINE
  8
0
 10
7.93813
 20
-6.78278
 11
7.96378
 21
-6.77756
  0
LINE
  8
0
 10
7.96378
 20
-6.77756
 11
7.98952
 21
-6.77278
  0
LINE
  8
0
 10
7.98952
 20
-6.77278
 11
8.01534
 21
-6.76846
  0
LINE
  8
0
 10
8.01534
 20
-6.76846
 11
8.04123
 21
-6.76459
  0
LINE
  8
0
 10
8.04123
 20
-6.76459
 11
8.06718
 21
-6.76117
  0
LINE
  8
0
 10
8.06718
 20
-6.76117
 11
8.0932
 21
-6.75821
  0
LINE
  8
0
 10
8.0932
 20
-6.75821
 11
8.11926
 21
-6.75571
  0
LINE
  8
0
 10
8.11926
 20
-6.75571
 11
8.14536
 21
-6.75365
  0
LINE
  8
0
 10
8.14536
 20
-6.75365
 11
8.17149
 21
-6.75204
  0
LINE
  8
0
 10
8.17149
 20
-6.75204
 11
8.19765
 21
-6.7509
  0
LINE
  8
0
 10
8.19765
 20
-6.7509
 11
8.22382
 21
-6.75021
  0
LINE
  8
0
 10
8.22382
 20
-6.75021
 11
8.25
 21
-6.75
  0
LINE
  8
0
 10
8.25
 20
-6.75
 11
8.27617
 21
-6.75021
  0
LINE
  8
0
 10
8.27617
 20
-6.75021
 11
8.30234
 21
-6.7509
  0
LINE
  8
0
 10
8.30234
 20
-6.7509
 11
8.32849
 21
-6.75204
  0
LINE
  8
0
 10
8.32849
 20
-6.75204
 11
8.35463
 21
-6.75365
  0
LINE
  8
0
 10
8.35463
 20
-6.75365
 11
8.38072
 21
-6.75571
  0
LINE
  8
0
 10
8.38072
 20
-6.75571
 11
8.40678
 21
-6.75821
  0
LINE
  8
0
 10
8.40678
 20
-6.75821
 11
8.4328
 21
-6.76117
  0
LINE
  8
0
 10
8.4328
 20
-6.76117
 11
8.45876
 21
-6.76459
  0
LINE
  8
0
 10
8.45876
 20
-6.76459
 11
8.48465
 21
-6.76846
  0
LINE
  8
0
 10
8.48465
 20
-6.76846
 11
8.51047
 21
-6.77278
  0
LINE
  8
0
 10
8.51047
 20
-6.77278
 11
8.53621
 21
-6.77756
  0
LINE
  8
0
 10
8.53621
 20
-6.77756
 11
8.56186
 21
-6.78278
  0
LINE
  8
0
 10
8.56186
 20
-6.78278
 11
8.58742
 21
-6.78844
  0
LINE
  8
0
 10
8.58742
 20
-6.78844
 11
8.61287
 21
-6.79456
  0
LINE
  8
0
 10
8.61287
 20
-6.79456
 11
8.63821
 21
-6.8011
  0
LINE
  8
0
 10
8.63821
 20
-6.8011
 11
8.66345
 21
-6.80811
  0
LINE
  8
0
 10
8.66345
 20
-6.80811
 11
8.68855
 21
-6.81554
  0
LINE
  8
0
 10
8.68855
 20
-6.81554
 11
8.71352
 21
-6.82341
  0
LINE
  8
0
 10
8.71352
 20
-6.82341
 11
8.73834
 21
-6.83171
  0
LINE
  8
0
 10
8.73834
 20
-6.83171
 11
8.76302
 21
-6.84045
  0
LINE
  8
0
 10
8.76302
 20
-6.84045
 11
8.78755
 21
-6.84962
  0
LINE
  8
0
 10
8.78755
 20
-6.84962
 11
8.8119
 21
-6.85922
  0
LINE
  8
0
 10
8.8119
 20
-6.85922
 11
8.83609
 21
-6.86923
  0
LINE
  8
0
 10
8.83609
 20
-6.86923
 11
8.86009
 21
-6.87967
  0
LINE
  8
0
 10
8.86009
 20
-6.87967
 11
8.88393
 21
-6.89053
  0
LINE
  8
0
 10
8.88393
 20
-6.89053
 11
8.90755
 21
-6.90179
  0
LINE
  8
0
 10
8.90755
 20
-6.90179
 11
8.93098
 21
-6.91348
  0
LINE
  8
0
 10
8.93098
 20
-6.91348
 11
8.95419
 21
-6.92557
  0
LINE
  8
0
 10
8.95419
 20
-6.92557
 11
8.9772
 21
-6.93806
  0
LINE
  8
0
 10
8.9772
 20
-6.93806
 11
9
 21
-6.95096
  0
LINE
  8
0
 10
9
 20
-6.95096
 11
9.02255
 21
-6.96425
  0
LINE
  8
0
 10
9.02255
 20
-6.96425
 11
9.04488
 21
-6.97792
  0
LINE
  8
0
 10
9.04488
 20
-6.97792
 11
9.06696
 21
-6.99199
  0
LINE
  8
0
 10
9.06696
 20
-6.99199
 11
9.08878
 21
-7.00644
  0
LINE
  8
0
 10
9.08878
 20
-7.00644
 11
9.11035
 21
-7.02127
  0
LINE
  8
0
 10
9.11035
 20
-7.02127
 11
9.13167
 21
-7.03647
  0
LINE
  8
0
 10
9.13167
 20
-7.03647
 11
9.15271
 21
-7.05203
  0
LINE
  8
0
 10
9.15271
 20
-7.05203
 11
9.17348
 21
-7.06798
  0
LINE
  8
0
 10
9.17348
 20
-7.06798
 11
9.19397
 21
-7.08427
  0
LINE
  8
0
 10
9.19397
 20
-7.08427
 11
9.21417
 21
-7.10092
  0
LINE
  8
0
 10
9.21417
 20
-7.10092
 11
9.23409
 21
-7.11794
  0
LINE
  8
0
 10
9.23409
 20
-7.11794
 11
9.25369
 21
-7.13527
  0
LINE
  8
0
 10
9.25369
 20
-7.13527
 11
9.27299
 21
-7.15297
  0
LINE
  8
0
 10
9.27299
 20
-7.15297
 11
9.29198
 21
-7.17099
  0
LINE
  8
0
 10
9.29198
 20
-7.17099
 11
9.31065
 21
-7.18933
  0
LINE
  8
0
 10
9.31065
 20
-7.18933
 11
9.32899
 21
-7.20801
  0
LINE
  8
0
 10
9.32899
 20
-7.20801
 11
9.34702
 21
-7.22699
  0
LINE
  8
0
 10
9.34702
 20
-7.22699
 11
9.36472
 21
-7.24629
  0
LINE
  8
0
 10
9.36472
 20
-7.24629
 11
9.38205
 21
-7.2659
  0
LINE
  8
0
 10
9.38205
 20
-7.2659
 11
9.39906
 21
-7.28581
  0
LINE
  8
0
 10
9.39906
 20
-7.28581
 11
9.41571
 21
-7.30602
  0
LINE
  8
0
 10
9.41571
 20
-7.30602
 11
9.43201
 21
-7.32651
  0
LINE
  8
0
 10
9.43201
 20
-7.32651
 11
9.44795
 21
-7.34727
  0
LINE
  8
0
 10
9.44795
 20
-7.34727
 11
9.46352
 21
-7.36832
  0
LINE
  8
0
 10
9.46352
 20
-7.36832
 11
9.47871
 21
-7.38963
  0
LINE
  8
0
 10
9.47871
 20
-7.38963
 11
9.49355
 21
-7.41121
  0
LINE
  8
0
 10
9.49355
 20
-7.41121
 11
9.508
 21
-7.43303
  0
LINE
  8
0
 10
9.508
 20
-7.43303
 11
9.52206
 21
-7.45511
  0
LINE
  8
0
 10
9.52206
 20
-7.45511
 11
9.53574
 21
-7.47743
  0
LINE
  8
0
 10
9.53574
 20
-7.47743
 11
9.54903
 21
-7.5
  0
LINE
  8
0
 10
9.54903
 20
-7.5
 11
9.56192
 21
-7.52278
  0
LINE
  8
0
 10
9.56192
 20
-7.52278
 11
9.57442
 21
-7.54579
  0
LINE
  8
0
 10
9.57442
 20
-7.54579
 11
9.5865
 21
-7.569
  0
LINE
  8
0
 10
9.5865
 20
-7.569
 11
9.59819
 21
-7.59244
  0
LINE
  8
0
 10
9.59819
 20
-7.59244
 11
9.60945
 21
-7.61606
  0
LINE
  8
0
 10
9.60945
 20
-7.61606
 11
9.62032
 21
-7.63989
  0
LINE
  8
0
 10
9.62032
 20
-7.63989
 11
9.63075
 21
-7.66389
  0
LINE
  8
0
 10
9.63075
 20
-7.66389
 11
9.64076
 21
-7.68808
  0
LINE
  8
0
 10
9.64076
 20
-7.68808
 11
9.65036
 21
-7.71243
  0
LINE
  8
0
 10
9.65036
 20
-7.71243
 11
9.65953
 21
-7.73697
  0
LINE
  8
0
 10
9.65953
 20
-7.73697
 11
9.66827
 21
-7.76164
  0
LINE
  8
0
 10
9.66827
 20
-7.76164
 11
9.67657
 21
-7.78647
  0
LINE
  8
0
 10
9.67657
 20
-7.78647
 11
9.68445
 21
-7.81143
  0
LINE
  8
0
 10
9.68445
 20
-7.81143
 11
9.69188
 21
-7.83653
  0
LINE
  8
0
 10
9.69188
 20
-7.83653
 11
9.69888
 21
-7.86177
  0
LINE
  8
0
 10
9.69888
 20
-7.86177
 11
9.70543
 21
-7.88712
  0
LINE
  8
0
 10
9.70543
 20
-7.88712
 11
9.71155
 21
-7.91257
  0
LINE
  8
0
 10
9.71155
 20
-7.91257
 11
9.71721
 21
-7.93813
  0
LINE
  8
0
 10
9.71721
 20
-7.93813
 11
9.72243
 21
-7.96378
  0
LINE
  8
0
 10
9.72243
 20
-7.96378
 11
9.7272
 21
-7.98952
  0
LINE
  8
0
 10
9.7272
 20
-7.98952
 11
9.73152
 21
-8.01534
  0
LINE
  8
0
 10
9.73152
 20
-8.01534
 11
9.7354
 21
-8.04123
  0
LINE
  8
0
 10
9.7354
 20
-8.04123
 11
9.73882
 21
-8.06718
  0
LINE
  8
0
 10
9.73882
 20
-8.06718
 11
9.74178
 21
-8.0932
  0
LINE
  8
0
 10
9.74178
 20
-8.0932
 11
9.74428
 21
-8.11926
  0
LINE
  8
0
 10
9.74428
 20
-8.11926
 11
9.74634
 21
-8.14536
  0
LINE
  8
0
 10
9.74634
 20
-8.14536
 11
9.74794
 21
-8.17149
  0
LINE
  8
0
 10
9.74794
 20
-8.17149
 11
9.74908
 21
-8.19765
  0
LINE
  8
0
 10
9.74908
 20
-8.19765
 11
9.74977
 21
-8.22382
  0
LINE
  8
0
 10
9.74977
 20
-8.22382
 11
9.75
 21
-8.25
  0
LINE
  8
0
 10
9.75
 20
-8.25
 11
9.74977
 21
-8.27617
  0
LINE
  8
0
 10
9.74977
 20
-8.27617
 11
9.74908
 21
-8.30234
  0
LINE
  8
0
 10
9.74908
 20
-8.30234
 11
9.74794
 21
-8.32849
  0
LINE
  8
0
 10
9.74794
 20
-8.32849
 11
9.74634
 21
-8.35463
  0
LINE
  8
0
 10
9.74634
 20
-8.35463
 11
9.74428
 21
-8.38072
  0
LINE
  8
0
 10
9.74428
 20
-8.38072
 11
9.74178
 21
-8.40678
  0
LINE
  8
0
 10
9.74178
 20
-8.40678
 11
9.73882
 21
-8.4328
  0
LINE
  8
0
 10
9.73882
 20
-8.4328
 11
9.7354
 21
-8.45876
  0
LINE
  8
0
 10
9.7354
 20
-8.45876
 11
9.73152
 21
-8.48465
  0
LINE
  8
0
 10
9.73152
 20
-8.48465
 11
9.7272
 21
-8.51047
  0
LINE
  8
0
 10
9.7272
 20
-8.51047
 11
9.72243
 21
-8.53621
  0
LINE
  8
0
 10
9.72243
 20
-8.53621
 11
9.71721
 21
-8.56186
  0
LINE
  8
0
 10
9.71721
 20
-8.56186
 11
9.71155
 21
-8.58742
  0
LINE
  8
0
 10
9.71155
 20
-8.58742
 11
9.70543
 21
-8.61287
  0
LINE
  8
0
 10
9.70543
 20
-8.61287
 11
9.69888
 21
-8.63821
  0
LINE
  8
0
 10
9.69888
 20
-8.63821
 11
9.69188
 21
-8.66345
  0
LINE
  8
0
 10
9.69188
 20
-8.66345
 11
9.68445
 21
-8.68855
  0
LINE
  8
0
 10
9.68445
 20
-8.68855
 11
9.67657
 21
-8.71352
  0
LINE
  8
0
 10
9.67657
 20
-8.71352
 11
9.66827
 21
-8.73834
  0
LINE
  8
0
 10
9.66827
 20
-8.73834
 11
9.65953
 21
-8.76302
  0
LINE
  8
0
 10
9.65953
 20
-8.76302
 11
9.65036
 21
-8.78755
  0
LINE
  8
0
 10
9.65036
 20
-8.78755
 11
9.64076
 21
-8.8119
  0
LINE
  8
0
 10
9.64076
 20
-8.8119
 11
9.63075
 21
-8.83609
  0
LINE
  8
0
 10
9.63075
 20
-8.83609
 11
9.62032
 21
-8.86009
  0
LINE
  8
0
 10
9.62032
 20
-8.86009
 11
9.60945
 21
-8.88393
  0
LINE
  8
0
 10
9.60945
 20
-8.88393
 11
9.59819
 21
-8.90755
  0
LINE
  8
0
 10
9.59819
 20
-8.90755
 11
9.5865
 21
-8.93098
  0
LINE
  8
0
 10
9.5865
 20
-8.93098
 11
9.57442
 21
-8.95419
  0
LINE
  8
0
 10
9.57442
 20
-8.95419
 11
9.56192
 21
-8.9772
  0
LINE
  8
0
 10
9.56192
 20
-8.9772
 11
9.54903
 21
-9
  0
LINE
  8
0
 10
9.54903
 20
-9
 11
9.53574
 21
-9.02255
  0
LINE
  8
0
 10
9.53574
 20
-9.02255
 11
9.52206
 21
-9.04488
  0
LINE
  8
0
 10
9.52206
 20
-9.04488
 11
9.508
 21
-9.06696
  0
LINE
  8
0
 10
9.508
 20
-9.06696
 11
9.49355
 21
-9.08878
  0
LINE
  8
0
 10
9.49355
 20
-9.08878
 11
9.47871
 21
-9.11035
  0
LINE
  8
0
 10
9.47871
 20
-9.11035
 11
9.46352
 21
-9.13167
  0
LINE
  8
0
 10
9.46352
 20
-9.13167
 11
9.44795
 21
-9.15271
  0
LINE
  8
0
 10
9.44795
 20
-9.15271
 11
9.43201
 21
-9.17348
  0
LINE
  8
0
 10
9.43201
 20
-9.17348
 11
9.41571
 21
-9.19397
  0
LINE
  8
0
 10
9.41571
 20
-9.19397
 11
9.39906
 21
-9.21417
  0
LINE
  8
0
 10
9.39906
 20
-9.21417
 11
9.38205
 21
-9.23409
  0
LINE
  8
0
 10
9.38205
 20
-9.23409
 11
9.36472
 21
-9.25369
  0
LINE
  8
0
 10
9.36472
 20
-9.25369
 11
9.34702
 21
-9.27299
  0
LINE
  8
0
 10
9.34702
 20
-9.27299
 11
9.32899
 21
-9.29198
  0
LINE
  8
0
 10
9.32899
 20
-9.29198
 11
9.31065
 21
-9.31065
  0
LINE
  8
0
 10
9.31065
 20
-9.31065
 11
9.29198
 21
-9.32899
  0
LINE
  8
0
 10
9.29198
 20
-9.32899
 11
9.27299
 21
-9.34702
  0
LINE
  8
0
 10
9.27299
 20
-9.34702
 11
9.25369
 21
-9.36472
  0
LINE
  8
0
 10
9.25369
 20
-9.36472
 11
9.23409
 21
-9.38205
  0
LINE
  8
0
 10
9.23409
 20
-9.38205
 11
9.21417
 21
-9.39906
  0
LINE
  8
0
 10
9.21417
 20
-9.39906
 11
9.19397
 21
-9.41571
  0
LINE
  8
0
 10
9.19397
 20
-9.41571
 11
9.17348
 21
-9.43201
  0
LINE
  8
0
 10
9.17348
 20
-9.43201
 11
9.15271
 21
-9.44795
  0
LINE
  8
0
 10
9.15271
 20
-9.44795
 11
9.13167
 21
-9.46352
  0
LINE
  8
0
 10
9.13167
 20
-9.46352
 11
9.11035
 21
-9.47871
  0
LINE
  8
0
 10
9.11035
 20
-9.47871
 11
9.08878
 21
-9.49355
  0
LINE
  8
0
 10
9.08878
 20
-9.49355
 11
9.06696
 21
-9.508
  0
LINE
  8
0
 10
9.06696
 20
-9.508
 11
9.04488
 21
-9.52206
  0
LINE
  8
0
 10
9.04488
 20
-9.52206
 11
9.02255
 21
-9.53574
  0
LINE
  8
0
 10
9.02255
 20
-9.53574
 11
9
 21
-9.54903
  0
LINE
  8
0
 10
9
 20
-9.54903
 11
8.9772
 21
-9.56192
  0
LINE
  8
0
 10
8.9772
 20
-9.56192
 11
8.95419
 21
-9.57442
  0
LINE
  8
0
 10
8.95419
 20
-9.57442
 11
8.93098
 21
-9.5865
  0
LINE
  8
0
 10
8.93098
 20
-9.5865
 11
8.90755
 21
-9.59819
  0
LINE
  8
0
 10
8.90755
 20
-9.59819
 11
8.88393
 21
-9.60945
  0
LINE
  8
0
 10
8.88393
 20
-9.60945
 11
8.86009
 21
-9.62032
  0
LINE
  8
0
 10
8.86009
 20
-9.62032
 11
8.83609
 21
-9.63075
  0
LINE
  8
0
 10
8.83609
 20
-9.63075
 11
8.8119
 21
-9.64076
  0
LINE
  8
0
 10
8.8119
 20
-9.64076
 11
8.78755
 21
-9.65036
  0
LINE
  8
0
 10
8.78755
 20
-9.65036
 11
8.76302
 21
-9.65953
  0
LINE
  8
0
 10
8.76302
 20
-9.65953
 11
8.73834
 21
-9.66827
  0
LINE
  8
0
 10
8.73834
 20
-9.66827
 11
8.71352
 21
-9.67657
  0
LINE
  8
0
 10
8.71352
 20
-9.67657
 11
8.68855
 21
-9.68445
  0
LINE
  8
0
 10
8.68855
 20
-9.68445
 11
8.66345
 21
-9.69188
  0
LINE
  8
0
 10
8.66345
 20
-9.69188
 11
8.63821
 21
-9.69888
  0
LINE
  8
0
 10
8.63821
 20
-9.69888
 11
8.61287
 21
-9.70543
  0
LINE
  8
0
 10
8.61287
 20
-9.70543
 11
8.58742
 21
-9.71155
  0
LINE
  8
0
 10
8.58742
 20
-9.71155
 11
8.56186
 21
-9.71721
  0
LINE
  8
0
 10
8.56186
 20
-9.71721
 11
8.53621
 21
-9.72243
  0
LINE
  8
0
 10
8.53621
 20
-9.72243
 11
8.51047
 21
-9.7272
  0
LINE
  8
0
 10
8.51047
 20
-9.7272
 11
8.48465
 21
-9.73152
  0
LINE
  8
0
 10
8.48465
 20
-9.73152
 11
8.45876
 21
-9.7354
  0
LINE
  8
0
 10
8.45876
 20
-9.7354
 11
8.4328
 21
-9.73882
  0
LINE
  8
0
 10
8.4328
 20
-9.73882
 11
8.40678
 21
-9.74178
  0
LINE
  8
0
 10
8.40678
 20
-9.74178
 11
8.38072
 21
-9.74428
  0
LINE
  8
0
 10
8.38072
 20
-9.74428
 11
8.35463
 21
-9.74634
  0
LINE
  8
0
 10
8.35463
 20
-9.74634
 11
8.32849
 21
-9.74794
  0
LINE
  8
0
 10
8.32849
 20
-9.74794
 11
8.30234
 21
-9.74908
  0
LINE
  8
0
 10
8.30234
 20
-9.74908
 11
8.27617
 21
-9.74977
  0
LINE
  8
0
 10
8.27617
 20
-9.74977
 11
8.25
 21
-9.75
  0
LINE
  8
0
 10
8.25
 20
-9.75
 11
8.22382
 21
-9.74977
  0
LINE
  8
0
 10
-8.27617
 20
-9.74977
 11
-8.30234
 21
-9.74908
  0
LINE
  8
0
 10
-8.30234
 20
-9.74908
 11
-8.32849
 21
-9.74794
  0
LINE
  8
0
 10
-8.32849
 20
-9.74794
 11
-8.35463
 21
-9.74634
  0
LINE
  8
0
 10
-8.35463
 20
-9.74634
 11
-8.38072
 21
-9.74428
  0
LINE
  8
0
 10
-8.38072
 20
-9.74428
 11
-8.40678
 21
-9.74178
  0
LINE
  8
0
 10
-8.40678
 20
-9.74178
 11
-8.4328
 21
-9.73882
  0
LINE
  8
0
 10
-8.4328
 20
-9.73882
 11
-8.45876
 21
-9.7354
  0
LINE
  8
0
 10
-8.45876
 20
-9.7354
 11
-8.48465
 21
-9.73152
  0
LINE
  8
0
 10
-8.48465
 20
-9.73152
 11
-8.51047
 21
-9.7272
  0
LINE
  8
0
 10
-8.51047
 20
-9.7272
 11
-8.53621
 21
-9.72243
  0
LINE
  8
0
 10
-8.53621
 20
-9.72243
 11
-8.56186
 21
-9.71721
  0
LINE
  8
0
 10
-8.56186
 20
-9.71721
 11
-8.58742
 21
-9.71155
  0
LINE
  8
0
 10
-8.58742
 20
-9.71155
 11
-8.61287
 21
-9.70543
  0
LINE
  8
0
 10
-8.61287
 20
-9.70543
 11
-8.63821
 21
-9.69888
  0
LINE
  8
0
 10
-8.63821
 20
-9.69888
 11
-8.66345
 21
-9.69188
  0
LINE
  8
0
 10
-8.66345
 20
-9.69188
 11
-8.68855
 21
-9.68445
  0
LINE
  8
0
 10
-8.68855
 20
-9.68445
 11
-8.71352
 21
-9.67657
  0
LINE
  8
0
 10
-8.71352
 20
-9.67657
 11
-8.73834
 21
-9.66827
  0
LINE
  8
0
 10
-8.73834
 20
-9.66827
 11
-8.76302
 21
-9.65953
  0
LINE
  8
0
 10
-8.76302
 20
-9.65953
 11
-8.78755
 21
-9.65036
  0
LINE
  8
0
 10
-8.78755
 20
-9.65036
 11
-8.8119
 21
-9.64076
  0
LINE
  8
0
 10
-8.8119
 20
-9.64076
 11
-8.83609
 21
-9.63075
  0
LINE
  8
0
 10
-8.83609
 20
-9.63075
 11
-8.86009
 21
-9.62032
  0
LINE
  8
0
 10
-8.86009
 20
-9.62032
 11
-8.88393
 21
-9.60945
  0
LINE
  8
0
 10
-8.88393
 20
-9.60945
 11
-8.90755
 21
-9.59819
  0
LINE
  8
0
 10
-8.90755
 20
-9.59819
 11
-8.93098
 21
-9.5865
  0
LINE
  8
0
 10
-8.93098
 20
-9.5865
 11
-8.95419
 21
-9.57442
  0
LINE
  8
0
 10
-8.95419
 20
-9.57442
 11
-8.9772
 21
-9.56192
  0
LINE
  8
0
 10
-8.9772
 20
-9.56192
 11
-9
 21
-9.54903
  0
LINE
  8
0
 10
-9
 20
-9.54903
 11
-9.02255
 21
-9.53574
  0
LINE
  8
0
 10
-9.02255
 20
-9.53574
 11
-9.04488
 21
-9.52206
  0
LINE
  8
0
 10
-9.04488
 20
-9.52206
 11
-9.06696
 21
-9.508
  0
LINE
  8
0
 10
-9.06696
 20
-9.508
 11
-9.08878
 21
-9.49355
  0
LINE
  8
0
 10
-9.08878
 20
-9.49355
 11
-9.11035
 21
-9.47871
  0
LINE
  8
0
 10
-9.11035
 20
-9.47871
 11
-9.13167
 21
-9.46352
  0
LINE
  8
0
 10
-9.13167
 20
-9.46352
 11
-9.15271
 21
-9.44795
  0
LINE
  8
0
 10
-9.15271
 20
-9.44795
 11
-9.17348
 21
-9.43201
  0
LINE
  8
0
 10
-9.17348
 20
-9.43201
 11
-9.19397
 21
-9.41571
  0
LINE
  8
0
 10
-9.19397
 20
-9.41571
 11
-9.21417
 21
-9.39906
  0
LINE
  8
0
 10
-9.21417
 20
-9.39906
 11
-9.23409
 21
-9.38205
  0
LINE
  8
0
 10
-9.23409
 20
-9.38205
 11
-9.25369
 21
-9.36472
  0
LINE
  8
0
 10
-9.25369
 20
-9.36472
 11
-9.27299
 21
-9.34702
  0
LINE
  8
0
 10
-9.27299
 20
-9.34702
 11
-9.29198
 21
-9.32899
  0
LINE
  8
0
 10
-9.29198
 20
-9.32899
 11
-9.31065
 21
-9.31065
  0
LINE
  8
0
 10
-9.31065
 20
-9.31065
 11
-9.32899
 21
-9.29198
  0
LINE
  8
0
 10
-9.32899
 20
-9.29198
 11
-9.34702
 21
-9.27299
  0
LINE
  8
0
 10
-9.34702
 20
-9.27299
 11
-9.36472
 21
-9.25369
  0
LINE
  8
0
 10
-9.36472
 20
-9.25369
 11
-9.38205
 21
-9.23409
  0
LINE
  8
0
 10
-9.38205
 20
-9.23409
 11
-9.39906
 21
-9.21417
  0
LINE
  8
0
 10
-9.39906
 20
-9.21417
 11
-9.41571
 21
-9.19397
  0
LINE
  8
0
 10
-9.41571
 20
-9.19397
 11
-9.43201
 21
-9.17348
  0
LINE
  8
0
 10
-9.43201
 20
-9.17348
 11
-9.44795
 21
-9.15271
  0
LINE
  8
0
 10
-9.44795
 20
-9.15271
 11
-9.46352
 21
-9.13167
  0
LINE
  8
0
 10
-9.46352
 20
-9.13167
 11
-9.47871
 21
-9.11035
  0
LINE
  8
0
 10
-9.47871
 20
-9.11035
 11
-9.49355
 21
-9.08878
  0
LINE
  8
0
 10
-9.49355
 20
-9.08878
 11
-9.508
 21
-9.06696
  0
LINE
  8
0
 10
-9.508
 20
-9.06696
 11
-9.52206
 21
-9.04488
  0
LINE
  8
0
 10
-9.52206
 20
-9.04488
 11
-9.53574
 21
-9.02255
  0
LINE
  8
0
 10
-9.53574
 20
-9.02255
 11
-9.54903
 21
-9
  0
LINE
  8
0
 10
-9.54903
 20
-9
 11
-9.56192
 21
-8.9772
  0
LINE
  8
0
 10
-9.56192
 20
-8.9772
 11
-9.57442
 21
-8.95419
  0
LINE
  8
0
 10
-9.57442
 20
-8.95419
 11
-9.5865
 21
-8.93098
  0
LINE
  8
0
 10
-9.5865
 20
-8.93098
 11
-9.59819
 21
-8.90755
  0
LINE
  8
0
 10
-9.59819
 20
-8.90755
 11
-9.60945
 21
-8.88393
  0
LINE
  8
0
 10
-9.60945
 20
-8.88393
 11
-9.62032
 21
-8.86009
  0
LINE
  8
0
 10
-9.62032
 20
-8.86009
 11
-9.63075
 21
-8.83609
  0
LINE
  8
0
 10
-9.63075
 20
-8.83609
 11
-9.64076
 21
-8.8119
  0
LINE
  8
0
 10
-9.64076
 20
-8.8119
 11
-9.65036
 21
-8.78755
  0
LINE
  8
0
 10
-9.65036
 20
-8.78755
 11
-9.65953
 21
-8.76302
  0
LINE
  8
0
 10
-9.65953
 20
-8.76302
 11
-9.66827
 21
-8.73834
  0
LINE
  8
0
 10
-9.66827
 20
-8.73834
 11
-9.67657
 21
-8.71352
  0
LINE
  8
0
 10
-9.67657
 20
-8.71352
 11
-9.68445
 21
-8.68855
  0
LINE
  8
0
 10
-9.68445
 20
-8.68855
 11
-9.69188
 21
-8.66345
  0
LINE
  8
0
 10
-9.69188
 20
-8.66345
 11
-9.69888
 21
-8.63821
  0
LINE
  8
0
 10
-9.69888
 20
-8.63821
 11
-9.70543
 21
-8.61287
  0
LINE
  8
0
 10
-9.70543
 20
-8.61287
 11
-9.71155
 21
-8.58742
  0
LINE
  8
0
 10
-9.71155
 20
-8.58742
 11
-9.71721
 21
-8.56186
  0
LINE
  8
0
 10
-9.71721
 20
-8.56186
 11
-9.72243
 21
-8.53621
  0
LINE
  8
0
 10
-9.72243
 20
-8.53621
 11
-9.7272
 21
-8.51047
  0
LINE
  8
0
 10
-9.7272
 20
-8.51047
 11
-9.73152
 21
-8.48465
  0
LINE
  8
0
 10
-9.73152
 20
-8.48465
 11
-9.7354
 21
-8.45876
  0
LINE
  8
0
 10
-9.7354
 20
-8.45876
 11
-9.73882
 21
-8.4328
  0
LINE
  8
0
 10
-9.73882
 20
-8.4328
 11
-9.74178
 21
-8.40678
  0
LINE
  8
0
 10
-9.74178
 20
-8.40678
 11
-9.74428
 21
-8.38072
  0
LINE
  8
0
 10
-9.74428
 20
-8.38072
 11
-9.74634
 21
-8.35463
  0
LINE
  8
0
 10
-9.74634
 20
-8.35463
 11
-9.74794
 21
-8.32849
  0
LINE
  8
0
 10
-9.74794
 20
-8.32849
 11
-9.74908
 21
-8.30234
  0
LINE
  8
0
 10
-9.74908
 20
-8.30234
 11
-9.74977
 21
-8.27617
  0
LINE
  8
0
 10
-9.74977
 20
-8.27617
 11
-9.75
 21
-8.25
  0
LINE
  8
0
 10
-9.75
 20
-8.25
 11
-9.74977
 21
-8.22382
  0
LINE
  8
0
 10
-9.74977
 20
-8.22382
 11
-9.74908
 21
-8.19765
  0
LINE
  8
0
 10
-9.74908
 20
-8.19765
 11
-9.74794
 21
-8.17149
  0
LINE
  8
0
 10
-9.74794
 20
-8.17149
 11
-9.74634
 21
-8.14536
  0
LINE
  8
0
 10
-9.74634
 20
-8.14536
 11
-9.74428
 21
-8.11926
  0
LINE
  8
0
 10
-9.74428
 20
-8.11926
 11
-9.74178
 21
-8.0932
  0
LINE
  8
0
 10
-9.74178
 20
-8.0932
 11
-9.73882
 21
-8.06718
  0
LINE
  8
0
 10
-9.73882
 20
-8.06718
 11
-9.7354
 21
-8.04123
  0
LINE
  8
0
 10
-9.7354
 20
-8.04123
 11
-9.73152
 21
-8.01534
  0
LINE
  8
0
 10
-9.73152
 20
-8.01534
 11
-9.7272
 21
-7.98952
  0
LINE
  8
0
 10
-9.7272
 20
-7.98952
 11
-9.72243
 21
-7.96378
  0
LINE
  8
0
 10
-9.72243
 20
-7.96378
 11
-9.71721
 21
-7.93813
  0
LINE
  8
0
 10
-9.71721
 20
-7.93813
 11
-9.71155
 21
-7.91257
  0
LINE
  8
0
 10
-9.71155
 20
-7.91257
 11
-9.70543
 21
-7.88712
  0
LINE
  8
0
 10
-9.70543
 20
-7.88712
 11
-9.69888
 21
-7.86177
  0
LINE
  8
0
 10
-9.69888
 20
-7.86177
 11
-9.69188
 21
-7.83653
  0
LINE
  8
0
 10
-9.69188
 20
-7.83653
 11
-9.68445
 21
-7.81143
  0
LINE
  8
0
 10
-9.68445
 20
-7.81143
 11
-9.67657
 21
-7.78647
  0
LINE
  8
0
 10
-9.67657
 20
-7.78647
 11
-9.66827
 21
-7.76164
  0
LINE
  8
0
 10
-9.66827
 20
-7.76164
 11
-9.65953
 21
-7.73697
  0
LINE
  8
0
 10
-9.65953
 20
-7.73697
 11
-9.65036
 21
-7.71243
  0
LINE
  8
0
 10
-9.65036
 20
-7.71243
 11
-9.64076
 21
-7.68808
  0
LINE
  8
0
 10
-9.64076
 20
-7.68808
 11
-9.63075
 21
-7.66389
  0
LINE
  8
0
 10
-9.63075
 20
-7.66389
 11
-9.62032
 21
-7.63989
  0
LINE
  8
0
 10
-9.62032
 20
-7.63989
 11
-9.60945
 21
-7.61606
  0
LINE
  8
0
 10
-9.60945
 20
-7.61606
 11
-9.59819
 21
-7.59244
  0
LINE
  8
0
 10
-9.59819
 20
-7.59244
 11
-9.5865
 21
-7.569
  0
LINE
  8
0
 10
-9.5865
 20
-7.569
 11
-9.57442
 21
-7.54579
  0
LINE
  8
0
 10
-9.57442
 20
-7.54579
 11
-9.56192
 21
-7.52278
  0
LINE
  8
0
 10
-9.56192
 20
-7.52278
 11
-9.54903
 21
-7.5
  0
LINE
  8
0
 10
-9.54903
 20
-7.5
 11
-9.53574
 21
-7.47743
  0
LINE
  8
0
 10
-9.53574
 20
-7.47743
 11
-9.52206
 21
-7.45511
  0
LINE
  8
0
 10
-9.52206
 20
-7.45511
 11
-9.508
 21
-7.43303
  0
LINE
  8
0
 10
-9.508
 20
-7.43303
 11
-9.49355
 21
-7.41121
  0
LINE
  8
0
 10
-9.49355
 20
-7.41121
 11
-9.47871
 21
-7.38963
  0
LINE
  8
0
 10
-9.47871
 20
-7.38963
 11
-9.46352
 21
-7.36832
  0
LINE
  8
0
 10
-9.46352
 20
-7.36832
 11
-9.44795
 21
-7.34727
  0
LINE
  8
0
 10
-9.44795
 20
-7.34727
 11
-9.43201
 21
-7.32651
  0
LINE
  8
0
 10
-9.43201
 20
-7.32651
 11
-9.41571
 21
-7.30602
  0
LINE
  8
0
 10
-9.41571
 20
-7.30602
 11
-9.39906
 21
-7.28581
  0
LINE
  8
0
 10
-9.39906
 20
-7.28581
 11
-9.38205
 21
-7.2659
  0
LINE
  8
0
 10
-9.38205
 20
-7.2659
 11
-9.36472
 21
-7.24629
  0
LINE
  8
0
 10
-9.36472
 20
-7.24629
 11
-9.34702
 21
-7.22699
  0
LINE
  8
0
 10
-9.34702
 20
-7.22699
 11
-9.32899
 21
-7.20801
  0
LINE
  8
0
 10
-9.32899
 20
-7.20801
 11
-9.31065
 21
-7.18933
  0
LINE
  8
0
 10
-9.31065
 20
-7.18933
 11
-9.29198
 21
-7.17099
  0
LINE
  8
0
 10
-9.29198
 20
-7.17099
 11
-9.27299
 21
-7.15297
  0
LINE
  8
0
 10
-9.27299
 20
-7.15297
 11
-9.25369
 21
-7.13527
  0
LINE
  8
0
 10
-9.25369
 20
-7.13527
 11
-9.23409
 21
-7.11794
  0
LINE
  8
0
 10
-9.23409
 20
-7.11794
 11
-9.21417
 21
-7.10092
  0
LINE
  8
0
 10
-9.21417
 20
-7.10092
 11
-9.19397
 21
-7.08427
  0
LINE
  8
0
 10
-9.19397
 20
-7.08427
 11
-9.17348
 21
-7.06798
  0
LINE
  8
0
 10
-9.17348
 20
-7.06798
 11
-9.15271
 21
-7.05203
  0
LINE
  8
0
 10
-9.15271
 20
-7.05203
 11
-9.13167
 21
-7.03647
  0
LINE
  8
0
 10
-9.13167
 20
-7.03647
 11
-9.11035
 21
-7.02127
  0
LINE
  8
0
 10
-9.11035
 20
-7.02127
 11
-9.08878
 21
-7.00644
  0
LINE
  8
0
 10
-9.08878
 20
-7.00644
 11
-9.06696
 21
-6.99199
  0
LINE
  8
0
 10
-9.06696
 20
-6.99199
 11
-9.04488
 21
-6.97792
  0
LINE
  8
0
 10
-9.04488
 20
-6.97792
 11
-9.02255
 21
-6.96425
  0
LINE
  8
0
 10
-9.02255
 20
-6.96425
 11
-9
 21
-6.95096
  0
LINE
  8
0
 10
-9
 20
-6.95096
 11
-8.9772
 21
-6.93806
  0
LINE
  8
0
 10
-8.9772
 20
-6.93806
 11
-8.95419
 21
-6.92557
  0
LINE
  8
0
 10
-8.95419
 20
-6.92557
 11
-8.93098
 21
-6.91348
  0
LINE
  8
0
 10
-8.93098
 20
-6.91348
 11
-8.90755
 21
-6.90179
  0
LINE
  8
0
 10
-8.90755
 20
-6.90179
 11
-8.88393
 21
-6.89053
  0
LINE
  8
0
 10
-8.88393
 20
-6.89053
 11
-8.86009
 21
-6.87967
  0
LINE
  8
0
 10
-8.86009
 20
-6.87967
 11
-8.83609
 21
-6.86923
  0
LINE
  8
0
 10
-8.83609
 20
-6.86923
 11
-8.8119
 21
-6.85922
  0
LINE
  8
0
 10
-8.8119
 20
-6.85922
 11
-8.78755
 21
-6.84962
  0
LINE
  8
0
 10
-8.78755
 20
-6.84962
 11
-8.76302
 21
-6.84045
  0
LINE
  8
0
 10
-8.76302
 20
-6.84045
 11
-8.73834
 21
-6.83171
  0
LINE
  8
0
 10
-8.73834
 20
-6.83171
 11
-8.71352
 21
-6.82341
  0
LINE
  8
0
 10
-8.71352
 20
-6.82341
 11
-8.68855
 21
-6.81554
  0
LINE
  8
0
 10
-8.68855
 20
-6.81554
 11
-8.66345
 21
-6.80811
  0
LINE
  8
0
 10
-8.66345
 20
-6.80811
 11
-8.63821
 21
-6.8011
  0
LINE
  8
0
 10
-8.63821
 20
-6.8011
 11
-8.61287
 21
-6.79456
  0
LINE
  8
0
 10
-8.61287
 20
-6.79456
 11
-8.58742
 21
-6.78844
  0
LINE
  8
0
 10
-8.58742
 20
-6.78844
 11
-8.56186
 21
-6.78278
  0
LINE
  8
0
 10
-8.56186
 20
-6.78278
 11
-8.53621
 21
-6.77756
  0
LINE
  8
0
 10
-8.53621
 20
-6.77756
 11
-8.51047
 21
-6.77278
  0
LINE
  8
0
 10
-8.51047
 20
-6.77278
 11
-8.48465
 21
-6.76846
  0
LINE
  8
0
 10
-8.48465
 20
-6.76846
 11
-8.45876
 21
-6.76459
  0
LINE
  8
0
 10
-8.45876
 20
-6.76459
 11
-8.4328
 21
-6.76117
  0
LINE
  8
0
 10
-8.4328
 20
-6.76117
 11
-8.40678
 21
-6.75821
  0
LINE
  8
0
 10
-8.40678
 20
-6.75821
 11
-8.38072
 21
-6.75571
  0
LINE
  8
0
 10
-8.38072
 20
-6.75571
 11
-8.35463
 21
-6.75365
  0
LINE
  8
0
 10
-8.35463
 20
-6.75365
 11
-8.32849
 21
-6.75204
  0
LINE
  8
0
 10
-8.32849
 20
-6.75204
 11
-8.30234
 21
-6.7509
  0
LINE
  8
0
 10
-8.30234
 20
-6.7509
 11
-8.27617
 21
-6.75021
  0
LINE
  8
0
 10
-8.27617
 20
-6.75021
 11
-8.25
 21
-6.75
  0
LINE
  8
0
 10
-8.25
 20
-6.75
 11
-8.22382
 21
-6.75021
  0
LINE
  8
0
 10
-8.22382
 20
-6.75021
 11
-8.19765
 21
-6.7509
  0
LINE
  8
0
 10
-8.19765
 20
-6.7509
 11
-8.17149
 21
-6.75204
  0
LINE
  8
0
 10
-8.17149
 20
-6.75204
 11
-8.14536
 21
-6.75365
  0
LINE
  8
0
 10
-8.14536
 20
-6.75365
 11
-8.11926
 21
-6.75571
  0
LINE
  8
0
 10
-8.11926
 20
-6.75571
 11
-8.0932
 21
-6.75821
  0
LINE
  8
0
 10
-8.0932
 20
-6.75821
 11
-8.06718
 21
-6.76117
  0
LINE
  8
0
 10
-8.06718
 20
-6.76117
 11
-8.04123
 21
-6.76459
  0
LINE
  8
0
 10
-8.04123
 20
-6.76459
 11
-8.01534
 21
-6.76846
  0
LINE
  8
0
 10
-8.01534
 20
-6.76846
 11
-7.98952
 21
-6.77278
  0
LINE
  8
0
 10
-7.98952
 20
-6.77278
 11
-7.96378
 21
-6.77756
  0
LINE
  8
0
 10
-7.96378
 20
-6.77756
 11
-7.93813
 21
-6.78278
  0
LINE
  8
0
 10
-7.93813
 20
-6.78278
 11
-7.91257
 21
-6.78844
  0
LINE
  8
0
 10
-7.91257
 20
-6.78844
 11
-7.88712
 21
-6.79456
  0
LINE
  8
0
 10
-7.88712
 20
-6.79456
 11
-7.86177
 21
-6.8011
  0
LINE
  8
0
 10
-7.86177
 20
-6.8011
 11
-7.83653
 21
-6.80811
  0
LINE
  8
0
 10
-7.83653
 20
-6.80811
 11
-7.81143
 21
-6.81554
  0
LINE
  8
0
 10
-7.81143
 20
-6.81554
 11
-7.78647
 21
-6.82341
  0
LINE
  8
0
 10
-7.78647
 20
-6.82341
 11
-7.76164
 21
-6.83171
  0
LINE
  8
0
 10
-7.76164
 20
-6.83171
 11
-7.73697
 21
-6.84045
  0
LINE
  8
0
 10
-7.73697
 20
-6.84045
 11
-7.71243
 21
-6.84962
  0
LINE
  8
0
 10
-7.71243
 20
-6.84962
 11
-7.68808
 21
-6.85922
  0
LINE
  8
0
 10
-7.68808
 20
-6.85922
 11
-7.66389
 21
-6.86923
  0
LINE
  8
0
 10
-7.66389
 20
-6.86923
 11
-7.63989
 21
-6.87967
  0
LINE
  8
0
 10
-7.63989
 20
-6.87967
 11
-7.61606
 21
-6.89053
  0
LINE
  8
0
 10
-7.61606
 20
-6.89053
 11
-7.59244
 21
-6.90179
  0
LINE
  8
0
 10
-7.59244
 20
-6.90179
 11
-7.569
 21
-6.91348
  0
LINE
  8
0
 10
-7.569
 20
-6.91348
 11
-7.54579
 21
-6.92557
  0
LINE
  8
0
 10
-7.54579
 20
-6.92557
 11
-7.52278
 21
-6.93806
  0
LINE
  8
0
 10
-7.52278
 20
-6.93806
 11
-7.5
 21
-6.95096
  0
LINE
  8
0
 10
-7.5
 20
-6.95096
 11
-7.47743
 21
-6.96425
  0
LINE
  8
0
 10
-7.47743
 20
-6.96425
 11
-7.45511
 21
-6.97792
  0
LINE
  8
0
 10
-7.45511
 20
-6.97792
 11
-7.43303
 21
-6.99199
  0
LINE
  8
0
 10
-7.43303
 20
-6.99199
 11
-7.41121
 21
-7.00644
  0
LINE
  8
0
 10
-7.41121
 20
-7.00644
 11
-7.38963
 21
-7.02127
  0
LINE
  8
0
 10
-7.38963
 20
-7.02127
 11
-7.36832
 21
-7.03647
  0
LINE
  8
0
 10
-7.36832
 20
-7.03647
 11
-7.34727
 21
-7.05203
  0
LINE
  8
0
 10
-7.34727
 20
-7.05203
 11
-7.32651
 21
-7.06798
  0
LINE
  8
0
 10
-7.32651
 20
-7.06798
 11
-7.30602
 21
-7.08427
  0
LINE
  8
0
 10
-7.30602
 20
-7.08427
 11
-7.28581
 21
-7.10092
  0
LINE
  8
0
 10
-7.28581
 20
-7.10092
 11
-7.2659
 21
-7.11794
  0
LINE
  8
0
 10
-7.2659
 20
-7.11794
 11
-7.24629
 21
-7.13527
  0
LINE
  8
0
 10
-7.24629
 20
-7.13527
 11
-7.22699
 21
-7.15297
  0
LINE
  8
0
 10
-7.22699
 20
-7.15297
 11
-7.20801
 21
-7.17099
  0
LINE
  8
0
 10
-7.20801
 20
-7.17099
 11
-7.18933
 21
-7.18933
  0
LINE
  8
0
 10
-7.18933
 20
-7.18933
 11
-7.17099
 21
-7.20801
  0
LINE
  8
0
 10
-7.17099
 20
-7.20801
 11
-7.15297
 21
-7.22699
  0
LINE
  8
0
 10
-7.15297
 20
-7.22699
 11
-7.13527
 21
-7.24629
  0
LINE
  8
0
 10
-7.13527
 20
-7.24629
 11
-7.11794
 21
-7.2659
  0
LINE
  8
0
 10
-7.11794
 20
-7.2659
 11
-7.10092
 21
-7.28581
  0
LINE
  8
0
 10
-7.10092
 20
-7.28581
 11
-7.08427
 21
-7.30602
  0
LINE
  8
0
 10
-7.08427
 20
-7.30602
 11
-7.06798
 21
-7.32651
  0
LINE
  8
0
 10
-7.06798
 20
-7.32651
 11
-7.05203
 21
-7.34727
  0
LINE
  8
0
 10
-7.05203
 20
-7.34727
 11
-7.03647
 21
-7.36832
  0
LINE
  8
0
 10
-7.03647
 20
-7.36832
 11
-7.02127
 21
-7.38963
  0
LINE
  8
0
 10
-7.02127
 20
-7.38963
 11
-7.00644
 21
-7.41121
  0
LINE
  8
0
 10
-7.00644
 20
-7.41121
 11
-6.99199
 21
-7.43303
  0
LINE
  8
0
 10
-6.99199
 20
-7.43303
 11
-6.97792
 21
-7.45511
  0
LINE
  8
0
 10
-6.97792
 20
-7.45511
 11
-6.96425
 21
-7.47743
  0
LINE
  8
0
 10
-6.96425
 20
-7.47743
 11
-6.95096
 21
-7.5
  0
LINE
  8
0
 10
-6.95096
 20
-7.5
 11
-6.93806
 21
-7.52278
  0
LINE
  8
0
 10
-6.93806
 20
-7.52278
 11
-6.92557
 21
-7.54579
  0
LINE
  8
0
 10
-6.92557
 20
-7.54579
 11
-6.91348
 21
-7.569
  0
LINE
  8
0
 10
-6.91348
 20
-7.569
 11
-6.90179
 21
-7.59244
  0
LINE
  8
0
 10
-6.90179
 20
-7.59244
 11
-6.89053
 21
-7.61606
  0
LINE
  8
0
 10
-6.89053
 20
-7.61606
 11
-6.87967
 21
-7.63989
  0
LINE
  8
0
 10
-6.87967
 20
-7.63989
 11
-6.86923
 21
-7.66389
  0
LINE
  8
0
 10
-6.86923
 20
-7.66389
 11
-6.85922
 21
-7.68808
  0
LINE
  8
0
 10
-6.85922
 20
-7.68808
 11
-6.84962
 21
-7.71243
  0
LINE
  8
0
 10
-6.84962
 20
-7.71243
 11
-6.84045
 21
-7.73697
  0
LINE
  8
0
 10
-6.84045
 20
-7.73697
 11
-6.83171
 21
-7.76164
  0
LINE
  8
0
 10
-6.83171
 20
-7.76164
 11
-6.82341
 21
-7.78647
  0
LINE
  8
0
 10
-6.82341
 20
-7.78647
 11
-6.81554
 21
-7.81143
  0
LINE
  8
0
 10
-6.81554
 20
-7.81143
 11
-6.80811
 21
-7.83653
  0
LINE
  8
0
 10
-6.80811
 20
-7.83653
 11
-6.8011
 21
-7.86177
  0
LINE
  8
0
 10
-6.8011
 20
-7.86177
 11
-6.79456
 21
-7.88712
  0
LINE
  8
0
 10
-6.79456
 20
-7.88712
 11
-6.78844
 21
-7.91257
  0
LINE
  8
0
 10
-6.78844
 20
-7.91257
 11
-6.78278
 21
-7.93813
  0
LINE
  8
0
 10
-6.78278
 20
-7.93813
 11
-6.77756
 21
-7.96378
  0
LINE
  8
0
 10
-6.77756
 20
-7.96378
 11
-6.77278
 21
-7.98952
  0
LINE
  8
0
 10
-6.77278
 20
-7.98952
 11
-6.76846
 21
-8.01534
  0
LINE
  8
0
 10
-6.76846
 20
-8.01534
 11
-6.76459
 21
-8.04123
  0
LINE
  8
0
 10
-6.76459
 20
-8.04123
 11
-6.76117
 21
-8.06718
  0
LINE
  8
0
 10
-6.76117
 20
-8.06718
 11
-6.75821
 21
-8.0932
  0
LINE
  8
0
 10
-6.75821
 20
-8.0932
 11
-6.75571
 21
-8.11926
  0
LINE
  8
0
 10
-6.75571
 20
-8.11926
 11
-6.75365
 21
-8.14536
  0
LINE
  8
0
 10
-6.75365
 20
-8.14536
 11
-6.75204
 21
-8.17149
  0
LINE
  8
0
 10
-6.75204
 20
-8.17149
 11
-6.7509
 21
-8.19765
  0
LINE
  8
0
 10
-6.7509
 20
-8.19765
 11
-6.75021
 21
-8.22382
  0
LINE
  8
0
 10
-6.75021
 20
-8.22382
 11
-6.75
 21
-8.25
  0
LINE
  8
0
 10
-6.75
 20
-8.25
 11
-6.75021
 21
-8.27617
  0
LINE
  8
0
 10
-6.75021
 20
-8.27617
 11
-6.7509
 21
-8.30234
  0
LINE
  8
0
 10
-6.7509
 20
-8.30234
 11
-6.75204
 21
-8.32849
  0
LINE
  8
0
 10
-6.75204
 20
-8.32849
 11
-6.75365
 21
-8.35463
  0
LINE
  8
0
 10
-6.75365
 20
-8.35463
 11
-6.75571
 21
-8.38072
  0
LINE
  8
0
 10
-6.75571
 20
-8.38072
 11
-6.75821
 21
-8.40678
  0
LINE
  8
0
 10
-6.75821
 20
-8.40678
 11
-6.76117
 21
-8.4328
  0
LINE
  8
0
 10
-6.76117
 20
-8.4328
 11
-6.76459
 21
-8.45876
  0
LINE
  8
0
 10
-6.76459
 20
-8.45876
 11
-6.76846
 21
-8.48465
  0
LINE
  8
0
 10
-6.76846
 20
-8.48465
 11
-6.77278
 21
-8.51047
  0
LINE
  8
0
 10
-6.77278
 20
-8.51047
 11
-6.77756
 21
-8.53621
  0
LINE
  8
0
 10
-6.77756
 20
-8.53621
 11
-6.78278
 21
-8.56186
  0
LINE
  8
0
 10
-6.78278
 20
-8.56186
 11
-6.78844
 21
-8.58742
  0
LINE
  8
0
 10
-6.78844
 20
-8.58742
 11
-6.79456
 21
-8.61287
  0
LINE
  8
0
 10
-6.79456
 20
-8.61287
 11
-6.8011
 21
-8.63821
  0
LINE
  8
0
 10
-6.8011
 20
-8.63821
 11
-6.80811
 21
-8.66345
  0
LINE
  8
0
 10
-6.80811
 20
-8.66345
 11
-6.81554
 21
-8.68855
  0
LINE
  8
0
 10
-6.81554
 20
-8.68855
 11
-6.82341
 21
-8.71352
  0
LINE
  8
0
 10
-6.82341
 20
-8.71352
 11
-6.83171
 21
-8.73834
  0
LINE
  8
0
 10
-6.83171
 20
-8.73834
 11
-6.84045
 21
-8.76302
  0
LINE
  8
0
 10
-6.84045
 20
-8.76302
 11
-6.84962
 21
-8.78755
  0
LINE
  8
0
 10
-6.84962
 20
-8.78755
 11
-6.85922
 21
-8.8119
  0
LINE
  8
0
 10
-6.85922
 20
-8.8119
 11
-6.86923
 21
-8.83609
  0
LINE
  8
0
 10
-6.86923
 20
-8.83609
 11
-6.87967
 21
-8.86009
  0
LINE
  8
0
 10
-6.87967
 20
-8.86009
 11
-6.89053
 21
-8.88393
  0
LINE
  8
0
 10
-6.89053
 20
-8.88393
 11
-6.90179
 21
-8.90755
  0
LINE
  8
0
 10
-6.90179
 20
-8.90755
 11
-6.91348
 21
-8.93098
  0
LINE
  8
0
 10
-6.91348
 20
-8.93098
 11
-6.92557
 21
-8.95419
  0
LINE
  8
0
 10
-6.92557
 20
-8.95419
 11
-6.93806
 21
-8.9772
  0
LINE
  8
0
 10
-6.93806
 20
-8.9772
 11
-6.95096
 21
-9
  0
LINE
  8
0
 10
-6.95096
 20
-9
 11
-6.96425
 21
-9.02255
  0
LINE
  8
0
 10
-6.96425
 20
-9.02255
 11
-6.97792
 21
-9.04488
  0
LINE
  8
0
 10
-6.97792
 20
-9.04488
 11
-6.99199
 21
-9.06696
  0
LINE
  8
0
 10
-6.99199
 20
-9.06696
 11
-7.00644
 21
-9.08878
  0
LINE
  8
0
 10
-7.00644
 20
-9.08878
 11
-7.02127
 21
-9.11035
  0
LINE
  8
0
 10
-7.02127
 20
-9.11035
 11
-7.03647
 21
-9.13167
  0
LINE
  8
0
 10
-7.03647
 20
-9.13167
 11
-7.05203
 21
-9.15271
  0
LINE
  8
0
 10
-7.05203
 20
-9.15271
 11
-7.06798
 21
-9.17348
  0
LINE
  8
0
 10
-7.06798
 20
-9.17348
 11
-7.08427
 21
-9.19397
  0
LINE
  8
0
 10
-7.08427
 20
-9.19397
 11
-7.10092
 21
-9.21417
  0
LINE
  8
0
 10
-7.10092
 20
-9.21417
 11
-7.11794
 21
-9.23409
  0
LINE
  8
0
 10
-7.11794
 20
-9.23409
 11
-7.13527
 21
-9.25369
  0
LINE
  8
0
 10
-7.13527
 20
-9.25369
 11
-7.15297
 21
-9.27299
  0
LINE
  8
0
 10
-7.15297
 20
-9.27299
 11
-7.17099
 21
-9.29198
  0
LINE
  8
0
 10
-7.17099
 20
-9.29198
 11
-7.18933
 21
-9.31065
  0
LINE
  8
0
 10
-7.18933
 20
-9.31065
 11
-7.20801
 21
-9.32899
  0
LINE
  8
0
 10
-7.20801
 20
-9.32899
 11
-7.22699
 21
-9.34702
  0
LINE
  8
0
 10
-7.22699
 20
-9.34702
 11
-7.24629
 21
-9.36472
  0
LINE
  8
0
 10
-7.24629
 20
-9.36472
 11
-7.2659
 21
-9.38205
  0
LINE
  8
0
 10
-7.2659
 20
-9.38205
 11
-7.28581
 21
-9.39906
  0
LINE
  8
0
 10
-7.28581
 20
-9.39906
 11
-7.30602
 21
-9.41571
  0
LINE
  8
0
 10
-7.30602
 20
-9.41571
 11
-7.32651
 21
-9.43201
  0
LINE
  8
0
 10
-7.32651
 20
-9.43201
 11
-7.34727
 21
-9.44795
  0
LINE
  8
0
 10
-7.34727
 20
-9.44795
 11
-7.36832
 21
-9.46352
  0
LINE
  8
0
 10
-7.36832
 20
-9.46352
 11
-7.38963
 21
-9.47871
  0
LINE
  8
0
 10
-7.38963
 20
-9.47871
 11
-7.41121
 21
-9.49355
  0
LINE
  8
0
 10
-7.41121
 20
-9.49355
 11
-7.43303
 21
-9.508
  0
LINE
  8
0
 10
-7.43303
 20
-9.508
 11
-7.45511
 21
-9.52206
  0
LINE
  8
0
 10
-7.45511
 20
-9.52206
 11
-7.47743
 21
-9.53574
  0
LINE
  8
0
 10
-7.47743
 20
-9.53574
 11
-7.5
 21
-9.54903
  0
LINE
  8
0
 10
-7.5
 20
-9.54903
 11
-7.52278
 21
-9.56192
  0
LINE
  8
0
 10
-7.52278
 20
-9.56192
 11
-7.54579
 21
-9.57442
  0
LINE
  8
0
 10
-7.54579
 20
-9.57442
 11
-7.569
 21
-9.5865
  0
LINE
  8
0
 10
-7.569
 20
-9.5865
 11
-7.59244
 21
-9.59819
  0
LINE
  8
0
 10
-7.59244
 20
-9.59819
 11
-7.61606
 21
-9.60945
  0
LINE
  8
0
 10
-7.61606
 20
-9.60945
 11
-7.63989
 21
-9.62032
  0
LINE
  8
0
 10
-7.63989
 20
-9.62032
 11
-7.66389
 21
-9.63075
  0
LINE
  8
0
 10
-7.66389
 20
-9.63075
 11
-7.68808
 21
-9.64076
  0
LINE
  8
0
 10
-7.68808
 20
-9.64076
 11
-7.71243
 21
-9.65036
  0
LINE
  8
0
 10
-7.71243
 20
-9.65036
 11
-7.73697
 21
-9.65953
  0
LINE
  8
0
 10
-7.73697
 20
-9.65953
 11
-7.76164
 21
-9.66827
  0
LINE
  8
0
 10
-7.76164
 20
-9.66827
 11
-7.78647
 21
-9.67657
  0
LINE
  8
0
 10
-7.78647
 20
-9.67657
 11
-7.81143
 21
-9.68445
  0
LINE
  8
0
 10
-7.81143
 20
-9.68445
 11
-7.83653
 21
-9.69188
  0
LINE
  8
0
 10
-7.83653
 20
-9.69188
 11
-7.86177
 21
-9.69888
  0
LINE
  8
0
 10
-7.86177
 20
-9.69888
 11
-7.88712
 21
-9.70543
  0
LINE
  8
0
 10
-7.88712
 20
-9.70543
 11
-7.91257
 21
-9.71155
  0
LINE
  8
0
 10
-7.91257
 20
-9.71155
 11
-7.93813
 21
-9.71721
  0
LINE
  8
0
 10
-7.93813
 20
-9.71721
 11
-7.96378
 21
-9.72243
  0
LINE
  8
0
 10
-7.96378
 20
-9.72243
 11
-7.98952
 21
-9.7272
  0
LINE
  8
0
 10
-7.98952
 20
-9.7272
 11
-8.01534
 21
-9.73152
  0
LINE
  8
0
 10
-8.01534
 20
-9.73152
 11
-8.04123
 21
-9.7354
  0
LINE
  8
0
 10
-8.04123
 20
-9.7354
 11
-8.06718
 21
-9.73882
  0
LINE
  8
0
 10
-8.06718
 20
-9.73882
 11
-8.0932
 21
-9.74178
  0
LINE
  8
0
 10
-8.0932
 20
-9.74178
 11
-8.11926
 21
-9.74428
  0
LINE
  8
0
 10
-8.11926
 20
-9.74428
 11
-8.14536
 21
-9.74634
  0
LINE
  8
0
 10
-8.14536
 20
-9.74634
 11
-8.17149
 21
-9.74794
  0
LINE
  8
0
 10
-8.17149
 20
-9.74794
 11
-8.19765
 21
-9.74908
  0
LINE
  8
0
 10
-8.19765
 20
-9.74908
 11
-8.22382
 21
-9.74977
  0
LINE
  8
0
 10
-8.22382
 20
-9.74977
 11
-8.25
 21
-9.75
  0
LINE
  8
0
 10
-8.25
 20
-9.75
 11
-8.27617
 21
-9.74977
  0
ENDSEC
  0
SECTION
  2
OBJECTS
  0
DICTIONARY
  0
ENDSEC
  0
EOF
