  0
SECTION
  2
BLOCKS
  0
ENDSEC
  0
SECTION
  2
ENTITIES
  0
LINE
  8
0
 10
5.07999
 20
-12.17
 11
5.07999
 21
-15.1715
  0
LINE
  8
0
 10
5.07999
 20
-15.1715
 11
5.20908
 21
-15.1283
  0
LINE
  8
0
 10
5.20908
 20
-15.1283
 11
5.47232
 21
-15.0351
  0
LINE
  8
0
 10
5.47232
 20
-15.0351
 11
5.73389
 21
-14.9373
  0
LINE
  8
0
 10
5.73389
 20
-14.9373
 11
5.9937
 21
-14.8349
  0
LINE
  8
0
 10
5.9937
 20
-14.8349
 11
6.25169
 21
-14.7281
  0
LINE
  8
0
 10
6.25169
 20
-14.7281
 11
6.50778
 21
-14.6167
  0
LINE
  8
0
 10
6.50778
 20
-14.6167
 11
6.76189
 21
-14.5009
  0
LINE
  8
0
 10
6.76189
 20
-14.5009
 11
7.01393
 21
-14.3807
  0
LINE
  8
0
 10
7.01393
 20
-14.3807
 11
7.26384
 21
-14.2561
  0
LINE
  8
0
 10
7.26384
 20
-14.2561
 11
7.51154
 21
-14.1272
  0
LINE
  8
0
 10
7.51154
 20
-14.1272
 11
7.75694
 21
-13.9939
  0
LINE
  8
0
 10
7.75694
 20
-13.9939
 11
8
 21
-13.8564
  0
LINE
  8
0
 10
8
 20
-13.8564
 11
8.2406
 21
-13.7147
  0
LINE
  8
0
 10
8.2406
 20
-13.7147
 11
8.4787
 21
-13.5688
  0
LINE
  8
0
 10
8.4787
 20
-13.5688
 11
8.71422
 21
-13.4187
  0
LINE
  8
0
 10
8.71422
 20
-13.4187
 11
8.94708
 21
-13.2646
  0
LINE
  8
0
 10
8.94708
 20
-13.2646
 11
9.17722
 21
-13.1064
  0
LINE
  8
0
 10
9.17722
 20
-13.1064
 11
9.40456
 21
-12.9443
  0
LINE
  8
0
 10
9.40456
 20
-12.9443
 11
9.62903
 21
-12.7782
  0
LINE
  8
0
 10
9.62903
 20
-12.7782
 11
9.85057
 21
-12.6082
  0
LINE
  8
0
 10
9.85057
 20
-12.6082
 11
10.0691
 21
-12.4343
  0
LINE
  8
0
 10
10.0691
 20
-12.4343
 11
10.2846
 21
-12.2567
  0
LINE
  8
0
 10
10.2846
 20
-12.2567
 11
10.4969
 21
-12.0753
  0
LINE
  8
0
 10
10.4969
 20
-12.0753
 11
10.7061
 21
-11.8903
  0
LINE
  8
0
 10
10.7061
 20
-11.8903
 11
10.912
 21
-11.7016
  0
LINE
  8
0
 10
10.912
 20
-11.7016
 11
11.1145
 21
-11.5094
  0
LINE
  8
0
 10
11.1145
 20
-11.5094
 11
11.3137
 21
-11.3137
  0
LINE
  8
0
 10
11.3137
 20
-11.3137
 11
11.5094
 21
-11.1145
  0
LINE
  8
0
 10
11.5094
 20
-11.1145
 11
11.7016
 21
-10.912
  0
LINE
  8
0
 10
11.7016
 20
-10.912
 11
11.8903
 21
-10.7061
  0
LINE
  8
0
 10
11.8903
 20
-10.7061
 11
12.0753
 21
-10.4969
  0
LINE
  8
0
 10
12.0753
 20
-10.4969
 11
12.2567
 21
-10.2846
  0
LINE
  8
0
 10
12.2567
 20
-10.2846
 11
12.4343
 21
-10.0691
  0
LINE
  8
0
 10
12.4343
 20
-10.0691
 11
12.6082
 21
-9.85057
  0
LINE
  8
0
 10
12.6082
 20
-9.85057
 11
12.7782
 21
-9.62903
  0
LINE
  8
0
 10
12.7782
 20
-9.62903
 11
12.9443
 21
-9.40456
  0
LINE
  8
0
 10
12.9443
 20
-9.40456
 11
13.1064
 21
-9.17722
  0
LINE
  8
0
 10
13.1064
 20
-9.17722
 11
13.2646
 21
-8.94708
  0
LINE
  8
0
 10
13.2646
 20
-8.94708
 11
13.4187
 21
-8.71422
  0
LINE
  8
0
 10
13.4187
 20
-8.71422
 11
13.5688
 21
-8.4787
  0
LINE
  8
0
 10
13.5688
 20
-8.4787
 11
13.7147
 21
-8.2406
  0
LINE
  8
0
 10
13.7147
 20
-8.2406
 11
13.8564
 21
-8
  0
LINE
  8
0
 10
13.8564
 20
-8
 11
13.9939
 21
-7.75694
  0
LINE
  8
0
 10
13.9939
 20
-7.75694
 11
14.1272
 21
-7.51154
  0
LINE
  8
0
 10
14.1272
 20
-7.51154
 11
14.2561
 21
-7.26384
  0
LINE
  8
0
 10
14.2561
 20
-7.26384
 11
14.3807
 21
-7.01393
  0
LINE
  8
0
 10
14.3807
 20
-7.01393
 11
14.5009
 21
-6.76189
  0
LINE
  8
0
 10
14.5009
 20
-6.76189
 11
14.6167
 21
-6.50778
  0
LINE
  8
0
 10
14.6167
 20
-6.50778
 11
14.7281
 21
-6.25169
  0
LINE
  8
0
 10
14.7281
 20
-6.25169
 11
14.8349
 21
-5.9937
  0
LINE
  8
0
 10
14.8349
 20
-5.9937
 11
14.9373
 21
-5.73389
  0
LINE
  8
0
 10
14.9373
 20
-5.73389
 11
15.0351
 21
-5.47232
  0
LINE
  8
0
 10
15.0351
 20
-5.47232
 11
15.1283
 21
-5.20908
  0
LINE
  8
0
 10
15.1283
 20
-5.20908
 11
15.2169
 21
-4.94426
  0
LINE
  8
0
 10
15.2169
 20
-4.94426
 11
15.3009
 21
-4.67793
  0
LINE
  8
0
 10
15.3009
 20
-4.67793
 11
15.3802
 21
-4.41019
  0
LINE
  8
0
 10
15.3802
 20
-4.41019
 11
15.4548
 21
-4.1411
  0
LINE
  8
0
 10
15.4548
 20
-4.1411
 11
15.5247
 21
-3.87074
  0
LINE
  8
0
 10
15.5247
 20
-3.87074
 11
15.5899
 21
-3.59921
  0
LINE
  8
0
 10
15.5899
 20
-3.59921
 11
15.6504
 21
-3.32658
  0
LINE
  8
0
 10
15.6504
 20
-3.32658
 11
15.706
 21
-3.05293
  0
LINE
  8
0
 10
15.706
 20
-3.05293
 11
15.7569
 21
-2.77837
  0
LINE
  8
0
 10
15.7569
 20
-2.77837
 11
15.803
 21
-2.50294
  0
LINE
  8
0
 10
15.803
 20
-2.50294
 11
15.8443
 21
-2.22676
  0
LINE
  8
0
 10
15.8443
 20
-2.22676
 11
15.8807
 21
-1.94991
  0
LINE
  8
0
 10
15.8807
 20
-1.94991
 11
15.9123
 21
-1.67245
  0
LINE
  8
0
 10
15.9123
 20
-1.67245
 11
15.9391
 21
-1.39449
  0
LINE
  8
0
 10
15.9391
 20
-1.39449
 11
15.961
 21
-1.11609
  0
LINE
  8
0
 10
15.961
 20
-1.11609
 11
15.9781
 21
-0.837372
  0
LINE
  8
0
 10
15.9781
 20
-0.837372
 11
15.9902
 21
-0.55838
  0
LINE
  8
0
 10
15.9902
 20
-0.55838
 11
15.9976
 21
-0.279236
  0
LINE
  8
0
 10
15.9976
 20
-0.279236
 11
16
 21
0
  0
LINE
  8
0
 10
16
 20
0
 11
15.9976
 21
0.279236
  0
LINE
  8
0
 10
15.9976
 20
0.279236
 11
15.9902
 21
0.55838
  0
LINE
  8
0
 10
15.9902
 20
0.55838
 11
15.9781
 21
0.837372
  0
LINE
  8
0
 10
15.9781
 20
0.837372
 11
15.961
 21
1.11609
  0
LINE
  8
0
 10
15.961
 20
1.11609
 11
15.9391
 21
1.39449
  0
LINE
  8
0
 10
15.9391
 20
1.39449
 11
15.9123
 21
1.67245
  0
LINE
  8
0
 10
15.9123
 20
1.67245
 11
15.8807
 21
1.94991
  0
LINE
  8
0
 10
15.8807
 20
1.94991
 11
15.8443
 21
2.22676
  0
LINE
  8
0
 10
15.8443
 20
2.22676
 11
15.803
 21
2.50294
  0
LINE
  8
0
 10
15.803
 20
2.50294
 11
15.7569
 21
2.77837
  0
LINE
  8
0
 10
15.7569
 20
2.77837
 11
15.706
 21
3.05293
  0
LINE
  8
0
 10
15.706
 20
3.05293
 11
15.6504
 21
3.32658
  0
LINE
  8
0
 10
15.6504
 20
3.32658
 11
15.5899
 21
3.59921
  0
LINE
  8
0
 10
15.5899
 20
3.59921
 11
15.5247
 21
3.87074
  0
LINE
  8
0
 10
15.5247
 20
3.87074
 11
15.4548
 21
4.1411
  0
LINE
  8
0
 10
15.4548
 20
4.1411
 11
15.3802
 21
4.41019
  0
LINE
  8
0
 10
15.3802
 20
4.41019
 11
15.3009
 21
4.67793
  0
LINE
  8
0
 10
15.3009
 20
4.67793
 11
15.2169
 21
4.94426
  0
LINE
  8
0
 10
15.2169
 20
4.94426
 11
15.1283
 21
5.20908
  0
LINE
  8
0
 10
15.1283
 20
5.20908
 11
15.0351
 21
5.47232
  0
LINE
  8
0
 10
15.0351
 20
5.47232
 11
14.9373
 21
5.73389
  0
LINE
  8
0
 10
14.9373
 20
5.73389
 11
14.8349
 21
5.9937
  0
LINE
  8
0
 10
14.8349
 20
5.9937
 11
14.7281
 21
6.25169
  0
LINE
  8
0
 10
14.7281
 20
6.25169
 11
14.6167
 21
6.50778
  0
LINE
  8
0
 10
14.6167
 20
6.50778
 11
14.5009
 21
6.76189
  0
LINE
  8
0
 10
14.5009
 20
6.76189
 11
14.3807
 21
7.01393
  0
LINE
  8
0
 10
14.3807
 20
7.01393
 11
14.2561
 21
7.26384
  0
LINE
  8
0
 10
14.2561
 20
7.26384
 11
14.1272
 21
7.51154
  0
LINE
  8
0
 10
14.1272
 20
7.51154
 11
13.9939
 21
7.75694
  0
LINE
  8
0
 10
13.9939
 20
7.75694
 11
13.8564
 21
8
  0
LINE
  8
0
 10
13.8564
 20
8
 11
13.7147
 21
8.2406
  0
LINE
  8
0
 10
13.7147
 20
8.2406
 11
13.5688
 21
8.4787
  0
LINE
  8
0
 10
13.5688
 20
8.4787
 11
13.4187
 21
8.71422
  0
LINE
  8
0
 10
13.4187
 20
8.71422
 11
13.2646
 21
8.94708
  0
LINE
  8
0
 10
13.2646
 20
8.94708
 11
13.1064
 21
9.17722
  0
LINE
  8
0
 10
13.1064
 20
9.17722
 11
12.9443
 21
9.40456
  0
LINE
  8
0
 10
12.9443
 20
9.40456
 11
12.7782
 21
9.62903
  0
LINE
  8
0
 10
12.7782
 20
9.62903
 11
12.6082
 21
9.85057
  0
LINE
  8
0
 10
12.6082
 20
9.85057
 11
12.4343
 21
10.0691
  0
LINE
  8
0
 10
12.4343
 20
10.0691
 11
12.2567
 21
10.2846
  0
LINE
  8
0
 10
12.2567
 20
10.2846
 11
12.0753
 21
10.4969
  0
LINE
  8
0
 10
12.0753
 20
10.4969
 11
11.8903
 21
10.7061
  0
LINE
  8
0
 10
11.8903
 20
10.7061
 11
11.7016
 21
10.912
  0
LINE
  8
0
 10
11.7016
 20
10.912
 11
11.5094
 21
11.1145
  0
LINE
  8
0
 10
11.5094
 20
11.1145
 11
11.3137
 21
11.3137
  0
LINE
  8
0
 10
11.3137
 20
11.3137
 11
11.1145
 21
11.5094
  0
LINE
  8
0
 10
11.1145
 20
11.5094
 11
10.912
 21
11.7016
  0
LINE
  8
0
 10
10.912
 20
11.7016
 11
10.7061
 21
11.8903
  0
LINE
  8
0
 10
10.7061
 20
11.8903
 11
10.4969
 21
12.0753
  0
LINE
  8
0
 10
10.4969
 20
12.0753
 11
10.2846
 21
12.2567
  0
LINE
  8
0
 10
10.2846
 20
12.2567
 11
10.0691
 21
12.4343
  0
LINE
  8
0
 10
10.0691
 20
12.4343
 11
9.85057
 21
12.6082
  0
LINE
  8
0
 10
9.85057
 20
12.6082
 11
9.62903
 21
12.7782
  0
LINE
  8
0
 10
9.62903
 20
12.7782
 11
9.40456
 21
12.9443
  0
LINE
  8
0
 10
9.40456
 20
12.9443
 11
9.17722
 21
13.1064
  0
LINE
  8
0
 10
9.17722
 20
13.1064
 11
8.94708
 21
13.2646
  0
LINE
  8
0
 10
8.94708
 20
13.2646
 11
8.71422
 21
13.4187
  0
LINE
  8
0
 10
8.71422
 20
13.4187
 11
8.4787
 21
13.5688
  0
LINE
  8
0
 10
8.4787
 20
13.5688
 11
8.2406
 21
13.7147
  0
LINE
  8
0
 10
8.2406
 20
13.7147
 11
8
 21
13.8564
  0
LINE
  8
0
 10
8
 20
13.8564
 11
7.75694
 21
13.9939
  0
LINE
  8
0
 10
7.75694
 20
13.9939
 11
7.51154
 21
14.1272
  0
LINE
  8
0
 10
7.51154
 20
14.1272
 11
7.26384
 21
14.2561
  0
LINE
  8
0
 10
7.26384
 20
14.2561
 11
7.01393
 21
14.3807
  0
LINE
  8
0
 10
7.01393
 20
14.3807
 11
6.76189
 21
14.5009
  0
LINE
  8
0
 10
6.76189
 20
14.5009
 11
6.50778
 21
14.6167
  0
LINE
  8
0
 10
6.50778
 20
14.6167
 11
6.25169
 21
14.7281
  0
LINE
  8
0
 10
6.25169
 20
14.7281
 11
5.9937
 21
14.8349
  0
LINE
  8
0
 10
5.9937
 20
14.8349
 11
5.73389
 21
14.9373
  0
LINE
  8
0
 10
5.73389
 20
14.9373
 11
5.47232
 21
15.0351
  0
LINE
  8
0
 10
5.47232
 20
15.0351
 11
5.20908
 21
15.1283
  0
LINE
  8
0
 10
5.20908
 20
15.1283
 11
4.94426
 21
15.2169
  0
LINE
  8
0
 10
4.94426
 20
15.2169
 11
4.67793
 21
15.3009
  0
LINE
  8
0
 10
4.67793
 20
15.3009
 11
4.41019
 21
15.3802
  0
LINE
  8
0
 10
4.41019
 20
15.3802
 11
4.1411
 21
15.4548
  0
LINE
  8
0
 10
4.1411
 20
15.4548
 11
3.87074
 21
15.5247
  0
LINE
  8
0
 10
3.87074
 20
15.5247
 11
3.59921
 21
15.5899
  0
LINE
  8
0
 10
3.59921
 20
15.5899
 11
3.32658
 21
15.6504
  0
LINE
  8
0
 10
3.32658
 20
15.6504
 11
3.05293
 21
15.706
  0
LINE
  8
0
 10
3.05293
 20
15.706
 11
2.77837
 21
15.7569
  0
LINE
  8
0
 10
2.77837
 20
15.7569
 11
2.50294
 21
15.803
  0
LINE
  8
0
 10
2.50294
 20
15.803
 11
2.22676
 21
15.8443
  0
LINE
  8
0
 10
2.22676
 20
15.8443
 11
1.94991
 21
15.8807
  0
LINE
  8
0
 10
1.94991
 20
15.8807
 11
1.67245
 21
15.9123
  0
LINE
  8
0
 10
1.67245
 20
15.9123
 11
1.39449
 21
15.9391
  0
LINE
  8
0
 10
1.39449
 20
15.9391
 11
1.11609
 21
15.961
  0
LINE
  8
0
 10
1.11609
 20
15.961
 11
0.837372
 21
15.9781
  0
LINE
  8
0
 10
0.837372
 20
15.9781
 11
0.55838
 21
15.9902
  0
LINE
  8
0
 10
0.55838
 20
15.9902
 11
0.279236
 21
15.9976
  0
LINE
  8
0
 10
0.279236
 20
15.9976
 11
0
 21
16
  0
LINE
  8
0
 10
0
 20
16
 11
-0.279236
 21
15.9976
  0
LINE
  8
0
 10
-0.279236
 20
15.9976
 11
-0.55838
 21
15.9902
  0
LINE
  8
0
 10
-0.55838
 20
15.9902
 11
-0.837372
 21
15.9781
  0
LINE
  8
0
 10
-0.837372
 20
15.9781
 11
-1.11609
 21
15.961
  0
LINE
  8
0
 10
-1.11609
 20
15.961
 11
-1.39449
 21
15.9391
  0
LINE
  8
0
 10
-1.39449
 20
15.9391
 11
-1.67245
 21
15.9123
  0
LINE
  8
0
 10
-1.67245
 20
15.9123
 11
-1.94991
 21
15.8807
  0
LINE
  8
0
 10
-1.94991
 20
15.8807
 11
-2.22676
 21
15.8443
  0
LINE
  8
0
 10
-2.22676
 20
15.8443
 11
-2.50294
 21
15.803
  0
LINE
  8
0
 10
-2.50294
 20
15.803
 11
-2.77837
 21
15.7569
  0
LINE
  8
0
 10
-2.77837
 20
15.7569
 11
-3.05293
 21
15.706
  0
LINE
  8
0
 10
-3.05293
 20
15.706
 11
-3.32658
 21
15.6504
  0
LINE
  8
0
 10
-3.32658
 20
15.6504
 11
-3.59921
 21
15.5899
  0
LINE
  8
0
 10
-3.59921
 20
15.5899
 11
-3.87074
 21
15.5247
  0
LINE
  8
0
 10
-3.87074
 20
15.5247
 11
-4.1411
 21
15.4548
  0
LINE
  8
0
 10
-4.1411
 20
15.4548
 11
-4.41019
 21
15.3802
  0
LINE
  8
0
 10
-4.41019
 20
15.3802
 11
-4.67793
 21
15.3009
  0
LINE
  8
0
 10
-4.67793
 20
15.3009
 11
-4.94426
 21
15.2169
  0
LINE
  8
0
 10
-4.94426
 20
15.2169
 11
-5.20908
 21
15.1283
  0
LINE
  8
0
 10
-5.20908
 20
15.1283
 11
-5.47232
 21
15.0351
  0
LINE
  8
0
 10
-5.47232
 20
15.0351
 11
-5.73389
 21
14.9373
  0
LINE
  8
0
 10
-5.73389
 20
14.9373
 11
-5.9937
 21
14.8349
  0
LINE
  8
0
 10
-5.9937
 20
14.8349
 11
-6.25169
 21
14.7281
  0
LINE
  8
0
 10
-6.25169
 20
14.7281
 11
-6.50778
 21
14.6167
  0
LINE
  8
0
 10
-6.50778
 20
14.6167
 11
-6.76189
 21
14.5009
  0
LINE
  8
0
 10
-6.76189
 20
14.5009
 11
-7.01393
 21
14.3807
  0
LINE
  8
0
 10
-7.01393
 20
14.3807
 11
-7.26384
 21
14.2561
  0
LINE
  8
0
 10
-7.26384
 20
14.2561
 11
-7.51154
 21
14.1272
  0
LINE
  8
0
 10
-7.51154
 20
14.1272
 11
-7.75694
 21
13.9939
  0
LINE
  8
0
 10
-7.75694
 20
13.9939
 11
-8
 21
13.8564
  0
LINE
  8
0
 10
-8
 20
13.8564
 11
-8.2406
 21
13.7147
  0
LINE
  8
0
 10
-8.2406
 20
13.7147
 11
-8.4787
 21
13.5688
  0
LINE
  8
0
 10
-8.4787
 20
13.5688
 11
-8.71422
 21
13.4187
  0
LINE
  8
0
 10
-8.71422
 20
13.4187
 11
-8.94708
 21
13.2646
  0
LINE
  8
0
 10
-8.94708
 20
13.2646
 11
-9.17722
 21
13.1064
  0
LINE
  8
0
 10
-9.17722
 20
13.1064
 11
-9.40456
 21
12.9443
  0
LINE
  8
0
 10
-9.40456
 20
12.9443
 11
-9.62903
 21
12.7782
  0
LINE
  8
0
 10
-9.62903
 20
12.7782
 11
-9.85057
 21
12.6082
  0
LINE
  8
0
 10
-9.85057
 20
12.6082
 11
-10.0691
 21
12.4343
  0
LINE
  8
0
 10
-10.0691
 20
12.4343
 11
-10.2846
 21
12.2567
  0
LINE
  8
0
 10
-10.2846
 20
12.2567
 11
-10.4969
 21
12.0753
  0
LINE
  8
0
 10
-10.4969
 20
12.0753
 11
-10.7061
 21
11.8903
  0
LINE
  8
0
 10
-10.7061
 20
11.8903
 11
-10.912
 21
11.7016
  0
LINE
  8
0
 10
-10.912
 20
11.7016
 11
-11.1145
 21
11.5094
  0
LINE
  8
0
 10
-11.1145
 20
11.5094
 11
-11.3137
 21
11.3137
  0
LINE
  8
0
 10
-11.3137
 20
11.3137
 11
-11.5094
 21
11.1145
  0
LINE
  8
0
 10
-11.5094
 20
11.1145
 11
-11.7016
 21
10.912
  0
LINE
  8
0
 10
-11.7016
 20
10.912
 11
-11.8903
 21
10.7061
  0
LINE
  8
0
 10
-11.8903
 20
10.7061
 11
-12.0753
 21
10.4969
  0
LINE
  8
0
 10
-12.0753
 20
10.4969
 11
-12.2567
 21
10.2846
  0
LINE
  8
0
 10
-12.2567
 20
10.2846
 11
-12.4343
 21
10.0691
  0
LINE
  8
0
 10
-12.4343
 20
10.0691
 11
-12.6082
 21
9.85057
  0
LINE
  8
0
 10
-12.6082
 20
9.85057
 11
-12.7782
 21
9.62903
  0
LINE
  8
0
 10
-12.7782
 20
9.62903
 11
-12.9443
 21
9.40456
  0
LINE
  8
0
 10
-12.9443
 20
9.40456
 11
-13.1064
 21
9.17722
  0
LINE
  8
0
 10
-13.1064
 20
9.17722
 11
-13.2646
 21
8.94708
  0
LINE
  8
0
 10
-13.2646
 20
8.94708
 11
-13.4187
 21
8.71422
  0
LINE
  8
0
 10
-13.4187
 20
8.71422
 11
-13.5688
 21
8.4787
  0
LINE
  8
0
 10
-13.5688
 20
8.4787
 11
-13.7147
 21
8.2406
  0
LINE
  8
0
 10
-13.7147
 20
8.2406
 11
-13.8564
 21
8
  0
LINE
  8
0
 10
-13.8564
 20
8
 11
-13.9939
 21
7.75694
  0
LINE
  8
0
 10
-13.9939
 20
7.75694
 11
-14.1272
 21
7.51154
  0
LINE
  8
0
 10
-14.1272
 20
7.51154
 11
-14.2561
 21
7.26384
  0
LINE
  8
0
 10
-14.2561
 20
7.26384
 11
-14.3807
 21
7.01393
  0
LINE
  8
0
 10
-14.3807
 20
7.01393
 11
-14.5009
 21
6.76189
  0
LINE
  8
0
 10
-14.5009
 20
6.76189
 11
-14.6167
 21
6.50778
  0
LINE
  8
0
 10
-14.6167
 20
6.50778
 11
-14.7281
 21
6.25169
  0
LINE
  8
0
 10
-14.7281
 20
6.25169
 11
-14.8349
 21
5.9937
  0
LINE
  8
0
 10
-14.8349
 20
5.9937
 11
-14.9373
 21
5.73389
  0
LINE
  8
0
 10
-14.9373
 20
5.73389
 11
-15.0351
 21
5.47232
  0
LINE
  8
0
 10
-15.0351
 20
5.47232
 11
-15.1283
 21
5.20908
  0
LINE
  8
0
 10
-15.1283
 20
5.20908
 11
-15.2169
 21
4.94426
  0
LINE
  8
0
 10
-15.2169
 20
4.94426
 11
-15.3009
 21
4.67793
  0
LINE
  8
0
 10
-15.3009
 20
4.67793
 11
-15.3802
 21
4.41019
  0
LINE
  8
0
 10
-15.3802
 20
4.41019
 11
-15.4548
 21
4.1411
  0
LINE
  8
0
 10
-15.4548
 20
4.1411
 11
-15.5247
 21
3.87074
  0
LINE
  8
0
 10
-15.5247
 20
3.87074
 11
-15.5899
 21
3.59921
  0
LINE
  8
0
 10
-15.5899
 20
3.59921
 11
-15.6504
 21
3.32658
  0
LINE
  8
0
 10
-15.6504
 20
3.32658
 11
-15.706
 21
3.05293
  0
LINE
  8
0
 10
-15.706
 20
3.05293
 11
-15.7569
 21
2.77837
  0
LINE
  8
0
 10
-15.7569
 20
2.77837
 11
-15.803
 21
2.50294
  0
LINE
  8
0
 10
-15.803
 20
2.50294
 11
-15.8443
 21
2.22676
  0
LINE
  8
0
 10
-15.8443
 20
2.22676
 11
-15.8807
 21
1.94991
  0
LINE
  8
0
 10
-15.8807
 20
1.94991
 11
-15.9123
 21
1.67245
  0
LINE
  8
0
 10
-15.9123
 20
1.67245
 11
-15.9391
 21
1.39449
  0
LINE
  8
0
 10
-15.9391
 20
1.39449
 11
-15.961
 21
1.11609
  0
LINE
  8
0
 10
-15.961
 20
1.11609
 11
-15.9781
 21
0.837372
  0
LINE
  8
0
 10
-15.9781
 20
0.837372
 11
-15.9902
 21
0.55838
  0
LINE
  8
0
 10
-15.9902
 20
0.55838
 11
-15.9976
 21
0.279236
  0
LINE
  8
0
 10
-15.9976
 20
0.279236
 11
-16
 21
0
  0
LINE
  8
0
 10
-16
 20
0
 11
-15.9976
 21
-0.279236
  0
LINE
  8
0
 10
-15.9976
 20
-0.279236
 11
-15.9902
 21
-0.55838
  0
LINE
  8
0
 10
-15.9902
 20
-0.55838
 11
-15.9781
 21
-0.837372
  0
LINE
  8
0
 10
-15.9781
 20
-0.837372
 11
-15.961
 21
-1.11609
  0
LINE
  8
0
 10
-15.961
 20
-1.11609
 11
-15.9391
 21
-1.39449
  0
LINE
  8
0
 10
-15.9391
 20
-1.39449
 11
-15.9123
 21
-1.67245
  0
LINE
  8
0
 10
-15.9123
 20
-1.67245
 11
-15.8807
 21
-1.94991
  0
LINE
  8
0
 10
-15.8807
 20
-1.94991
 11
-15.8443
 21
-2.22676
  0
LINE
  8
0
 10
-15.8443
 20
-2.22676
 11
-15.803
 21
-2.50294
  0
LINE
  8
0
 10
-15.803
 20
-2.50294
 11
-15.7569
 21
-2.77837
  0
LINE
  8
0
 10
-15.7569
 20
-2.77837
 11
-15.706
 21
-3.05293
  0
LINE
  8
0
 10
-15.706
 20
-3.05293
 11
-15.6504
 21
-3.32658
  0
LINE
  8
0
 10
-15.6504
 20
-3.32658
 11
-15.5899
 21
-3.59921
  0
LINE
  8
0
 10
-15.5899
 20
-3.59921
 11
-15.5247
 21
-3.87074
  0
LINE
  8
0
 10
-15.5247
 20
-3.87074
 11
-15.4548
 21
-4.1411
  0
LINE
  8
0
 10
-15.4548
 20
-4.1411
 11
-15.3802
 21
-4.41019
  0
LINE
  8
0
 10
-15.3802
 20
-4.41019
 11
-15.3009
 21
-4.67793
  0
LINE
  8
0
 10
-15.3009
 20
-4.67793
 11
-15.2169
 21
-4.94426
  0
LINE
  8
0
 10
-15.2169
 20
-4.94426
 11
-15.1283
 21
-5.20908
  0
LINE
  8
0
 10
-15.1283
 20
-5.20908
 11
-15.0351
 21
-5.47232
  0
LINE
  8
0
 10
-15.0351
 20
-5.47232
 11
-14.9373
 21
-5.73389
  0
LINE
  8
0
 10
-14.9373
 20
-5.73389
 11
-14.8349
 21
-5.9937
  0
LINE
  8
0
 10
-14.8349
 20
-5.9937
 11
-14.7281
 21
-6.25169
  0
LINE
  8
0
 10
-14.7281
 20
-6.25169
 11
-14.6167
 21
-6.50778
  0
LINE
  8
0
 10
-14.6167
 20
-6.50778
 11
-14.5009
 21
-6.76189
  0
LINE
  8
0
 10
-14.5009
 20
-6.76189
 11
-14.3807
 21
-7.01393
  0
LINE
  8
0
 10
-14.3807
 20
-7.01393
 11
-14.2561
 21
-7.26384
  0
LINE
  8
0
 10
-14.2561
 20
-7.26384
 11
-14.1272
 21
-7.51154
  0
LINE
  8
0
 10
-14.1272
 20
-7.51154
 11
-13.9939
 21
-7.75694
  0
LINE
  8
0
 10
-13.9939
 20
-7.75694
 11
-13.8564
 21
-8
  0
LINE
  8
0
 10
-13.8564
 20
-8
 11
-13.7147
 21
-8.2406
  0
LINE
  8
0
 10
-13.7147
 20
-8.2406
 11
-13.5688
 21
-8.4787
  0
LINE
  8
0
 10
-13.5688
 20
-8.4787
 11
-13.4187
 21
-8.71422
  0
LINE
  8
0
 10
-13.4187
 20
-8.71422
 11
-13.2646
 21
-8.94708
  0
LINE
  8
0
 10
-13.2646
 20
-8.94708
 11
-13.1064
 21
-9.17722
  0
LINE
  8
0
 10
-13.1064
 20
-9.17722
 11
-12.9443
 21
-9.40456
  0
LINE
  8
0
 10
-12.9443
 20
-9.40456
 11
-12.7782
 21
-9.62903
  0
LINE
  8
0
 10
-12.7782
 20
-9.62903
 11
-12.6082
 21
-9.85057
  0
LINE
  8
0
 10
-12.6082
 20
-9.85057
 11
-12.4343
 21
-10.0691
  0
LINE
  8
0
 10
-12.4343
 20
-10.0691
 11
-12.2567
 21
-10.2846
  0
LINE
  8
0
 10
-12.2567
 20
-10.2846
 11
-12.0753
 21
-10.4969
  0
LINE
  8
0
 10
-12.0753
 20
-10.4969
 11
-11.8903
 21
-10.7061
  0
LINE
  8
0
 10
-11.8903
 20
-10.7061
 11
-11.7016
 21
-10.912
  0
LINE
  8
0
 10
-11.7016
 20
-10.912
 11
-11.5094
 21
-11.1145
  0
LINE
  8
0
 10
-11.5094
 20
-11.1145
 11
-11.3137
 21
-11.3137
  0
LINE
  8
0
 10
-11.3137
 20
-11.3137
 11
-11.1145
 21
-11.5094
  0
LINE
  8
0
 10
-11.1145
 20
-11.5094
 11
-10.912
 21
-11.7016
  0
LINE
  8
0
 10
-10.912
 20
-11.7016
 11
-10.7061
 21
-11.8903
  0
LINE
  8
0
 10
-10.7061
 20
-11.8903
 11
-10.4969
 21
-12.0753
  0
LINE
  8
0
 10
-10.4969
 20
-12.0753
 11
-10.2846
 21
-12.2567
  0
LINE
  8
0
 10
-10.2846
 20
-12.2567
 11
-10.0691
 21
-12.4343
  0
LINE
  8
0
 10
-10.0691
 20
-12.4343
 11
-9.85057
 21
-12.6082
  0
LINE
  8
0
 10
-9.85057
 20
-12.6082
 11
-9.62903
 21
-12.7782
  0
LINE
  8
0
 10
-9.62903
 20
-12.7782
 11
-9.40456
 21
-12.9443
  0
LINE
  8
0
 10
-9.40456
 20
-12.9443
 11
-9.17722
 21
-13.1064
  0
LINE
  8
0
 10
-9.17722
 20
-13.1064
 11
-8.94708
 21
-13.2646
  0
LINE
  8
0
 10
-8.94708
 20
-13.2646
 11
-8.71422
 21
-13.4187
  0
LINE
  8
0
 10
-8.71422
 20
-13.4187
 11
-8.4787
 21
-13.5688
  0
LINE
  8
0
 10
-8.4787
 20
-13.5688
 11
-8.2406
 21
-13.7147
  0
LINE
  8
0
 10
-8.2406
 20
-13.7147
 11
-8
 21
-13.8564
  0
LINE
  8
0
 10
-8
 20
-13.8564
 11
-7.75694
 21
-13.9939
  0
LINE
  8
0
 10
-7.75694
 20
-13.9939
 11
-7.51154
 21
-14.1272
  0
LINE
  8
0
 10
-7.51154
 20
-14.1272
 11
-7.26384
 21
-14.2561
  0
LINE
  8
0
 10
-7.26384
 20
-14.2561
 11
-7.01393
 21
-14.3807
  0
LINE
  8
0
 10
-7.01393
 20
-14.3807
 11
-6.76189
 21
-14.5009
  0
LINE
  8
0
 10
-6.76189
 20
-14.5009
 11
-6.50778
 21
-14.6167
  0
LINE
  8
0
 10
-6.50778
 20
-14.6167
 11
-6.25169
 21
-14.7281
  0
LINE
  8
0
 10
-6.25169
 20
-14.7281
 11
-5.9937
 21
-14.8349
  0
LINE
  8
0
 10
-5.9937
 20
-14.8349
 11
-5.73389
 21
-14.9373
  0
LINE
  8
0
 10
-5.73389
 20
-14.9373
 11
-5.47232
 21
-15.0351
  0
LINE
  8
0
 10
-5.47232
 20
-15.0351
 11
-5.20908
 21
-15.1283
  0
LINE
  8
0
 10
-5.20908
 20
-15.1283
 11
-5.07999
 21
-15.1715
  0
LINE
  8
0
 10
-5.07999
 20
-15.1715
 11
-5.07999
 21
-12.17
  0
LINE
  8
0
 10
-5.07999
 20
-12.17
 11
5.07999
 21
-12.17
  0
LINE
  8
0
 10
8.22382
 20
6.75021
 11
8.19765
 21
6.7509
  0
LINE
  8
0
 10
8.19765
 20
6.7509
 11
8.17149
 21
6.75204
  0
LINE
  8
0
 10
8.17149
 20
6.75204
 11
8.14536
 21
6.75365
  0
LINE
  8
0
 10
8.14536
 20
6.75365
 11
8.11926
 21
6.75571
  0
LINE
  8
0
 10
8.11926
 20
6.75571
 11
8.0932
 21
6.75821
  0
LINE
  8
0
 10
8.0932
 20
6.75821
 11
8.06718
 21
6.76117
  0
LINE
  8
0
 10
8.06718
 20
6.76117
 11
8.04123
 21
6.76459
  0
LINE
  8
0
 10
8.04123
 20
6.76459
 11
8.01534
 21
6.76846
  0
LINE
  8
0
 10
8.01534
 20
6.76846
 11
7.98952
 21
6.77278
  0
LINE
  8
0
 10
7.98952
 20
6.77278
 11
7.96378
 21
6.77756
  0
LINE
  8
0
 10
7.96378
 20
6.77756
 11
7.93813
 21
6.78278
  0
LINE
  8
0
 10
7.93813
 20
6.78278
 11
7.91257
 21
6.78844
  0
LINE
  8
0
 10
7.91257
 20
6.78844
 11
7.88712
 21
6.79456
  0
LINE
  8
0
 10
7.88712
 20
6.79456
 11
7.86177
 21
6.8011
  0
LINE
  8
0
 10
7.86177
 20
6.8011
 11
7.83653
 21
6.80811
  0
LINE
  8
0
 10
7.83653
 20
6.80811
 11
7.81143
 21
6.81554
  0
LINE
  8
0
 10
7.81143
 20
6.81554
 11
7.78647
 21
6.82341
  0
LINE
  8
0
 10
7.78647
 20
6.82341
 11
7.76164
 21
6.83171
  0
LINE
  8
0
 10
7.76164
 20
6.83171
 11
7.73697
 21
6.84045
  0
LINE
  8
0
 10
7.73697
 20
6.84045
 11
7.71243
 21
6.84962
  0
LINE
  8
0
 10
7.71243
 20
6.84962
 11
7.68808
 21
6.85922
  0
LINE
  8
0
 10
7.68808
 20
6.85922
 11
7.66389
 21
6.86923
  0
LINE
  8
0
 10
7.66389
 20
6.86923
 11
7.63989
 21
6.87967
  0
LINE
  8
0
 10
7.63989
 20
6.87967
 11
7.61606
 21
6.89053
  0
LINE
  8
0
 10
7.61606
 20
6.89053
 11
7.59244
 21
6.90179
  0
LINE
  8
0
 10
7.59244
 20
6.90179
 11
7.569
 21
6.91348
  0
LINE
  8
0
 10
7.569
 20
6.91348
 11
7.54579
 21
6.92557
  0
LINE
  8
0
 10
7.54579
 20
6.92557
 11
7.52278
 21
6.93806
  0
LINE
  8
0
 10
7.52278
 20
6.93806
 11
7.5
 21
6.95096
  0
LINE
  8
0
 10
7.5
 20
6.95096
 11
7.47743
 21
6.96425
  0
LINE
  8
0
 10
7.47743
 20
6.96425
 11
7.45511
 21
6.97792
  0
LINE
  8
0
 10
7.45511
 20
6.97792
 11
7.43303
 21
6.99199
  0
LINE
  8
0
 10
7.43303
 20
6.99199
 11
7.41121
 21
7.00644
  0
LINE
  8
0
 10
7.41121
 20
7.00644
 11
7.38963
 21
7.02127
  0
LINE
  8
0
 10
7.38963
 20
7.02127
 11
7.36832
 21
7.03647
  0
LINE
  8
0
 10
7.36832
 20
7.03647
 11
7.34727
 21
7.05203
  0
LINE
  8
0
 10
7.34727
 20
7.05203
 11
7.32651
 21
7.06798
  0
LINE
  8
0
 10
7.32651
 20
7.06798
 11
7.30602
 21
7.08427
  0
LINE
  8
0
 10
7.30602
 20
7.08427
 11
7.28581
 21
7.10092
  0
LINE
  8
0
 10
7.28581
 20
7.10092
 11
7.2659
 21
7.11794
  0
LINE
  8
0
 10
7.2659
 20
7.11794
 11
7.24629
 21
7.13527
  0
LINE
  8
0
 10
7.24629
 20
7.13527
 11
7.22699
 21
7.15297
  0
LINE
  8
0
 10
7.22699
 20
7.15297
 11
7.20801
 21
7.17099
  0
LINE
  8
0
 10
7.20801
 20
7.17099
 11
7.18933
 21
7.18933
  0
LINE
  8
0
 10
7.18933
 20
7.18933
 11
7.17099
 21
7.20801
  0
LINE
  8
0
 10
7.17099
 20
7.20801
 11
7.15297
 21
7.22699
  0
LINE
  8
0
 10
7.15297
 20
7.22699
 11
7.13527
 21
7.24629
  0
LINE
  8
0
 10
7.13527
 20
7.24629
 11
7.11794
 21
7.2659
  0
LINE
  8
0
 10
7.11794
 20
7.2659
 11
7.10092
 21
7.28581
  0
LINE
  8
0
 10
7.10092
 20
7.28581
 11
7.08427
 21
7.30602
  0
LINE
  8
0
 10
7.08427
 20
7.30602
 11
7.06798
 21
7.32651
  0
LINE
  8
0
 10
7.06798
 20
7.32651
 11
7.05203
 21
7.34727
  0
LINE
  8
0
 10
7.05203
 20
7.34727
 11
7.03647
 21
7.36832
  0
LINE
  8
0
 10
7.03647
 20
7.36832
 11
7.02127
 21
7.38963
  0
LINE
  8
0
 10
7.02127
 20
7.38963
 11
7.00644
 21
7.41121
  0
LINE
  8
0
 10
7.00644
 20
7.41121
 11
6.99199
 21
7.43303
  0
LINE
  8
0
 10
6.99199
 20
7.43303
 11
6.97792
 21
7.45511
  0
LINE
  8
0
 10
6.97792
 20
7.45511
 11
6.96425
 21
7.47743
  0
LINE
  8
0
 10
6.96425
 20
7.47743
 11
6.95096
 21
7.5
  0
LINE
  8
0
 10
6.95096
 20
7.5
 11
6.93806
 21
7.52278
  0
LINE
  8
0
 10
6.93806
 20
7.52278
 11
6.92557
 21
7.54579
  0
LINE
  8
0
 10
6.92557
 20
7.54579
 11
6.91348
 21
7.569
  0
LINE
  8
0
 10
6.91348
 20
7.569
 11
6.90179
 21
7.59244
  0
LINE
  8
0
 10
6.90179
 20
7.59244
 11
6.89053
 21
7.61606
  0
LINE
  8
0
 10
6.89053
 20
7.61606
 11
6.87967
 21
7.63989
  0
LINE
  8
0
 10
6.87967
 20
7.63989
 11
6.86923
 21
7.66389
  0
LINE
  8
0
 10
6.86923
 20
7.66389
 11
6.85922
 21
7.68808
  0
LINE
  8
0
 10
6.85922
 20
7.68808
 11
6.84962
 21
7.71243
  0
LINE
  8
0
 10
6.84962
 20
7.71243
 11
6.84045
 21
7.73697
  0
LINE
  8
0
 10
6.84045
 20
7.73697
 11
6.83171
 21
7.76164
  0
LINE
  8
0
 10
6.83171
 20
7.76164
 11
6.82341
 21
7.78647
  0
LINE
  8
0
 10
6.82341
 20
7.78647
 11
6.81554
 21
7.81143
  0
LINE
  8
0
 10
6.81554
 20
7.81143
 11
6.80811
 21
7.83653
  0
LINE
  8
0
 10
6.80811
 20
7.83653
 11
6.8011
 21
7.86177
  0
LINE
  8
0
 10
6.8011
 20
7.86177
 11
6.79456
 21
7.88712
  0
LINE
  8
0
 10
6.79456
 20
7.88712
 11
6.78844
 21
7.91257
  0
LINE
  8
0
 10
6.78844
 20
7.91257
 11
6.78278
 21
7.93813
  0
LINE
  8
0
 10
6.78278
 20
7.93813
 11
6.77756
 21
7.96378
  0
LINE
  8
0
 10
6.77756
 20
7.96378
 11
6.77278
 21
7.98952
  0
LINE
  8
0
 10
6.77278
 20
7.98952
 11
6.76846
 21
8.01534
  0
LINE
  8
0
 10
6.76846
 20
8.01534
 11
6.76459
 21
8.04123
  0
LINE
  8
0
 10
6.76459
 20
8.04123
 11
6.76117
 21
8.06718
  0
LINE
  8
0
 10
6.76117
 20
8.06718
 11
6.75821
 21
8.0932
  0
LINE
  8
0
 10
6.75821
 20
8.0932
 11
6.75571
 21
8.11926
  0
LINE
  8
0
 10
6.75571
 20
8.11926
 11
6.75365
 21
8.14536
  0
LINE
  8
0
 10
6.75365
 20
8.14536
 11
6.75204
 21
8.17149
  0
LINE
  8
0
 10
6.75204
 20
8.17149
 11
6.7509
 21
8.19765
  0
LINE
  8
0
 10
6.7509
 20
8.19765
 11
6.75021
 21
8.22382
  0
LINE
  8
0
 10
6.75021
 20
8.22382
 11
6.75
 21
8.25
  0
LINE
  8
0
 10
6.75
 20
8.25
 11
6.75021
 21
8.27617
  0
LINE
  8
0
 10
6.75021
 20
8.27617
 11
6.7509
 21
8.30234
  0
LINE
  8
0
 10
6.7509
 20
8.30234
 11
6.75204
 21
8.32849
  0
LINE
  8
0
 10
6.75204
 20
8.32849
 11
6.75365
 21
8.35463
  0
LINE
  8
0
 10
6.75365
 20
8.35463
 11
6.75571
 21
8.38072
  0
LINE
  8
0
 10
6.75571
 20
8.38072
 11
6.75821
 21
8.40678
  0
LINE
  8
0
 10
6.75821
 20
8.40678
 11
6.76117
 21
8.4328
  0
LINE
  8
0
 10
6.76117
 20
8.4328
 11
6.76459
 21
8.45876
  0
LINE
  8
0
 10
6.76459
 20
8.45876
 11
6.76846
 21
8.48465
  0
LINE
  8
0
 10
6.76846
 20
8.48465
 11
6.77278
 21
8.51047
  0
LINE
  8
0
 10
6.77278
 20
8.51047
 11
6.77756
 21
8.53621
  0
LINE
  8
0
 10
6.77756
 20
8.53621
 11
6.78278
 21
8.56186
  0
LINE
  8
0
 10
6.78278
 20
8.56186
 11
6.78844
 21
8.58742
  0
LINE
  8
0
 10
6.78844
 20
8.58742
 11
6.79456
 21
8.61287
  0
LINE
  8
0
 10
6.79456
 20
8.61287
 11
6.8011
 21
8.63821
  0
LINE
  8
0
 10
6.8011
 20
8.63821
 11
6.80811
 21
8.66345
  0
LINE
  8
0
 10
6.80811
 20
8.66345
 11
6.81554
 21
8.68855
  0
LINE
  8
0
 10
6.81554
 20
8.68855
 11
6.82341
 21
8.71352
  0
LINE
  8
0
 10
6.82341
 20
8.71352
 11
6.83171
 21
8.73834
  0
LINE
  8
0
 10
6.83171
 20
8.73834
 11
6.84045
 21
8.76302
  0
LINE
  8
0
 10
6.84045
 20
8.76302
 11
6.84962
 21
8.78755
  0
LINE
  8
0
 10
6.84962
 20
8.78755
 11
6.85922
 21
8.8119
  0
LINE
  8
0
 10
6.85922
 20
8.8119
 11
6.86923
 21
8.83609
  0
LINE
  8
0
 10
6.86923
 20
8.83609
 11
6.87967
 21
8.86009
  0
LINE
  8
0
 10
6.87967
 20
8.86009
 11
6.89053
 21
8.88393
  0
LINE
  8
0
 10
6.89053
 20
8.88393
 11
6.90179
 21
8.90755
  0
LINE
  8
0
 10
6.90179
 20
8.90755
 11
6.91348
 21
8.93098
  0
LINE
  8
0
 10
6.91348
 20
8.93098
 11
6.92557
 21
8.95419
  0
LINE
  8
0
 10
6.92557
 20
8.95419
 11
6.93806
 21
8.9772
  0
LINE
  8
0
 10
6.93806
 20
8.9772
 11
6.95096
 21
9
  0
LINE
  8
0
 10
6.95096
 20
9
 11
6.96425
 21
9.02255
  0
LINE
  8
0
 10
6.96425
 20
9.02255
 11
6.97792
 21
9.04488
  0
LINE
  8
0
 10
6.97792
 20
9.04488
 11
6.99199
 21
9.06696
  0
LINE
  8
0
 10
6.99199
 20
9.06696
 11
7.00644
 21
9.08878
  0
LINE
  8
0
 10
7.00644
 20
9.08878
 11
7.02127
 21
9.11035
  0
LINE
  8
0
 10
7.02127
 20
9.11035
 11
7.03647
 21
9.13167
  0
LINE
  8
0
 10
7.03647
 20
9.13167
 11
7.05203
 21
9.15271
  0
LINE
  8
0
 10
7.05203
 20
9.15271
 11
7.06798
 21
9.17348
  0
LINE
  8
0
 10
7.06798
 20
9.17348
 11
7.08427
 21
9.19397
  0
LINE
  8
0
 10
7.08427
 20
9.19397
 11
7.10092
 21
9.21417
  0
LINE
  8
0
 10
7.10092
 20
9.21417
 11
7.11794
 21
9.23409
  0
LINE
  8
0
 10
7.11794
 20
9.23409
 11
7.13527
 21
9.25369
  0
LINE
  8
0
 10
7.13527
 20
9.25369
 11
7.15297
 21
9.27299
  0
LINE
  8
0
 10
7.15297
 20
9.27299
 11
7.17099
 21
9.29198
  0
LINE
  8
0
 10
7.17099
 20
9.29198
 11
7.18933
 21
9.31065
  0
LINE
  8
0
 10
7.18933
 20
9.31065
 11
7.20801
 21
9.32899
  0
LINE
  8
0
 10
7.20801
 20
9.32899
 11
7.22699
 21
9.34702
  0
LINE
  8
0
 10
7.22699
 20
9.34702
 11
7.24629
 21
9.36472
  0
LINE
  8
0
 10
7.24629
 20
9.36472
 11
7.2659
 21
9.38205
  0
LINE
  8
0
 10
7.2659
 20
9.38205
 11
7.28581
 21
9.39906
  0
LINE
  8
0
 10
7.28581
 20
9.39906
 11
7.30602
 21
9.41571
  0
LINE
  8
0
 10
7.30602
 20
9.41571
 11
7.32651
 21
9.43201
  0
LINE
  8
0
 10
7.32651
 20
9.43201
 11
7.34727
 21
9.44795
  0
LINE
  8
0
 10
7.34727
 20
9.44795
 11
7.36832
 21
9.46352
  0
LINE
  8
0
 10
7.36832
 20
9.46352
 11
7.38963
 21
9.47871
  0
LINE
  8
0
 10
7.38963
 20
9.47871
 11
7.41121
 21
9.49355
  0
LINE
  8
0
 10
7.41121
 20
9.49355
 11
7.43303
 21
9.508
  0
LINE
  8
0
 10
7.43303
 20
9.508
 11
7.45511
 21
9.52206
  0
LINE
  8
0
 10
7.45511
 20
9.52206
 11
7.47743
 21
9.53574
  0
LINE
  8
0
 10
7.47743
 20
9.53574
 11
7.5
 21
9.54903
  0
LINE
  8
0
 10
7.5
 20
9.54903
 11
7.52278
 21
9.56192
  0
LINE
  8
0
 10
7.52278
 20
9.56192
 11
7.54579
 21
9.57442
  0
LINE
  8
0
 10
7.54579
 20
9.57442
 11
7.569
 21
9.5865
  0
LINE
  8
0
 10
7.569
 20
9.5865
 11
7.59244
 21
9.59819
  0
LINE
  8
0
 10
7.59244
 20
9.59819
 11
7.61606
 21
9.60945
  0
LINE
  8
0
 10
7.61606
 20
9.60945
 11
7.63989
 21
9.62032
  0
LINE
  8
0
 10
7.63989
 20
9.62032
 11
7.66389
 21
9.63075
  0
LINE
  8
0
 10
7.66389
 20
9.63075
 11
7.68808
 21
9.64076
  0
LINE
  8
0
 10
7.68808
 20
9.64076
 11
7.71243
 21
9.65036
  0
LINE
  8
0
 10
7.71243
 20
9.65036
 11
7.73697
 21
9.65953
  0
LINE
  8
0
 10
7.73697
 20
9.65953
 11
7.76164
 21
9.66827
  0
LINE
  8
0
 10
7.76164
 20
9.66827
 11
7.78647
 21
9.67657
  0
LINE
  8
0
 10
7.78647
 20
9.67657
 11
7.81143
 21
9.68445
  0
LINE
  8
0
 10
7.81143
 20
9.68445
 11
7.83653
 21
9.69188
  0
LINE
  8
0
 10
7.83653
 20
9.69188
 11
7.86177
 21
9.69888
  0
LINE
  8
0
 10
7.86177
 20
9.69888
 11
7.88712
 21
9.70543
  0
LINE
  8
0
 10
7.88712
 20
9.70543
 11
7.91257
 21
9.71155
  0
LINE
  8
0
 10
7.91257
 20
9.71155
 11
7.93813
 21
9.71721
  0
LINE
  8
0
 10
7.93813
 20
9.71721
 11
7.96378
 21
9.72243
  0
LINE
  8
0
 10
7.96378
 20
9.72243
 11
7.98952
 21
9.7272
  0
LINE
  8
0
 10
7.98952
 20
9.7272
 11
8.01534
 21
9.73152
  0
LINE
  8
0
 10
8.01534
 20
9.73152
 11
8.04123
 21
9.7354
  0
LINE
  8
0
 10
8.04123
 20
9.7354
 11
8.06718
 21
9.73882
  0
LINE
  8
0
 10
8.06718
 20
9.73882
 11
8.0932
 21
9.74178
  0
LINE
  8
0
 10
8.0932
 20
9.74178
 11
8.11926
 21
9.74428
  0
LINE
  8
0
 10
8.11926
 20
9.74428
 11
8.14536
 21
9.74634
  0
LINE
  8
0
 10
8.14536
 20
9.74634
 11
8.17149
 21
9.74794
  0
LINE
  8
0
 10
8.17149
 20
9.74794
 11
8.19765
 21
9.74908
  0
LINE
  8
0
 10
8.19765
 20
9.74908
 11
8.22382
 21
9.74977
  0
LINE
  8
0
 10
8.22382
 20
9.74977
 11
8.25
 21
9.75
  0
LINE
  8
0
 10
8.25
 20
9.75
 11
8.27617
 21
9.74977
  0
LINE
  8
0
 10
8.27617
 20
9.74977
 11
8.30234
 21
9.74908
  0
LINE
  8
0
 10
8.30234
 20
9.74908
 11
8.32849
 21
9.74794
  0
LINE
  8
0
 10
8.32849
 20
9.74794
 11
8.35463
 21
9.74634
  0
LINE
  8
0
 10
8.35463
 20
9.74634
 11
8.38072
 21
9.74428
  0
LINE
  8
0
 10
8.38072
 20
9.74428
 11
8.40678
 21
9.74178
  0
LINE
  8
0
 10
8.40678
 20
9.74178
 11
8.4328
 21
9.73882
  0
LINE
  8
0
 10
8.4328
 20
9.73882
 11
8.45876
 21
9.7354
  0
LINE
  8
0
 10
8.45876
 20
9.7354
 11
8.48465
 21
9.73152
  0
LINE
  8
0
 10
8.48465
 20
9.73152
 11
8.51047
 21
9.7272
  0
LINE
  8
0
 10
8.51047
 20
9.7272
 11
8.53621
 21
9.72243
  0
LINE
  8
0
 10
8.53621
 20
9.72243
 11
8.56186
 21
9.71721
  0
LINE
  8
0
 10
8.56186
 20
9.71721
 11
8.58742
 21
9.71155
  0
LINE
  8
0
 10
8.58742
 20
9.71155
 11
8.61287
 21
9.70543
  0
LINE
  8
0
 10
8.61287
 20
9.70543
 11
8.63821
 21
9.69888
  0
LINE
  8
0
 10
8.63821
 20
9.69888
 11
8.66345
 21
9.69188
  0
LINE
  8
0
 10
8.66345
 20
9.69188
 11
8.68855
 21
9.68445
  0
LINE
  8
0
 10
8.68855
 20
9.68445
 11
8.71352
 21
9.67657
  0
LINE
  8
0
 10
8.71352
 20
9.67657
 11
8.73834
 21
9.66827
  0
LINE
  8
0
 10
8.73834
 20
9.66827
 11
8.76302
 21
9.65953
  0
LINE
  8
0
 10
8.76302
 20
9.65953
 11
8.78755
 21
9.65036
  0
LINE
  8
0
 10
8.78755
 20
9.65036
 11
8.8119
 21
9.64076
  0
LINE
  8
0
 10
8.8119
 20
9.64076
 11
8.83609
 21
9.63075
  0
LINE
  8
0
 10
8.83609
 20
9.63075
 11
8.86009
 21
9.62032
  0
LINE
  8
0
 10
8.86009
 20
9.62032
 11
8.88393
 21
9.60945
  0
LINE
  8
0
 10
8.88393
 20
9.60945
 11
8.90755
 21
9.59819
  0
LINE
  8
0
 10
8.90755
 20
9.59819
 11
8.93098
 21
9.5865
  0
LINE
  8
0
 10
8.93098
 20
9.5865
 11
8.95419
 21
9.57442
  0
LINE
  8
0
 10
8.95419
 20
9.57442
 11
8.9772
 21
9.56192
  0
LINE
  8
0
 10
8.9772
 20
9.56192
 11
9
 21
9.54903
  0
LINE
  8
0
 10
9
 20
9.54903
 11
9.02255
 21
9.53574
  0
LINE
  8
0
 10
9.02255
 20
9.53574
 11
9.04488
 21
9.52206
  0
LINE
  8
0
 10
9.04488
 20
9.52206
 11
9.06696
 21
9.508
  0
LINE
  8
0
 10
9.06696
 20
9.508
 11
9.08878
 21
9.49355
  0
LINE
  8
0
 10
9.08878
 20
9.49355
 11
9.11035
 21
9.47871
  0
LINE
  8
0
 10
9.11035
 20
9.47871
 11
9.13167
 21
9.46352
  0
LINE
  8
0
 10
9.13167
 20
9.46352
 11
9.15271
 21
9.44795
  0
LINE
  8
0
 10
9.15271
 20
9.44795
 11
9.17348
 21
9.43201
  0
LINE
  8
0
 10
9.17348
 20
9.43201
 11
9.19397
 21
9.41571
  0
LINE
  8
0
 10
9.19397
 20
9.41571
 11
9.21417
 21
9.39906
  0
LINE
  8
0
 10
9.21417
 20
9.39906
 11
9.23409
 21
9.38205
  0
LINE
  8
0
 10
9.23409
 20
9.38205
 11
9.25369
 21
9.36472
  0
LINE
  8
0
 10
9.25369
 20
9.36472
 11
9.27299
 21
9.34702
  0
LINE
  8
0
 10
9.27299
 20
9.34702
 11
9.29198
 21
9.32899
  0
LINE
  8
0
 10
9.29198
 20
9.32899
 11
9.31065
 21
9.31065
  0
LINE
  8
0
 10
9.31065
 20
9.31065
 11
9.32899
 21
9.29198
  0
LINE
  8
0
 10
9.32899
 20
9.29198
 11
9.34702
 21
9.27299
  0
LINE
  8
0
 10
9.34702
 20
9.27299
 11
9.36472
 21
9.25369
  0
LINE
  8
0
 10
9.36472
 20
9.25369
 11
9.38205
 21
9.23409
  0
LINE
  8
0
 10
9.38205
 20
9.23409
 11
9.39906
 21
9.21417
  0
LINE
  8
0
 10
9.39906
 20
9.21417
 11
9.41571
 21
9.19397
  0
LINE
  8
0
 10
9.41571
 20
9.19397
 11
9.43201
 21
9.17348
  0
LINE
  8
0
 10
9.43201
 20
9.17348
 11
9.44795
 21
9.15271
  0
LINE
  8
0
 10
9.44795
 20
9.15271
 11
9.46352
 21
9.13167
  0
LINE
  8
0
 10
9.46352
 20
9.13167
 11
9.47871
 21
9.11035
  0
LINE
  8
0
 10
9.47871
 20
9.11035
 11
9.49355
 21
9.08878
  0
LINE
  8
0
 10
9.49355
 20
9.08878
 11
9.508
 21
9.06696
  0
LINE
  8
0
 10
9.508
 20
9.06696
 11
9.52206
 21
9.04488
  0
LINE
  8
0
 10
9.52206
 20
9.04488
 11
9.53574
 21
9.02255
  0
LINE
  8
0
 10
9.53574
 20
9.02255
 11
9.54903
 21
9
  0
LINE
  8
0
 10
9.54903
 20
9
 11
9.56192
 21
8.9772
  0
LINE
  8
0
 10
9.56192
 20
8.9772
 11
9.57442
 21
8.95419
  0
LINE
  8
0
 10
9.57442
 20
8.95419
 11
9.5865
 21
8.93098
  0
LINE
  8
0
 10
9.5865
 20
8.93098
 11
9.59819
 21
8.90755
  0
LINE
  8
0
 10
9.59819
 20
8.90755
 11
9.60945
 21
8.88393
  0
LINE
  8
0
 10
9.60945
 20
8.88393
 11
9.62032
 21
8.86009
  0
LINE
  8
0
 10
9.62032
 20
8.86009
 11
9.63075
 21
8.83609
  0
LINE
  8
0
 10
9.63075
 20
8.83609
 11
9.64076
 21
8.8119
  0
LINE
  8
0
 10
9.64076
 20
8.8119
 11
9.65036
 21
8.78755
  0
LINE
  8
0
 10
9.65036
 20
8.78755
 11
9.65953
 21
8.76302
  0
LINE
  8
0
 10
9.65953
 20
8.76302
 11
9.66827
 21
8.73834
  0
LINE
  8
0
 10
9.66827
 20
8.73834
 11
9.67657
 21
8.71352
  0
LINE
  8
0
 10
9.67657
 20
8.71352
 11
9.68445
 21
8.68855
  0
LINE
  8
0
 10
9.68445
 20
8.68855
 11
9.69188
 21
8.66345
  0
LINE
  8
0
 10
9.69188
 20
8.66345
 11
9.69888
 21
8.63821
  0
LINE
  8
0
 10
9.69888
 20
8.63821
 11
9.70543
 21
8.61287
  0
LINE
  8
0
 10
9.70543
 20
8.61287
 11
9.71155
 21
8.58742
  0
LINE
  8
0
 10
9.71155
 20
8.58742
 11
9.71721
 21
8.56186
  0
LINE
  8
0
 10
9.71721
 20
8.56186
 11
9.72243
 21
8.53621
  0
LINE
  8
0
 10
9.72243
 20
8.53621
 11
9.7272
 21
8.51047
  0
LINE
  8
0
 10
9.7272
 20
8.51047
 11
9.73152
 21
8.48465
  0
LINE
  8
0
 10
9.73152
 20
8.48465
 11
9.7354
 21
8.45876
  0
LINE
  8
0
 10
9.7354
 20
8.45876
 11
9.73882
 21
8.4328
  0
LINE
  8
0
 10
9.73882
 20
8.4328
 11
9.74178
 21
8.40678
  0
LINE
  8
0
 10
9.74178
 20
8.40678
 11
9.74428
 21
8.38072
  0
LINE
  8
0
 10
9.74428
 20
8.38072
 11
9.74634
 21
8.35463
  0
LINE
  8
0
 10
9.74634
 20
8.35463
 11
9.74794
 21
8.32849
  0
LINE
  8
0
 10
9.74794
 20
8.32849
 11
9.74908
 21
8.30234
  0
LINE
  8
0
 10
9.74908
 20
8.30234
 11
9.74977
 21
8.27617
  0
LINE
  8
0
 10
9.74977
 20
8.27617
 11
9.75
 21
8.25
  0
LINE
  8
0
 10
9.75
 20
8.25
 11
9.74977
 21
8.22382
  0
LINE
  8
0
 10
9.74977
 20
8.22382
 11
9.74908
 21
8.19765
  0
LINE
  8
0
 10
9.74908
 20
8.19765
 11
9.74794
 21
8.17149
  0
LINE
  8
0
 10
9.74794
 20
8.17149
 11
9.74634
 21
8.14536
  0
LINE
  8
0
 10
9.74634
 20
8.14536
 11
9.74428
 21
8.11926
  0
LINE
  8
0
 10
9.74428
 20
8.11926
 11
9.74178
 21
8.0932
  0
LINE
  8
0
 10
9.74178
 20
8.0932
 11
9.73882
 21
8.06718
  0
LINE
  8
0
 10
9.73882
 20
8.06718
 11
9.7354
 21
8.04123
  0
LINE
  8
0
 10
9.7354
 20
8.04123
 11
9.73152
 21
8.01534
  0
LINE
  8
0
 10
9.73152
 20
8.01534
 11
9.7272
 21
7.98952
  0
LINE
  8
0
 10
9.7272
 20
7.98952
 11
9.72243
 21
7.96378
  0
LINE
  8
0
 10
9.72243
 20
7.96378
 11
9.71721
 21
7.93813
  0
LINE
  8
0
 10
9.71721
 20
7.93813
 11
9.71155
 21
7.91257
  0
LINE
  8
0
 10
9.71155
 20
7.91257
 11
9.70543
 21
7.88712
  0
LINE
  8
0
 10
9.70543
 20
7.88712
 11
9.69888
 21
7.86177
  0
LINE
  8
0
 10
9.69888
 20
7.86177
 11
9.69188
 21
7.83653
  0
LINE
  8
0
 10
9.69188
 20
7.83653
 11
9.68445
 21
7.81143
  0
LINE
  8
0
 10
9.68445
 20
7.81143
 11
9.67657
 21
7.78647
  0
LINE
  8
0
 10
9.67657
 20
7.78647
 11
9.66827
 21
7.76164
  0
LINE
  8
0
 10
9.66827
 20
7.76164
 11
9.65953
 21
7.73697
  0
LINE
  8
0
 10
9.65953
 20
7.73697
 11
9.65036
 21
7.71243
  0
LINE
  8
0
 10
9.65036
 20
7.71243
 11
9.64076
 21
7.68808
  0
LINE
  8
0
 10
9.64076
 20
7.68808
 11
9.63075
 21
7.66389
  0
LINE
  8
0
 10
9.63075
 20
7.66389
 11
9.62032
 21
7.63989
  0
LINE
  8
0
 10
9.62032
 20
7.63989
 11
9.60945
 21
7.61606
  0
LINE
  8
0
 10
9.60945
 20
7.61606
 11
9.59819
 21
7.59244
  0
LINE
  8
0
 10
9.59819
 20
7.59244
 11
9.5865
 21
7.569
  0
LINE
  8
0
 10
9.5865
 20
7.569
 11
9.57442
 21
7.54579
  0
LINE
  8
0
 10
9.57442
 20
7.54579
 11
9.56192
 21
7.52278
  0
LINE
  8
0
 10
9.56192
 20
7.52278
 11
9.54903
 21
7.5
  0
LINE
  8
0
 10
9.54903
 20
7.5
 11
9.53574
 21
7.47743
  0
LINE
  8
0
 10
9.53574
 20
7.47743
 11
9.52206
 21
7.45511
  0
LINE
  8
0
 10
9.52206
 20
7.45511
 11
9.508
 21
7.43303
  0
LINE
  8
0
 10
9.508
 20
7.43303
 11
9.49355
 21
7.41121
  0
LINE
  8
0
 10
9.49355
 20
7.41121
 11
9.47871
 21
7.38963
  0
LINE
  8
0
 10
9.47871
 20
7.38963
 11
9.46352
 21
7.36832
  0
LINE
  8
0
 10
9.46352
 20
7.36832
 11
9.44795
 21
7.34727
  0
LINE
  8
0
 10
9.44795
 20
7.34727
 11
9.43201
 21
7.32651
  0
LINE
  8
0
 10
9.43201
 20
7.32651
 11
9.41571
 21
7.30602
  0
LINE
  8
0
 10
9.41571
 20
7.30602
 11
9.39906
 21
7.28581
  0
LINE
  8
0
 10
9.39906
 20
7.28581
 11
9.38205
 21
7.2659
  0
LINE
  8
0
 10
9.38205
 20
7.2659
 11
9.36472
 21
7.24629
  0
LINE
  8
0
 10
9.36472
 20
7.24629
 11
9.34702
 21
7.22699
  0
LINE
  8
0
 10
9.34702
 20
7.22699
 11
9.32899
 21
7.20801
  0
LINE
  8
0
 10
9.32899
 20
7.20801
 11
9.31065
 21
7.18933
  0
LINE
  8
0
 10
9.31065
 20
7.18933
 11
9.29198
 21
7.17099
  0
LINE
  8
0
 10
9.29198
 20
7.17099
 11
9.27299
 21
7.15297
  0
LINE
  8
0
 10
9.27299
 20
7.15297
 11
9.25369
 21
7.13527
  0
LINE
  8
0
 10
9.25369
 20
7.13527
 11
9.23409
 21
7.11794
  0
LINE
  8
0
 10
9.23409
 20
7.11794
 11
9.21417
 21
7.10092
  0
LINE
  8
0
 10
9.21417
 20
7.10092
 11
9.19397
 21
7.08427
  0
LINE
  8
0
 10
9.19397
 20
7.08427
 11
9.17348
 21
7.06798
  0
LINE
  8
0
 10
9.17348
 20
7.06798
 11
9.15271
 21
7.05203
  0
LINE
  8
0
 10
9.15271
 20
7.05203
 11
9.13167
 21
7.03647
  0
LINE
  8
0
 10
9.13167
 20
7.03647
 11
9.11035
 21
7.02127
  0
LINE
  8
0
 10
9.11035
 20
7.02127
 11
9.08878
 21
7.00644
  0
LINE
  8
0
 10
9.08878
 20
7.00644
 11
9.06696
 21
6.99199
  0
LINE
  8
0
 10
9.06696
 20
6.99199
 11
9.04488
 21
6.97792
  0
LINE
  8
0
 10
9.04488
 20
6.97792
 11
9.02255
 21
6.96425
  0
LINE
  8
0
 10
9.02255
 20
6.96425
 11
9
 21
6.95096
  0
LINE
  8
0
 10
9
 20
6.95096
 11
8.9772
 21
6.93806
  0
LINE
  8
0
 10
8.9772
 20
6.93806
 11
8.95419
 21
6.92557
  0
LINE
  8
0
 10
8.95419
 20
6.92557
 11
8.93098
 21
6.91348
  0
LINE
  8
0
 10
8.93098
 20
6.91348
 11
8.90755
 21
6.90179
  0
LINE
  8
0
 10
8.90755
 20
6.90179
 11
8.88393
 21
6.89053
  0
LINE
  8
0
 10
8.88393
 20
6.89053
 11
8.86009
 21
6.87967
  0
LINE
  8
0
 10
8.86009
 20
6.87967
 11
8.83609
 21
6.86923
  0
LINE
  8
0
 10
8.83609
 20
6.86923
 11
8.8119
 21
6.85922
  0
LINE
  8
0
 10
8.8119
 20
6.85922
 11
8.78755
 21
6.84962
  0
LINE
  8
0
 10
8.78755
 20
6.84962
 11
8.76302
 21
6.84045
  0
LINE
  8
0
 10
8.76302
 20
6.84045
 11
8.73834
 21
6.83171
  0
LINE
  8
0
 10
8.73834
 20
6.83171
 11
8.71352
 21
6.82341
  0
LINE
  8
0
 10
8.71352
 20
6.82341
 11
8.68855
 21
6.81554
  0
LINE
  8
0
 10
8.68855
 20
6.81554
 11
8.66345
 21
6.80811
  0
LINE
  8
0
 10
8.66345
 20
6.80811
 11
8.63821
 21
6.8011
  0
LINE
  8
0
 10
8.63821
 20
6.8011
 11
8.61287
 21
6.79456
  0
LINE
  8
0
 10
8.61287
 20
6.79456
 11
8.58742
 21
6.78844
  0
LINE
  8
0
 10
8.58742
 20
6.78844
 11
8.56186
 21
6.78278
  0
LINE
  8
0
 10
8.56186
 20
6.78278
 11
8.53621
 21
6.77756
  0
LINE
  8
0
 10
8.53621
 20
6.77756
 11
8.51047
 21
6.77278
  0
LINE
  8
0
 10
8.51047
 20
6.77278
 11
8.48465
 21
6.76846
  0
LINE
  8
0
 10
8.48465
 20
6.76846
 11
8.45876
 21
6.76459
  0
LINE
  8
0
 10
8.45876
 20
6.76459
 11
8.4328
 21
6.76117
  0
LINE
  8
0
 10
8.4328
 20
6.76117
 11
8.40678
 21
6.75821
  0
LINE
  8
0
 10
8.40678
 20
6.75821
 11
8.38072
 21
6.75571
  0
LINE
  8
0
 10
8.38072
 20
6.75571
 11
8.35463
 21
6.75365
  0
LINE
  8
0
 10
8.35463
 20
6.75365
 11
8.32849
 21
6.75204
  0
LINE
  8
0
 10
8.32849
 20
6.75204
 11
8.30234
 21
6.7509
  0
LINE
  8
0
 10
8.30234
 20
6.7509
 11
8.27617
 21
6.75021
  0
LINE
  8
0
 10
8.27617
 20
6.75021
 11
8.25
 21
6.75
  0
LINE
  8
0
 10
8.25
 20
6.75
 11
8.22382
 21
6.75021
  0
LINE
  8
0
 10
-8.27617
 20
6.75021
 11
-8.30234
 21
6.7509
  0
LINE
  8
0
 10
-8.30234
 20
6.7509
 11
-8.32849
 21
6.75204
  0
LINE
  8
0
 10
-8.32849
 20
6.75204
 11
-8.35463
 21
6.75365
  0
LINE
  8
0
 10
-8.35463
 20
6.75365
 11
-8.38072
 21
6.75571
  0
LINE
  8
0
 10
-8.38072
 20
6.75571
 11
-8.40678
 21
6.75821
  0
LINE
  8
0
 10
-8.40678
 20
6.75821
 11
-8.4328
 21
6.76117
  0
LINE
  8
0
 10
-8.4328
 20
6.76117
 11
-8.45876
 21
6.76459
  0
LINE
  8
0
 10
-8.45876
 20
6.76459
 11
-8.48465
 21
6.76846
  0
LINE
  8
0
 10
-8.48465
 20
6.76846
 11
-8.51047
 21
6.77278
  0
LINE
  8
0
 10
-8.51047
 20
6.77278
 11
-8.53621
 21
6.77756
  0
LINE
  8
0
 10
-8.53621
 20
6.77756
 11
-8.56186
 21
6.78278
  0
LINE
  8
0
 10
-8.56186
 20
6.78278
 11
-8.58742
 21
6.78844
  0
LINE
  8
0
 10
-8.58742
 20
6.78844
 11
-8.61287
 21
6.79456
  0
LINE
  8
0
 10
-8.61287
 20
6.79456
 11
-8.63821
 21
6.8011
  0
LINE
  8
0
 10
-8.63821
 20
6.8011
 11
-8.66345
 21
6.80811
  0
LINE
  8
0
 10
-8.66345
 20
6.80811
 11
-8.68855
 21
6.81554
  0
LINE
  8
0
 10
-8.68855
 20
6.81554
 11
-8.71352
 21
6.82341
  0
LINE
  8
0
 10
-8.71352
 20
6.82341
 11
-8.73834
 21
6.83171
  0
LINE
  8
0
 10
-8.73834
 20
6.83171
 11
-8.76302
 21
6.84045
  0
LINE
  8
0
 10
-8.76302
 20
6.84045
 11
-8.78755
 21
6.84962
  0
LINE
  8
0
 10
-8.78755
 20
6.84962
 11
-8.8119
 21
6.85922
  0
LINE
  8
0
 10
-8.8119
 20
6.85922
 11
-8.83609
 21
6.86923
  0
LINE
  8
0
 10
-8.83609
 20
6.86923
 11
-8.86009
 21
6.87967
  0
LINE
  8
0
 10
-8.86009
 20
6.87967
 11
-8.88393
 21
6.89053
  0
LINE
  8
0
 10
-8.88393
 20
6.89053
 11
-8.90755
 21
6.90179
  0
LINE
  8
0
 10
-8.90755
 20
6.90179
 11
-8.93098
 21
6.91348
  0
LINE
  8
0
 10
-8.93098
 20
6.91348
 11
-8.95419
 21
6.92557
  0
LINE
  8
0
 10
-8.95419
 20
6.92557
 11
-8.9772
 21
6.93806
  0
LINE
  8
0
 10
-8.9772
 20
6.93806
 11
-9
 21
6.95096
  0
LINE
  8
0
 10
-9
 20
6.95096
 11
-9.02255
 21
6.96425
  0
LINE
  8
0
 10
-9.02255
 20
6.96425
 11
-9.04488
 21
6.97792
  0
LINE
  8
0
 10
-9.04488
 20
6.97792
 11
-9.06696
 21
6.99199
  0
LINE
  8
0
 10
-9.06696
 20
6.99199
 11
-9.08878
 21
7.00644
  0
LINE
  8
0
 10
-9.08878
 20
7.00644
 11
-9.11035
 21
7.02127
  0
LINE
  8
0
 10
-9.11035
 20
7.02127
 11
-9.13167
 21
7.03647
  0
LINE
  8
0
 10
-9.13167
 20
7.03647
 11
-9.15271
 21
7.05203
  0
LINE
  8
0
 10
-9.15271
 20
7.05203
 11
-9.17348
 21
7.06798
  0
LINE
  8
0
 10
-9.17348
 20
7.06798
 11
-9.19397
 21
7.08427
  0
LINE
  8
0
 10
-9.19397
 20
7.08427
 11
-9.21417
 21
7.10092
  0
LINE
  8
0
 10
-9.21417
 20
7.10092
 11
-9.23409
 21
7.11794
  0
LINE
  8
0
 10
-9.23409
 20
7.11794
 11
-9.25369
 21
7.13527
  0
LINE
  8
0
 10
-9.25369
 20
7.13527
 11
-9.27299
 21
7.15297
  0
LINE
  8
0
 10
-9.27299
 20
7.15297
 11
-9.29198
 21
7.17099
  0
LINE
  8
0
 10
-9.29198
 20
7.17099
 11
-9.31065
 21
7.18933
  0
LINE
  8
0
 10
-9.31065
 20
7.18933
 11
-9.32899
 21
7.20801
  0
LINE
  8
0
 10
-9.32899
 20
7.20801
 11
-9.34702
 21
7.22699
  0
LINE
  8
0
 10
-9.34702
 20
7.22699
 11
-9.36472
 21
7.24629
  0
LINE
  8
0
 10
-9.36472
 20
7.24629
 11
-9.38205
 21
7.2659
  0
LINE
  8
0
 10
-9.38205
 20
7.2659
 11
-9.39906
 21
7.28581
  0
LINE
  8
0
 10
-9.39906
 20
7.28581
 11
-9.41571
 21
7.30602
  0
LINE
  8
0
 10
-9.41571
 20
7.30602
 11
-9.43201
 21
7.32651
  0
LINE
  8
0
 10
-9.43201
 20
7.32651
 11
-9.44795
 21
7.34727
  0
LINE
  8
0
 10
-9.44795
 20
7.34727
 11
-9.46352
 21
7.36832
  0
LINE
  8
0
 10
-9.46352
 20
7.36832
 11
-9.47871
 21
7.38963
  0
LINE
  8
0
 10
-9.47871
 20
7.38963
 11
-9.49355
 21
7.41121
  0
LINE
  8
0
 10
-9.49355
 20
7.41121
 11
-9.508
 21
7.43303
  0
LINE
  8
0
 10
-9.508
 20
7.43303
 11
-9.52206
 21
7.45511
  0
LINE
  8
0
 10
-9.52206
 20
7.45511
 11
-9.53574
 21
7.47743
  0
LINE
  8
0
 10
-9.53574
 20
7.47743
 11
-9.54903
 21
7.5
  0
LINE
  8
0
 10
-9.54903
 20
7.5
 11
-9.56192
 21
7.52278
  0
LINE
  8
0
 10
-9.56192
 20
7.52278
 11
-9.57442
 21
7.54579
  0
LINE
  8
0
 10
-9.57442
 20
7.54579
 11
-9.5865
 21
7.569
  0
LINE
  8
0
 10
-9.5865
 20
7.569
 11
-9.59819
 21
7.59244
  0
LINE
  8
0
 10
-9.59819
 20
7.59244
 11
-9.60945
 21
7.61606
  0
LINE
  8
0
 10
-9.60945
 20
7.61606
 11
-9.62032
 21
7.63989
  0
LINE
  8
0
 10
-9.62032
 20
7.63989
 11
-9.63075
 21
7.66389
  0
LINE
  8
0
 10
-9.63075
 20
7.66389
 11
-9.64076
 21
7.68808
  0
LINE
  8
0
 10
-9.64076
 20
7.68808
 11
-9.65036
 21
7.71243
  0
LINE
  8
0
 10
-9.65036
 20
7.71243
 11
-9.65953
 21
7.73697
  0
LINE
  8
0
 10
-9.65953
 20
7.73697
 11
-9.66827
 21
7.76164
  0
LINE
  8
0
 10
-9.66827
 20
7.76164
 11
-9.67657
 21
7.78647
  0
LINE
  8
0
 10
-9.67657
 20
7.78647
 11
-9.68445
 21
7.81143
  0
LINE
  8
0
 10
-9.68445
 20
7.81143
 11
-9.69188
 21
7.83653
  0
LINE
  8
0
 10
-9.69188
 20
7.83653
 11
-9.69888
 21
7.86177
  0
LINE
  8
0
 10
-9.69888
 20
7.86177
 11
-9.70543
 21
7.88712
  0
LINE
  8
0
 10
-9.70543
 20
7.88712
 11
-9.71155
 21
7.91257
  0
LINE
  8
0
 10
-9.71155
 20
7.91257
 11
-9.71721
 21
7.93813
  0
LINE
  8
0
 10
-9.71721
 20
7.93813
 11
-9.72243
 21
7.96378
  0
LINE
  8
0
 10
-9.72243
 20
7.96378
 11
-9.7272
 21
7.98952
  0
LINE
  8
0
 10
-9.7272
 20
7.98952
 11
-9.73152
 21
8.01534
  0
LINE
  8
0
 10
-9.73152
 20
8.01534
 11
-9.7354
 21
8.04123
  0
LINE
  8
0
 10
-9.7354
 20
8.04123
 11
-9.73882
 21
8.06718
  0
LINE
  8
0
 10
-9.73882
 20
8.06718
 11
-9.74178
 21
8.0932
  0
LINE
  8
0
 10
-9.74178
 20
8.0932
 11
-9.74428
 21
8.11926
  0
LINE
  8
0
 10
-9.74428
 20
8.11926
 11
-9.74634
 21
8.14536
  0
LINE
  8
0
 10
-9.74634
 20
8.14536
 11
-9.74794
 21
8.17149
  0
LINE
  8
0
 10
-9.74794
 20
8.17149
 11
-9.74908
 21
8.19765
  0
LINE
  8
0
 10
-9.74908
 20
8.19765
 11
-9.74977
 21
8.22382
  0
LINE
  8
0
 10
-9.74977
 20
8.22382
 11
-9.75
 21
8.25
  0
LINE
  8
0
 10
-9.75
 20
8.25
 11
-9.74977
 21
8.27617
  0
LINE
  8
0
 10
-9.74977
 20
8.27617
 11
-9.74908
 21
8.30234
  0
LINE
  8
0
 10
-9.74908
 20
8.30234
 11
-9.74794
 21
8.32849
  0
LINE
  8
0
 10
-9.74794
 20
8.32849
 11
-9.74634
 21
8.35463
  0
LINE
  8
0
 10
-9.74634
 20
8.35463
 11
-9.74428
 21
8.38072
  0
LINE
  8
0
 10
-9.74428
 20
8.38072
 11
-9.74178
 21
8.40678
  0
LINE
  8
0
 10
-9.74178
 20
8.40678
 11
-9.73882
 21
8.4328
  0
LINE
  8
0
 10
-9.73882
 20
8.4328
 11
-9.7354
 21
8.45876
  0
LINE
  8
0
 10
-9.7354
 20
8.45876
 11
-9.73152
 21
8.48465
  0
LINE
  8
0
 10
-9.73152
 20
8.48465
 11
-9.7272
 21
8.51047
  0
LINE
  8
0
 10
-9.7272
 20
8.51047
 11
-9.72243
 21
8.53621
  0
LINE
  8
0
 10
-9.72243
 20
8.53621
 11
-9.71721
 21
8.56186
  0
LINE
  8
0
 10
-9.71721
 20
8.56186
 11
-9.71155
 21
8.58742
  0
LINE
  8
0
 10
-9.71155
 20
8.58742
 11
-9.70543
 21
8.61287
  0
LINE
  8
0
 10
-9.70543
 20
8.61287
 11
-9.69888
 21
8.63821
  0
LINE
  8
0
 10
-9.69888
 20
8.63821
 11
-9.69188
 21
8.66345
  0
LINE
  8
0
 10
-9.69188
 20
8.66345
 11
-9.68445
 21
8.68855
  0
LINE
  8
0
 10
-9.68445
 20
8.68855
 11
-9.67657
 21
8.71352
  0
LINE
  8
0
 10
-9.67657
 20
8.71352
 11
-9.66827
 21
8.73834
  0
LINE
  8
0
 10
-9.66827
 20
8.73834
 11
-9.65953
 21
8.76302
  0
LINE
  8
0
 10
-9.65953
 20
8.76302
 11
-9.65036
 21
8.78755
  0
LINE
  8
0
 10
-9.65036
 20
8.78755
 11
-9.64076
 21
8.8119
  0
LINE
  8
0
 10
-9.64076
 20
8.8119
 11
-9.63075
 21
8.83609
  0
LINE
  8
0
 10
-9.63075
 20
8.83609
 11
-9.62032
 21
8.86009
  0
LINE
  8
0
 10
-9.62032
 20
8.86009
 11
-9.60945
 21
8.88393
  0
LINE
  8
0
 10
-9.60945
 20
8.88393
 11
-9.59819
 21
8.90755
  0
LINE
  8
0
 10
-9.59819
 20
8.90755
 11
-9.5865
 21
8.93098
  0
LINE
  8
0
 10
-9.5865
 20
8.93098
 11
-9.57442
 21
8.95419
  0
LINE
  8
0
 10
-9.57442
 20
8.95419
 11
-9.56192
 21
8.9772
  0
LINE
  8
0
 10
-9.56192
 20
8.9772
 11
-9.54903
 21
9
  0
LINE
  8
0
 10
-9.54903
 20
9
 11
-9.53574
 21
9.02255
  0
LINE
  8
0
 10
-9.53574
 20
9.02255
 11
-9.52206
 21
9.04488
  0
LINE
  8
0
 10
-9.52206
 20
9.04488
 11
-9.508
 21
9.06696
  0
LINE
  8
0
 10
-9.508
 20
9.06696
 11
-9.49355
 21
9.08878
  0
LINE
  8
0
 10
-9.49355
 20
9.08878
 11
-9.47871
 21
9.11035
  0
LINE
  8
0
 10
-9.47871
 20
9.11035
 11
-9.46352
 21
9.13167
  0
LINE
  8
0
 10
-9.46352
 20
9.13167
 11
-9.44795
 21
9.15271
  0
LINE
  8
0
 10
-9.44795
 20
9.15271
 11
-9.43201
 21
9.17348
  0
LINE
  8
0
 10
-9.43201
 20
9.17348
 11
-9.41571
 21
9.19397
  0
LINE
  8
0
 10
-9.41571
 20
9.19397
 11
-9.39906
 21
9.21417
  0
LINE
  8
0
 10
-9.39906
 20
9.21417
 11
-9.38205
 21
9.23409
  0
LINE
  8
0
 10
-9.38205
 20
9.23409
 11
-9.36472
 21
9.25369
  0
LINE
  8
0
 10
-9.36472
 20
9.25369
 11
-9.34702
 21
9.27299
  0
LINE
  8
0
 10
-9.34702
 20
9.27299
 11
-9.32899
 21
9.29198
  0
LINE
  8
0
 10
-9.32899
 20
9.29198
 11
-9.31065
 21
9.31065
  0
LINE
  8
0
 10
-9.31065
 20
9.31065
 11
-9.29198
 21
9.32899
  0
LINE
  8
0
 10
-9.29198
 20
9.32899
 11
-9.27299
 21
9.34702
  0
LINE
  8
0
 10
-9.27299
 20
9.34702
 11
-9.25369
 21
9.36472
  0
LINE
  8
0
 10
-9.25369
 20
9.36472
 11
-9.23409
 21
9.38205
  0
LINE
  8
0
 10
-9.23409
 20
9.38205
 11
-9.21417
 21
9.39906
  0
LINE
  8
0
 10
-9.21417
 20
9.39906
 11
-9.19397
 21
9.41571
  0
LINE
  8
0
 10
-9.19397
 20
9.41571
 11
-9.17348
 21
9.43201
  0
LINE
  8
0
 10
-9.17348
 20
9.43201
 11
-9.15271
 21
9.44795
  0
LINE
  8
0
 10
-9.15271
 20
9.44795
 11
-9.13167
 21
9.46352
  0
LINE
  8
0
 10
-9.13167
 20
9.46352
 11
-9.11035
 21
9.47871
  0
LINE
  8
0
 10
-9.11035
 20
9.47871
 11
-9.08878
 21
9.49355
  0
LINE
  8
0
 10
-9.08878
 20
9.49355
 11
-9.06696
 21
9.508
  0
LINE
  8
0
 10
-9.06696
 20
9.508
 11
-9.04488
 21
9.52206
  0
LINE
  8
0
 10
-9.04488
 20
9.52206
 11
-9.02255
 21
9.53574
  0
LINE
  8
0
 10
-9.02255
 20
9.53574
 11
-9
 21
9.54903
  0
LINE
  8
0
 10
-9
 20
9.54903
 11
-8.9772
 21
9.56192
  0
LINE
  8
0
 10
-8.9772
 20
9.56192
 11
-8.95419
 21
9.57442
  0
LINE
  8
0
 10
-8.95419
 20
9.57442
 11
-8.93098
 21
9.5865
  0
LINE
  8
0
 10
-8.93098
 20
9.5865
 11
-8.90755
 21
9.59819
  0
LINE
  8
0
 10
-8.90755
 20
9.59819
 11
-8.88393
 21
9.60945
  0
LINE
  8
0
 10
-8.88393
 20
9.60945
 11
-8.86009
 21
9.62032
  0
LINE
  8
0
 10
-8.86009
 20
9.62032
 11
-8.83609
 21
9.63075
  0
LINE
  8
0
 10
-8.83609
 20
9.63075
 11
-8.8119
 21
9.64076
  0
LINE
  8
0
 10
-8.8119
 20
9.64076
 11
-8.78755
 21
9.65036
  0
LINE
  8
0
 10
-8.78755
 20
9.65036
 11
-8.76302
 21
9.65953
  0
LINE
  8
0
 10
-8.76302
 20
9.65953
 11
-8.73834
 21
9.66827
  0
LINE
  8
0
 10
-8.73834
 20
9.66827
 11
-8.71352
 21
9.67657
  0
LINE
  8
0
 10
-8.71352
 20
9.67657
 11
-8.68855
 21
9.68445
  0
LINE
  8
0
 10
-8.68855
 20
9.68445
 11
-8.66345
 21
9.69188
  0
LINE
  8
0
 10
-8.66345
 20
9.69188
 11
-8.63821
 21
9.69888
  0
LINE
  8
0
 10
-8.63821
 20
9.69888
 11
-8.61287
 21
9.70543
  0
LINE
  8
0
 10
-8.61287
 20
9.70543
 11
-8.58742
 21
9.71155
  0
LINE
  8
0
 10
-8.58742
 20
9.71155
 11
-8.56186
 21
9.71721
  0
LINE
  8
0
 10
-8.56186
 20
9.71721
 11
-8.53621
 21
9.72243
  0
LINE
  8
0
 10
-8.53621
 20
9.72243
 11
-8.51047
 21
9.7272
  0
LINE
  8
0
 10
-8.51047
 20
9.7272
 11
-8.48465
 21
9.73152
  0
LINE
  8
0
 10
-8.48465
 20
9.73152
 11
-8.45876
 21
9.7354
  0
LINE
  8
0
 10
-8.45876
 20
9.7354
 11
-8.4328
 21
9.73882
  0
LINE
  8
0
 10
-8.4328
 20
9.73882
 11
-8.40678
 21
9.74178
  0
LINE
  8
0
 10
-8.40678
 20
9.74178
 11
-8.38072
 21
9.74428
  0
LINE
  8
0
 10
-8.38072
 20
9.74428
 11
-8.35463
 21
9.74634
  0
LINE
  8
0
 10
-8.35463
 20
9.74634
 11
-8.32849
 21
9.74794
  0
LINE
  8
0
 10
-8.32849
 20
9.74794
 11
-8.30234
 21
9.74908
  0
LINE
  8
0
 10
-8.30234
 20
9.74908
 11
-8.27617
 21
9.74977
  0
LINE
  8
0
 10
-8.27617
 20
9.74977
 11
-8.25
 21
9.75
  0
LINE
  8
0
 10
-8.25
 20
9.75
 11
-8.22382
 21
9.74977
  0
LINE
  8
0
 10
-8.22382
 20
9.74977
 11
-8.19765
 21
9.74908
  0
LINE
  8
0
 10
-8.19765
 20
9.74908
 11
-8.17149
 21
9.74794
  0
LINE
  8
0
 10
-8.17149
 20
9.74794
 11
-8.14536
 21
9.74634
  0
LINE
  8
0
 10
-8.14536
 20
9.74634
 11
-8.11926
 21
9.74428
  0
LINE
  8
0
 10
-8.11926
 20
9.74428
 11
-8.0932
 21
9.74178
  0
LINE
  8
0
 10
-8.0932
 20
9.74178
 11
-8.06718
 21
9.73882
  0
LINE
  8
0
 10
-8.06718
 20
9.73882
 11
-8.04123
 21
9.7354
  0
LINE
  8
0
 10
-8.04123
 20
9.7354
 11
-8.01534
 21
9.73152
  0
LINE
  8
0
 10
-8.01534
 20
9.73152
 11
-7.98952
 21
9.7272
  0
LINE
  8
0
 10
-7.98952
 20
9.7272
 11
-7.96378
 21
9.72243
  0
LINE
  8
0
 10
-7.96378
 20
9.72243
 11
-7.93813
 21
9.71721
  0
LINE
  8
0
 10
-7.93813
 20
9.71721
 11
-7.91257
 21
9.71155
  0
LINE
  8
0
 10
-7.91257
 20
9.71155
 11
-7.88712
 21
9.70543
  0
LINE
  8
0
 10
-7.88712
 20
9.70543
 11
-7.86177
 21
9.69888
  0
LINE
  8
0
 10
-7.86177
 20
9.69888
 11
-7.83653
 21
9.69188
  0
LINE
  8
0
 10
-7.83653
 20
9.69188
 11
-7.81143
 21
9.68445
  0
LINE
  8
0
 10
-7.81143
 20
9.68445
 11
-7.78647
 21
9.67657
  0
LINE
  8
0
 10
-7.78647
 20
9.67657
 11
-7.76164
 21
9.66827
  0
LINE
  8
0
 10
-7.76164
 20
9.66827
 11
-7.73697
 21
9.65953
  0
LINE
  8
0
 10
-7.73697
 20
9.65953
 11
-7.71243
 21
9.65036
  0
LINE
  8
0
 10
-7.71243
 20
9.65036
 11
-7.68808
 21
9.64076
  0
LINE
  8
0
 10
-7.68808
 20
9.64076
 11
-7.66389
 21
9.63075
  0
LINE
  8
0
 10
-7.66389
 20
9.63075
 11
-7.63989
 21
9.62032
  0
LINE
  8
0
 10
-7.63989
 20
9.62032
 11
-7.61606
 21
9.60945
  0
LINE
  8
0
 10
-7.61606
 20
9.60945
 11
-7.59244
 21
9.59819
  0
LINE
  8
0
 10
-7.59244
 20
9.59819
 11
-7.569
 21
9.5865
  0
LINE
  8
0
 10
-7.569
 20
9.5865
 11
-7.54579
 21
9.57442
  0
LINE
  8
0
 10
-7.54579
 20
9.57442
 11
-7.52278
 21
9.56192
  0
LINE
  8
0
 10
-7.52278
 20
9.56192
 11
-7.5
 21
9.54903
  0
LINE
  8
0
 10
-7.5
 20
9.54903
 11
-7.47743
 21
9.53574
  0
LINE
  8
0
 10
-7.47743
 20
9.53574
 11
-7.45511
 21
9.52206
  0
LINE
  8
0
 10
-7.45511
 20
9.52206
 11
-7.43303
 21
9.508
  0
LINE
  8
0
 10
-7.43303
 20
9.508
 11
-7.41121
 21
9.49355
  0
LINE
  8
0
 10
-7.41121
 20
9.49355
 11
-7.38963
 21
9.47871
  0
LINE
  8
0
 10
-7.38963
 20
9.47871
 11
-7.36832
 21
9.46352
  0
LINE
  8
0
 10
-7.36832
 20
9.46352
 11
-7.34727
 21
9.44795
  0
LINE
  8
0
 10
-7.34727
 20
9.44795
 11
-7.32651
 21
9.43201
  0
LINE
  8
0
 10
-7.32651
 20
9.43201
 11
-7.30602
 21
9.41571
  0
LINE
  8
0
 10
-7.30602
 20
9.41571
 11
-7.28581
 21
9.39906
  0
LINE
  8
0
 10
-7.28581
 20
9.39906
 11
-7.2659
 21
9.38205
  0
LINE
  8
0
 10
-7.2659
 20
9.38205
 11
-7.24629
 21
9.36472
  0
LINE
  8
0
 10
-7.24629
 20
9.36472
 11
-7.22699
 21
9.34702
  0
LINE
  8
0
 10
-7.22699
 20
9.34702
 11
-7.20801
 21
9.32899
  0
LINE
  8
0
 10
-7.20801
 20
9.32899
 11
-7.18933
 21
9.31065
  0
LINE
  8
0
 10
-7.18933
 20
9.31065
 11
-7.17099
 21
9.29198
  0
LINE
  8
0
 10
-7.17099
 20
9.29198
 11
-7.15297
 21
9.27299
  0
LINE
  8
0
 10
-7.15297
 20
9.27299
 11
-7.13527
 21
9.25369
  0
LINE
  8
0
 10
-7.13527
 20
9.25369
 11
-7.11794
 21
9.23409
  0
LINE
  8
0
 10
-7.11794
 20
9.23409
 11
-7.10092
 21
9.21417
  0
LINE
  8
0
 10
-7.10092
 20
9.21417
 11
-7.08427
 21
9.19397
  0
LINE
  8
0
 10
-7.08427
 20
9.19397
 11
-7.06798
 21
9.17348
  0
LINE
  8
0
 10
-7.06798
 20
9.17348
 11
-7.05203
 21
9.15271
  0
LINE
  8
0
 10
-7.05203
 20
9.15271
 11
-7.03647
 21
9.13167
  0
LINE
  8
0
 10
-7.03647
 20
9.13167
 11
-7.02127
 21
9.11035
  0
LINE
  8
0
 10
-7.02127
 20
9.11035
 11
-7.00644
 21
9.08878
  0
LINE
  8
0
 10
-7.00644
 20
9.08878
 11
-6.99199
 21
9.06696
  0
LINE
  8
0
 10
-6.99199
 20
9.06696
 11
-6.97792
 21
9.04488
  0
LINE
  8
0
 10
-6.97792
 20
9.04488
 11
-6.96425
 21
9.02255
  0
LINE
  8
0
 10
-6.96425
 20
9.02255
 11
-6.95096
 21
9
  0
LINE
  8
0
 10
-6.95096
 20
9
 11
-6.93806
 21
8.9772
  0
LINE
  8
0
 10
-6.93806
 20
8.9772
 11
-6.92557
 21
8.95419
  0
LINE
  8
0
 10
-6.92557
 20
8.95419
 11
-6.91348
 21
8.93098
  0
LINE
  8
0
 10
-6.91348
 20
8.93098
 11
-6.90179
 21
8.90755
  0
LINE
  8
0
 10
-6.90179
 20
8.90755
 11
-6.89053
 21
8.88393
  0
LINE
  8
0
 10
-6.89053
 20
8.88393
 11
-6.87967
 21
8.86009
  0
LINE
  8
0
 10
-6.87967
 20
8.86009
 11
-6.86923
 21
8.83609
  0
LINE
  8
0
 10
-6.86923
 20
8.83609
 11
-6.85922
 21
8.8119
  0
LINE
  8
0
 10
-6.85922
 20
8.8119
 11
-6.84962
 21
8.78755
  0
LINE
  8
0
 10
-6.84962
 20
8.78755
 11
-6.84045
 21
8.76302
  0
LINE
  8
0
 10
-6.84045
 20
8.76302
 11
-6.83171
 21
8.73834
  0
LINE
  8
0
 10
-6.83171
 20
8.73834
 11
-6.82341
 21
8.71352
  0
LINE
  8
0
 10
-6.82341
 20
8.71352
 11
-6.81554
 21
8.68855
  0
LINE
  8
0
 10
-6.81554
 20
8.68855
 11
-6.80811
 21
8.66345
  0
LINE
  8
0
 10
-6.80811
 20
8.66345
 11
-6.8011
 21
8.63821
  0
LINE
  8
0
 10
-6.8011
 20
8.63821
 11
-6.79456
 21
8.61287
  0
LINE
  8
0
 10
-6.79456
 20
8.61287
 11
-6.78844
 21
8.58742
  0
LINE
  8
0
 10
-6.78844
 20
8.58742
 11
-6.78278
 21
8.56186
  0
LINE
  8
0
 10
-6.78278
 20
8.56186
 11
-6.77756
 21
8.53621
  0
LINE
  8
0
 10
-6.77756
 20
8.53621
 11
-6.77278
 21
8.51047
  0
LINE
  8
0
 10
-6.77278
 20
8.51047
 11
-6.76846
 21
8.48465
  0
LINE
  8
0
 10
-6.76846
 20
8.48465
 11
-6.76459
 21
8.45876
  0
LINE
  8
0
 10
-6.76459
 20
8.45876
 11
-6.76117
 21
8.4328
  0
LINE
  8
0
 10
-6.76117
 20
8.4328
 11
-6.75821
 21
8.40678
  0
LINE
  8
0
 10
-6.75821
 20
8.40678
 11
-6.75571
 21
8.38072
  0
LINE
  8
0
 10
-6.75571
 20
8.38072
 11
-6.75365
 21
8.35463
  0
LINE
  8
0
 10
-6.75365
 20
8.35463
 11
-6.75204
 21
8.32849
  0
LINE
  8
0
 10
-6.75204
 20
8.32849
 11
-6.7509
 21
8.30234
  0
LINE
  8
0
 10
-6.7509
 20
8.30234
 11
-6.75021
 21
8.27617
  0
LINE
  8
0
 10
-6.75021
 20
8.27617
 11
-6.75
 21
8.25
  0
LINE
  8
0
 10
-6.75
 20
8.25
 11
-6.75021
 21
8.22382
  0
LINE
  8
0
 10
-6.75021
 20
8.22382
 11
-6.7509
 21
8.19765
  0
LINE
  8
0
 10
-6.7509
 20
8.19765
 11
-6.75204
 21
8.17149
  0
LINE
  8
0
 10
-6.75204
 20
8.17149
 11
-6.75365
 21
8.14536
  0
LINE
  8
0
 10
-6.75365
 20
8.14536
 11
-6.75571
 21
8.11926
  0
LINE
  8
0
 10
-6.75571
 20
8.11926
 11
-6.75821
 21
8.0932
  0
LINE
  8
0
 10
-6.75821
 20
8.0932
 11
-6.76117
 21
8.06718
  0
LINE
  8
0
 10
-6.76117
 20
8.06718
 11
-6.76459
 21
8.04123
  0
LINE
  8
0
 10
-6.76459
 20
8.04123
 11
-6.76846
 21
8.01534
  0
LINE
  8
0
 10
-6.76846
 20
8.01534
 11
-6.77278
 21
7.98952
  0
LINE
  8
0
 10
-6.77278
 20
7.98952
 11
-6.77756
 21
7.96378
  0
LINE
  8
0
 10
-6.77756
 20
7.96378
 11
-6.78278
 21
7.93813
  0
LINE
  8
0
 10
-6.78278
 20
7.93813
 11
-6.78844
 21
7.91257
  0
LINE
  8
0
 10
-6.78844
 20
7.91257
 11
-6.79456
 21
7.88712
  0
LINE
  8
0
 10
-6.79456
 20
7.88712
 11
-6.8011
 21
7.86177
  0
LINE
  8
0
 10
-6.8011
 20
7.86177
 11
-6.80811
 21
7.83653
  0
LINE
  8
0
 10
-6.80811
 20
7.83653
 11
-6.81554
 21
7.81143
  0
LINE
  8
0
 10
-6.81554
 20
7.81143
 11
-6.82341
 21
7.78647
  0
LINE
  8
0
 10
-6.82341
 20
7.78647
 11
-6.83171
 21
7.76164
  0
LINE
  8
0
 10
-6.83171
 20
7.76164
 11
-6.84045
 21
7.73697
  0
LINE
  8
0
 10
-6.84045
 20
7.73697
 11
-6.84962
 21
7.71243
  0
LINE
  8
0
 10
-6.84962
 20
7.71243
 11
-6.85922
 21
7.68808
  0
LINE
  8
0
 10
-6.85922
 20
7.68808
 11
-6.86923
 21
7.66389
  0
LINE
  8
0
 10
-6.86923
 20
7.66389
 11
-6.87967
 21
7.63989
  0
LINE
  8
0
 10
-6.87967
 20
7.63989
 11
-6.89053
 21
7.61606
  0
LINE
  8
0
 10
-6.89053
 20
7.61606
 11
-6.90179
 21
7.59244
  0
LINE
  8
0
 10
-6.90179
 20
7.59244
 11
-6.91348
 21
7.569
  0
LINE
  8
0
 10
-6.91348
 20
7.569
 11
-6.92557
 21
7.54579
  0
LINE
  8
0
 10
-6.92557
 20
7.54579
 11
-6.93806
 21
7.52278
  0
LINE
  8
0
 10
-6.93806
 20
7.52278
 11
-6.95096
 21
7.5
  0
LINE
  8
0
 10
-6.95096
 20
7.5
 11
-6.96425
 21
7.47743
  0
LINE
  8
0
 10
-6.96425
 20
7.47743
 11
-6.97792
 21
7.45511
  0
LINE
  8
0
 10
-6.97792
 20
7.45511
 11
-6.99199
 21
7.43303
  0
LINE
  8
0
 10
-6.99199
 20
7.43303
 11
-7.00644
 21
7.41121
  0
LINE
  8
0
 10
-7.00644
 20
7.41121
 11
-7.02127
 21
7.38963
  0
LINE
  8
0
 10
-7.02127
 20
7.38963
 11
-7.03647
 21
7.36832
  0
LINE
  8
0
 10
-7.03647
 20
7.36832
 11
-7.05203
 21
7.34727
  0
LINE
  8
0
 10
-7.05203
 20
7.34727
 11
-7.06798
 21
7.32651
  0
LINE
  8
0
 10
-7.06798
 20
7.32651
 11
-7.08427
 21
7.30602
  0
LINE
  8
0
 10
-7.08427
 20
7.30602
 11
-7.10092
 21
7.28581
  0
LINE
  8
0
 10
-7.10092
 20
7.28581
 11
-7.11794
 21
7.2659
  0
LINE
  8
0
 10
-7.11794
 20
7.2659
 11
-7.13527
 21
7.24629
  0
LINE
  8
0
 10
-7.13527
 20
7.24629
 11
-7.15297
 21
7.22699
  0
LINE
  8
0
 10
-7.15297
 20
7.22699
 11
-7.17099
 21
7.20801
  0
LINE
  8
0
 10
-7.17099
 20
7.20801
 11
-7.18933
 21
7.18933
  0
LINE
  8
0
 10
-7.18933
 20
7.18933
 11
-7.20801
 21
7.17099
  0
LINE
  8
0
 10
-7.20801
 20
7.17099
 11
-7.22699
 21
7.15297
  0
LINE
  8
0
 10
-7.22699
 20
7.15297
 11
-7.24629
 21
7.13527
  0
LINE
  8
0
 10
-7.24629
 20
7.13527
 11
-7.2659
 21
7.11794
  0
LINE
  8
0
 10
-7.2659
 20
7.11794
 11
-7.28581
 21
7.10092
  0
LINE
  8
0
 10
-7.28581
 20
7.10092
 11
-7.30602
 21
7.08427
  0
LINE
  8
0
 10
-7.30602
 20
7.08427
 11
-7.32651
 21
7.06798
  0
LINE
  8
0
 10
-7.32651
 20
7.06798
 11
-7.34727
 21
7.05203
  0
LINE
  8
0
 10
-7.34727
 20
7.05203
 11
-7.36832
 21
7.03647
  0
LINE
  8
0
 10
-7.36832
 20
7.03647
 11
-7.38963
 21
7.02127
  0
LINE
  8
0
 10
-7.38963
 20
7.02127
 11
-7.41121
 21
7.00644
  0
LINE
  8
0
 10
-7.41121
 20
7.00644
 11
-7.43303
 21
6.99199
  0
LINE
  8
0
 10
-7.43303
 20
6.99199
 11
-7.45511
 21
6.97792
  0
LINE
  8
0
 10
-7.45511
 20
6.97792
 11
-7.47743
 21
6.96425
  0
LINE
  8
0
 10
-7.47743
 20
6.96425
 11
-7.5
 21
6.95096
  0
LINE
  8
0
 10
-7.5
 20
6.95096
 11
-7.52278
 21
6.93806
  0
LINE
  8
0
 10
-7.52278
 20
6.93806
 11
-7.54579
 21
6.92557
  0
LINE
  8
0
 10
-7.54579
 20
6.92557
 11
-7.569
 21
6.91348
  0
LINE
  8
0
 10
-7.569
 20
6.91348
 11
-7.59244
 21
6.90179
  0
LINE
  8
0
 10
-7.59244
 20
6.90179
 11
-7.61606
 21
6.89053
  0
LINE
  8
0
 10
-7.61606
 20
6.89053
 11
-7.63989
 21
6.87967
  0
LINE
  8
0
 10
-7.63989
 20
6.87967
 11
-7.66389
 21
6.86923
  0
LINE
  8
0
 10
-7.66389
 20
6.86923
 11
-7.68808
 21
6.85922
  0
LINE
  8
0
 10
-7.68808
 20
6.85922
 11
-7.71243
 21
6.84962
  0
LINE
  8
0
 10
-7.71243
 20
6.84962
 11
-7.73697
 21
6.84045
  0
LINE
  8
0
 10
-7.73697
 20
6.84045
 11
-7.76164
 21
6.83171
  0
LINE
  8
0
 10
-7.76164
 20
6.83171
 11
-7.78647
 21
6.82341
  0
LINE
  8
0
 10
-7.78647
 20
6.82341
 11
-7.81143
 21
6.81554
  0
LINE
  8
0
 10
-7.81143
 20
6.81554
 11
-7.83653
 21
6.80811
  0
LINE
  8
0
 10
-7.83653
 20
6.80811
 11
-7.86177
 21
6.8011
  0
LINE
  8
0
 10
-7.86177
 20
6.8011
 11
-7.88712
 21
6.79456
  0
LINE
  8
0
 10
-7.88712
 20
6.79456
 11
-7.91257
 21
6.78844
  0
LINE
  8
0
 10
-7.91257
 20
6.78844
 11
-7.93813
 21
6.78278
  0
LINE
  8
0
 10
-7.93813
 20
6.78278
 11
-7.96378
 21
6.77756
  0
LINE
  8
0
 10
-7.96378
 20
6.77756
 11
-7.98952
 21
6.77278
  0
LINE
  8
0
 10
-7.98952
 20
6.77278
 11
-8.01534
 21
6.76846
  0
LINE
  8
0
 10
-8.01534
 20
6.76846
 11
-8.04123
 21
6.76459
  0
LINE
  8
0
 10
-8.04123
 20
6.76459
 11
-8.06718
 21
6.76117
  0
LINE
  8
0
 10
-8.06718
 20
6.76117
 11
-8.0932
 21
6.75821
  0
LINE
  8
0
 10
-8.0932
 20
6.75821
 11
-8.11926
 21
6.75571
  0
LINE
  8
0
 10
-8.11926
 20
6.75571
 11
-8.14536
 21
6.75365
  0
LINE
  8
0
 10
-8.14536
 20
6.75365
 11
-8.17149
 21
6.75204
  0
LINE
  8
0
 10
-8.17149
 20
6.75204
 11
-8.19765
 21
6.7509
  0
LINE
  8
0
 10
-8.19765
 20
6.7509
 11
-8.22382
 21
6.75021
  0
LINE
  8
0
 10
-8.22382
 20
6.75021
 11
-8.25
 21
6.75
  0
LINE
  8
0
 10
-8.25
 20
6.75
 11
-8.27617
 21
6.75021
  0
LINE
  8
0
 10
-0.13089
 20
-7.49886
 11
-0.261734
 21
-7.49542
  0
LINE
  8
0
 10
-0.261734
 20
-7.49542
 11
-0.392517
 21
-7.48972
  0
LINE
  8
0
 10
-0.392517
 20
-7.48972
 11
-0.523163
 21
-7.48172
  0
LINE
  8
0
 10
-0.523163
 20
-7.48172
 11
-0.653656
 21
-7.47145
  0
LINE
  8
0
 10
-0.653656
 20
-7.47145
 11
-0.783951
 21
-7.45891
  0
LINE
  8
0
 10
-0.783951
 20
-7.45891
 11
-0.914017
 21
-7.44409
  0
LINE
  8
0
 10
-0.914017
 20
-7.44409
 11
-1.04379
 21
-7.427
  0
LINE
  8
0
 10
-1.04379
 20
-7.427
 11
-1.17325
 21
-7.40765
  0
LINE
  8
0
 10
-1.17325
 20
-7.40765
 11
-1.30235
 21
-7.38605
  0
LINE
  8
0
 10
-1.30235
 20
-7.38605
 11
-1.43106
 21
-7.3622
  0
LINE
  8
0
 10
-1.43106
 20
-7.3622
 11
-1.55933
 21
-7.33611
  0
LINE
  8
0
 10
-1.55933
 20
-7.33611
 11
-1.68712
 21
-7.30777
  0
LINE
  8
0
 10
-1.68712
 20
-7.30777
 11
-1.81441
 21
-7.27721
  0
LINE
  8
0
 10
-1.81441
 20
-7.27721
 11
-1.94113
 21
-7.24443
  0
LINE
  8
0
 10
-1.94113
 20
-7.24443
 11
-2.06728
 21
-7.20946
  0
LINE
  8
0
 10
-2.06728
 20
-7.20946
 11
-2.19278
 21
-7.17227
  0
LINE
  8
0
 10
-2.19278
 20
-7.17227
 11
-2.31763
 21
-7.13292
  0
LINE
  8
0
 10
-2.31763
 20
-7.13292
 11
-2.44176
 21
-7.09138
  0
LINE
  8
0
 10
-2.44176
 20
-7.09138
 11
-2.56514
 21
-7.04768
  0
LINE
  8
0
 10
-2.56514
 20
-7.04768
 11
-2.68776
 21
-7.00185
  0
LINE
  8
0
 10
-2.68776
 20
-7.00185
 11
-2.80954
 21
-6.95387
  0
LINE
  8
0
 10
-2.80954
 20
-6.95387
 11
-2.93048
 21
-6.90378
  0
LINE
  8
0
 10
-2.93048
 20
-6.90378
 11
-3.05052
 21
-6.85158
  0
LINE
  8
0
 10
-3.05052
 20
-6.85158
 11
-3.16963
 21
-6.7973
  0
LINE
  8
0
 10
-3.16963
 20
-6.7973
 11
-3.28778
 21
-6.74095
  0
LINE
  8
0
 10
-3.28778
 20
-6.74095
 11
-3.40492
 21
-6.68254
  0
LINE
  8
0
 10
-3.40492
 20
-6.68254
 11
-3.52103
 21
-6.6221
  0
LINE
  8
0
 10
-3.52103
 20
-6.6221
 11
-3.63606
 21
-6.55965
  0
LINE
  8
0
 10
-3.63606
 20
-6.55965
 11
-3.75
 21
-6.49518
  0
LINE
  8
0
 10
-3.75
 20
-6.49518
 11
-3.86278
 21
-6.42874
  0
LINE
  8
0
 10
-3.86278
 20
-6.42874
 11
-3.97438
 21
-6.36035
  0
LINE
  8
0
 10
-3.97438
 20
-6.36035
 11
-4.08478
 21
-6.29002
  0
LINE
  8
0
 10
-4.08478
 20
-6.29002
 11
-4.19394
 21
-6.21777
  0
LINE
  8
0
 10
-4.19394
 20
-6.21777
 11
-4.30182
 21
-6.14363
  0
LINE
  8
0
 10
-4.30182
 20
-6.14363
 11
-4.40839
 21
-6.06763
  0
LINE
  8
0
 10
-4.40839
 20
-6.06763
 11
-4.51361
 21
-5.98976
  0
LINE
  8
0
 10
-4.51361
 20
-5.98976
 11
-4.61745
 21
-5.91008
  0
LINE
  8
0
 10
-4.61745
 20
-5.91008
 11
-4.71989
 21
-5.82858
  0
LINE
  8
0
 10
-4.71989
 20
-5.82858
 11
-4.82089
 21
-5.74533
  0
LINE
  8
0
 10
-4.82089
 20
-5.74533
 11
-4.92044
 21
-5.66031
  0
LINE
  8
0
 10
-4.92044
 20
-5.66031
 11
-5.01848
 21
-5.57358
  0
LINE
  8
0
 10
-5.01848
 20
-5.57358
 11
-5.11497
 21
-5.48514
  0
LINE
  8
0
 10
-5.11497
 20
-5.48514
 11
-5.20993
 21
-5.39503
  0
LINE
  8
0
 10
-5.20993
 20
-5.39503
 11
-5.3033
 21
-5.3033
  0
LINE
  8
0
 10
-5.3033
 20
-5.3033
 11
-5.39503
 21
-5.20993
  0
LINE
  8
0
 10
-5.39503
 20
-5.20993
 11
-5.48514
 21
-5.11497
  0
LINE
  8
0
 10
-5.48514
 20
-5.11497
 11
-5.57358
 21
-5.01848
  0
LINE
  8
0
 10
-5.57358
 20
-5.01848
 11
-5.66031
 21
-4.92044
  0
LINE
  8
0
 10
-5.66031
 20
-4.92044
 11
-5.74533
 21
-4.82089
  0
LINE
  8
0
 10
-5.74533
 20
-4.82089
 11
-5.82858
 21
-4.71989
  0
LINE
  8
0
 10
-5.82858
 20
-4.71989
 11
-5.91008
 21
-4.61745
  0
LINE
  8
0
 10
-5.91008
 20
-4.61745
 11
-5.98976
 21
-4.51361
  0
LINE
  8
0
 10
-5.98976
 20
-4.51361
 11
-6.06763
 21
-4.40839
  0
LINE
  8
0
 10
-6.06763
 20
-4.40839
 11
-6.14363
 21
-4.30182
  0
LINE
  8
0
 10
-6.14363
 20
-4.30182
 11
-6.21777
 21
-4.19394
  0
LINE
  8
0
 10
-6.21777
 20
-4.19394
 11
-6.29002
 21
-4.08478
  0
LINE
  8
0
 10
-6.29002
 20
-4.08478
 11
-6.36035
 21
-3.97438
  0
LINE
  8
0
 10
-6.36035
 20
-3.97438
 11
-6.42874
 21
-3.86278
  0
LINE
  8
0
 10
-6.42874
 20
-3.86278
 11
-6.49518
 21
-3.75
  0
LINE
  8
0
 10
-6.49518
 20
-3.75
 11
-6.55965
 21
-3.63606
  0
LINE
  8
0
 10
-6.55965
 20
-3.63606
 11
-6.6221
 21
-3.52103
  0
LINE
  8
0
 10
-6.6221
 20
-3.52103
 11
-6.68254
 21
-3.40492
  0
LINE
  8
0
 10
-6.68254
 20
-3.40492
 11
-6.74095
 21
-3.28778
  0
LINE
  8
0
 10
-6.74095
 20
-3.28778
 11
-6.7973
 21
-3.16963
  0
LINE
  8
0
 10
-6.7973
 20
-3.16963
 11
-6.85158
 21
-3.05052
  0
LINE
  8
0
 10
-6.85158
 20
-3.05052
 11
-6.90378
 21
-2.93048
  0
LINE
  8
0
 10
-6.90378
 20
-2.93048
 11
-6.95387
 21
-2.80954
  0
LINE
  8
0
 10
-6.95387
 20
-2.80954
 11
-7.00185
 21
-2.68776
  0
LINE
  8
0
 10
-7.00185
 20
-2.68776
 11
-7.04768
 21
-2.56514
  0
LINE
  8
0
 10
-7.04768
 20
-2.56514
 11
-7.09138
 21
-2.44176
  0
LINE
  8
0
 10
-7.09138
 20
-2.44176
 11
-7.13292
 21
-2.31763
  0
LINE
  8
0
 10
-7.13292
 20
-2.31763
 11
-7.17227
 21
-2.19278
  0
LINE
  8
0
 10
-7.17227
 20
-2.19278
 11
-7.20946
 21
-2.06728
  0
LINE
  8
0
 10
-7.20946
 20
-2.06728
 11
-7.24443
 21
-1.94113
  0
LINE
  8
0
 10
-7.24443
 20
-1.94113
 11
-7.27721
 21
-1.81441
  0
LINE
  8
0
 10
-7.27721
 20
-1.81441
 11
-7.30777
 21
-1.68712
  0
LINE
  8
0
 10
-7.30777
 20
-1.68712
 11
-7.33611
 21
-1.55933
  0
LINE
  8
0
 10
-7.33611
 20
-1.55933
 11
-7.3622
 21
-1.43106
  0
LINE
  8
0
 10
-7.3622
 20
-1.43106
 11
-7.38605
 21
-1.30235
  0
LINE
  8
0
 10
-7.38605
 20
-1.30235
 11
-7.40765
 21
-1.17325
  0
LINE
  8
0
 10
-7.40765
 20
-1.17325
 11
-7.427
 21
-1.04379
  0
LINE
  8
0
 10
-7.427
 20
-1.04379
 11
-7.44409
 21
-0.914017
  0
LINE
  8
0
 10
-7.44409
 20
-0.914017
 11
-7.45891
 21
-0.783951
  0
LINE
  8
0
 10
-7.45891
 20
-0.783951
 11
-7.47145
 21
-0.653656
  0
LINE
  8
0
 10
-7.47145
 20
-0.653656
 11
-7.48172
 21
-0.523163
  0
LINE
  8
0
 10
-7.48172
 20
-0.523163
 11
-7.48972
 21
-0.392517
  0
LINE
  8
0
 10
-7.48972
 20
-0.392517
 11
-7.49542
 21
-0.261734
  0
LINE
  8
0
 10
-7.49542
 20
-0.261734
 11
-7.49886
 21
-0.13089
  0
LINE
  8
0
 10
-7.49886
 20
-0.13089
 11
-7.5
 21
0
  0
LINE
  8
0
 10
-7.5
 20
0
 11
-7.49886
 21
0.13089
  0
LINE
  8
0
 10
-7.49886
 20
0.13089
 11
-7.49542
 21
0.261734
  0
LINE
  8
0
 10
-7.49542
 20
0.261734
 11
-7.48972
 21
0.392517
  0
LINE
  8
0
 10
-7.48972
 20
0.392517
 11
-7.48172
 21
0.523163
  0
LINE
  8
0
 10
-7.48172
 20
0.523163
 11
-7.47145
 21
0.653656
  0
LINE
  8
0
 10
-7.47145
 20
0.653656
 11
-7.45891
 21
0.783951
  0
LINE
  8
0
 10
-7.45891
 20
0.783951
 11
-7.44409
 21
0.914017
  0
LINE
  8
0
 10
-7.44409
 20
0.914017
 11
-7.427
 21
1.04379
  0
LINE
  8
0
 10
-7.427
 20
1.04379
 11
-7.40765
 21
1.17325
  0
LINE
  8
0
 10
-7.40765
 20
1.17325
 11
-7.38605
 21
1.30235
  0
LINE
  8
0
 10
-7.38605
 20
1.30235
 11
-7.3622
 21
1.43106
  0
LINE
  8
0
 10
-7.3622
 20
1.43106
 11
-7.33611
 21
1.55933
  0
LINE
  8
0
 10
-7.33611
 20
1.55933
 11
-7.30777
 21
1.68712
  0
LINE
  8
0
 10
-7.30777
 20
1.68712
 11
-7.27721
 21
1.81441
  0
LINE
  8
0
 10
-7.27721
 20
1.81441
 11
-7.24443
 21
1.94113
  0
LINE
  8
0
 10
-7.24443
 20
1.94113
 11
-7.20946
 21
2.06728
  0
LINE
  8
0
 10
-7.20946
 20
2.06728
 11
-7.17227
 21
2.19278
  0
LINE
  8
0
 10
-7.17227
 20
2.19278
 11
-7.13292
 21
2.31763
  0
LINE
  8
0
 10
-7.13292
 20
2.31763
 11
-7.09138
 21
2.44176
  0
LINE
  8
0
 10
-7.09138
 20
2.44176
 11
-7.04768
 21
2.56514
  0
LINE
  8
0
 10
-7.04768
 20
2.56514
 11
-7.00185
 21
2.68776
  0
LINE
  8
0
 10
-7.00185
 20
2.68776
 11
-6.95387
 21
2.80954
  0
LINE
  8
0
 10
-6.95387
 20
2.80954
 11
-6.90378
 21
2.93048
  0
LINE
  8
0
 10
-6.90378
 20
2.93048
 11
-6.85158
 21
3.05052
  0
LINE
  8
0
 10
-6.85158
 20
3.05052
 11
-6.7973
 21
3.16963
  0
LINE
  8
0
 10
-6.7973
 20
3.16963
 11
-6.74095
 21
3.28778
  0
LINE
  8
0
 10
-6.74095
 20
3.28778
 11
-6.68254
 21
3.40492
  0
LINE
  8
0
 10
-6.68254
 20
3.40492
 11
-6.6221
 21
3.52103
  0
LINE
  8
0
 10
-6.6221
 20
3.52103
 11
-6.55965
 21
3.63606
  0
LINE
  8
0
 10
-6.55965
 20
3.63606
 11
-6.49518
 21
3.75
  0
LINE
  8
0
 10
-6.49518
 20
3.75
 11
-6.42874
 21
3.86278
  0
LINE
  8
0
 10
-6.42874
 20
3.86278
 11
-6.36035
 21
3.97438
  0
LINE
  8
0
 10
-6.36035
 20
3.97438
 11
-6.29002
 21
4.08478
  0
LINE
  8
0
 10
-6.29002
 20
4.08478
 11
-6.21777
 21
4.19394
  0
LINE
  8
0
 10
-6.21777
 20
4.19394
 11
-6.14363
 21
4.30182
  0
LINE
  8
0
 10
-6.14363
 20
4.30182
 11
-6.06763
 21
4.40839
  0
LINE
  8
0
 10
-6.06763
 20
4.40839
 11
-5.98976
 21
4.51361
  0
LINE
  8
0
 10
-5.98976
 20
4.51361
 11
-5.91008
 21
4.61745
  0
LINE
  8
0
 10
-5.91008
 20
4.61745
 11
-5.82858
 21
4.71989
  0
LINE
  8
0
 10
-5.82858
 20
4.71989
 11
-5.74533
 21
4.82089
  0
LINE
  8
0
 10
-5.74533
 20
4.82089
 11
-5.66031
 21
4.92044
  0
LINE
  8
0
 10
-5.66031
 20
4.92044
 11
-5.57358
 21
5.01848
  0
LINE
  8
0
 10
-5.57358
 20
5.01848
 11
-5.48514
 21
5.11497
  0
LINE
  8
0
 10
-5.48514
 20
5.11497
 11
-5.39503
 21
5.20993
  0
LINE
  8
0
 10
-5.39503
 20
5.20993
 11
-5.3033
 21
5.3033
  0
LINE
  8
0
 10
-5.3033
 20
5.3033
 11
-5.20993
 21
5.39503
  0
LINE
  8
0
 10
-5.20993
 20
5.39503
 11
-5.11497
 21
5.48514
  0
LINE
  8
0
 10
-5.11497
 20
5.48514
 11
-5.01848
 21
5.57358
  0
LINE
  8
0
 10
-5.01848
 20
5.57358
 11
-4.92044
 21
5.66031
  0
LINE
  8
0
 10
-4.92044
 20
5.66031
 11
-4.82089
 21
5.74533
  0
LINE
  8
0
 10
-4.82089
 20
5.74533
 11
-4.71989
 21
5.82858
  0
LINE
  8
0
 10
-4.71989
 20
5.82858
 11
-4.61745
 21
5.91008
  0
LINE
  8
0
 10
-4.61745
 20
5.91008
 11
-4.51361
 21
5.98976
  0
LINE
  8
0
 10
-4.51361
 20
5.98976
 11
-4.40839
 21
6.06763
  0
LINE
  8
0
 10
-4.40839
 20
6.06763
 11
-4.30182
 21
6.14363
  0
LINE
  8
0
 10
-4.30182
 20
6.14363
 11
-4.19394
 21
6.21777
  0
LINE
  8
0
 10
-4.19394
 20
6.21777
 11
-4.08478
 21
6.29002
  0
LINE
  8
0
 10
-4.08478
 20
6.29002
 11
-3.97438
 21
6.36035
  0
LINE
  8
0
 10
-3.97438
 20
6.36035
 11
-3.86278
 21
6.42874
  0
LINE
  8
0
 10
-3.86278
 20
6.42874
 11
-3.75
 21
6.49518
  0
LINE
  8
0
 10
-3.75
 20
6.49518
 11
-3.63606
 21
6.55965
  0
LINE
  8
0
 10
-3.63606
 20
6.55965
 11
-3.52103
 21
6.6221
  0
LINE
  8
0
 10
-3.52103
 20
6.6221
 11
-3.40492
 21
6.68254
  0
LINE
  8
0
 10
-3.40492
 20
6.68254
 11
-3.28778
 21
6.74095
  0
LINE
  8
0
 10
-3.28778
 20
6.74095
 11
-3.16963
 21
6.7973
  0
LINE
  8
0
 10
-3.16963
 20
6.7973
 11
-3.05052
 21
6.85158
  0
LINE
  8
0
 10
-3.05052
 20
6.85158
 11
-2.93048
 21
6.90378
  0
LINE
  8
0
 10
-2.93048
 20
6.90378
 11
-2.80954
 21
6.95387
  0
LINE
  8
0
 10
-2.80954
 20
6.95387
 11
-2.68776
 21
7.00185
  0
LINE
  8
0
 10
-2.68776
 20
7.00185
 11
-2.56514
 21
7.04768
  0
LINE
  8
0
 10
-2.56514
 20
7.04768
 11
-2.44176
 21
7.09138
  0
LINE
  8
0
 10
-2.44176
 20
7.09138
 11
-2.31763
 21
7.13292
  0
LINE
  8
0
 10
-2.31763
 20
7.13292
 11
-2.19278
 21
7.17227
  0
LINE
  8
0
 10
-2.19278
 20
7.17227
 11
-2.06728
 21
7.20946
  0
LINE
  8
0
 10
-2.06728
 20
7.20946
 11
-1.94113
 21
7.24443
  0
LINE
  8
0
 10
-1.94113
 20
7.24443
 11
-1.81441
 21
7.27721
  0
LINE
  8
0
 10
-1.81441
 20
7.27721
 11
-1.68712
 21
7.30777
  0
LINE
  8
0
 10
-1.68712
 20
7.30777
 11
-1.55933
 21
7.33611
  0
LINE
  8
0
 10
-1.55933
 20
7.33611
 11
-1.43106
 21
7.3622
  0
LINE
  8
0
 10
-1.43106
 20
7.3622
 11
-1.30235
 21
7.38605
  0
LINE
  8
0
 10
-1.30235
 20
7.38605
 11
-1.17325
 21
7.40765
  0
LINE
  8
0
 10
-1.17325
 20
7.40765
 11
-1.04379
 21
7.427
  0
LINE
  8
0
 10
-1.04379
 20
7.427
 11
-0.914017
 21
7.44409
  0
LINE
  8
0
 10
-0.914017
 20
7.44409
 11
-0.783951
 21
7.45891
  0
LINE
  8
0
 10
-0.783951
 20
7.45891
 11
-0.653656
 21
7.47145
  0
LINE
  8
0
 10
-0.653656
 20
7.47145
 11
-0.523163
 21
7.48172
  0
LINE
  8
0
 10
-0.523163
 20
7.48172
 11
-0.392517
 21
7.48972
  0
LINE
  8
0
 10
-0.392517
 20
7.48972
 11
-0.261734
 21
7.49542
  0
LINE
  8
0
 10
-0.261734
 20
7.49542
 11
-0.13089
 21
7.49886
  0
LINE
  8
0
 10
-0.13089
 20
7.49886
 11
0
 21
7.5
  0
LINE
  8
0
 10
0
 20
7.5
 11
0.13089
 21
7.49886
  0
LINE
  8
0
 10
0.13089
 20
7.49886
 11
0.261734
 21
7.49542
  0
LINE
  8
0
 10
0.261734
 20
7.49542
 11
0.392517
 21
7.48972
  0
LINE
  8
0
 10
0.392517
 20
7.48972
 11
0.523163
 21
7.48172
  0
LINE
  8
0
 10
0.523163
 20
7.48172
 11
0.653656
 21
7.47145
  0
LINE
  8
0
 10
0.653656
 20
7.47145
 11
0.783951
 21
7.45891
  0
LINE
  8
0
 10
0.783951
 20
7.45891
 11
0.914017
 21
7.44409
  0
LINE
  8
0
 10
0.914017
 20
7.44409
 11
1.04379
 21
7.427
  0
LINE
  8
0
 10
1.04379
 20
7.427
 11
1.17325
 21
7.40765
  0
LINE
  8
0
 10
1.17325
 20
7.40765
 11
1.30235
 21
7.38605
  0
LINE
  8
0
 10
1.30235
 20
7.38605
 11
1.43106
 21
7.3622
  0
LINE
  8
0
 10
1.43106
 20
7.3622
 11
1.55933
 21
7.33611
  0
LINE
  8
0
 10
1.55933
 20
7.33611
 11
1.68712
 21
7.30777
  0
LINE
  8
0
 10
1.68712
 20
7.30777
 11
1.81441
 21
7.27721
  0
LINE
  8
0
 10
1.81441
 20
7.27721
 11
1.94113
 21
7.24443
  0
LINE
  8
0
 10
1.94113
 20
7.24443
 11
2.06728
 21
7.20946
  0
LINE
  8
0
 10
2.06728
 20
7.20946
 11
2.19278
 21
7.17227
  0
LINE
  8
0
 10
2.19278
 20
7.17227
 11
2.31763
 21
7.13292
  0
LINE
  8
0
 10
2.31763
 20
7.13292
 11
2.44176
 21
7.09138
  0
LINE
  8
0
 10
2.44176
 20
7.09138
 11
2.56514
 21
7.04768
  0
LINE
  8
0
 10
2.56514
 20
7.04768
 11
2.68776
 21
7.00185
  0
LINE
  8
0
 10
2.68776
 20
7.00185
 11
2.80954
 21
6.95387
  0
LINE
  8
0
 10
2.80954
 20
6.95387
 11
2.93048
 21
6.90378
  0
LINE
  8
0
 10
2.93048
 20
6.90378
 11
3.05052
 21
6.85158
  0
LINE
  8
0
 10
3.05052
 20
6.85158
 11
3.16963
 21
6.7973
  0
LINE
  8
0
 10
3.16963
 20
6.7973
 11
3.28778
 21
6.74095
  0
LINE
  8
0
 10
3.28778
 20
6.74095
 11
3.40492
 21
6.68254
  0
LINE
  8
0
 10
3.40492
 20
6.68254
 11
3.52103
 21
6.6221
  0
LINE
  8
0
 10
3.52103
 20
6.6221
 11
3.63606
 21
6.55965
  0
LINE
  8
0
 10
3.63606
 20
6.55965
 11
3.75
 21
6.49518
  0
LINE
  8
0
 10
3.75
 20
6.49518
 11
3.86278
 21
6.42874
  0
LINE
  8
0
 10
3.86278
 20
6.42874
 11
3.97438
 21
6.36035
  0
LINE
  8
0
 10
3.97438
 20
6.36035
 11
4.08478
 21
6.29002
  0
LINE
  8
0
 10
4.08478
 20
6.29002
 11
4.19394
 21
6.21777
  0
LINE
  8
0
 10
4.19394
 20
6.21777
 11
4.30182
 21
6.14363
  0
LINE
  8
0
 10
4.30182
 20
6.14363
 11
4.40839
 21
6.06763
  0
LINE
  8
0
 10
4.40839
 20
6.06763
 11
4.51361
 21
5.98976
  0
LINE
  8
0
 10
4.51361
 20
5.98976
 11
4.61745
 21
5.91008
  0
LINE
  8
0
 10
4.61745
 20
5.91008
 11
4.71989
 21
5.82858
  0
LINE
  8
0
 10
4.71989
 20
5.82858
 11
4.82089
 21
5.74533
  0
LINE
  8
0
 10
4.82089
 20
5.74533
 11
4.92044
 21
5.66031
  0
LINE
  8
0
 10
4.92044
 20
5.66031
 11
5.01848
 21
5.57358
  0
LINE
  8
0
 10
5.01848
 20
5.57358
 11
5.11497
 21
5.48514
  0
LINE
  8
0
 10
5.11497
 20
5.48514
 11
5.20993
 21
5.39503
  0
LINE
  8
0
 10
5.20993
 20
5.39503
 11
5.3033
 21
5.3033
  0
LINE
  8
0
 10
5.3033
 20
5.3033
 11
5.39503
 21
5.20993
  0
LINE
  8
0
 10
5.39503
 20
5.20993
 11
5.48514
 21
5.11497
  0
LINE
  8
0
 10
5.48514
 20
5.11497
 11
5.57358
 21
5.01848
  0
LINE
  8
0
 10
5.57358
 20
5.01848
 11
5.66031
 21
4.92044
  0
LINE
  8
0
 10
5.66031
 20
4.92044
 11
5.74533
 21
4.82089
  0
LINE
  8
0
 10
5.74533
 20
4.82089
 11
5.82858
 21
4.71989
  0
LINE
  8
0
 10
5.82858
 20
4.71989
 11
5.91008
 21
4.61745
  0
LINE
  8
0
 10
5.91008
 20
4.61745
 11
5.98976
 21
4.51361
  0
LINE
  8
0
 10
5.98976
 20
4.51361
 11
6.06763
 21
4.40839
  0
LINE
  8
0
 10
6.06763
 20
4.40839
 11
6.14363
 21
4.30182
  0
LINE
  8
0
 10
6.14363
 20
4.30182
 11
6.21777
 21
4.19394
  0
LINE
  8
0
 10
6.21777
 20
4.19394
 11
6.29002
 21
4.08478
  0
LINE
  8
0
 10
6.29002
 20
4.08478
 11
6.36035
 21
3.97438
  0
LINE
  8
0
 10
6.36035
 20
3.97438
 11
6.42874
 21
3.86278
  0
LINE
  8
0
 10
6.42874
 20
3.86278
 11
6.49518
 21
3.75
  0
LINE
  8
0
 10
6.49518
 20
3.75
 11
6.55965
 21
3.63606
  0
LINE
  8
0
 10
6.55965
 20
3.63606
 11
6.6221
 21
3.52103
  0
LINE
  8
0
 10
6.6221
 20
3.52103
 11
6.68254
 21
3.40492
  0
LINE
  8
0
 10
6.68254
 20
3.40492
 11
6.74095
 21
3.28778
  0
LINE
  8
0
 10
6.74095
 20
3.28778
 11
6.7973
 21
3.16963
  0
LINE
  8
0
 10
6.7973
 20
3.16963
 11
6.85158
 21
3.05052
  0
LINE
  8
0
 10
6.85158
 20
3.05052
 11
6.90378
 21
2.93048
  0
LINE
  8
0
 10
6.90378
 20
2.93048
 11
6.95387
 21
2.80954
  0
LINE
  8
0
 10
6.95387
 20
2.80954
 11
7.00185
 21
2.68776
  0
LINE
  8
0
 10
7.00185
 20
2.68776
 11
7.04768
 21
2.56514
  0
LINE
  8
0
 10
7.04768
 20
2.56514
 11
7.09138
 21
2.44176
  0
LINE
  8
0
 10
7.09138
 20
2.44176
 11
7.13292
 21
2.31763
  0
LINE
  8
0
 10
7.13292
 20
2.31763
 11
7.17227
 21
2.19278
  0
LINE
  8
0
 10
7.17227
 20
2.19278
 11
7.20946
 21
2.06728
  0
LINE
  8
0
 10
7.20946
 20
2.06728
 11
7.24443
 21
1.94113
  0
LINE
  8
0
 10
7.24443
 20
1.94113
 11
7.27721
 21
1.81441
  0
LINE
  8
0
 10
7.27721
 20
1.81441
 11
7.30777
 21
1.68712
  0
LINE
  8
0
 10
7.30777
 20
1.68712
 11
7.33611
 21
1.55933
  0
LINE
  8
0
 10
7.33611
 20
1.55933
 11
7.3622
 21
1.43106
  0
LINE
  8
0
 10
7.3622
 20
1.43106
 11
7.38605
 21
1.30235
  0
LINE
  8
0
 10
7.38605
 20
1.30235
 11
7.40765
 21
1.17325
  0
LINE
  8
0
 10
7.40765
 20
1.17325
 11
7.427
 21
1.04379
  0
LINE
  8
0
 10
7.427
 20
1.04379
 11
7.44409
 21
0.914017
  0
LINE
  8
0
 10
7.44409
 20
0.914017
 11
7.45891
 21
0.783951
  0
LINE
  8
0
 10
7.45891
 20
0.783951
 11
7.47145
 21
0.653656
  0
LINE
  8
0
 10
7.47145
 20
0.653656
 11
7.48172
 21
0.523163
  0
LINE
  8
0
 10
7.48172
 20
0.523163
 11
7.48972
 21
0.392517
  0
LINE
  8
0
 10
7.48972
 20
0.392517
 11
7.49542
 21
0.261734
  0
LINE
  8
0
 10
7.49542
 20
0.261734
 11
7.49886
 21
0.13089
  0
LINE
  8
0
 10
7.49886
 20
0.13089
 11
7.5
 21
0
  0
LINE
  8
0
 10
7.5
 20
0
 11
7.49886
 21
-0.13089
  0
LINE
  8
0
 10
7.49886
 20
-0.13089
 11
7.49542
 21
-0.261734
  0
LINE
  8
0
 10
7.49542
 20
-0.261734
 11
7.48972
 21
-0.392517
  0
LINE
  8
0
 10
7.48972
 20
-0.392517
 11
7.48172
 21
-0.523163
  0
LINE
  8
0
 10
7.48172
 20
-0.523163
 11
7.47145
 21
-0.653656
  0
LINE
  8
0
 10
7.47145
 20
-0.653656
 11
7.45891
 21
-0.783951
  0
LINE
  8
0
 10
7.45891
 20
-0.783951
 11
7.44409
 21
-0.914017
  0
LINE
  8
0
 10
7.44409
 20
-0.914017
 11
7.427
 21
-1.04379
  0
LINE
  8
0
 10
7.427
 20
-1.04379
 11
7.40765
 21
-1.17325
  0
LINE
  8
0
 10
7.40765
 20
-1.17325
 11
7.38605
 21
-1.30235
  0
LINE
  8
0
 10
7.38605
 20
-1.30235
 11
7.3622
 21
-1.43106
  0
LINE
  8
0
 10
7.3622
 20
-1.43106
 11
7.33611
 21
-1.55933
  0
LINE
  8
0
 10
7.33611
 20
-1.55933
 11
7.30777
 21
-1.68712
  0
LINE
  8
0
 10
7.30777
 20
-1.68712
 11
7.27721
 21
-1.81441
  0
LINE
  8
0
 10
7.27721
 20
-1.81441
 11
7.24443
 21
-1.94113
  0
LINE
  8
0
 10
7.24443
 20
-1.94113
 11
7.20946
 21
-2.06728
  0
LINE
  8
0
 10
7.20946
 20
-2.06728
 11
7.17227
 21
-2.19278
  0
LINE
  8
0
 10
7.17227
 20
-2.19278
 11
7.13292
 21
-2.31763
  0
LINE
  8
0
 10
7.13292
 20
-2.31763
 11
7.09138
 21
-2.44176
  0
LINE
  8
0
 10
7.09138
 20
-2.44176
 11
7.04768
 21
-2.56514
  0
LINE
  8
0
 10
7.04768
 20
-2.56514
 11
7.00185
 21
-2.68776
  0
LINE
  8
0
 10
7.00185
 20
-2.68776
 11
6.95387
 21
-2.80954
  0
LINE
  8
0
 10
6.95387
 20
-2.80954
 11
6.90378
 21
-2.93048
  0
LINE
  8
0
 10
6.90378
 20
-2.93048
 11
6.85158
 21
-3.05052
  0
LINE
  8
0
 10
6.85158
 20
-3.05052
 11
6.7973
 21
-3.16963
  0
LINE
  8
0
 10
6.7973
 20
-3.16963
 11
6.74095
 21
-3.28778
  0
LINE
  8
0
 10
6.74095
 20
-3.28778
 11
6.68254
 21
-3.40492
  0
LINE
  8
0
 10
6.68254
 20
-3.40492
 11
6.6221
 21
-3.52103
  0
LINE
  8
0
 10
6.6221
 20
-3.52103
 11
6.55965
 21
-3.63606
  0
LINE
  8
0
 10
6.55965
 20
-3.63606
 11
6.49518
 21
-3.75
  0
LINE
  8
0
 10
6.49518
 20
-3.75
 11
6.42874
 21
-3.86278
  0
LINE
  8
0
 10
6.42874
 20
-3.86278
 11
6.36035
 21
-3.97438
  0
LINE
  8
0
 10
6.36035
 20
-3.97438
 11
6.29002
 21
-4.08478
  0
LINE
  8
0
 10
6.29002
 20
-4.08478
 11
6.21777
 21
-4.19394
  0
LINE
  8
0
 10
6.21777
 20
-4.19394
 11
6.14363
 21
-4.30182
  0
LINE
  8
0
 10
6.14363
 20
-4.30182
 11
6.06763
 21
-4.40839
  0
LINE
  8
0
 10
6.06763
 20
-4.40839
 11
5.98976
 21
-4.51361
  0
LINE
  8
0
 10
5.98976
 20
-4.51361
 11
5.91008
 21
-4.61745
  0
LINE
  8
0
 10
5.91008
 20
-4.61745
 11
5.82858
 21
-4.71989
  0
LINE
  8
0
 10
5.82858
 20
-4.71989
 11
5.74533
 21
-4.82089
  0
LINE
  8
0
 10
5.74533
 20
-4.82089
 11
5.66031
 21
-4.92044
  0
LINE
  8
0
 10
5.66031
 20
-4.92044
 11
5.57358
 21
-5.01848
  0
LINE
  8
0
 10
5.57358
 20
-5.01848
 11
5.48514
 21
-5.11497
  0
LINE
  8
0
 10
5.48514
 20
-5.11497
 11
5.39503
 21
-5.20993
  0
LINE
  8
0
 10
5.39503
 20
-5.20993
 11
5.3033
 21
-5.3033
  0
LINE
  8
0
 10
5.3033
 20
-5.3033
 11
5.20993
 21
-5.39503
  0
LINE
  8
0
 10
5.20993
 20
-5.39503
 11
5.11497
 21
-5.48514
  0
LINE
  8
0
 10
5.11497
 20
-5.48514
 11
5.01848
 21
-5.57358
  0
LINE
  8
0
 10
5.01848
 20
-5.57358
 11
4.92044
 21
-5.66031
  0
LINE
  8
0
 10
4.92044
 20
-5.66031
 11
4.82089
 21
-5.74533
  0
LINE
  8
0
 10
4.82089
 20
-5.74533
 11
4.71989
 21
-5.82858
  0
LINE
  8
0
 10
4.71989
 20
-5.82858
 11
4.61745
 21
-5.91008
  0
LINE
  8
0
 10
4.61745
 20
-5.91008
 11
4.51361
 21
-5.98976
  0
LINE
  8
0
 10
4.51361
 20
-5.98976
 11
4.40839
 21
-6.06763
  0
LINE
  8
0
 10
4.40839
 20
-6.06763
 11
4.30182
 21
-6.14363
  0
LINE
  8
0
 10
4.30182
 20
-6.14363
 11
4.19394
 21
-6.21777
  0
LINE
  8
0
 10
4.19394
 20
-6.21777
 11
4.08478
 21
-6.29002
  0
LINE
  8
0
 10
4.08478
 20
-6.29002
 11
3.97438
 21
-6.36035
  0
LINE
  8
0
 10
3.97438
 20
-6.36035
 11
3.86278
 21
-6.42874
  0
LINE
  8
0
 10
3.86278
 20
-6.42874
 11
3.75
 21
-6.49518
  0
LINE
  8
0
 10
3.75
 20
-6.49518
 11
3.63606
 21
-6.55965
  0
LINE
  8
0
 10
3.63606
 20
-6.55965
 11
3.52103
 21
-6.6221
  0
LINE
  8
0
 10
3.52103
 20
-6.6221
 11
3.40492
 21
-6.68254
  0
LINE
  8
0
 10
3.40492
 20
-6.68254
 11
3.28778
 21
-6.74095
  0
LINE
  8
0
 10
3.28778
 20
-6.74095
 11
3.16963
 21
-6.7973
  0
LINE
  8
0
 10
3.16963
 20
-6.7973
 11
3.05052
 21
-6.85158
  0
LINE
  8
0
 10
3.05052
 20
-6.85158
 11
2.93048
 21
-6.90378
  0
LINE
  8
0
 10
2.93048
 20
-6.90378
 11
2.80954
 21
-6.95387
  0
LINE
  8
0
 10
2.80954
 20
-6.95387
 11
2.68776
 21
-7.00185
  0
LINE
  8
0
 10
2.68776
 20
-7.00185
 11
2.56514
 21
-7.04768
  0
LINE
  8
0
 10
2.56514
 20
-7.04768
 11
2.44176
 21
-7.09138
  0
LINE
  8
0
 10
2.44176
 20
-7.09138
 11
2.31763
 21
-7.13292
  0
LINE
  8
0
 10
2.31763
 20
-7.13292
 11
2.19278
 21
-7.17227
  0
LINE
  8
0
 10
2.19278
 20
-7.17227
 11
2.06728
 21
-7.20946
  0
LINE
  8
0
 10
2.06728
 20
-7.20946
 11
1.94113
 21
-7.24443
  0
LINE
  8
0
 10
1.94113
 20
-7.24443
 11
1.81441
 21
-7.27721
  0
LINE
  8
0
 10
1.81441
 20
-7.27721
 11
1.68712
 21
-7.30777
  0
LINE
  8
0
 10
1.68712
 20
-7.30777
 11
1.55933
 21
-7.33611
  0
LINE
  8
0
 10
1.55933
 20
-7.33611
 11
1.43106
 21
-7.3622
  0
LINE
  8
0
 10
1.43106
 20
-7.3622
 11
1.30235
 21
-7.38605
  0
LINE
  8
0
 10
1.30235
 20
-7.38605
 11
1.17325
 21
-7.40765
  0
LINE
  8
0
 10
1.17325
 20
-7.40765
 11
1.04379
 21
-7.427
  0
LINE
  8
0
 10
1.04379
 20
-7.427
 11
0.914017
 21
-7.44409
  0
LINE
  8
0
 10
0.914017
 20
-7.44409
 11
0.783951
 21
-7.45891
  0
LINE
  8
0
 10
0.783951
 20
-7.45891
 11
0.653656
 21
-7.47145
  0
LINE
  8
0
 10
0.653656
 20
-7.47145
 11
0.523163
 21
-7.48172
  0
LINE
  8
0
 10
0.523163
 20
-7.48172
 11
0.392517
 21
-7.48972
  0
LINE
  8
0
 10
0.392517
 20
-7.48972
 11
0.261734
 21
-7.49542
  0
LINE
  8
0
 10
0.261734
 20
-7.49542
 11
0.13089
 21
-7.49886
  0
LINE
  8
0
 10
0.13089
 20
-7.49886
 11
0
 21
-7.5
  0
LINE
  8
0
 10
0
 20
-7.5
 11
-0.13089
 21
-7.49886
  0
LINE
  8
0
 10
8.22382
 20
-9.74977
 11
8.19765
 21
-9.74908
  0
LINE
  8
0
 10
8.19765
 20
-9.74908
 11
8.17149
 21
-9.74794
  0
LINE
  8
0
 10
8.17149
 20
-9.74794
 11
8.14536
 21
-9.74634
  0
LINE
  8
0
 10
8.14536
 20
-9.74634
 11
8.11926
 21
-9.74428
  0
LINE
  8
0
 10
8.11926
 20
-9.74428
 11
8.0932
 21
-9.74178
  0
LINE
  8
0
 10
8.0932
 20
-9.74178
 11
8.06718
 21
-9.73882
  0
LINE
  8
0
 10
8.06718
 20
-9.73882
 11
8.04123
 21
-9.7354
  0
LINE
  8
0
 10
8.04123
 20
-9.7354
 11
8.01534
 21
-9.73152
  0
LINE
  8
0
 10
8.01534
 20
-9.73152
 11
7.98952
 21
-9.7272
  0
LINE
  8
0
 10
7.98952
 20
-9.7272
 11
7.96378
 21
-9.72243
  0
LINE
  8
0
 10
7.96378
 20
-9.72243
 11
7.93813
 21
-9.71721
  0
LINE
  8
0
 10
7.93813
 20
-9.71721
 11
7.91257
 21
-9.71155
  0
LINE
  8
0
 10
7.91257
 20
-9.71155
 11
7.88712
 21
-9.70543
  0
LINE
  8
0
 10
7.88712
 20
-9.70543
 11
7.86177
 21
-9.69888
  0
LINE
  8
0
 10
7.86177
 20
-9.69888
 11
7.83653
 21
-9.69188
  0
LINE
  8
0
 10
7.83653
 20
-9.69188
 11
7.81143
 21
-9.68445
  0
LINE
  8
0
 10
7.81143
 20
-9.68445
 11
7.78647
 21
-9.67657
  0
LINE
  8
0
 10
7.78647
 20
-9.67657
 11
7.76164
 21
-9.66827
  0
LINE
  8
0
 10
7.76164
 20
-9.66827
 11
7.73697
 21
-9.65953
  0
LINE
  8
0
 10
7.73697
 20
-9.65953
 11
7.71243
 21
-9.65036
  0
LINE
  8
0
 10
7.71243
 20
-9.65036
 11
7.68808
 21
-9.64076
  0
LINE
  8
0
 10
7.68808
 20
-9.64076
 11
7.66389
 21
-9.63075
  0
LINE
  8
0
 10
7.66389
 20
-9.63075
 11
7.63989
 21
-9.62032
  0
LINE
  8
0
 10
7.63989
 20
-9.62032
 11
7.61606
 21
-9.60945
  0
LINE
  8
0
 10
7.61606
 20
-9.60945
 11
7.59244
 21
-9.59819
  0
LINE
  8
0
 10
7.59244
 20
-9.59819
 11
7.569
 21
-9.5865
  0
LINE
  8
0
 10
7.569
 20
-9.5865
 11
7.54579
 21
-9.57442
  0
LINE
  8
0
 10
7.54579
 20
-9.57442
 11
7.52278
 21
-9.56192
  0
LINE
  8
0
 10
7.52278
 20
-9.56192
 11
7.5
 21
-9.54903
  0
LINE
  8
0
 10
7.5
 20
-9.54903
 11
7.47743
 21
-9.53574
  0
LINE
  8
0
 10
7.47743
 20
-9.53574
 11
7.45511
 21
-9.52206
  0
LINE
  8
0
 10
7.45511
 20
-9.52206
 11
7.43303
 21
-9.508
  0
LINE
  8
0
 10
7.43303
 20
-9.508
 11
7.41121
 21
-9.49355
  0
LINE
  8
0
 10
7.41121
 20
-9.49355
 11
7.38963
 21
-9.47871
  0
LINE
  8
0
 10
7.38963
 20
-9.47871
 11
7.36832
 21
-9.46352
  0
LINE
  8
0
 10
7.36832
 20
-9.46352
 11
7.34727
 21
-9.44795
  0
LINE
  8
0
 10
7.34727
 20
-9.44795
 11
7.32651
 21
-9.43201
  0
LINE
  8
0
 10
7.32651
 20
-9.43201
 11
7.30602
 21
-9.41571
  0
LINE
  8
0
 10
7.30602
 20
-9.41571
 11
7.28581
 21
-9.39906
  0
LINE
  8
0
 10
7.28581
 20
-9.39906
 11
7.2659
 21
-9.38205
  0
LINE
  8
0
 10
7.2659
 20
-9.38205
 11
7.24629
 21
-9.36472
  0
LINE
  8
0
 10
7.24629
 20
-9.36472
 11
7.22699
 21
-9.34702
  0
LINE
  8
0
 10
7.22699
 20
-9.34702
 11
7.20801
 21
-9.32899
  0
LINE
  8
0
 10
7.20801
 20
-9.32899
 11
7.18933
 21
-9.31065
  0
LINE
  8
0
 10
7.18933
 20
-9.31065
 11
7.17099
 21
-9.29198
  0
LINE
  8
0
 10
7.17099
 20
-9.29198
 11
7.15297
 21
-9.27299
  0
LINE
  8
0
 10
7.15297
 20
-9.27299
 11
7.13527
 21
-9.25369
  0
LINE
  8
0
 10
7.13527
 20
-9.25369
 11
7.11794
 21
-9.23409
  0
LINE
  8
0
 10
7.11794
 20
-9.23409
 11
7.10092
 21
-9.21417
  0
LINE
  8
0
 10
7.10092
 20
-9.21417
 11
7.08427
 21
-9.19397
  0
LINE
  8
0
 10
7.08427
 20
-9.19397
 11
7.06798
 21
-9.17348
  0
LINE
  8
0
 10
7.06798
 20
-9.17348
 11
7.05203
 21
-9.15271
  0
LINE
  8
0
 10
7.05203
 20
-9.15271
 11
7.03647
 21
-9.13167
  0
LINE
  8
0
 10
7.03647
 20
-9.13167
 11
7.02127
 21
-9.11035
  0
LINE
  8
0
 10
7.02127
 20
-9.11035
 11
7.00644
 21
-9.08878
  0
LINE
  8
0
 10
7.00644
 20
-9.08878
 11
6.99199
 21
-9.06696
  0
LINE
  8
0
 10
6.99199
 20
-9.06696
 11
6.97792
 21
-9.04488
  0
LINE
  8
0
 10
6.97792
 20
-9.04488
 11
6.96425
 21
-9.02255
  0
LINE
  8
0
 10
6.96425
 20
-9.02255
 11
6.95096
 21
-9
  0
LINE
  8
0
 10
6.95096
 20
-9
 11
6.93806
 21
-8.9772
  0
LINE
  8
0
 10
6.93806
 20
-8.9772
 11
6.92557
 21
-8.95419
  0
LINE
  8
0
 10
6.92557
 20
-8.95419
 11
6.91348
 21
-8.93098
  0
LINE
  8
0
 10
6.91348
 20
-8.93098
 11
6.90179
 21
-8.90755
  0
LINE
  8
0
 10
6.90179
 20
-8.90755
 11
6.89053
 21
-8.88393
  0
LINE
  8
0
 10
6.89053
 20
-8.88393
 11
6.87967
 21
-8.86009
  0
LINE
  8
0
 10
6.87967
 20
-8.86009
 11
6.86923
 21
-8.83609
  0
LINE
  8
0
 10
6.86923
 20
-8.83609
 11
6.85922
 21
-8.8119
  0
LINE
  8
0
 10
6.85922
 20
-8.8119
 11
6.84962
 21
-8.78755
  0
LINE
  8
0
 10
6.84962
 20
-8.78755
 11
6.84045
 21
-8.76302
  0
LINE
  8
0
 10
6.84045
 20
-8.76302
 11
6.83171
 21
-8.73834
  0
LINE
  8
0
 10
6.83171
 20
-8.73834
 11
6.82341
 21
-8.71352
  0
LINE
  8
0
 10
6.82341
 20
-8.71352
 11
6.81554
 21
-8.68855
  0
LINE
  8
0
 10
6.81554
 20
-8.68855
 11
6.80811
 21
-8.66345
  0
LINE
  8
0
 10
6.80811
 20
-8.66345
 11
6.8011
 21
-8.63821
  0
LINE
  8
0
 10
6.8011
 20
-8.63821
 11
6.79456
 21
-8.61287
  0
LINE
  8
0
 10
6.79456
 20
-8.61287
 11
6.78844
 21
-8.58742
  0
LINE
  8
0
 10
6.78844
 20
-8.58742
 11
6.78278
 21
-8.56186
  0
LINE
  8
0
 10
6.78278
 20
-8.56186
 11
6.77756
 21
-8.53621
  0
LINE
  8
0
 10
6.77756
 20
-8.53621
 11
6.77278
 21
-8.51047
  0
LINE
  8
0
 10
6.77278
 20
-8.51047
 11
6.76846
 21
-8.48465
  0
LINE
  8
0
 10
6.76846
 20
-8.48465
 11
6.76459
 21
-8.45876
  0
LINE
  8
0
 10
6.76459
 20
-8.45876
 11
6.76117
 21
-8.4328
  0
LINE
  8
0
 10
6.76117
 20
-8.4328
 11
6.75821
 21
-8.40678
  0
LINE
  8
0
 10
6.75821
 20
-8.40678
 11
6.75571
 21
-8.38072
  0
LINE
  8
0
 10
6.75571
 20
-8.38072
 11
6.75365
 21
-8.35463
  0
LINE
  8
0
 10
6.75365
 20
-8.35463
 11
6.75204
 21
-8.32849
  0
LINE
  8
0
 10
6.75204
 20
-8.32849
 11
6.7509
 21
-8.30234
  0
LINE
  8
0
 10
6.7509
 20
-8.30234
 11
6.75021
 21
-8.27617
  0
LINE
  8
0
 10
6.75021
 20
-8.27617
 11
6.75
 21
-8.25
  0
LINE
  8
0
 10
6.75
 20
-8.25
 11
6.75021
 21
-8.22382
  0
LINE
  8
0
 10
6.75021
 20
-8.22382
 11
6.7509
 21
-8.19765
  0
LINE
  8
0
 10
6.7509
 20
-8.19765
 11
6.75204
 21
-8.17149
  0
LINE
  8
0
 10
6.75204
 20
-8.17149
 11
6.75365
 21
-8.14536
  0
LINE
  8
0
 10
6.75365
 20
-8.14536
 11
6.75571
 21
-8.11926
  0
LINE
  8
0
 10
6.75571
 20
-8.11926
 11
6.75821
 21
-8.0932
  0
LINE
  8
0
 10
6.75821
 20
-8.0932
 11
6.76117
 21
-8.06718
  0
LINE
  8
0
 10
6.76117
 20
-8.06718
 11
6.76459
 21
-8.04123
  0
LINE
  8
0
 10
6.76459
 20
-8.04123
 11
6.76846
 21
-8.01534
  0
LINE
  8
0
 10
6.76846
 20
-8.01534
 11
6.77278
 21
-7.98952
  0
LINE
  8
0
 10
6.77278
 20
-7.98952
 11
6.77756
 21
-7.96378
  0
LINE
  8
0
 10
6.77756
 20
-7.96378
 11
6.78278
 21
-7.93813
  0
LINE
  8
0
 10
6.78278
 20
-7.93813
 11
6.78844
 21
-7.91257
  0
LINE
  8
0
 10
6.78844
 20
-7.91257
 11
6.79456
 21
-7.88712
  0
LINE
  8
0
 10
6.79456
 20
-7.88712
 11
6.8011
 21
-7.86177
  0
LINE
  8
0
 10
6.8011
 20
-7.86177
 11
6.80811
 21
-7.83653
  0
LINE
  8
0
 10
6.80811
 20
-7.83653
 11
6.81554
 21
-7.81143
  0
LINE
  8
0
 10
6.81554
 20
-7.81143
 11
6.82341
 21
-7.78647
  0
LINE
  8
0
 10
6.82341
 20
-7.78647
 11
6.83171
 21
-7.76164
  0
LINE
  8
0
 10
6.83171
 20
-7.76164
 11
6.84045
 21
-7.73697
  0
LINE
  8
0
 10
6.84045
 20
-7.73697
 11
6.84962
 21
-7.71243
  0
LINE
  8
0
 10
6.84962
 20
-7.71243
 11
6.85922
 21
-7.68808
  0
LINE
  8
0
 10
6.85922
 20
-7.68808
 11
6.86923
 21
-7.66389
  0
LINE
  8
0
 10
6.86923
 20
-7.66389
 11
6.87967
 21
-7.63989
  0
LINE
  8
0
 10
6.87967
 20
-7.63989
 11
6.89053
 21
-7.61606
  0
LINE
  8
0
 10
6.89053
 20
-7.61606
 11
6.90179
 21
-7.59244
  0
LINE
  8
0
 10
6.90179
 20
-7.59244
 11
6.91348
 21
-7.569
  0
LINE
  8
0
 10
6.91348
 20
-7.569
 11
6.92557
 21
-7.54579
  0
LINE
  8
0
 10
6.92557
 20
-7.54579
 11
6.93806
 21
-7.52278
  0
LINE
  8
0
 10
6.93806
 20
-7.52278
 11
6.95096
 21
-7.5
  0
LINE
  8
0
 10
6.95096
 20
-7.5
 11
6.96425
 21
-7.47743
  0
LINE
  8
0
 10
6.96425
 20
-7.47743
 11
6.97792
 21
-7.45511
  0
LINE
  8
0
 10
6.97792
 20
-7.45511
 11
6.99199
 21
-7.43303
  0
LINE
  8
0
 10
6.99199
 20
-7.43303
 11
7.00644
 21
-7.41121
  0
LINE
  8
0
 10
7.00644
 20
-7.41121
 11
7.02127
 21
-7.38963
  0
LINE
  8
0
 10
7.02127
 20
-7.38963
 11
7.03647
 21
-7.36832
  0
LINE
  8
0
 10
7.03647
 20
-7.36832
 11
7.05203
 21
-7.34727
  0
LINE
  8
0
 10
7.05203
 20
-7.34727
 11
7.06798
 21
-7.32651
  0
LINE
  8
0
 10
7.06798
 20
-7.32651
 11
7.08427
 21
-7.30602
  0
LINE
  8
0
 10
7.08427
 20
-7.30602
 11
7.10092
 21
-7.28581
  0
LINE
  8
0
 10
7.10092
 20
-7.28581
 11
7.11794
 21
-7.2659
  0
LINE
  8
0
 10
7.11794
 20
-7.2659
 11
7.13527
 21
-7.24629
  0
LINE
  8
0
 10
7.13527
 20
-7.24629
 11
7.15297
 21
-7.22699
  0
LINE
  8
0
 10
7.15297
 20
-7.22699
 11
7.17099
 21
-7.20801
  0
LINE
  8
0
 10
7.17099
 20
-7.20801
 11
7.18933
 21
-7.18933
  0
LINE
  8
0
 10
7.18933
 20
-7.18933
 11
7.20801
 21
-7.17099
  0
LINE
  8
0
 10
7.20801
 20
-7.17099
 11
7.22699
 21
-7.15297
  0
LINE
  8
0
 10
7.22699
 20
-7.15297
 11
7.24629
 21
-7.13527
  0
LINE
  8
0
 10
7.24629
 20
-7.13527
 11
7.2659
 21
-7.11794
  0
LINE
  8
0
 10
7.2659
 20
-7.11794
 11
7.28581
 21
-7.10092
  0
LINE
  8
0
 10
7.28581
 20
-7.10092
 11
7.30602
 21
-7.08427
  0
LINE
  8
0
 10
7.30602
 20
-7.08427
 11
7.32651
 21
-7.06798
  0
LINE
  8
0
 10
7.32651
 20
-7.06798
 11
7.34727
 21
-7.05203
  0
LINE
  8
0
 10
7.34727
 20
-7.05203
 11
7.36832
 21
-7.03647
  0
LINE
  8
0
 10
7.36832
 20
-7.03647
 11
7.38963
 21
-7.02127
  0
LINE
  8
0
 10
7.38963
 20
-7.02127
 11
7.41121
 21
-7.00644
  0
LINE
  8
0
 10
7.41121
 20
-7.00644
 11
7.43303
 21
-6.99199
  0
LINE
  8
0
 10
7.43303
 20
-6.99199
 11
7.45511
 21
-6.97792
  0
LINE
  8
0
 10
7.45511
 20
-6.97792
 11
7.47743
 21
-6.96425
  0
LINE
  8
0
 10
7.47743
 20
-6.96425
 11
7.5
 21
-6.95096
  0
LINE
  8
0
 10
7.5
 20
-6.95096
 11
7.52278
 21
-6.93806
  0
LINE
  8
0
 10
7.52278
 20
-6.93806
 11
7.54579
 21
-6.92557
  0
LINE
  8
0
 10
7.54579
 20
-6.92557
 11
7.569
 21
-6.91348
  0
LINE
  8
0
 10
7.569
 20
-6.91348
 11
7.59244
 21
-6.90179
  0
LINE
  8
0
 10
7.59244
 20
-6.90179
 11
7.61606
 21
-6.89053
  0
LINE
  8
0
 10
7.61606
 20
-6.89053
 11
7.63989
 21
-6.87967
  0
LINE
  8
0
 10
7.63989
 20
-6.87967
 11
7.66389
 21
-6.86923
  0
LINE
  8
0
 10
7.66389
 20
-6.86923
 11
7.68808
 21
-6.85922
  0
LINE
  8
0
 10
7.68808
 20
-6.85922
 11
7.71243
 21
-6.84962
  0
LINE
  8
0
 10
7.71243
 20
-6.84962
 11
7.73697
 21
-6.84045
  0
LINE
  8
0
 10
7.73697
 20
-6.84045
 11
7.76164
 21
-6.83171
  0
LINE
  8
0
 10
7.76164
 20
-6.83171
 11
7.78647
 21
-6.82341
  0
LINE
  8
0
 10
7.78647
 20
-6.82341
 11
7.81143
 21
-6.81554
  0
LINE
  8
0
 10
7.81143
 20
-6.81554
 11
7.83653
 21
-6.80811
  0
LINE
  8
0
 10
7.83653
 20
-6.80811
 11
7.86177
 21
-6.8011
  0
LINE
  8
0
 10
7.86177
 20
-6.8011
 11
7.88712
 21
-6.79456
  0
LINE
  8
0
 10
7.88712
 20
-6.79456
 11
7.91257
 21
-6.78844
  0
LINE
  8
0
 10
7.91257
 20
-6.78844
 11
7.93813
 21
-6.78278
  0
LINE
  8
0
 10
7.93813
 20
-6.78278
 11
7.96378
 21
-6.77756
  0
LINE
  8
0
 10
7.96378
 20
-6.77756
 11
7.98952
 21
-6.77278
  0
LINE
  8
0
 10
7.98952
 20
-6.77278
 11
8.01534
 21
-6.76846
  0
LINE
  8
0
 10
8.01534
 20
-6.76846
 11
8.04123
 21
-6.76459
  0
LINE
  8
0
 10
8.04123
 20
-6.76459
 11
8.06718
 21
-6.76117
  0
LINE
  8
0
 10
8.06718
 20
-6.76117
 11
8.0932
 21
-6.75821
  0
LINE
  8
0
 10
8.0932
 20
-6.75821
 11
8.11926
 21
-6.75571
  0
LINE
  8
0
 10
8.11926
 20
-6.75571
 11
8.14536
 21
-6.75365
  0
LINE
  8
0
 10
8.14536
 20
-6.75365
 11
8.17149
 21
-6.75204
  0
LINE
  8
0
 10
8.17149
 20
-6.75204
 11
8.19765
 21
-6.7509
  0
LINE
  8
0
 10
8.19765
 20
-6.7509
 11
8.22382
 21
-6.75021
  0
LINE
  8
0
 10
8.22382
 20
-6.75021
 11
8.25
 21
-6.75
  0
LINE
  8
0
 10
8.25
 20
-6.75
 11
8.27617
 21
-6.75021
  0
LINE
  8
0
 10
8.27617
 20
-6.75021
 11
8.30234
 21
-6.7509
  0
LINE
  8
0
 10
8.30234
 20
-6.7509
 11
8.32849
 21
-6.75204
  0
LINE
  8
0
 10
8.32849
 20
-6.75204
 11
8.35463
 21
-6.75365
  0
LINE
  8
0
 10
8.35463
 20
-6.75365
 11
8.38072
 21
-6.75571
  0
LINE
  8
0
 10
8.38072
 20
-6.75571
 11
8.40678
 21
-6.75821
  0
LINE
  8
0
 10
8.40678
 20
-6.75821
 11
8.4328
 21
-6.76117
  0
LINE
  8
0
 10
8.4328
 20
-6.76117
 11
8.45876
 21
-6.76459
  0
LINE
  8
0
 10
8.45876
 20
-6.76459
 11
8.48465
 21
-6.76846
  0
LINE
  8
0
 10
8.48465
 20
-6.76846
 11
8.51047
 21
-6.77278
  0
LINE
  8
0
 10
8.51047
 20
-6.77278
 11
8.53621
 21
-6.77756
  0
LINE
  8
0
 10
8.53621
 20
-6.77756
 11
8.56186
 21
-6.78278
  0
LINE
  8
0
 10
8.56186
 20
-6.78278
 11
8.58742
 21
-6.78844
  0
LINE
  8
0
 10
8.58742
 20
-6.78844
 11
8.61287
 21
-6.79456
  0
LINE
  8
0
 10
8.61287
 20
-6.79456
 11
8.63821
 21
-6.8011
  0
LINE
  8
0
 10
8.63821
 20
-6.8011
 11
8.66345
 21
-6.80811
  0
LINE
  8
0
 10
8.66345
 20
-6.80811
 11
8.68855
 21
-6.81554
  0
LINE
  8
0
 10
8.68855
 20
-6.81554
 11
8.71352
 21
-6.82341
  0
LINE
  8
0
 10
8.71352
 20
-6.82341
 11
8.73834
 21
-6.83171
  0
LINE
  8
0
 10
8.73834
 20
-6.83171
 11
8.76302
 21
-6.84045
  0
LINE
  8
0
 10
8.76302
 20
-6.84045
 11
8.78755
 21
-6.84962
  0
LINE
  8
0
 10
8.78755
 20
-6.84962
 11
8.8119
 21
-6.85922
  0
LINE
  8
0
 10
8.8119
 20
-6.85922
 11
8.83609
 21
-6.86923
  0
LINE
  8
0
 10
8.83609
 20
-6.86923
 11
8.86009
 21
-6.87967
  0
LINE
  8
0
 10
8.86009
 20
-6.87967
 11
8.88393
 21
-6.89053
  0
LINE
  8
0
 10
8.88393
 20
-6.89053
 11
8.90755
 21
-6.90179
  0
LINE
  8
0
 10
8.90755
 20
-6.90179
 11
8.93098
 21
-6.91348
  0
LINE
  8
0
 10
8.93098
 20
-6.91348
 11
8.95419
 21
-6.92557
  0
LINE
  8
0
 10
8.95419
 20
-6.92557
 11
8.9772
 21
-6.93806
  0
LINE
  8
0
 10
8.9772
 20
-6.93806
 11
9
 21
-6.95096
  0
LINE
  8
0
 10
9
 20
-6.95096
 11
9.02255
 21
-6.96425
  0
LINE
  8
0
 10
9.02255
 20
-6.96425
 11
9.04488
 21
-6.97792
  0
LINE
  8
0
 10
9.04488
 20
-6.97792
 11
9.06696
 21
-6.99199
  0
LINE
  8
0
 10
9.06696
 20
-6.99199
 11
9.08878
 21
-7.00644
  0
LINE
  8
0
 10
9.08878
 20
-7.00644
 11
9.11035
 21
-7.02127
  0
LINE
  8
0
 10
9.11035
 20
-7.02127
 11
9.13167
 21
-7.03647
  0
LINE
  8
0
 10
9.13167
 20
-7.03647
 11
9.15271
 21
-7.05203
  0
LINE
  8
0
 10
9.15271
 20
-7.05203
 11
9.17348
 21
-7.06798
  0
LINE
  8
0
 10
9.17348
 20
-7.06798
 11
9.19397
 21
-7.08427
  0
LINE
  8
0
 10
9.19397
 20
-7.08427
 11
9.21417
 21
-7.10092
  0
LINE
  8
0
 10
9.21417
 20
-7.10092
 11
9.23409
 21
-7.11794
  0
LINE
  8
0
 10
9.23409
 20
-7.11794
 11
9.25369
 21
-7.13527
  0
LINE
  8
0
 10
9.25369
 20
-7.13527
 11
9.27299
 21
-7.15297
  0
LINE
  8
0
 10
9.27299
 20
-7.15297
 11
9.29198
 21
-7.17099
  0
LINE
  8
0
 10
9.29198
 20
-7.17099
 11
9.31065
 21
-7.18933
  0
LINE
  8
0
 10
9.31065
 20
-7.18933
 11
9.32899
 21
-7.20801
  0
LINE
  8
0
 10
9.32899
 20
-7.20801
 11
9.34702
 21
-7.22699
  0
LINE
  8
0
 10
9.34702
 20
-7.22699
 11
9.36472
 21
-7.24629
  0
LINE
  8
0
 10
9.36472
 20
-7.24629
 11
9.38205
 21
-7.2659
  0
LINE
  8
0
 10
9.38205
 20
-7.2659
 11
9.39906
 21
-7.28581
  0
LINE
  8
0
 10
9.39906
 20
-7.28581
 11
9.41571
 21
-7.30602
  0
LINE
  8
0
 10
9.41571
 20
-7.30602
 11
9.43201
 21
-7.32651
  0
LINE
  8
0
 10
9.43201
 20
-7.32651
 11
9.44795
 21
-7.34727
  0
LINE
  8
0
 10
9.44795
 20
-7.34727
 11
9.46352
 21
-7.36832
  0
LINE
  8
0
 10
9.46352
 20
-7.36832
 11
9.47871
 21
-7.38963
  0
LINE
  8
0
 10
9.47871
 20
-7.38963
 11
9.49355
 21
-7.41121
  0
LINE
  8
0
 10
9.49355
 20
-7.41121
 11
9.508
 21
-7.43303
  0
LINE
  8
0
 10
9.508
 20
-7.43303
 11
9.52206
 21
-7.45511
  0
LINE
  8
0
 10
9.52206
 20
-7.45511
 11
9.53574
 21
-7.47743
  0
LINE
  8
0
 10
9.53574
 20
-7.47743
 11
9.54903
 21
-7.5
  0
LINE
  8
0
 10
9.54903
 20
-7.5
 11
9.56192
 21
-7.52278
  0
LINE
  8
0
 10
9.56192
 20
-7.52278
 11
9.57442
 21
-7.54579
  0
LINE
  8
0
 10
9.57442
 20
-7.54579
 11
9.5865
 21
-7.569
  0
LINE
  8
0
 10
9.5865
 20
-7.569
 11
9.59819
 21
-7.59244
  0
LINE
  8
0
 10
9.59819
 20
-7.59244
 11
9.60945
 21
-7.61606
  0
LINE
  8
0
 10
9.60945
 20
-7.61606
 11
9.62032
 21
-7.63989
  0
LINE
  8
0
 10
9.62032
 20
-7.63989
 11
9.63075
 21
-7.66389
  0
LINE
  8
0
 10
9.63075
 20
-7.66389
 11
9.64076
 21
-7.68808
  0
LINE
  8
0
 10
9.64076
 20
-7.68808
 11
9.65036
 21
-7.71243
  0
LINE
  8
0
 10
9.65036
 20
-7.71243
 11
9.65953
 21
-7.73697
  0
LINE
  8
0
 10
9.65953
 20
-7.73697
 11
9.66827
 21
-7.76164
  0
LINE
  8
0
 10
9.66827
 20
-7.76164
 11
9.67657
 21
-7.78647
  0
LINE
  8
0
 10
9.67657
 20
-7.78647
 11
9.68445
 21
-7.81143
  0
LINE
  8
0
 10
9.68445
 20
-7.81143
 11
9.69188
 21
-7.83653
  0
LINE
  8
0
 10
9.69188
 20
-7.83653
 11
9.69888
 21
-7.86177
  0
LINE
  8
0
 10
9.69888
 20
-7.86177
 11
9.70543
 21
-7.88712
  0
LINE
  8
0
 10
9.70543
 20
-7.88712
 11
9.71155
 21
-7.91257
  0
LINE
  8
0
 10
9.71155
 20
-7.91257
 11
9.71721
 21
-7.93813
  0
LINE
  8
0
 10
9.71721
 20
-7.93813
 11
9.72243
 21
-7.96378
  0
LINE
  8
0
 10
9.72243
 20
-7.96378
 11
9.7272
 21
-7.98952
  0
LINE
  8
0
 10
9.7272
 20
-7.98952
 11
9.73152
 21
-8.01534
  0
LINE
  8
0
 10
9.73152
 20
-8.01534
 11
9.7354
 21
-8.04123
  0
LINE
  8
0
 10
9.7354
 20
-8.04123
 11
9.73882
 21
-8.06718
  0
LINE
  8
0
 10
9.73882
 20
-8.06718
 11
9.74178
 21
-8.0932
  0
LINE
  8
0
 10
9.74178
 20
-8.0932
 11
9.74428
 21
-8.11926
  0
LINE
  8
0
 10
9.74428
 20
-8.11926
 11
9.74634
 21
-8.14536
  0
LINE
  8
0
 10
9.74634
 20
-8.14536
 11
9.74794
 21
-8.17149
  0
LINE
  8
0
 10
9.74794
 20
-8.17149
 11
9.74908
 21
-8.19765
  0
LINE
  8
0
 10
9.74908
 20
-8.19765
 11
9.74977
 21
-8.22382
  0
LINE
  8
0
 10
9.74977
 20
-8.22382
 11
9.75
 21
-8.25
  0
LINE
  8
0
 10
9.75
 20
-8.25
 11
9.74977
 21
-8.27617
  0
LINE
  8
0
 10
9.74977
 20
-8.27617
 11
9.74908
 21
-8.30234
  0
LINE
  8
0
 10
9.74908
 20
-8.30234
 11
9.74794
 21
-8.32849
  0
LINE
  8
0
 10
9.74794
 20
-8.32849
 11
9.74634
 21
-8.35463
  0
LINE
  8
0
 10
9.74634
 20
-8.35463
 11
9.74428
 21
-8.38072
  0
LINE
  8
0
 10
9.74428
 20
-8.38072
 11
9.74178
 21
-8.40678
  0
LINE
  8
0
 10
9.74178
 20
-8.40678
 11
9.73882
 21
-8.4328
  0
LINE
  8
0
 10
9.73882
 20
-8.4328
 11
9.7354
 21
-8.45876
  0
LINE
  8
0
 10
9.7354
 20
-8.45876
 11
9.73152
 21
-8.48465
  0
LINE
  8
0
 10
9.73152
 20
-8.48465
 11
9.7272
 21
-8.51047
  0
LINE
  8
0
 10
9.7272
 20
-8.51047
 11
9.72243
 21
-8.53621
  0
LINE
  8
0
 10
9.72243
 20
-8.53621
 11
9.71721
 21
-8.56186
  0
LINE
  8
0
 10
9.71721
 20
-8.56186
 11
9.71155
 21
-8.58742
  0
LINE
  8
0
 10
9.71155
 20
-8.58742
 11
9.70543
 21
-8.61287
  0
LINE
  8
0
 10
9.70543
 20
-8.61287
 11
9.69888
 21
-8.63821
  0
LINE
  8
0
 10
9.69888
 20
-8.63821
 11
9.69188
 21
-8.66345
  0
LINE
  8
0
 10
9.69188
 20
-8.66345
 11
9.68445
 21
-8.68855
  0
LINE
  8
0
 10
9.68445
 20
-8.68855
 11
9.67657
 21
-8.71352
  0
LINE
  8
0
 10
9.67657
 20
-8.71352
 11
9.66827
 21
-8.73834
  0
LINE
  8
0
 10
9.66827
 20
-8.73834
 11
9.65953
 21
-8.76302
  0
LINE
  8
0
 10
9.65953
 20
-8.76302
 11
9.65036
 21
-8.78755
  0
LINE
  8
0
 10
9.65036
 20
-8.78755
 11
9.64076
 21
-8.8119
  0
LINE
  8
0
 10
9.64076
 20
-8.8119
 11
9.63075
 21
-8.83609
  0
LINE
  8
0
 10
9.63075
 20
-8.83609
 11
9.62032
 21
-8.86009
  0
LINE
  8
0
 10
9.62032
 20
-8.86009
 11
9.60945
 21
-8.88393
  0
LINE
  8
0
 10
9.60945
 20
-8.88393
 11
9.59819
 21
-8.90755
  0
LINE
  8
0
 10
9.59819
 20
-8.90755
 11
9.5865
 21
-8.93098
  0
LINE
  8
0
 10
9.5865
 20
-8.93098
 11
9.57442
 21
-8.95419
  0
LINE
  8
0
 10
9.57442
 20
-8.95419
 11
9.56192
 21
-8.9772
  0
LINE
  8
0
 10
9.56192
 20
-8.9772
 11
9.54903
 21
-9
  0
LINE
  8
0
 10
9.54903
 20
-9
 11
9.53574
 21
-9.02255
  0
LINE
  8
0
 10
9.53574
 20
-9.02255
 11
9.52206
 21
-9.04488
  0
LINE
  8
0
 10
9.52206
 20
-9.04488
 11
9.508
 21
-9.06696
  0
LINE
  8
0
 10
9.508
 20
-9.06696
 11
9.49355
 21
-9.08878
  0
LINE
  8
0
 10
9.49355
 20
-9.08878
 11
9.47871
 21
-9.11035
  0
LINE
  8
0
 10
9.47871
 20
-9.11035
 11
9.46352
 21
-9.13167
  0
LINE
  8
0
 10
9.46352
 20
-9.13167
 11
9.44795
 21
-9.15271
  0
LINE
  8
0
 10
9.44795
 20
-9.15271
 11
9.43201
 21
-9.17348
  0
LINE
  8
0
 10
9.43201
 20
-9.17348
 11
9.41571
 21
-9.19397
  0
LINE
  8
0
 10
9.41571
 20
-9.19397
 11
9.39906
 21
-9.21417
  0
LINE
  8
0
 10
9.39906
 20
-9.21417
 11
9.38205
 21
-9.23409
  0
LINE
  8
0
 10
9.38205
 20
-9.23409
 11
9.36472
 21
-9.25369
  0
LINE
  8
0
 10
9.36472
 20
-9.25369
 11
9.34702
 21
-9.27299
  0
LINE
  8
0
 10
9.34702
 20
-9.27299
 11
9.32899
 21
-9.29198
  0
LINE
  8
0
 10
9.32899
 20
-9.29198
 11
9.31065
 21
-9.31065
  0
LINE
  8
0
 10
9.31065
 20
-9.31065
 11
9.29198
 21
-9.32899
  0
LINE
  8
0
 10
9.29198
 20
-9.32899
 11
9.27299
 21
-9.34702
  0
LINE
  8
0
 10
9.27299
 20
-9.34702
 11
9.25369
 21
-9.36472
  0
LINE
  8
0
 10
9.25369
 20
-9.36472
 11
9.23409
 21
-9.38205
  0
LINE
  8
0
 10
9.23409
 20
-9.38205
 11
9.21417
 21
-9.39906
  0
LINE
  8
0
 10
9.21417
 20
-9.39906
 11
9.19397
 21
-9.41571
  0
LINE
  8
0
 10
9.19397
 20
-9.41571
 11
9.17348
 21
-9.43201
  0
LINE
  8
0
 10
9.17348
 20
-9.43201
 11
9.15271
 21
-9.44795
  0
LINE
  8
0
 10
9.15271
 20
-9.44795
 11
9.13167
 21
-9.46352
  0
LINE
  8
0
 10
9.13167
 20
-9.46352
 11
9.11035
 21
-9.47871
  0
LINE
  8
0
 10
9.11035
 20
-9.47871
 11
9.08878
 21
-9.49355
  0
LINE
  8
0
 10
9.08878
 20
-9.49355
 11
9.06696
 21
-9.508
  0
LINE
  8
0
 10
9.06696
 20
-9.508
 11
9.04488
 21
-9.52206
  0
LINE
  8
0
 10
9.04488
 20
-9.52206
 11
9.02255
 21
-9.53574
  0
LINE
  8
0
 10
9.02255
 20
-9.53574
 11
9
 21
-9.54903
  0
LINE
  8
0
 10
9
 20
-9.54903
 11
8.9772
 21
-9.56192
  0
LINE
  8
0
 10
8.9772
 20
-9.56192
 11
8.95419
 21
-9.57442
  0
LINE
  8
0
 10
8.95419
 20
-9.57442
 11
8.93098
 21
-9.5865
  0
LINE
  8
0
 10
8.93098
 20
-9.5865
 11
8.90755
 21
-9.59819
  0
LINE
  8
0
 10
8.90755
 20
-9.59819
 11
8.88393
 21
-9.60945
  0
LINE
  8
0
 10
8.88393
 20
-9.60945
 11
8.86009
 21
-9.62032
  0
LINE
  8
0
 10
8.86009
 20
-9.62032
 11
8.83609
 21
-9.63075
  0
LINE
  8
0
 10
8.83609
 20
-9.63075
 11
8.8119
 21
-9.64076
  0
LINE
  8
0
 10
8.8119
 20
-9.64076
 11
8.78755
 21
-9.65036
  0
LINE
  8
0
 10
8.78755
 20
-9.65036
 11
8.76302
 21
-9.65953
  0
LINE
  8
0
 10
8.76302
 20
-9.65953
 11
8.73834
 21
-9.66827
  0
LINE
  8
0
 10
8.73834
 20
-9.66827
 11
8.71352
 21
-9.67657
  0
LINE
  8
0
 10
8.71352
 20
-9.67657
 11
8.68855
 21
-9.68445
  0
LINE
  8
0
 10
8.68855
 20
-9.68445
 11
8.66345
 21
-9.69188
  0
LINE
  8
0
 10
8.66345
 20
-9.69188
 11
8.63821
 21
-9.69888
  0
LINE
  8
0
 10
8.63821
 20
-9.69888
 11
8.61287
 21
-9.70543
  0
LINE
  8
0
 10
8.61287
 20
-9.70543
 11
8.58742
 21
-9.71155
  0
LINE
  8
0
 10
8.58742
 20
-9.71155
 11
8.56186
 21
-9.71721
  0
LINE
  8
0
 10
8.56186
 20
-9.71721
 11
8.53621
 21
-9.72243
  0
LINE
  8
0
 10
8.53621
 20
-9.72243
 11
8.51047
 21
-9.7272
  0
LINE
  8
0
 10
8.51047
 20
-9.7272
 11
8.48465
 21
-9.73152
  0
LINE
  8
0
 10
8.48465
 20
-9.73152
 11
8.45876
 21
-9.7354
  0
LINE
  8
0
 10
8.45876
 20
-9.7354
 11
8.4328
 21
-9.73882
  0
LINE
  8
0
 10
8.4328
 20
-9.73882
 11
8.40678
 21
-9.74178
  0
LINE
  8
0
 10
8.40678
 20
-9.74178
 11
8.38072
 21
-9.74428
  0
LINE
  8
0
 10
8.38072
 20
-9.74428
 11
8.35463
 21
-9.74634
  0
LINE
  8
0
 10
8.35463
 20
-9.74634
 11
8.32849
 21
-9.74794
  0
LINE
  8
0
 10
8.32849
 20
-9.74794
 11
8.30234
 21
-9.74908
  0
LINE
  8
0
 10
8.30234
 20
-9.74908
 11
8.27617
 21
-9.74977
  0
LINE
  8
0
 10
8.27617
 20
-9.74977
 11
8.25
 21
-9.75
  0
LINE
  8
0
 10
8.25
 20
-9.75
 11
8.22382
 21
-9.74977
  0
LINE
  8
0
 10
-8.27617
 20
-9.74977
 11
-8.30234
 21
-9.74908
  0
LINE
  8
0
 10
-8.30234
 20
-9.74908
 11
-8.32849
 21
-9.74794
  0
LINE
  8
0
 10
-8.32849
 20
-9.74794
 11
-8.35463
 21
-9.74634
  0
LINE
  8
0
 10
-8.35463
 20
-9.74634
 11
-8.38072
 21
-9.74428
  0
LINE
  8
0
 10
-8.38072
 20
-9.74428
 11
-8.40678
 21
-9.74178
  0
LINE
  8
0
 10
-8.40678
 20
-9.74178
 11
-8.4328
 21
-9.73882
  0
LINE
  8
0
 10
-8.4328
 20
-9.73882
 11
-8.45876
 21
-9.7354
  0
LINE
  8
0
 10
-8.45876
 20
-9.7354
 11
-8.48465
 21
-9.73152
  0
LINE
  8
0
 10
-8.48465
 20
-9.73152
 11
-8.51047
 21
-9.7272
  0
LINE
  8
0
 10
-8.51047
 20
-9.7272
 11
-8.53621
 21
-9.72243
  0
LINE
  8
0
 10
-8.53621
 20
-9.72243
 11
-8.56186
 21
-9.71721
  0
LINE
  8
0
 10
-8.56186
 20
-9.71721
 11
-8.58742
 21
-9.71155
  0
LINE
  8
0
 10
-8.58742
 20
-9.71155
 11
-8.61287
 21
-9.70543
  0
LINE
  8
0
 10
-8.61287
 20
-9.70543
 11
-8.63821
 21
-9.69888
  0
LINE
  8
0
 10
-8.63821
 20
-9.69888
 11
-8.66345
 21
-9.69188
  0
LINE
  8
0
 10
-8.66345
 20
-9.69188
 11
-8.68855
 21
-9.68445
  0
LINE
  8
0
 10
-8.68855
 20
-9.68445
 11
-8.71352
 21
-9.67657
  0
LINE
  8
0
 10
-8.71352
 20
-9.67657
 11
-8.73834
 21
-9.66827
  0
LINE
  8
0
 10
-8.73834
 20
-9.66827
 11
-8.76302
 21
-9.65953
  0
LINE
  8
0
 10
-8.76302
 20
-9.65953
 11
-8.78755
 21
-9.65036
  0
LINE
  8
0
 10
-8.78755
 20
-9.65036
 11
-8.8119
 21
-9.64076
  0
LINE
  8
0
 10
-8.8119
 20
-9.64076
 11
-8.83609
 21
-9.63075
  0
LINE
  8
0
 10
-8.83609
 20
-9.63075
 11
-8.86009
 21
-9.62032
  0
LINE
  8
0
 10
-8.86009
 20
-9.62032
 11
-8.88393
 21
-9.60945
  0
LINE
  8
0
 10
-8.88393
 20
-9.60945
 11
-8.90755
 21
-9.59819
  0
LINE
  8
0
 10
-8.90755
 20
-9.59819
 11
-8.93098
 21
-9.5865
  0
LINE
  8
0
 10
-8.93098
 20
-9.5865
 11
-8.95419
 21
-9.57442
  0
LINE
  8
0
 10
-8.95419
 20
-9.57442
 11
-8.9772
 21
-9.56192
  0
LINE
  8
0
 10
-8.9772
 20
-9.56192
 11
-9
 21
-9.54903
  0
LINE
  8
0
 10
-9
 20
-9.54903
 11
-9.02255
 21
-9.53574
  0
LINE
  8
0
 10
-9.02255
 20
-9.53574
 11
-9.04488
 21
-9.52206
  0
LINE
  8
0
 10
-9.04488
 20
-9.52206
 11
-9.06696
 21
-9.508
  0
LINE
  8
0
 10
-9.06696
 20
-9.508
 11
-9.08878
 21
-9.49355
  0
LINE
  8
0
 10
-9.08878
 20
-9.49355
 11
-9.11035
 21
-9.47871
  0
LINE
  8
0
 10
-9.11035
 20
-9.47871
 11
-9.13167
 21
-9.46352
  0
LINE
  8
0
 10
-9.13167
 20
-9.46352
 11
-9.15271
 21
-9.44795
  0
LINE
  8
0
 10
-9.15271
 20
-9.44795
 11
-9.17348
 21
-9.43201
  0
LINE
  8
0
 10
-9.17348
 20
-9.43201
 11
-9.19397
 21
-9.41571
  0
LINE
  8
0
 10
-9.19397
 20
-9.41571
 11
-9.21417
 21
-9.39906
  0
LINE
  8
0
 10
-9.21417
 20
-9.39906
 11
-9.23409
 21
-9.38205
  0
LINE
  8
0
 10
-9.23409
 20
-9.38205
 11
-9.25369
 21
-9.36472
  0
LINE
  8
0
 10
-9.25369
 20
-9.36472
 11
-9.27299
 21
-9.34702
  0
LINE
  8
0
 10
-9.27299
 20
-9.34702
 11
-9.29198
 21
-9.32899
  0
LINE
  8
0
 10
-9.29198
 20
-9.32899
 11
-9.31065
 21
-9.31065
  0
LINE
  8
0
 10
-9.31065
 20
-9.31065
 11
-9.32899
 21
-9.29198
  0
LINE
  8
0
 10
-9.32899
 20
-9.29198
 11
-9.34702
 21
-9.27299
  0
LINE
  8
0
 10
-9.34702
 20
-9.27299
 11
-9.36472
 21
-9.25369
  0
LINE
  8
0
 10
-9.36472
 20
-9.25369
 11
-9.38205
 21
-9.23409
  0
LINE
  8
0
 10
-9.38205
 20
-9.23409
 11
-9.39906
 21
-9.21417
  0
LINE
  8
0
 10
-9.39906
 20
-9.21417
 11
-9.41571
 21
-9.19397
  0
LINE
  8
0
 10
-9.41571
 20
-9.19397
 11
-9.43201
 21
-9.17348
  0
LINE
  8
0
 10
-9.43201
 20
-9.17348
 11
-9.44795
 21
-9.15271
  0
LINE
  8
0
 10
-9.44795
 20
-9.15271
 11
-9.46352
 21
-9.13167
  0
LINE
  8
0
 10
-9.46352
 20
-9.13167
 11
-9.47871
 21
-9.11035
  0
LINE
  8
0
 10
-9.47871
 20
-9.11035
 11
-9.49355
 21
-9.08878
  0
LINE
  8
0
 10
-9.49355
 20
-9.08878
 11
-9.508
 21
-9.06696
  0
LINE
  8
0
 10
-9.508
 20
-9.06696
 11
-9.52206
 21
-9.04488
  0
LINE
  8
0
 10
-9.52206
 20
-9.04488
 11
-9.53574
 21
-9.02255
  0
LINE
  8
0
 10
-9.53574
 20
-9.02255
 11
-9.54903
 21
-9
  0
LINE
  8
0
 10
-9.54903
 20
-9
 11
-9.56192
 21
-8.9772
  0
LINE
  8
0
 10
-9.56192
 20
-8.9772
 11
-9.57442
 21
-8.95419
  0
LINE
  8
0
 10
-9.57442
 20
-8.95419
 11
-9.5865
 21
-8.93098
  0
LINE
  8
0
 10
-9.5865
 20
-8.93098
 11
-9.59819
 21
-8.90755
  0
LINE
  8
0
 10
-9.59819
 20
-8.90755
 11
-9.60945
 21
-8.88393
  0
LINE
  8
0
 10
-9.60945
 20
-8.88393
 11
-9.62032
 21
-8.86009
  0
LINE
  8
0
 10
-9.62032
 20
-8.86009
 11
-9.63075
 21
-8.83609
  0
LINE
  8
0
 10
-9.63075
 20
-8.83609
 11
-9.64076
 21
-8.8119
  0
LINE
  8
0
 10
-9.64076
 20
-8.8119
 11
-9.65036
 21
-8.78755
  0
LINE
  8
0
 10
-9.65036
 20
-8.78755
 11
-9.65953
 21
-8.76302
  0
LINE
  8
0
 10
-9.65953
 20
-8.76302
 11
-9.66827
 21
-8.73834
  0
LINE
  8
0
 10
-9.66827
 20
-8.73834
 11
-9.67657
 21
-8.71352
  0
LINE
  8
0
 10
-9.67657
 20
-8.71352
 11
-9.68445
 21
-8.68855
  0
LINE
  8
0
 10
-9.68445
 20
-8.68855
 11
-9.69188
 21
-8.66345
  0
LINE
  8
0
 10
-9.69188
 20
-8.66345
 11
-9.69888
 21
-8.63821
  0
LINE
  8
0
 10
-9.69888
 20
-8.63821
 11
-9.70543
 21
-8.61287
  0
LINE
  8
0
 10
-9.70543
 20
-8.61287
 11
-9.71155
 21
-8.58742
  0
LINE
  8
0
 10
-9.71155
 20
-8.58742
 11
-9.71721
 21
-8.56186
  0
LINE
  8
0
 10
-9.71721
 20
-8.56186
 11
-9.72243
 21
-8.53621
  0
LINE
  8
0
 10
-9.72243
 20
-8.53621
 11
-9.7272
 21
-8.51047
  0
LINE
  8
0
 10
-9.7272
 20
-8.51047
 11
-9.73152
 21
-8.48465
  0
LINE
  8
0
 10
-9.73152
 20
-8.48465
 11
-9.7354
 21
-8.45876
  0
LINE
  8
0
 10
-9.7354
 20
-8.45876
 11
-9.73882
 21
-8.4328
  0
LINE
  8
0
 10
-9.73882
 20
-8.4328
 11
-9.74178
 21
-8.40678
  0
LINE
  8
0
 10
-9.74178
 20
-8.40678
 11
-9.74428
 21
-8.38072
  0
LINE
  8
0
 10
-9.74428
 20
-8.38072
 11
-9.74634
 21
-8.35463
  0
LINE
  8
0
 10
-9.74634
 20
-8.35463
 11
-9.74794
 21
-8.32849
  0
LINE
  8
0
 10
-9.74794
 20
-8.32849
 11
-9.74908
 21
-8.30234
  0
LINE
  8
0
 10
-9.74908
 20
-8.30234
 11
-9.74977
 21
-8.27617
  0
LINE
  8
0
 10
-9.74977
 20
-8.27617
 11
-9.75
 21
-8.25
  0
LINE
  8
0
 10
-9.75
 20
-8.25
 11
-9.74977
 21
-8.22382
  0
LINE
  8
0
 10
-9.74977
 20
-8.22382
 11
-9.74908
 21
-8.19765
  0
LINE
  8
0
 10
-9.74908
 20
-8.19765
 11
-9.74794
 21
-8.17149
  0
LINE
  8
0
 10
-9.74794
 20
-8.17149
 11
-9.74634
 21
-8.14536
  0
LINE
  8
0
 10
-9.74634
 20
-8.14536
 11
-9.74428
 21
-8.11926
  0
LINE
  8
0
 10
-9.74428
 20
-8.11926
 11
-9.74178
 21
-8.0932
  0
LINE
  8
0
 10
-9.74178
 20
-8.0932
 11
-9.73882
 21
-8.06718
  0
LINE
  8
0
 10
-9.73882
 20
-8.06718
 11
-9.7354
 21
-8.04123
  0
LINE
  8
0
 10
-9.7354
 20
-8.04123
 11
-9.73152
 21
-8.01534
  0
LINE
  8
0
 10
-9.73152
 20
-8.01534
 11
-9.7272
 21
-7.98952
  0
LINE
  8
0
 10
-9.7272
 20
-7.98952
 11
-9.72243
 21
-7.96378
  0
LINE
  8
0
 10
-9.72243
 20
-7.96378
 11
-9.71721
 21
-7.93813
  0
LINE
  8
0
 10
-9.71721
 20
-7.93813
 11
-9.71155
 21
-7.91257
  0
LINE
  8
0
 10
-9.71155
 20
-7.91257
 11
-9.70543
 21
-7.88712
  0
LINE
  8
0
 10
-9.70543
 20
-7.88712
 11
-9.69888
 21
-7.86177
  0
LINE
  8
0
 10
-9.69888
 20
-7.86177
 11
-9.69188
 21
-7.83653
  0
LINE
  8
0
 10
-9.69188
 20
-7.83653
 11
-9.68445
 21
-7.81143
  0
LINE
  8
0
 10
-9.68445
 20
-7.81143
 11
-9.67657
 21
-7.78647
  0
LINE
  8
0
 10
-9.67657
 20
-7.78647
 11
-9.66827
 21
-7.76164
  0
LINE
  8
0
 10
-9.66827
 20
-7.76164
 11
-9.65953
 21
-7.73697
  0
LINE
  8
0
 10
-9.65953
 20
-7.73697
 11
-9.65036
 21
-7.71243
  0
LINE
  8
0
 10
-9.65036
 20
-7.71243
 11
-9.64076
 21
-7.68808
  0
LINE
  8
0
 10
-9.64076
 20
-7.68808
 11
-9.63075
 21
-7.66389
  0
LINE
  8
0
 10
-9.63075
 20
-7.66389
 11
-9.62032
 21
-7.63989
  0
LINE
  8
0
 10
-9.62032
 20
-7.63989
 11
-9.60945
 21
-7.61606
  0
LINE
  8
0
 10
-9.60945
 20
-7.61606
 11
-9.59819
 21
-7.59244
  0
LINE
  8
0
 10
-9.59819
 20
-7.59244
 11
-9.5865
 21
-7.569
  0
LINE
  8
0
 10
-9.5865
 20
-7.569
 11
-9.57442
 21
-7.54579
  0
LINE
  8
0
 10
-9.57442
 20
-7.54579
 11
-9.56192
 21
-7.52278
  0
LINE
  8
0
 10
-9.56192
 20
-7.52278
 11
-9.54903
 21
-7.5
  0
LINE
  8
0
 10
-9.54903
 20
-7.5
 11
-9.53574
 21
-7.47743
  0
LINE
  8
0
 10
-9.53574
 20
-7.47743
 11
-9.52206
 21
-7.45511
  0
LINE
  8
0
 10
-9.52206
 20
-7.45511
 11
-9.508
 21
-7.43303
  0
LINE
  8
0
 10
-9.508
 20
-7.43303
 11
-9.49355
 21
-7.41121
  0
LINE
  8
0
 10
-9.49355
 20
-7.41121
 11
-9.47871
 21
-7.38963
  0
LINE
  8
0
 10
-9.47871
 20
-7.38963
 11
-9.46352
 21
-7.36832
  0
LINE
  8
0
 10
-9.46352
 20
-7.36832
 11
-9.44795
 21
-7.34727
  0
LINE
  8
0
 10
-9.44795
 20
-7.34727
 11
-9.43201
 21
-7.32651
  0
LINE
  8
0
 10
-9.43201
 20
-7.32651
 11
-9.41571
 21
-7.30602
  0
LINE
  8
0
 10
-9.41571
 20
-7.30602
 11
-9.39906
 21
-7.28581
  0
LINE
  8
0
 10
-9.39906
 20
-7.28581
 11
-9.38205
 21
-7.2659
  0
LINE
  8
0
 10
-9.38205
 20
-7.2659
 11
-9.36472
 21
-7.24629
  0
LINE
  8
0
 10
-9.36472
 20
-7.24629
 11
-9.34702
 21
-7.22699
  0
LINE
  8
0
 10
-9.34702
 20
-7.22699
 11
-9.32899
 21
-7.20801
  0
LINE
  8
0
 10
-9.32899
 20
-7.20801
 11
-9.31065
 21
-7.18933
  0
LINE
  8
0
 10
-9.31065
 20
-7.18933
 11
-9.29198
 21
-7.17099
  0
LINE
  8
0
 10
-9.29198
 20
-7.17099
 11
-9.27299
 21
-7.15297
  0
LINE
  8
0
 10
-9.27299
 20
-7.15297
 11
-9.25369
 21
-7.13527
  0
LINE
  8
0
 10
-9.25369
 20
-7.13527
 11
-9.23409
 21
-7.11794
  0
LINE
  8
0
 10
-9.23409
 20
-7.11794
 11
-9.21417
 21
-7.10092
  0
LINE
  8
0
 10
-9.21417
 20
-7.10092
 11
-9.19397
 21
-7.08427
  0
LINE
  8
0
 10
-9.19397
 20
-7.08427
 11
-9.17348
 21
-7.06798
  0
LINE
  8
0
 10
-9.17348
 20
-7.06798
 11
-9.15271
 21
-7.05203
  0
LINE
  8
0
 10
-9.15271
 20
-7.05203
 11
-9.13167
 21
-7.03647
  0
LINE
  8
0
 10
-9.13167
 20
-7.03647
 11
-9.11035
 21
-7.02127
  0
LINE
  8
0
 10
-9.11035
 20
-7.02127
 11
-9.08878
 21
-7.00644
  0
LINE
  8
0
 10
-9.08878
 20
-7.00644
 11
-9.06696
 21
-6.99199
  0
LINE
  8
0
 10
-9.06696
 20
-6.99199
 11
-9.04488
 21
-6.97792
  0
LINE
  8
0
 10
-9.04488
 20
-6.97792
 11
-9.02255
 21
-6.96425
  0
LINE
  8
0
 10
-9.02255
 20
-6.96425
 11
-9
 21
-6.95096
  0
LINE
  8
0
 10
-9
 20
-6.95096
 11
-8.9772
 21
-6.93806
  0
LINE
  8
0
 10
-8.9772
 20
-6.93806
 11
-8.95419
 21
-6.92557
  0
LINE
  8
0
 10
-8.95419
 20
-6.92557
 11
-8.93098
 21
-6.91348
  0
LINE
  8
0
 10
-8.93098
 20
-6.91348
 11
-8.90755
 21
-6.90179
  0
LINE
  8
0
 10
-8.90755
 20
-6.90179
 11
-8.88393
 21
-6.89053
  0
LINE
  8
0
 10
-8.88393
 20
-6.89053
 11
-8.86009
 21
-6.87967
  0
LINE
  8
0
 10
-8.86009
 20
-6.87967
 11
-8.83609
 21
-6.86923
  0
LINE
  8
0
 10
-8.83609
 20
-6.86923
 11
-8.8119
 21
-6.85922
  0
LINE
  8
0
 10
-8.8119
 20
-6.85922
 11
-8.78755
 21
-6.84962
  0
LINE
  8
0
 10
-8.78755
 20
-6.84962
 11
-8.76302
 21
-6.84045
  0
LINE
  8
0
 10
-8.76302
 20
-6.84045
 11
-8.73834
 21
-6.83171
  0
LINE
  8
0
 10
-8.73834
 20
-6.83171
 11
-8.71352
 21
-6.82341
  0
LINE
  8
0
 10
-8.71352
 20
-6.82341
 11
-8.68855
 21
-6.81554
  0
LINE
  8
0
 10
-8.68855
 20
-6.81554
 11
-8.66345
 21
-6.80811
  0
LINE
  8
0
 10
-8.66345
 20
-6.80811
 11
-8.63821
 21
-6.8011
  0
LINE
  8
0
 10
-8.63821
 20
-6.8011
 11
-8.61287
 21
-6.79456
  0
LINE
  8
0
 10
-8.61287
 20
-6.79456
 11
-8.58742
 21
-6.78844
  0
LINE
  8
0
 10
-8.58742
 20
-6.78844
 11
-8.56186
 21
-6.78278
  0
LINE
  8
0
 10
-8.56186
 20
-6.78278
 11
-8.53621
 21
-6.77756
  0
LINE
  8
0
 10
-8.53621
 20
-6.77756
 11
-8.51047
 21
-6.77278
  0
LINE
  8
0
 10
-8.51047
 20
-6.77278
 11
-8.48465
 21
-6.76846
  0
LINE
  8
0
 10
-8.48465
 20
-6.76846
 11
-8.45876
 21
-6.76459
  0
LINE
  8
0
 10
-8.45876
 20
-6.76459
 11
-8.4328
 21
-6.76117
  0
LINE
  8
0
 10
-8.4328
 20
-6.76117
 11
-8.40678
 21
-6.75821
  0
LINE
  8
0
 10
-8.40678
 20
-6.75821
 11
-8.38072
 21
-6.75571
  0
LINE
  8
0
 10
-8.38072
 20
-6.75571
 11
-8.35463
 21
-6.75365
  0
LINE
  8
0
 10
-8.35463
 20
-6.75365
 11
-8.32849
 21
-6.75204
  0
LINE
  8
0
 10
-8.32849
 20
-6.75204
 11
-8.30234
 21
-6.7509
  0
LINE
  8
0
 10
-8.30234
 20
-6.7509
 11
-8.27617
 21
-6.75021
  0
LINE
  8
0
 10
-8.27617
 20
-6.75021
 11
-8.25
 21
-6.75
  0
LINE
  8
0
 10
-8.25
 20
-6.75
 11
-8.22382
 21
-6.75021
  0
LINE
  8
0
 10
-8.22382
 20
-6.75021
 11
-8.19765
 21
-6.7509
  0
LINE
  8
0
 10
-8.19765
 20
-6.7509
 11
-8.17149
 21
-6.75204
  0
LINE
  8
0
 10
-8.17149
 20
-6.75204
 11
-8.14536
 21
-6.75365
  0
LINE
  8
0
 10
-8.14536
 20
-6.75365
 11
-8.11926
 21
-6.75571
  0
LINE
  8
0
 10
-8.11926
 20
-6.75571
 11
-8.0932
 21
-6.75821
  0
LINE
  8
0
 10
-8.0932
 20
-6.75821
 11
-8.06718
 21
-6.76117
  0
LINE
  8
0
 10
-8.06718
 20
-6.76117
 11
-8.04123
 21
-6.76459
  0
LINE
  8
0
 10
-8.04123
 20
-6.76459
 11
-8.01534
 21
-6.76846
  0
LINE
  8
0
 10
-8.01534
 20
-6.76846
 11
-7.98952
 21
-6.77278
  0
LINE
  8
0
 10
-7.98952
 20
-6.77278
 11
-7.96378
 21
-6.77756
  0
LINE
  8
0
 10
-7.96378
 20
-6.77756
 11
-7.93813
 21
-6.78278
  0
LINE
  8
0
 10
-7.93813
 20
-6.78278
 11
-7.91257
 21
-6.78844
  0
LINE
  8
0
 10
-7.91257
 20
-6.78844
 11
-7.88712
 21
-6.79456
  0
LINE
  8
0
 10
-7.88712
 20
-6.79456
 11
-7.86177
 21
-6.8011
  0
LINE
  8
0
 10
-7.86177
 20
-6.8011
 11
-7.83653
 21
-6.80811
  0
LINE
  8
0
 10
-7.83653
 20
-6.80811
 11
-7.81143
 21
-6.81554
  0
LINE
  8
0
 10
-7.81143
 20
-6.81554
 11
-7.78647
 21
-6.82341
  0
LINE
  8
0
 10
-7.78647
 20
-6.82341
 11
-7.76164
 21
-6.83171
  0
LINE
  8
0
 10
-7.76164
 20
-6.83171
 11
-7.73697
 21
-6.84045
  0
LINE
  8
0
 10
-7.73697
 20
-6.84045
 11
-7.71243
 21
-6.84962
  0
LINE
  8
0
 10
-7.71243
 20
-6.84962
 11
-7.68808
 21
-6.85922
  0
LINE
  8
0
 10
-7.68808
 20
-6.85922
 11
-7.66389
 21
-6.86923
  0
LINE
  8
0
 10
-7.66389
 20
-6.86923
 11
-7.63989
 21
-6.87967
  0
LINE
  8
0
 10
-7.63989
 20
-6.87967
 11
-7.61606
 21
-6.89053
  0
LINE
  8
0
 10
-7.61606
 20
-6.89053
 11
-7.59244
 21
-6.90179
  0
LINE
  8
0
 10
-7.59244
 20
-6.90179
 11
-7.569
 21
-6.91348
  0
LINE
  8
0
 10
-7.569
 20
-6.91348
 11
-7.54579
 21
-6.92557
  0
LINE
  8
0
 10
-7.54579
 20
-6.92557
 11
-7.52278
 21
-6.93806
  0
LINE
  8
0
 10
-7.52278
 20
-6.93806
 11
-7.5
 21
-6.95096
  0
LINE
  8
0
 10
-7.5
 20
-6.95096
 11
-7.47743
 21
-6.96425
  0
LINE
  8
0
 10
-7.47743
 20
-6.96425
 11
-7.45511
 21
-6.97792
  0
LINE
  8
0
 10
-7.45511
 20
-6.97792
 11
-7.43303
 21
-6.99199
  0
LINE
  8
0
 10
-7.43303
 20
-6.99199
 11
-7.41121
 21
-7.00644
  0
LINE
  8
0
 10
-7.41121
 20
-7.00644
 11
-7.38963
 21
-7.02127
  0
LINE
  8
0
 10
-7.38963
 20
-7.02127
 11
-7.36832
 21
-7.03647
  0
LINE
  8
0
 10
-7.36832
 20
-7.03647
 11
-7.34727
 21
-7.05203
  0
LINE
  8
0
 10
-7.34727
 20
-7.05203
 11
-7.32651
 21
-7.06798
  0
LINE
  8
0
 10
-7.32651
 20
-7.06798
 11
-7.30602
 21
-7.08427
  0
LINE
  8
0
 10
-7.30602
 20
-7.08427
 11
-7.28581
 21
-7.10092
  0
LINE
  8
0
 10
-7.28581
 20
-7.10092
 11
-7.2659
 21
-7.11794
  0
LINE
  8
0
 10
-7.2659
 20
-7.11794
 11
-7.24629
 21
-7.13527
  0
LINE
  8
0
 10
-7.24629
 20
-7.13527
 11
-7.22699
 21
-7.15297
  0
LINE
  8
0
 10
-7.22699
 20
-7.15297
 11
-7.20801
 21
-7.17099
  0
LINE
  8
0
 10
-7.20801
 20
-7.17099
 11
-7.18933
 21
-7.18933
  0
LINE
  8
0
 10
-7.18933
 20
-7.18933
 11
-7.17099
 21
-7.20801
  0
LINE
  8
0
 10
-7.17099
 20
-7.20801
 11
-7.15297
 21
-7.22699
  0
LINE
  8
0
 10
-7.15297
 20
-7.22699
 11
-7.13527
 21
-7.24629
  0
LINE
  8
0
 10
-7.13527
 20
-7.24629
 11
-7.11794
 21
-7.2659
  0
LINE
  8
0
 10
-7.11794
 20
-7.2659
 11
-7.10092
 21
-7.28581
  0
LINE
  8
0
 10
-7.10092
 20
-7.28581
 11
-7.08427
 21
-7.30602
  0
LINE
  8
0
 10
-7.08427
 20
-7.30602
 11
-7.06798
 21
-7.32651
  0
LINE
  8
0
 10
-7.06798
 20
-7.32651
 11
-7.05203
 21
-7.34727
  0
LINE
  8
0
 10
-7.05203
 20
-7.34727
 11
-7.03647
 21
-7.36832
  0
LINE
  8
0
 10
-7.03647
 20
-7.36832
 11
-7.02127
 21
-7.38963
  0
LINE
  8
0
 10
-7.02127
 20
-7.38963
 11
-7.00644
 21
-7.41121
  0
LINE
  8
0
 10
-7.00644
 20
-7.41121
 11
-6.99199
 21
-7.43303
  0
LINE
  8
0
 10
-6.99199
 20
-7.43303
 11
-6.97792
 21
-7.45511
  0
LINE
  8
0
 10
-6.97792
 20
-7.45511
 11
-6.96425
 21
-7.47743
  0
LINE
  8
0
 10
-6.96425
 20
-7.47743
 11
-6.95096
 21
-7.5
  0
LINE
  8
0
 10
-6.95096
 20
-7.5
 11
-6.93806
 21
-7.52278
  0
LINE
  8
0
 10
-6.93806
 20
-7.52278
 11
-6.92557
 21
-7.54579
  0
LINE
  8
0
 10
-6.92557
 20
-7.54579
 11
-6.91348
 21
-7.569
  0
LINE
  8
0
 10
-6.91348
 20
-7.569
 11
-6.90179
 21
-7.59244
  0
LINE
  8
0
 10
-6.90179
 20
-7.59244
 11
-6.89053
 21
-7.61606
  0
LINE
  8
0
 10
-6.89053
 20
-7.61606
 11
-6.87967
 21
-7.63989
  0
LINE
  8
0
 10
-6.87967
 20
-7.63989
 11
-6.86923
 21
-7.66389
  0
LINE
  8
0
 10
-6.86923
 20
-7.66389
 11
-6.85922
 21
-7.68808
  0
LINE
  8
0
 10
-6.85922
 20
-7.68808
 11
-6.84962
 21
-7.71243
  0
LINE
  8
0
 10
-6.84962
 20
-7.71243
 11
-6.84045
 21
-7.73697
  0
LINE
  8
0
 10
-6.84045
 20
-7.73697
 11
-6.83171
 21
-7.76164
  0
LINE
  8
0
 10
-6.83171
 20
-7.76164
 11
-6.82341
 21
-7.78647
  0
LINE
  8
0
 10
-6.82341
 20
-7.78647
 11
-6.81554
 21
-7.81143
  0
LINE
  8
0
 10
-6.81554
 20
-7.81143
 11
-6.80811
 21
-7.83653
  0
LINE
  8
0
 10
-6.80811
 20
-7.83653
 11
-6.8011
 21
-7.86177
  0
LINE
  8
0
 10
-6.8011
 20
-7.86177
 11
-6.79456
 21
-7.88712
  0
LINE
  8
0
 10
-6.79456
 20
-7.88712
 11
-6.78844
 21
-7.91257
  0
LINE
  8
0
 10
-6.78844
 20
-7.91257
 11
-6.78278
 21
-7.93813
  0
LINE
  8
0
 10
-6.78278
 20
-7.93813
 11
-6.77756
 21
-7.96378
  0
LINE
  8
0
 10
-6.77756
 20
-7.96378
 11
-6.77278
 21
-7.98952
  0
LINE
  8
0
 10
-6.77278
 20
-7.98952
 11
-6.76846
 21
-8.01534
  0
LINE
  8
0
 10
-6.76846
 20
-8.01534
 11
-6.76459
 21
-8.04123
  0
LINE
  8
0
 10
-6.76459
 20
-8.04123
 11
-6.76117
 21
-8.06718
  0
LINE
  8
0
 10
-6.76117
 20
-8.06718
 11
-6.75821
 21
-8.0932
  0
LINE
  8
0
 10
-6.75821
 20
-8.0932
 11
-6.75571
 21
-8.11926
  0
LINE
  8
0
 10
-6.75571
 20
-8.11926
 11
-6.75365
 21
-8.14536
  0
LINE
  8
0
 10
-6.75365
 20
-8.14536
 11
-6.75204
 21
-8.17149
  0
LINE
  8
0
 10
-6.75204
 20
-8.17149
 11
-6.7509
 21
-8.19765
  0
LINE
  8
0
 10
-6.7509
 20
-8.19765
 11
-6.75021
 21
-8.22382
  0
LINE
  8
0
 10
-6.75021
 20
-8.22382
 11
-6.75
 21
-8.25
  0
LINE
  8
0
 10
-6.75
 20
-8.25
 11
-6.75021
 21
-8.27617
  0
LINE
  8
0
 10
-6.75021
 20
-8.27617
 11
-6.7509
 21
-8.30234
  0
LINE
  8
0
 10
-6.7509
 20
-8.30234
 11
-6.75204
 21
-8.32849
  0
LINE
  8
0
 10
-6.75204
 20
-8.32849
 11
-6.75365
 21
-8.35463
  0
LINE
  8
0
 10
-6.75365
 20
-8.35463
 11
-6.75571
 21
-8.38072
  0
LINE
  8
0
 10
-6.75571
 20
-8.38072
 11
-6.75821
 21
-8.40678
  0
LINE
  8
0
 10
-6.75821
 20
-8.40678
 11
-6.76117
 21
-8.4328
  0
LINE
  8
0
 10
-6.76117
 20
-8.4328
 11
-6.76459
 21
-8.45876
  0
LINE
  8
0
 10
-6.76459
 20
-8.45876
 11
-6.76846
 21
-8.48465
  0
LINE
  8
0
 10
-6.76846
 20
-8.48465
 11
-6.77278
 21
-8.51047
  0
LINE
  8
0
 10
-6.77278
 20
-8.51047
 11
-6.77756
 21
-8.53621
  0
LINE
  8
0
 10
-6.77756
 20
-8.53621
 11
-6.78278
 21
-8.56186
  0
LINE
  8
0
 10
-6.78278
 20
-8.56186
 11
-6.78844
 21
-8.58742
  0
LINE
  8
0
 10
-6.78844
 20
-8.58742
 11
-6.79456
 21
-8.61287
  0
LINE
  8
0
 10
-6.79456
 20
-8.61287
 11
-6.8011
 21
-8.63821
  0
LINE
  8
0
 10
-6.8011
 20
-8.63821
 11
-6.80811
 21
-8.66345
  0
LINE
  8
0
 10
-6.80811
 20
-8.66345
 11
-6.81554
 21
-8.68855
  0
LINE
  8
0
 10
-6.81554
 20
-8.68855
 11
-6.82341
 21
-8.71352
  0
LINE
  8
0
 10
-6.82341
 20
-8.71352
 11
-6.83171
 21
-8.73834
  0
LINE
  8
0
 10
-6.83171
 20
-8.73834
 11
-6.84045
 21
-8.76302
  0
LINE
  8
0
 10
-6.84045
 20
-8.76302
 11
-6.84962
 21
-8.78755
  0
LINE
  8
0
 10
-6.84962
 20
-8.78755
 11
-6.85922
 21
-8.8119
  0
LINE
  8
0
 10
-6.85922
 20
-8.8119
 11
-6.86923
 21
-8.83609
  0
LINE
  8
0
 10
-6.86923
 20
-8.83609
 11
-6.87967
 21
-8.86009
  0
LINE
  8
0
 10
-6.87967
 20
-8.86009
 11
-6.89053
 21
-8.88393
  0
LINE
  8
0
 10
-6.89053
 20
-8.88393
 11
-6.90179
 21
-8.90755
  0
LINE
  8
0
 10
-6.90179
 20
-8.90755
 11
-6.91348
 21
-8.93098
  0
LINE
  8
0
 10
-6.91348
 20
-8.93098
 11
-6.92557
 21
-8.95419
  0
LINE
  8
0
 10
-6.92557
 20
-8.95419
 11
-6.93806
 21
-8.9772
  0
LINE
  8
0
 10
-6.93806
 20
-8.9772
 11
-6.95096
 21
-9
  0
LINE
  8
0
 10
-6.95096
 20
-9
 11
-6.96425
 21
-9.02255
  0
LINE
  8
0
 10
-6.96425
 20
-9.02255
 11
-6.97792
 21
-9.04488
  0
LINE
  8
0
 10
-6.97792
 20
-9.04488
 11
-6.99199
 21
-9.06696
  0
LINE
  8
0
 10
-6.99199
 20
-9.06696
 11
-7.00644
 21
-9.08878
  0
LINE
  8
0
 10
-7.00644
 20
-9.08878
 11
-7.02127
 21
-9.11035
  0
LINE
  8
0
 10
-7.02127
 20
-9.11035
 11
-7.03647
 21
-9.13167
  0
LINE
  8
0
 10
-7.03647
 20
-9.13167
 11
-7.05203
 21
-9.15271
  0
LINE
  8
0
 10
-7.05203
 20
-9.15271
 11
-7.06798
 21
-9.17348
  0
LINE
  8
0
 10
-7.06798
 20
-9.17348
 11
-7.08427
 21
-9.19397
  0
LINE
  8
0
 10
-7.08427
 20
-9.19397
 11
-7.10092
 21
-9.21417
  0
LINE
  8
0
 10
-7.10092
 20
-9.21417
 11
-7.11794
 21
-9.23409
  0
LINE
  8
0
 10
-7.11794
 20
-9.23409
 11
-7.13527
 21
-9.25369
  0
LINE
  8
0
 10
-7.13527
 20
-9.25369
 11
-7.15297
 21
-9.27299
  0
LINE
  8
0
 10
-7.15297
 20
-9.27299
 11
-7.17099
 21
-9.29198
  0
LINE
  8
0
 10
-7.17099
 20
-9.29198
 11
-7.18933
 21
-9.31065
  0
LINE
  8
0
 10
-7.18933
 20
-9.31065
 11
-7.20801
 21
-9.32899
  0
LINE
  8
0
 10
-7.20801
 20
-9.32899
 11
-7.22699
 21
-9.34702
  0
LINE
  8
0
 10
-7.22699
 20
-9.34702
 11
-7.24629
 21
-9.36472
  0
LINE
  8
0
 10
-7.24629
 20
-9.36472
 11
-7.2659
 21
-9.38205
  0
LINE
  8
0
 10
-7.2659
 20
-9.38205
 11
-7.28581
 21
-9.39906
  0
LINE
  8
0
 10
-7.28581
 20
-9.39906
 11
-7.30602
 21
-9.41571
  0
LINE
  8
0
 10
-7.30602
 20
-9.41571
 11
-7.32651
 21
-9.43201
  0
LINE
  8
0
 10
-7.32651
 20
-9.43201
 11
-7.34727
 21
-9.44795
  0
LINE
  8
0
 10
-7.34727
 20
-9.44795
 11
-7.36832
 21
-9.46352
  0
LINE
  8
0
 10
-7.36832
 20
-9.46352
 11
-7.38963
 21
-9.47871
  0
LINE
  8
0
 10
-7.38963
 20
-9.47871
 11
-7.41121
 21
-9.49355
  0
LINE
  8
0
 10
-7.41121
 20
-9.49355
 11
-7.43303
 21
-9.508
  0
LINE
  8
0
 10
-7.43303
 20
-9.508
 11
-7.45511
 21
-9.52206
  0
LINE
  8
0
 10
-7.45511
 20
-9.52206
 11
-7.47743
 21
-9.53574
  0
LINE
  8
0
 10
-7.47743
 20
-9.53574
 11
-7.5
 21
-9.54903
  0
LINE
  8
0
 10
-7.5
 20
-9.54903
 11
-7.52278
 21
-9.56192
  0
LINE
  8
0
 10
-7.52278
 20
-9.56192
 11
-7.54579
 21
-9.57442
  0
LINE
  8
0
 10
-7.54579
 20
-9.57442
 11
-7.569
 21
-9.5865
  0
LINE
  8
0
 10
-7.569
 20
-9.5865
 11
-7.59244
 21
-9.59819
  0
LINE
  8
0
 10
-7.59244
 20
-9.59819
 11
-7.61606
 21
-9.60945
  0
LINE
  8
0
 10
-7.61606
 20
-9.60945
 11
-7.63989
 21
-9.62032
  0
LINE
  8
0
 10
-7.63989
 20
-9.62032
 11
-7.66389
 21
-9.63075
  0
LINE
  8
0
 10
-7.66389
 20
-9.63075
 11
-7.68808
 21
-9.64076
  0
LINE
  8
0
 10
-7.68808
 20
-9.64076
 11
-7.71243
 21
-9.65036
  0
LINE
  8
0
 10
-7.71243
 20
-9.65036
 11
-7.73697
 21
-9.65953
  0
LINE
  8
0
 10
-7.73697
 20
-9.65953
 11
-7.76164
 21
-9.66827
  0
LINE
  8
0
 10
-7.76164
 20
-9.66827
 11
-7.78647
 21
-9.67657
  0
LINE
  8
0
 10
-7.78647
 20
-9.67657
 11
-7.81143
 21
-9.68445
  0
LINE
  8
0
 10
-7.81143
 20
-9.68445
 11
-7.83653
 21
-9.69188
  0
LINE
  8
0
 10
-7.83653
 20
-9.69188
 11
-7.86177
 21
-9.69888
  0
LINE
  8
0
 10
-7.86177
 20
-9.69888
 11
-7.88712
 21
-9.70543
  0
LINE
  8
0
 10
-7.88712
 20
-9.70543
 11
-7.91257
 21
-9.71155
  0
LINE
  8
0
 10
-7.91257
 20
-9.71155
 11
-7.93813
 21
-9.71721
  0
LINE
  8
0
 10
-7.93813
 20
-9.71721
 11
-7.96378
 21
-9.72243
  0
LINE
  8
0
 10
-7.96378
 20
-9.72243
 11
-7.98952
 21
-9.7272
  0
LINE
  8
0
 10
-7.98952
 20
-9.7272
 11
-8.01534
 21
-9.73152
  0
LINE
  8
0
 10
-8.01534
 20
-9.73152
 11
-8.04123
 21
-9.7354
  0
LINE
  8
0
 10
-8.04123
 20
-9.7354
 11
-8.06718
 21
-9.73882
  0
LINE
  8
0
 10
-8.06718
 20
-9.73882
 11
-8.0932
 21
-9.74178
  0
LINE
  8
0
 10
-8.0932
 20
-9.74178
 11
-8.11926
 21
-9.74428
  0
LINE
  8
0
 10
-8.11926
 20
-9.74428
 11
-8.14536
 21
-9.74634
  0
LINE
  8
0
 10
-8.14536
 20
-9.74634
 11
-8.17149
 21
-9.74794
  0
LINE
  8
0
 10
-8.17149
 20
-9.74794
 11
-8.19765
 21
-9.74908
  0
LINE
  8
0
 10
-8.19765
 20
-9.74908
 11
-8.22382
 21
-9.74977
  0
LINE
  8
0
 10
-8.22382
 20
-9.74977
 11
-8.25
 21
-9.75
  0
LINE
  8
0
 10
-8.25
 20
-9.75
 11
-8.27617
 21
-9.74977
  0
ENDSEC
  0
SECTION
  2
OBJECTS
  0
DICTIONARY
  0
ENDSEC
  0
EOF
